<?xml version="1.0" encoding="UTF-8" standalone="no"?>
<!DOCTYPE svg PUBLIC "-//W3C//DTD SVG 1.1//EN"
 "http://www.w3.org/Graphics/SVG/1.1/DTD/svg11.dtd">
<!-- Generated by graphviz version 2.43.0 (0)
 -->
<!-- Title: include/config.hpp Pages: 1 -->
<svg width="233pt" height="192pt"
 viewBox="0.00 0.00 233.00 192.00" xmlns="http://www.w3.org/2000/svg" xmlns:xlink="http://www.w3.org/1999/xlink">
<g id="graph0" class="graph" transform="scale(1 1) rotate(0) translate(4 188)">
<title>include/config.hpp</title>
<!-- Node1 -->
<g id="Node000001" class="node">
<title>Node1</title>
<g id="a_Node000001"><a xlink:title=" ">
<polygon fill="#999999" stroke="#666666" points="225,-184 120,-184 120,-165 225,-165 225,-184"/>
<text text-anchor="middle" x="172.5" y="-172" font-family="Helvetica,sans-Serif" font-size="10.00">include/config.hpp</text>
</a>
</g>
</g>
<!-- Node2 -->
<g id="Node000002" class="node">
<title>Node2</title>
<g id="a_Node000002"><a xlink:href="chunk_8hpp.html" target="_top" xlink:title="Template class for chunk&#45;based data processing.">
<polygon fill="white" stroke="#666666" points="185,-129 80,-129 80,-110 185,-110 185,-129"/>
<text text-anchor="middle" x="132.5" y="-117" font-family="Helvetica,sans-Serif" font-size="10.00">include/chunk.hpp</text>
</a>
</g>
</g>
<!-- Node1&#45;&gt;Node2 -->
<g id="edge1_Node000001_Node000002" class="edge">
<title>Node1&#45;&gt;Node2</title>
<g id="a_edge1_Node000001_Node000002"><a xlink:title=" ">
<path fill="none" stroke="#63b8ff" d="M159.8,-156.67C152.87,-147.5 144.59,-136.52 138.98,-129.09"/>
<polygon fill="#63b8ff" stroke="#63b8ff" points="157.08,-158.87 165.89,-164.75 162.66,-154.66 157.08,-158.87"/>
</a>
</g>
</g>
<!-- Node4 -->
<g id="Node000004" class="node">
<title>Node4</title>
<g id="a_Node000004"><a xlink:href="main_8cpp.html" target="_top" xlink:title=" ">
<polygon fill="white" stroke="#666666" points="215,-19 136,-19 136,0 215,0 215,-19"/>
<text text-anchor="middle" x="175.5" y="-7" font-family="Helvetica,sans-Serif" font-size="10.00">src/main.cpp</text>
</a>
</g>
</g>
<!-- Node1&#45;&gt;Node4 -->
<g id="edge5_Node000001_Node000004" class="edge">
<title>Node1&#45;&gt;Node4</title>
<g id="a_edge5_Node000001_Node000004"><a xlink:title=" ">
<path fill="none" stroke="#63b8ff" d="M183.07,-155.77C187.2,-147.86 191.42,-138.26 193.5,-129 202.6,-88.39 186.5,-38.91 179.01,-19.2"/>
<polygon fill="#63b8ff" stroke="#63b8ff" points="179.9,-154.28 178.08,-164.72 186.01,-157.69 179.9,-154.28"/>
</a>
</g>
</g>
<!-- Node3 -->
<g id="Node000003" class="node">
<title>Node3</title>
<g id="a_Node000003"><a xlink:href="parallel__chunk_8hpp.html" target="_top" xlink:title=" ">
<polygon fill="white" stroke="#666666" points="147,-74 0,-74 0,-55 147,-55 147,-74"/>
<text text-anchor="middle" x="73.5" y="-62" font-family="Helvetica,sans-Serif" font-size="10.00">include/parallel_chunk.hpp</text>
</a>
</g>
</g>
<!-- Node2&#45;&gt;Node3 -->
<g id="edge2_Node000002_Node000003" class="edge">
<title>Node2&#45;&gt;Node3</title>
<g id="a_edge2_Node000002_Node000003"><a xlink:title=" ">
<path fill="none" stroke="#63b8ff" d="M115.3,-103.04C104.83,-93.64 91.85,-81.98 83.15,-74.17"/>
<polygon fill="#63b8ff" stroke="#63b8ff" points="113.24,-105.91 123.02,-109.98 117.92,-100.7 113.24,-105.91"/>
</a>
</g>
</g>
<!-- Node2&#45;&gt;Node4 -->
<g id="edge4_Node000002_Node000004" class="edge">
<title>Node2&#45;&gt;Node4</title>
<g id="a_edge4_Node000002_Node000004"><a xlink:title=" ">
<path fill="none" stroke="#63b8ff" d="M142.42,-101.02C146.77,-92.95 151.73,-83.15 155.5,-74 163.34,-54.98 169.95,-31.71 173.25,-19.3"/>
<polygon fill="#63b8ff" stroke="#63b8ff" points="139.32,-99.4 137.54,-109.85 145.44,-102.79 139.32,-99.4"/>
</a>
</g>
</g>
<!-- Node3&#45;&gt;Node4 -->
<g id="edge3_Node000003_Node000004" class="edge">
<title>Node3&#45;&gt;Node4</title>
<g id="a_edge3_Node000003_Node000004"><a xlink:title=" ">
<path fill="none" stroke="#63b8ff" d="M98.77,-50.37C117.51,-40.63 142.52,-27.64 158.81,-19.17"/>
<polygon fill="#63b8ff" stroke="#63b8ff" points="97.15,-47.27 89.89,-54.98 100.38,-53.48 97.15,-47.27"/>
</a>
</g>
</g>
</g>
</svg>
