<?xml version="1.0" encoding="UTF-8" standalone="no"?>
<!DOCTYPE svg PUBLIC "-//W3C//DTD SVG 1.1//EN"
 "http://www.w3.org/Graphics/SVG/1.1/DTD/svg11.dtd">
<!-- Generated by graphviz version 2.43.0 (0)
 -->
<!-- Title: src/main.cpp Pages: 1 -->
<svg width="1168pt" height="247pt"
 viewBox="0.00 0.00 1168.00 247.00" xmlns="http://www.w3.org/2000/svg" xmlns:xlink="http://www.w3.org/1999/xlink">
<g id="graph0" class="graph" transform="scale(1 1) rotate(0) translate(4 243)">
<title>src/main.cpp</title>
<!-- Node1 -->
<g id="Node000001" class="node">
<title>Node1</title>
<g id="a_Node000001"><a xlink:title=" ">
<polygon fill="#999999" stroke="#666666" points="726.5,-239 647.5,-239 647.5,-220 726.5,-220 726.5,-239"/>
<text text-anchor="middle" x="687" y="-227" font-family="Helvetica,sans-Serif" font-size="10.00">src/main.cpp</text>
</a>
</g>
</g>
<!-- Node2 -->
<g id="Node000002" class="node">
<title>Node2</title>
<g id="a_Node000002"><a xlink:href="advanced__structures_8hpp.html" target="_top" xlink:title=" ">
<polygon fill="white" stroke="#666666" points="291.5,-129 152.5,-129 152.5,-110 291.5,-110 291.5,-129"/>
<text text-anchor="middle" x="222" y="-117" font-family="Helvetica,sans-Serif" font-size="10.00">advanced_structures.hpp</text>
</a>
</g>
</g>
<!-- Node1&#45;&gt;Node2 -->
<g id="edge1_Node000001_Node000002" class="edge">
<title>Node1&#45;&gt;Node2</title>
<g id="a_edge1_Node000001_Node000002"><a xlink:title=" ">
<path fill="none" stroke="#63b8ff" d="M647.25,-226.5C562.62,-221.82 367.34,-208.63 306,-184 279.13,-173.21 253.35,-151.46 237.6,-136.45"/>
<polygon fill="#63b8ff" stroke="#63b8ff" points="239.92,-133.82 230.33,-129.31 235.01,-138.81 239.92,-133.82"/>
</a>
</g>
</g>
<!-- Node6 -->
<g id="Node000006" class="node">
<title>Node6</title>
<g id="a_Node000006"><a xlink:title=" ">
<polygon fill="#e0e0e0" stroke="#999999" points="375.5,-74 328.5,-74 328.5,-55 375.5,-55 375.5,-74"/>
<text text-anchor="middle" x="352" y="-62" font-family="Helvetica,sans-Serif" font-size="10.00">vector</text>
</a>
</g>
</g>
<!-- Node1&#45;&gt;Node6 -->
<g id="edge48_Node000001_Node000006" class="edge">
<title>Node1&#45;&gt;Node6</title>
<g id="a_edge48_Node000001_Node000006"><a xlink:title=" ">
<path fill="none" stroke="#63b8ff" d="M647.36,-223.14C564.42,-211.03 377.17,-178.68 340,-129 330.16,-115.84 335.5,-96.96 341.88,-83.2"/>
<polygon fill="#63b8ff" stroke="#63b8ff" points="345.03,-84.74 346.51,-74.25 338.81,-81.53 345.03,-84.74"/>
</a>
</g>
</g>
<!-- Node7 -->
<g id="Node000007" class="node">
<title>Node7</title>
<g id="a_Node000007"><a xlink:href="chunk_8hpp.html" target="_top" xlink:title="Template class for chunk&#45;based data processing.">
<polygon fill="white" stroke="#666666" points="801.5,-129 734.5,-129 734.5,-110 801.5,-110 801.5,-129"/>
<text text-anchor="middle" x="768" y="-117" font-family="Helvetica,sans-Serif" font-size="10.00">chunk.hpp</text>
</a>
</g>
</g>
<!-- Node1&#45;&gt;Node7 -->
<g id="edge6_Node000001_Node000007" class="edge">
<title>Node1&#45;&gt;Node7</title>
<g id="a_edge6_Node000001_Node000007"><a xlink:title=" ">
<path fill="none" stroke="#63b8ff" d="M693.63,-219.66C707.1,-201.69 737.89,-160.64 755.34,-137.38"/>
<polygon fill="#63b8ff" stroke="#63b8ff" points="758.31,-139.26 761.51,-129.16 752.71,-135.06 758.31,-139.26"/>
</a>
</g>
</g>
<!-- Node10 -->
<g id="Node000010" class="node">
<title>Node10</title>
<g id="a_Node000010"><a xlink:href="config_8hpp.html" target="_top" xlink:title=" ">
<polygon fill="white" stroke="#666666" points="1031.5,-74 964.5,-74 964.5,-55 1031.5,-55 1031.5,-74"/>
<text text-anchor="middle" x="998" y="-62" font-family="Helvetica,sans-Serif" font-size="10.00">config.hpp</text>
</a>
</g>
</g>
<!-- Node1&#45;&gt;Node10 -->
<g id="edge24_Node000001_Node000010" class="edge">
<title>Node1&#45;&gt;Node10</title>
<g id="a_edge24_Node000001_Node000010"><a xlink:title=" ">
<path fill="none" stroke="#63b8ff" d="M726.57,-225.35C768.84,-220.75 836.92,-209.74 890,-184 924.66,-167.19 931.35,-157.75 957,-129 969.53,-114.95 980.89,-96.71 988.46,-83.39"/>
<polygon fill="#63b8ff" stroke="#63b8ff" points="991.7,-84.75 993.46,-74.31 985.57,-81.37 991.7,-84.75"/>
</a>
</g>
</g>
<!-- Node12 -->
<g id="Node000012" class="node">
<title>Node12</title>
<g id="a_Node000012"><a xlink:href="chunk__compression_8hpp.html" target="_top" xlink:title=" ">
<polygon fill="white" stroke="#666666" points="134,-129 0,-129 0,-110 134,-110 134,-129"/>
<text text-anchor="middle" x="67" y="-117" font-family="Helvetica,sans-Serif" font-size="10.00">chunk_compression.hpp</text>
</a>
</g>
</g>
<!-- Node1&#45;&gt;Node12 -->
<g id="edge13_Node000001_Node000012" class="edge">
<title>Node1&#45;&gt;Node12</title>
<g id="a_edge13_Node000001_Node000012"><a xlink:title=" ">
<path fill="none" stroke="#63b8ff" d="M647.22,-226.86C572.56,-223.21 406.69,-212.38 270,-184 208.14,-171.15 138.28,-147.11 98.76,-132.58"/>
<polygon fill="#63b8ff" stroke="#63b8ff" points="99.74,-129.21 89.15,-129.01 97.31,-135.78 99.74,-129.21"/>
</a>
</g>
</g>
<!-- Node14 -->
<g id="Node000014" class="node">
<title>Node14</title>
<g id="a_Node000014"><a xlink:href="chunk__strategies_8hpp.html" target="_top" xlink:title=" ">
<polygon fill="white" stroke="#666666" points="469.5,-129 348.5,-129 348.5,-110 469.5,-110 469.5,-129"/>
<text text-anchor="middle" x="409" y="-117" font-family="Helvetica,sans-Serif" font-size="10.00">chunk_strategies.hpp</text>
</a>
</g>
</g>
<!-- Node1&#45;&gt;Node14 -->
<g id="edge17_Node000001_Node000014" class="edge">
<title>Node1&#45;&gt;Node14</title>
<g id="a_edge17_Node000001_Node000014"><a xlink:title=" ">
<path fill="none" stroke="#63b8ff" d="M664.72,-219.84C615.49,-200.72 497.34,-154.82 440.54,-132.75"/>
<polygon fill="#63b8ff" stroke="#63b8ff" points="441.59,-129.41 431,-129.05 439.05,-135.93 441.59,-129.41"/>
</a>
</g>
</g>
<!-- Node16 -->
<g id="Node000016" class="node">
<title>Node16</title>
<g id="a_Node000016"><a xlink:href="data__structures_8hpp.html" target="_top" xlink:title=" ">
<polygon fill="white" stroke="#666666" points="639.5,-129 526.5,-129 526.5,-110 639.5,-110 639.5,-129"/>
<text text-anchor="middle" x="583" y="-117" font-family="Helvetica,sans-Serif" font-size="10.00">data_structures.hpp</text>
</a>
</g>
</g>
<!-- Node1&#45;&gt;Node16 -->
<g id="edge25_Node000001_Node000016" class="edge">
<title>Node1&#45;&gt;Node16</title>
<g id="a_edge25_Node000001_Node000016"><a xlink:title=" ">
<path fill="none" stroke="#63b8ff" d="M678.49,-219.66C660.96,-201.46 620.6,-159.55 598.38,-136.47"/>
<polygon fill="#63b8ff" stroke="#63b8ff" points="600.8,-133.93 591.34,-129.16 595.75,-138.79 600.8,-133.93"/>
</a>
</g>
</g>
<!-- Node19 -->
<g id="Node000019" class="node">
<title>Node19</title>
<g id="a_Node000019"><a xlink:href="parallel__chunk_8hpp.html" target="_top" xlink:title=" ">
<polygon fill="white" stroke="#666666" points="880.5,-184 771.5,-184 771.5,-165 880.5,-165 880.5,-184"/>
<text text-anchor="middle" x="826" y="-172" font-family="Helvetica,sans-Serif" font-size="10.00">parallel_chunk.hpp</text>
</a>
</g>
</g>
<!-- Node1&#45;&gt;Node19 -->
<g id="edge31_Node000001_Node000019" class="edge">
<title>Node1&#45;&gt;Node19</title>
<g id="a_edge31_Node000001_Node000019"><a xlink:title=" ">
<path fill="none" stroke="#63b8ff" d="M709.33,-219.98C732.2,-211.27 767.96,-197.63 793.86,-187.75"/>
<polygon fill="#63b8ff" stroke="#63b8ff" points="795.16,-191 803.26,-184.17 792.67,-184.46 795.16,-191"/>
</a>
</g>
</g>
<!-- Node22 -->
<g id="Node000022" class="node">
<title>Node22</title>
<g id="a_Node000022"><a xlink:href="utils_8hpp.html" target="_top" xlink:title=" ">
<polygon fill="white" stroke="#666666" points="716.5,-129 657.5,-129 657.5,-110 716.5,-110 716.5,-129"/>
<text text-anchor="middle" x="687" y="-117" font-family="Helvetica,sans-Serif" font-size="10.00">utils.hpp</text>
</a>
</g>
</g>
<!-- Node1&#45;&gt;Node22 -->
<g id="edge37_Node000001_Node000022" class="edge">
<title>Node1&#45;&gt;Node22</title>
<g id="a_edge37_Node000001_Node000022"><a xlink:title=" ">
<path fill="none" stroke="#63b8ff" d="M687,-219.66C687,-202.17 687,-162.8 687,-139.27"/>
<polygon fill="#63b8ff" stroke="#63b8ff" points="690.5,-139.16 687,-129.16 683.5,-139.16 690.5,-139.16"/>
</a>
</g>
</g>
<!-- Node25 -->
<g id="Node000025" class="node">
<title>Node25</title>
<g id="a_Node000025"><a xlink:title=" ">
<polygon fill="#e0e0e0" stroke="#999999" points="1082,-184 1026,-184 1026,-165 1082,-165 1082,-184"/>
<text text-anchor="middle" x="1054" y="-172" font-family="Helvetica,sans-Serif" font-size="10.00">iomanip</text>
</a>
</g>
</g>
<!-- Node1&#45;&gt;Node25 -->
<g id="edge46_Node000001_Node000025" class="edge">
<title>Node1&#45;&gt;Node25</title>
<g id="a_edge46_Node000001_Node000025"><a xlink:title=" ">
<path fill="none" stroke="#63b8ff" d="M726.65,-223.9C787.99,-216.59 909.53,-201.37 1012,-184 1013.1,-183.81 1014.22,-183.62 1015.34,-183.42"/>
<polygon fill="#63b8ff" stroke="#63b8ff" points="1016.39,-186.78 1025.58,-181.51 1015.11,-179.9 1016.39,-186.78"/>
</a>
</g>
</g>
<!-- Node26 -->
<g id="Node000026" class="node">
<title>Node26</title>
<g id="a_Node000026"><a xlink:title=" ">
<polygon fill="#e0e0e0" stroke="#999999" points="1160,-184 1100,-184 1100,-165 1160,-165 1160,-184"/>
<text text-anchor="middle" x="1130" y="-172" font-family="Helvetica,sans-Serif" font-size="10.00">iostream</text>
</a>
</g>
</g>
<!-- Node1&#45;&gt;Node26 -->
<g id="edge47_Node000001_Node000026" class="edge">
<title>Node1&#45;&gt;Node26</title>
<g id="a_edge47_Node000001_Node000026"><a xlink:title=" ">
<path fill="none" stroke="#63b8ff" d="M726.76,-225.51C797.7,-219.88 950.94,-206.36 1089.85,-184.03"/>
<polygon fill="#63b8ff" stroke="#63b8ff" points="1090.52,-187.46 1099.83,-182.4 1089.39,-180.55 1090.52,-187.46"/>
</a>
</g>
</g>
<!-- Node3 -->
<g id="Node000003" class="node">
<title>Node3</title>
<g id="a_Node000003"><a xlink:title=" ">
<polygon fill="#e0e0e0" stroke="#999999" points="234,-74 170,-74 170,-55 234,-55 234,-74"/>
<text text-anchor="middle" x="202" y="-62" font-family="Helvetica,sans-Serif" font-size="10.00">algorithm</text>
</a>
</g>
</g>
<!-- Node2&#45;&gt;Node3 -->
<g id="edge2_Node000002_Node000003" class="edge">
<title>Node2&#45;&gt;Node3</title>
<g id="a_edge2_Node000002_Node000003"><a xlink:title=" ">
<path fill="none" stroke="#63b8ff" d="M218.7,-109.75C216.02,-102.65 212.15,-92.4 208.81,-83.56"/>
<polygon fill="#63b8ff" stroke="#63b8ff" points="212.05,-82.21 205.24,-74.09 205.5,-84.68 212.05,-82.21"/>
</a>
</g>
</g>
<!-- Node4 -->
<g id="Node000004" class="node">
<title>Node4</title>
<g id="a_Node000004"><a xlink:title=" ">
<polygon fill="#e0e0e0" stroke="#999999" points="310,-74 252,-74 252,-55 310,-55 310,-74"/>
<text text-anchor="middle" x="281" y="-62" font-family="Helvetica,sans-Serif" font-size="10.00">memory</text>
</a>
</g>
</g>
<!-- Node2&#45;&gt;Node4 -->
<g id="edge3_Node000002_Node000004" class="edge">
<title>Node2&#45;&gt;Node4</title>
<g id="a_edge3_Node000002_Node000004"><a xlink:title=" ">
<path fill="none" stroke="#63b8ff" d="M231.48,-109.98C240.2,-102.15 253.34,-90.34 263.9,-80.86"/>
<polygon fill="#63b8ff" stroke="#63b8ff" points="266.25,-83.46 271.35,-74.17 261.57,-78.25 266.25,-83.46"/>
</a>
</g>
</g>
<!-- Node5 -->
<g id="Node000005" class="node">
<title>Node5</title>
<g id="a_Node000005"><a xlink:title=" ">
<polygon fill="#e0e0e0" stroke="#999999" points="458.5,-74 393.5,-74 393.5,-55 458.5,-55 458.5,-74"/>
<text text-anchor="middle" x="426" y="-62" font-family="Helvetica,sans-Serif" font-size="10.00">stdexcept</text>
</a>
</g>
</g>
<!-- Node2&#45;&gt;Node5 -->
<g id="edge4_Node000002_Node000005" class="edge">
<title>Node2&#45;&gt;Node5</title>
<g id="a_edge4_Node000002_Node000005"><a xlink:title=" ">
<path fill="none" stroke="#63b8ff" d="M254.78,-109.98C289.72,-100.91 345.19,-86.49 383.48,-76.55"/>
<polygon fill="#63b8ff" stroke="#63b8ff" points="384.51,-79.9 393.31,-73.99 382.75,-73.12 384.51,-79.9"/>
</a>
</g>
</g>
<!-- Node2&#45;&gt;Node6 -->
<g id="edge5_Node000002_Node000006" class="edge">
<title>Node2&#45;&gt;Node6</title>
<g id="a_edge5_Node000002_Node000006"><a xlink:title=" ">
<path fill="none" stroke="#63b8ff" d="M242.89,-109.98C264.08,-101.34 297.13,-87.87 321.3,-78.02"/>
<polygon fill="#63b8ff" stroke="#63b8ff" points="322.79,-81.19 330.73,-74.17 320.15,-74.7 322.79,-81.19"/>
</a>
</g>
</g>
<!-- Node7&#45;&gt;Node5 -->
<g id="edge8_Node000007_Node000005" class="edge">
<title>Node7&#45;&gt;Node5</title>
<g id="a_edge8_Node000007_Node000005"><a xlink:title=" ">
<path fill="none" stroke="#63b8ff" d="M734.11,-111.46C731.37,-110.94 728.64,-110.45 726,-110 615,-91.04 583.82,-93.35 468.46,-73.97"/>
<polygon fill="#63b8ff" stroke="#63b8ff" points="468.97,-70.51 458.52,-72.29 467.8,-77.41 468.97,-70.51"/>
</a>
</g>
</g>
<!-- Node7&#45;&gt;Node6 -->
<g id="edge10_Node000007_Node000006" class="edge">
<title>Node7&#45;&gt;Node6</title>
<g id="a_edge10_Node000007_Node000006"><a xlink:title=" ">
<path fill="none" stroke="#63b8ff" d="M734.12,-111.36C731.38,-110.87 728.65,-110.41 726,-110 578.61,-87.36 536.76,-100.49 385.8,-73.86"/>
<polygon fill="#63b8ff" stroke="#63b8ff" points="386.16,-70.37 375.7,-72.05 384.93,-77.26 386.16,-70.37"/>
</a>
</g>
</g>
<!-- Node8 -->
<g id="Node000008" class="node">
<title>Node8</title>
<g id="a_Node000008"><a xlink:title=" ">
<polygon fill="#e0e0e0" stroke="#999999" points="654,-74 598,-74 598,-55 654,-55 654,-74"/>
<text text-anchor="middle" x="626" y="-62" font-family="Helvetica,sans-Serif" font-size="10.00">numeric</text>
</a>
</g>
</g>
<!-- Node7&#45;&gt;Node8 -->
<g id="edge7_Node000007_Node000008" class="edge">
<title>Node7&#45;&gt;Node8</title>
<g id="a_edge7_Node000007_Node000008"><a xlink:title=" ">
<path fill="none" stroke="#63b8ff" d="M745.19,-109.98C721.83,-101.27 685.3,-87.63 658.83,-77.75"/>
<polygon fill="#63b8ff" stroke="#63b8ff" points="659.82,-74.39 649.23,-74.17 657.37,-80.95 659.82,-74.39"/>
</a>
</g>
</g>
<!-- Node9 -->
<g id="Node000009" class="node">
<title>Node9</title>
<g id="a_Node000009"><a xlink:title=" ">
<polygon fill="#e0e0e0" stroke="#999999" points="946,-74 902,-74 902,-55 946,-55 946,-74"/>
<text text-anchor="middle" x="924" y="-62" font-family="Helvetica,sans-Serif" font-size="10.00">string</text>
</a>
</g>
</g>
<!-- Node7&#45;&gt;Node9 -->
<g id="edge9_Node000007_Node000009" class="edge">
<title>Node7&#45;&gt;Node9</title>
<g id="a_edge9_Node000007_Node000009"><a xlink:title=" ">
<path fill="none" stroke="#63b8ff" d="M793.06,-109.98C819.88,-100.88 862.49,-86.4 891.77,-76.45"/>
<polygon fill="#63b8ff" stroke="#63b8ff" points="893.19,-79.67 901.53,-73.13 890.94,-73.04 893.19,-79.67"/>
</a>
</g>
</g>
<!-- Node7&#45;&gt;Node10 -->
<g id="edge11_Node000007_Node000010" class="edge">
<title>Node7&#45;&gt;Node10</title>
<g id="a_edge11_Node000007_Node000010"><a xlink:title=" ">
<path fill="none" stroke="#63b8ff" d="M801.94,-110.68C842.4,-101.36 910.09,-85.76 954.39,-75.55"/>
<polygon fill="#63b8ff" stroke="#63b8ff" points="955.34,-78.92 964.3,-73.27 953.77,-72.1 955.34,-78.92"/>
</a>
</g>
</g>
<!-- Node11 -->
<g id="Node000011" class="node">
<title>Node11</title>
<g id="a_Node000011"><a xlink:title=" ">
<polygon fill="#e0e0e0" stroke="#999999" points="1024.5,-19 971.5,-19 971.5,0 1024.5,0 1024.5,-19"/>
<text text-anchor="middle" x="998" y="-7" font-family="Helvetica,sans-Serif" font-size="10.00">cstddef</text>
</a>
</g>
</g>
<!-- Node10&#45;&gt;Node11 -->
<g id="edge12_Node000010_Node000011" class="edge">
<title>Node10&#45;&gt;Node11</title>
<g id="a_edge12_Node000010_Node000011"><a xlink:title=" ">
<path fill="none" stroke="#63b8ff" d="M998,-54.75C998,-47.8 998,-37.85 998,-29.13"/>
<polygon fill="#63b8ff" stroke="#63b8ff" points="1001.5,-29.09 998,-19.09 994.5,-29.09 1001.5,-29.09"/>
</a>
</g>
</g>
<!-- Node12&#45;&gt;Node3 -->
<g id="edge14_Node000012_Node000003" class="edge">
<title>Node12&#45;&gt;Node3</title>
<g id="a_edge14_Node000012_Node000003"><a xlink:title=" ">
<path fill="none" stroke="#63b8ff" d="M88.69,-109.98C110.8,-101.3 145.32,-87.75 170.45,-77.88"/>
<polygon fill="#63b8ff" stroke="#63b8ff" points="171.89,-81.08 179.92,-74.17 169.33,-74.57 171.89,-81.08"/>
</a>
</g>
</g>
<!-- Node12&#45;&gt;Node6 -->
<g id="edge16_Node000012_Node000006" class="edge">
<title>Node12&#45;&gt;Node6</title>
<g id="a_edge16_Node000012_Node000006"><a xlink:title=" ">
<path fill="none" stroke="#63b8ff" d="M122.3,-110C171.31,-102.17 245.03,-89.71 318.38,-73.99"/>
<polygon fill="#63b8ff" stroke="#63b8ff" points="319.23,-77.39 328.26,-71.85 317.75,-70.54 319.23,-77.39"/>
</a>
</g>
</g>
<!-- Node13 -->
<g id="Node000013" class="node">
<title>Node13</title>
<g id="a_Node000013"><a xlink:title=" ">
<polygon fill="#e0e0e0" stroke="#999999" points="121.5,-74 74.5,-74 74.5,-55 121.5,-55 121.5,-74"/>
<text text-anchor="middle" x="98" y="-62" font-family="Helvetica,sans-Serif" font-size="10.00">cmath</text>
</a>
</g>
</g>
<!-- Node12&#45;&gt;Node13 -->
<g id="edge15_Node000012_Node000013" class="edge">
<title>Node12&#45;&gt;Node13</title>
<g id="a_edge15_Node000012_Node000013"><a xlink:title=" ">
<path fill="none" stroke="#63b8ff" d="M72.12,-109.75C76.36,-102.49 82.53,-91.95 87.78,-82.98"/>
<polygon fill="#63b8ff" stroke="#63b8ff" points="90.95,-84.49 92.98,-74.09 84.91,-80.95 90.95,-84.49"/>
</a>
</g>
</g>
<!-- Node14&#45;&gt;Node3 -->
<g id="edge18_Node000014_Node000003" class="edge">
<title>Node14&#45;&gt;Node3</title>
<g id="a_edge18_Node000014_Node000003"><a xlink:title=" ">
<path fill="none" stroke="#63b8ff" d="M375.74,-109.98C339.97,-100.82 282.99,-86.24 244.12,-76.28"/>
<polygon fill="#63b8ff" stroke="#63b8ff" points="244.71,-72.82 234.15,-73.73 242.97,-79.6 244.71,-72.82"/>
</a>
</g>
</g>
<!-- Node14&#45;&gt;Node5 -->
<g id="edge22_Node000014_Node000005" class="edge">
<title>Node14&#45;&gt;Node5</title>
<g id="a_edge22_Node000014_Node000005"><a xlink:title=" ">
<path fill="none" stroke="#63b8ff" d="M411.81,-109.75C414.06,-102.72 417.3,-92.62 420.12,-83.84"/>
<polygon fill="#63b8ff" stroke="#63b8ff" points="423.52,-84.68 423.25,-74.09 416.86,-82.54 423.52,-84.68"/>
</a>
</g>
</g>
<!-- Node14&#45;&gt;Node6 -->
<g id="edge23_Node000014_Node000006" class="edge">
<title>Node14&#45;&gt;Node6</title>
<g id="a_edge23_Node000014_Node000006"><a xlink:title=" ">
<path fill="none" stroke="#63b8ff" d="M399.84,-109.98C391.5,-102.23 378.97,-90.58 368.82,-81.14"/>
<polygon fill="#63b8ff" stroke="#63b8ff" points="371.03,-78.42 361.32,-74.17 366.26,-83.54 371.03,-78.42"/>
</a>
</g>
</g>
<!-- Node14&#45;&gt;Node8 -->
<g id="edge21_Node000014_Node000008" class="edge">
<title>Node14&#45;&gt;Node8</title>
<g id="a_edge21_Node000014_Node000008"><a xlink:title=" ">
<path fill="none" stroke="#63b8ff" d="M443.86,-109.98C483.29,-100.35 547.29,-84.72 587.98,-74.79"/>
<polygon fill="#63b8ff" stroke="#63b8ff" points="588.91,-78.16 597.79,-72.39 587.24,-71.36 588.91,-78.16"/>
</a>
</g>
</g>
<!-- Node14&#45;&gt;Node13 -->
<g id="edge19_Node000014_Node000013" class="edge">
<title>Node14&#45;&gt;Node13</title>
<g id="a_edge19_Node000014_Node000013"><a xlink:title=" ">
<path fill="none" stroke="#63b8ff" d="M359.03,-109.98C295.15,-99.1 186.29,-80.55 131.54,-71.22"/>
<polygon fill="#63b8ff" stroke="#63b8ff" points="132.1,-67.76 121.65,-69.53 130.92,-74.66 132.1,-67.76"/>
</a>
</g>
</g>
<!-- Node15 -->
<g id="Node000015" class="node">
<title>Node15</title>
<g id="a_Node000015"><a xlink:title=" ">
<polygon fill="#e0e0e0" stroke="#999999" points="580,-74 542,-74 542,-55 580,-55 580,-74"/>
<text text-anchor="middle" x="561" y="-62" font-family="Helvetica,sans-Serif" font-size="10.00">map</text>
</a>
</g>
</g>
<!-- Node14&#45;&gt;Node15 -->
<g id="edge20_Node000014_Node000015" class="edge">
<title>Node14&#45;&gt;Node15</title>
<g id="a_edge20_Node000014_Node000015"><a xlink:title=" ">
<path fill="none" stroke="#63b8ff" d="M433.42,-109.98C460.33,-100.6 503.57,-85.53 532.13,-75.57"/>
<polygon fill="#63b8ff" stroke="#63b8ff" points="533.64,-78.75 541.93,-72.15 531.34,-72.14 533.64,-78.75"/>
</a>
</g>
</g>
<!-- Node16&#45;&gt;Node4 -->
<g id="edge28_Node000016_Node000004" class="edge">
<title>Node16&#45;&gt;Node4</title>
<g id="a_edge28_Node000016_Node000004"><a xlink:title=" ">
<path fill="none" stroke="#63b8ff" d="M528.21,-110C477.1,-101.89 398.5,-88.99 320.38,-73.99"/>
<polygon fill="#63b8ff" stroke="#63b8ff" points="320.84,-70.51 310.36,-72.05 319.51,-77.39 320.84,-70.51"/>
</a>
</g>
</g>
<!-- Node16&#45;&gt;Node5 -->
<g id="edge29_Node000016_Node000005" class="edge">
<title>Node16&#45;&gt;Node5</title>
<g id="a_edge29_Node000016_Node000005"><a xlink:title=" ">
<path fill="none" stroke="#63b8ff" d="M557.78,-109.98C531.64,-101.16 490.6,-87.31 461.27,-77.41"/>
<polygon fill="#63b8ff" stroke="#63b8ff" points="462.02,-73.96 451.42,-74.08 459.78,-80.6 462.02,-73.96"/>
</a>
</g>
</g>
<!-- Node16&#45;&gt;Node6 -->
<g id="edge30_Node000016_Node000006" class="edge">
<title>Node16&#45;&gt;Node6</title>
<g id="a_edge30_Node000016_Node000006"><a xlink:title=" ">
<path fill="none" stroke="#63b8ff" d="M543.47,-109.99C505.48,-101.73 446.2,-88.63 385.52,-74.07"/>
<polygon fill="#63b8ff" stroke="#63b8ff" points="386.31,-70.66 375.77,-71.72 384.67,-77.46 386.31,-70.66"/>
</a>
</g>
</g>
<!-- Node17 -->
<g id="Node000017" class="node">
<title>Node17</title>
<g id="a_Node000017"><a xlink:title=" ">
<polygon fill="#e0e0e0" stroke="#999999" points="523.5,-74 476.5,-74 476.5,-55 523.5,-55 523.5,-74"/>
<text text-anchor="middle" x="500" y="-62" font-family="Helvetica,sans-Serif" font-size="10.00">deque</text>
</a>
</g>
</g>
<!-- Node16&#45;&gt;Node17 -->
<g id="edge26_Node000016_Node000017" class="edge">
<title>Node16&#45;&gt;Node17</title>
<g id="a_edge26_Node000016_Node000017"><a xlink:title=" ">
<path fill="none" stroke="#63b8ff" d="M569.66,-109.98C556.91,-101.84 537.45,-89.41 522.33,-79.76"/>
<polygon fill="#63b8ff" stroke="#63b8ff" points="523.89,-76.6 513.58,-74.17 520.12,-82.5 523.89,-76.6"/>
</a>
</g>
</g>
<!-- Node18 -->
<g id="Node000018" class="node">
<title>Node18</title>
<g id="a_Node000018"><a xlink:title=" ">
<polygon fill="#e0e0e0" stroke="#999999" points="809.5,-74 744.5,-74 744.5,-55 809.5,-55 809.5,-74"/>
<text text-anchor="middle" x="777" y="-62" font-family="Helvetica,sans-Serif" font-size="10.00">functional</text>
</a>
</g>
</g>
<!-- Node16&#45;&gt;Node18 -->
<g id="edge27_Node000016_Node000018" class="edge">
<title>Node16&#45;&gt;Node18</title>
<g id="a_edge27_Node000016_Node000018"><a xlink:title=" ">
<path fill="none" stroke="#63b8ff" d="M614.17,-109.98C647.16,-100.97 699.4,-86.7 735.77,-76.76"/>
<polygon fill="#63b8ff" stroke="#63b8ff" points="736.86,-80.09 745.59,-74.08 735.02,-73.34 736.86,-80.09"/>
</a>
</g>
</g>
<!-- Node19&#45;&gt;Node6 -->
<g id="edge36_Node000019_Node000006" class="edge">
<title>Node19&#45;&gt;Node6</title>
<g id="a_edge36_Node000019_Node000006"><a xlink:title=" ">
<path fill="none" stroke="#63b8ff" d="M771.47,-170.72C709.03,-166.38 604.24,-155.53 518,-129 499.57,-123.33 496.79,-117.42 479,-110 447.78,-96.98 411.25,-84.45 385.41,-76.03"/>
<polygon fill="#63b8ff" stroke="#63b8ff" points="386.31,-72.64 375.72,-72.9 384.16,-79.3 386.31,-72.64"/>
</a>
</g>
</g>
<!-- Node19&#45;&gt;Node7 -->
<g id="edge32_Node000019_Node000007" class="edge">
<title>Node19&#45;&gt;Node7</title>
<g id="a_edge32_Node000019_Node000007"><a xlink:title=" ">
<path fill="none" stroke="#63b8ff" d="M816.68,-164.98C808.19,-157.23 795.44,-145.58 785.12,-136.14"/>
<polygon fill="#63b8ff" stroke="#63b8ff" points="787.23,-133.33 777.49,-129.17 782.51,-138.5 787.23,-133.33"/>
</a>
</g>
</g>
<!-- Node19&#45;&gt;Node18 -->
<g id="edge33_Node000019_Node000018" class="edge">
<title>Node19&#45;&gt;Node18</title>
<g id="a_edge33_Node000019_Node000018"><a xlink:title=" ">
<path fill="none" stroke="#63b8ff" d="M874.83,-164.94C915.18,-155.66 962.61,-138.26 941,-110 933.5,-100.2 865.73,-84.19 819.69,-74.29"/>
<polygon fill="#63b8ff" stroke="#63b8ff" points="820.16,-70.81 809.65,-72.15 818.7,-77.66 820.16,-70.81"/>
</a>
</g>
</g>
<!-- Node20 -->
<g id="Node000020" class="node">
<title>Node20</title>
<g id="a_Node000020"><a xlink:title=" ">
<polygon fill="#e0e0e0" stroke="#999999" points="866,-129 820,-129 820,-110 866,-110 866,-129"/>
<text text-anchor="middle" x="843" y="-117" font-family="Helvetica,sans-Serif" font-size="10.00">future</text>
</a>
</g>
</g>
<!-- Node19&#45;&gt;Node20 -->
<g id="edge34_Node000019_Node000020" class="edge">
<title>Node19&#45;&gt;Node20</title>
<g id="a_edge34_Node000019_Node000020"><a xlink:title=" ">
<path fill="none" stroke="#63b8ff" d="M828.81,-164.75C831.06,-157.72 834.3,-147.62 837.12,-138.84"/>
<polygon fill="#63b8ff" stroke="#63b8ff" points="840.52,-139.68 840.25,-129.09 833.86,-137.54 840.52,-139.68"/>
</a>
</g>
</g>
<!-- Node21 -->
<g id="Node000021" class="node">
<title>Node21</title>
<g id="a_Node000021"><a xlink:title=" ">
<polygon fill="#e0e0e0" stroke="#999999" points="932,-129 884,-129 884,-110 932,-110 932,-129"/>
<text text-anchor="middle" x="908" y="-117" font-family="Helvetica,sans-Serif" font-size="10.00">thread</text>
</a>
</g>
</g>
<!-- Node19&#45;&gt;Node21 -->
<g id="edge35_Node000019_Node000021" class="edge">
<title>Node19&#45;&gt;Node21</title>
<g id="a_edge35_Node000019_Node000021"><a xlink:title=" ">
<path fill="none" stroke="#63b8ff" d="M839.17,-164.98C851.77,-156.84 871,-144.41 885.94,-134.76"/>
<polygon fill="#63b8ff" stroke="#63b8ff" points="888.09,-137.54 894.59,-129.17 884.29,-131.66 888.09,-137.54"/>
</a>
</g>
</g>
<!-- Node22&#45;&gt;Node3 -->
<g id="edge38_Node000022_Node000003" class="edge">
<title>Node22&#45;&gt;Node3</title>
<g id="a_edge38_Node000022_Node000003"><a xlink:title=" ">
<path fill="none" stroke="#63b8ff" d="M657.2,-111.45C654.44,-110.91 651.67,-110.42 649,-110 473.23,-82.67 423.98,-99.79 244.22,-74"/>
<polygon fill="#63b8ff" stroke="#63b8ff" points="244.57,-70.52 234.17,-72.54 243.56,-77.44 244.57,-70.52"/>
</a>
</g>
</g>
<!-- Node22&#45;&gt;Node6 -->
<g id="edge45_Node000022_Node000006" class="edge">
<title>Node22&#45;&gt;Node6</title>
<g id="a_edge45_Node000022_Node000006"><a xlink:title=" ">
<path fill="none" stroke="#63b8ff" d="M657.18,-111.58C654.42,-111.01 651.66,-110.48 649,-110 535.63,-89.63 502.97,-96.41 385.8,-73.93"/>
<polygon fill="#63b8ff" stroke="#63b8ff" points="386.2,-70.44 375.72,-71.96 384.86,-77.31 386.2,-70.44"/>
</a>
</g>
</g>
<!-- Node22&#45;&gt;Node8 -->
<g id="edge41_Node000022_Node000008" class="edge">
<title>Node22&#45;&gt;Node8</title>
<g id="a_edge41_Node000022_Node000008"><a xlink:title=" ">
<path fill="none" stroke="#63b8ff" d="M677.2,-109.98C668.18,-102.15 654.59,-90.34 643.68,-80.86"/>
<polygon fill="#63b8ff" stroke="#63b8ff" points="645.82,-78.09 635.98,-74.17 641.23,-83.37 645.82,-78.09"/>
</a>
</g>
</g>
<!-- Node22&#45;&gt;Node9 -->
<g id="edge44_Node000022_Node000009" class="edge">
<title>Node22&#45;&gt;Node9</title>
<g id="a_edge44_Node000022_Node000009"><a xlink:title=" ">
<path fill="none" stroke="#63b8ff" d="M716.81,-112C719.91,-111.32 723.02,-110.65 726,-110 797.16,-94.58 817.59,-92.22 891.86,-74.18"/>
<polygon fill="#63b8ff" stroke="#63b8ff" points="892.8,-77.55 901.69,-71.78 891.14,-70.75 892.8,-77.55"/>
</a>
</g>
</g>
<!-- Node22&#45;&gt;Node15 -->
<g id="edge40_Node000022_Node000015" class="edge">
<title>Node22&#45;&gt;Node15</title>
<g id="a_edge40_Node000022_Node000015"><a xlink:title=" ">
<path fill="none" stroke="#63b8ff" d="M666.76,-109.98C645.94,-101.23 613.33,-87.51 589.82,-77.62"/>
<polygon fill="#63b8ff" stroke="#63b8ff" points="590.94,-74.3 580.37,-73.65 588.23,-80.75 590.94,-74.3"/>
</a>
</g>
</g>
<!-- Node22&#45;&gt;Node18 -->
<g id="edge39_Node000022_Node000018" class="edge">
<title>Node22&#45;&gt;Node18</title>
<g id="a_edge39_Node000022_Node000018"><a xlink:title=" ">
<path fill="none" stroke="#63b8ff" d="M701.46,-109.98C715.42,-101.77 736.79,-89.18 753.25,-79.49"/>
<polygon fill="#63b8ff" stroke="#63b8ff" points="755.44,-82.26 762.28,-74.17 751.88,-76.23 755.44,-82.26"/>
</a>
</g>
</g>
<!-- Node23 -->
<g id="Node000023" class="node">
<title>Node23</title>
<g id="a_Node000023"><a xlink:title=" ">
<polygon fill="#e0e0e0" stroke="#999999" points="726,-74 672,-74 672,-55 726,-55 726,-74"/>
<text text-anchor="middle" x="699" y="-62" font-family="Helvetica,sans-Serif" font-size="10.00">random</text>
</a>
</g>
</g>
<!-- Node22&#45;&gt;Node23 -->
<g id="edge42_Node000022_Node000023" class="edge">
<title>Node22&#45;&gt;Node23</title>
<g id="a_edge42_Node000022_Node000023"><a xlink:title=" ">
<path fill="none" stroke="#63b8ff" d="M688.98,-109.75C690.57,-102.72 692.86,-92.62 694.85,-83.84"/>
<polygon fill="#63b8ff" stroke="#63b8ff" points="698.26,-84.62 697.06,-74.09 691.43,-83.07 698.26,-84.62"/>
</a>
</g>
</g>
<!-- Node24 -->
<g id="Node000024" class="node">
<title>Node24</title>
<g id="a_Node000024"><a xlink:title=" ">
<polygon fill="#e0e0e0" stroke="#999999" points="884,-74 828,-74 828,-55 884,-55 884,-74"/>
<text text-anchor="middle" x="856" y="-62" font-family="Helvetica,sans-Serif" font-size="10.00">sstream</text>
</a>
</g>
</g>
<!-- Node22&#45;&gt;Node24 -->
<g id="edge43_Node000022_Node000024" class="edge">
<title>Node22&#45;&gt;Node24</title>
<g id="a_edge43_Node000022_Node000024"><a xlink:title=" ">
<path fill="none" stroke="#63b8ff" d="M714.15,-109.98C742.53,-101.09 787.23,-87.07 818.86,-77.15"/>
<polygon fill="#63b8ff" stroke="#63b8ff" points="820.14,-80.41 828.63,-74.08 818.05,-73.73 820.14,-80.41"/>
</a>
</g>
</g>
</g>
</svg>
