<?xml version="1.0" encoding="UTF-8" standalone="no"?>
<!DOCTYPE svg PUBLIC "-//W3C//DTD SVG 1.1//EN"
 "http://www.w3.org/Graphics/SVG/1.1/DTD/svg11.dtd">
<!-- Generated by graphviz version 2.43.0 (0)
 -->
<!-- Title: advanced_structures::ChunkSkipList&lt; T &gt;::Node Pages: 1 -->
<svg width="344pt" height="225pt"
 viewBox="0.00 0.00 344.00 225.00" xmlns="http://www.w3.org/2000/svg" xmlns:xlink="http://www.w3.org/1999/xlink">
<g id="graph0" class="graph" transform="scale(1 1) rotate(0) translate(4 221)">
<title>advanced_structures::ChunkSkipList&lt; T &gt;::Node</title>
<!-- Node1 -->
<g id="Node000001" class="node">
<title>Node1</title>
<g id="a_Node000001"><a xlink:title=" ">
<polygon fill="#999999" stroke="#666666" points="120,-129 0,-129 0,-88 120,-88 120,-129"/>
<text text-anchor="start" x="8" y="-117" font-family="Helvetica,sans-Serif" font-size="10.00">advanced_structures</text>
<text text-anchor="start" x="8" y="-106" font-family="Helvetica,sans-Serif" font-size="10.00">::ChunkSkipList&lt; T &gt;</text>
<text text-anchor="middle" x="60" y="-95" font-family="Helvetica,sans-Serif" font-size="10.00">::Node</text>
</a>
</g>
</g>
<!-- Node2 -->
<g id="Node000002" class="node">
<title>Node2</title>
<g id="a_Node000002"><a xlink:title=" ">
<polygon fill="white" stroke="#666666" points="272,-217 124,-217 124,-176 272,-176 272,-217"/>
<text text-anchor="start" x="132" y="-205" font-family="Helvetica,sans-Serif" font-size="10.00">std::vector&lt; std::shared</text>
<text text-anchor="start" x="132" y="-194" font-family="Helvetica,sans-Serif" font-size="10.00">_ptr&lt; advanced_structures</text>
<text text-anchor="middle" x="198" y="-183" font-family="Helvetica,sans-Serif" font-size="10.00">::ChunkSkipList::Node &gt; &gt;</text>
</a>
</g>
</g>
<!-- Node2&#45;&gt;Node1 -->
<g id="edge1_Node000001_Node000002" class="edge">
<title>Node2&#45;&gt;Node1</title>
<g id="a_edge1_Node000001_Node000002"><a xlink:title=" ">
<path fill="none" stroke="#9a32cd" stroke-dasharray="5,2" d="M157.95,-170.54C136.86,-157.4 111.36,-141.51 91.67,-129.24"/>
<polygon fill="#9a32cd" stroke="#9a32cd" points="156.35,-173.67 166.69,-175.99 160.05,-167.73 156.35,-173.67"/>
</a>
</g>
<text text-anchor="middle" x="158.5" y="-150" font-family="Helvetica,sans-Serif" font-size="10.00" fill="grey"> forward</text>
</g>
<!-- Node4 -->
<g id="Node000004" class="node">
<title>Node4</title>
<g id="a_Node000004"><a xlink:href="structadvanced__structures_1_1ChunkSkipList_1_1Node.html" target="_top" xlink:title=" ">
<polygon fill="white" stroke="#666666" points="258,-129 138,-129 138,-88 258,-88 258,-129"/>
<text text-anchor="start" x="146" y="-117" font-family="Helvetica,sans-Serif" font-size="10.00">advanced_structures</text>
<text text-anchor="start" x="146" y="-106" font-family="Helvetica,sans-Serif" font-size="10.00">::ChunkSkipList&lt; T &gt;</text>
<text text-anchor="middle" x="198" y="-95" font-family="Helvetica,sans-Serif" font-size="10.00">::Node</text>
</a>
</g>
</g>
<!-- Node2&#45;&gt;Node4 -->
<g id="edge4_Node000004_Node000002" class="edge">
<title>Node2&#45;&gt;Node4</title>
<g id="a_edge4_Node000004_Node000002"><a xlink:title=" ">
<path fill="none" stroke="#9a32cd" stroke-dasharray="5,2" d="M198,-165.86C198,-153.76 198,-140.08 198,-129.24"/>
<polygon fill="#9a32cd" stroke="#9a32cd" points="194.5,-165.99 198,-175.99 201.5,-165.99 194.5,-165.99"/>
</a>
</g>
<text text-anchor="middle" x="218.5" y="-150" font-family="Helvetica,sans-Serif" font-size="10.00" fill="grey"> forward</text>
</g>
<!-- Node3 -->
<g id="Node000003" class="node">
<title>Node3</title>
<g id="a_Node000003"><a xlink:title=" ">
<polygon fill="white" stroke="#666666" points="336,-41 188,-41 188,0 336,0 336,-41"/>
<text text-anchor="start" x="196" y="-29" font-family="Helvetica,sans-Serif" font-size="10.00">std::shared_ptr&lt; advanced</text>
<text text-anchor="start" x="196" y="-18" font-family="Helvetica,sans-Serif" font-size="10.00">_structures::ChunkSkipList</text>
<text text-anchor="middle" x="262" y="-7" font-family="Helvetica,sans-Serif" font-size="10.00">::Node &gt;</text>
</a>
</g>
</g>
<!-- Node3&#45;&gt;Node2 -->
<g id="edge2_Node000002_Node000003" class="edge">
<title>Node3&#45;&gt;Node2</title>
<g id="a_edge2_Node000002_Node000003"><a xlink:title=" ">
<path fill="none" stroke="#9a32cd" stroke-dasharray="5,2" d="M269.33,-51.01C273.42,-73.14 276.07,-103.81 267,-129 260.07,-148.25 243.87,-164.36 228.91,-175.89"/>
<polygon fill="#9a32cd" stroke="#9a32cd" points="272.75,-50.29 267.32,-41.2 265.9,-51.7 272.75,-50.29"/>
</a>
</g>
<text text-anchor="middle" x="298.5" y="-106" font-family="Helvetica,sans-Serif" font-size="10.00" fill="grey"> elements</text>
</g>
<!-- Node4&#45;&gt;Node3 -->
<g id="edge3_Node000003_Node000004" class="edge">
<title>Node4&#45;&gt;Node3</title>
<g id="a_edge3_Node000003_Node000004"><a xlink:title=" ">
<path fill="none" stroke="#9a32cd" stroke-dasharray="5,2" d="M218.7,-79.68C228.03,-67.14 238.83,-52.63 247.31,-41.24"/>
<polygon fill="#9a32cd" stroke="#9a32cd" points="215.68,-77.87 212.52,-87.99 221.3,-82.05 215.68,-77.87"/>
</a>
</g>
<text text-anchor="middle" x="242.5" y="-62" font-family="Helvetica,sans-Serif" font-size="10.00" fill="grey"> ptr</text>
</g>
</g>
</svg>
