<?xml version="1.0" encoding="UTF-8" standalone="no"?>
<!DOCTYPE svg PUBLIC "-//W3C//DTD SVG 1.1//EN"
 "http://www.w3.org/Graphics/SVG/1.1/DTD/svg11.dtd">
<!-- Generated by graphviz version 2.43.0 (0)
 -->
<!-- Title: advanced_structures::ChunkBPlusTree&lt; T &gt;::Node Pages: 1 -->
<!--zoomable 102 -->

<svg id="main" version="1.1" xmlns="http://www.w3.org/2000/svg" xmlns:xlink="http://www.w3.org/1999/xlink" xml:space="preserve" onload="init(evt)">
<style type="text/css"><![CDATA[
.node, .edge {opacity: 0.7;}
.node.selected, .edge.selected {opacity: 1;}
.edge:hover path { stroke: red; }
.edge:hover polygon { stroke: red; fill: red; }
]]></style>

<defs>
  <circle id="rim" cx="0" cy="0" r="7"/>
  <circle id="rim2" cx="0" cy="0" r="3.5"/>
  <g id="zoomPlus">
    <use xlink:href="#rim" fill="#404040"><set attributeName="fill" to="#808080" begin="zoomplus.mouseover" end="zoomplus.mouseout"/></use>
    <path d="M-4,0h8M0,-4v8" fill="none" stroke="white" stroke-width="1.5" pointer-events="none"/>
  </g>
  <g id="zoomMin">
    <use xlink:href="#rim" fill="#404040"><set attributeName="fill" to="#808080" begin="zoomminus.mouseover" end="zoomminus.mouseout"/></use>
    <path d="M-4,0h8" fill="none" stroke="white" stroke-width="1.5" pointer-events="none"/>
  </g>
  <g id="arrowUp" transform="translate(30 24)">
    <use xlink:href="#rim"/>
    <path pointer-events="none" fill="none" stroke="white" stroke-width="1.5" d="M0,-3.0v7 M-2.5,-0.5L0,-3.0L2.5,-0.5"/>
  </g>
  <g id="arrowRight" transform="rotate(90) translate(36 -43)">
    <use xlink:href="#rim"/>
    <path pointer-events="none" fill="none" stroke="white" stroke-width="1.5" d="M0,-3.0v7 M-2.5,-0.5L0,-3.0L2.5,-0.5"/>
  </g>
  <g id="arrowDown" transform="rotate(180) translate(-30 -48)">
    <use xlink:href="#rim"/>
    <path pointer-events="none" fill="none" stroke="white" stroke-width="1.5" d="M0,-3.0v7 M-2.5,-0.5L0,-3.0L2.5,-0.5"/>
  </g>
  <g id="arrowLeft" transform="rotate(270) translate(-36 17)">
    <use xlink:href="#rim"/>
    <path pointer-events="none" fill="none" stroke="white" stroke-width="1.5" d="M0,-3.0v7 M-2.5,-0.5L0,-3.0L2.5,-0.5"/>
  </g>
  <g id="resetDef">
    <use xlink:href="#rim2" fill="#404040"><set attributeName="fill" to="#808080" begin="reset.mouseover" end="reset.mouseout"/></use>
  </g>
</defs>
<script type="application/ecmascript">
var viewWidth = 773;
var viewHeight = 102;
var sectionId = 'dynsection-0';
</script>
<script type="application/ecmascript" xlink:href="svg.min.js"/>
<svg id="graph" class="graph">
<g id="viewport">
<title>advanced_structures::ChunkBPlusTree&lt; T &gt;::Node</title>
<!-- Node1 -->
<g id="Node000001" class="node">
<title>Node1</title>
<g id="a_Node000001"><a xlink:title=" ">
<polygon fill="#999999" stroke="#666666" points="765,-92.24 647,-92.24 647,-51.24 765,-51.24 765,-92.24"/>
<text text-anchor="start" x="655" y="-80.24" font-family="Helvetica,sans-Serif" font-size="10.00">advanced_structures</text>
<text text-anchor="start" x="655" y="-69.24" font-family="Helvetica,sans-Serif" font-size="10.00">::ChunkBPlusTree&lt; T</text>
<text text-anchor="middle" x="706" y="-58.24" font-family="Helvetica,sans-Serif" font-size="10.00"> &gt;::Node</text>
</a>
</g>
</g>
<!-- Node2 -->
<g id="Node000002" class="node">
<title>Node2</title>
<g id="a_Node000002"><a xlink:title=" ">
<polygon fill="white" stroke="#666666" points="155,-66.24 0,-66.24 0,-25.24 155,-25.24 155,-66.24"/>
<text text-anchor="start" x="8" y="-54.24" font-family="Helvetica,sans-Serif" font-size="10.00">std::vector&lt; std::shared</text>
<text text-anchor="start" x="8" y="-43.24" font-family="Helvetica,sans-Serif" font-size="10.00">_ptr&lt; advanced_structures</text>
<text text-anchor="middle" x="77.5" y="-32.24" font-family="Helvetica,sans-Serif" font-size="10.00">::ChunkBPlusTree::Node &gt; &gt;</text>
</a>
</g>
</g>
<!-- Node2&#45;&gt;Node1 -->
<g id="edge1_Node000001_Node000002" class="edge">
<title>Node2&#45;&gt;Node1</title>
<g id="a_edge1_Node000001_Node000002"><a xlink:title=" ">
<path fill="none" stroke="#9a32cd" stroke-dasharray="5,2" d="M165.29,-65.51C187.57,-69.75 211.57,-73.6 234,-75.74 382.15,-89.9 557.71,-81.9 646.82,-76.1"/>
<polygon fill="#9a32cd" stroke="#9a32cd" points="165.68,-62.02 155.2,-63.54 164.34,-68.89 165.68,-62.02"/>
</a>
</g>
<text text-anchor="middle" x="391.5" y="-85.74" font-family="Helvetica,sans-Serif" font-size="10.00" fill="grey"> children</text>
</g>
<!-- Node4 -->
<g id="Node000004" class="node">
<title>Node4</title>
<g id="a_Node000004"><a xlink:href="structadvanced__structures_1_1ChunkBPlusTree_1_1Node.html" target="_top" xlink:title=" ">
<polygon fill="white" stroke="#666666" points="352,-66.24 234,-66.24 234,-25.24 352,-25.24 352,-66.24"/>
<text text-anchor="start" x="242" y="-54.24" font-family="Helvetica,sans-Serif" font-size="10.00">advanced_structures</text>
<text text-anchor="start" x="242" y="-43.24" font-family="Helvetica,sans-Serif" font-size="10.00">::ChunkBPlusTree&lt; T</text>
<text text-anchor="middle" x="293" y="-32.24" font-family="Helvetica,sans-Serif" font-size="10.00"> &gt;::Node</text>
</a>
</g>
</g>
<!-- Node2&#45;&gt;Node4 -->
<g id="edge4_Node000004_Node000002" class="edge">
<title>Node2&#45;&gt;Node4</title>
<g id="a_edge4_Node000004_Node000002"><a xlink:title=" ">
<path fill="none" stroke="#9a32cd" stroke-dasharray="5,2" d="M165.42,-45.74C188.5,-45.74 212.86,-45.74 233.97,-45.74"/>
<polygon fill="#9a32cd" stroke="#9a32cd" points="165.28,-42.24 155.28,-45.74 165.28,-49.24 165.28,-42.24"/>
</a>
</g>
<text text-anchor="middle" x="194.5" y="-48.74" font-family="Helvetica,sans-Serif" font-size="10.00" fill="grey"> children</text>
</g>
<!-- Node3 -->
<g id="Node000003" class="node">
<title>Node3</title>
<g id="a_Node000003"><a xlink:title=" ">
<polygon fill="white" stroke="#666666" points="586,-58.24 431,-58.24 431,-17.24 586,-17.24 586,-58.24"/>
<text text-anchor="start" x="439" y="-46.24" font-family="Helvetica,sans-Serif" font-size="10.00">std::shared_ptr&lt; advanced</text>
<text text-anchor="start" x="439" y="-35.24" font-family="Helvetica,sans-Serif" font-size="10.00">_structures::ChunkBPlusTree</text>
<text text-anchor="middle" x="508.5" y="-24.24" font-family="Helvetica,sans-Serif" font-size="10.00">::Node &gt;</text>
</a>
</g>
</g>
<!-- Node3&#45;&gt;Node1 -->
<g id="edge6_Node000001_Node000003" class="edge">
<title>Node3&#45;&gt;Node1</title>
<g id="a_edge6_Node000001_Node000003"><a xlink:title=" ">
<path fill="none" stroke="#9a32cd" stroke-dasharray="5,2" d="M596.24,-52.82C613.41,-55.81 631.03,-58.87 646.96,-61.64"/>
<polygon fill="#9a32cd" stroke="#9a32cd" points="596.66,-49.34 586.21,-51.08 595.46,-56.24 596.66,-49.34"/>
</a>
</g>
<text text-anchor="middle" x="616.5" y="-61.74" font-family="Helvetica,sans-Serif" font-size="10.00" fill="grey"> next</text>
</g>
<!-- Node3&#45;&gt;Node2 -->
<g id="edge2_Node000002_Node000003" class="edge">
<title>Node3&#45;&gt;Node2</title>
<g id="a_edge2_Node000002_Node000003"><a xlink:title=" ">
<path fill="none" stroke="#9a32cd" stroke-dasharray="5,2" d="M421.09,-16.06C398.74,-11.37 374.59,-7.11 352,-4.74 299.84,0.73 286.01,2 234,-4.74 202.99,-8.76 169.35,-17.11 141.32,-25.23"/>
<polygon fill="#9a32cd" stroke="#9a32cd" points="420.38,-19.48 430.89,-18.16 421.85,-12.64 420.38,-19.48"/>
</a>
</g>
<text text-anchor="middle" x="293" y="-7.74" font-family="Helvetica,sans-Serif" font-size="10.00" fill="grey"> elements</text>
</g>
<!-- Node3&#45;&gt;Node4 -->
<g id="edge5_Node000004_Node000003" class="edge">
<title>Node3&#45;&gt;Node4</title>
<g id="a_edge5_Node000004_Node000003"><a xlink:title=" ">
<path fill="none" stroke="#9a32cd" stroke-dasharray="5,2" d="M420.34,-25.45C403.6,-24.59 386.24,-24.74 370,-26.74 364.2,-27.45 358.2,-28.46 352.23,-29.65"/>
<polygon fill="#9a32cd" stroke="#9a32cd" points="420.45,-28.96 430.66,-26.1 420.9,-21.98 420.45,-28.96"/>
</a>
</g>
<text text-anchor="middle" x="391.5" y="-29.74" font-family="Helvetica,sans-Serif" font-size="10.00" fill="grey"> next</text>
</g>
<!-- Node4&#45;&gt;Node3 -->
<g id="edge3_Node000003_Node000004" class="edge">
<title>Node4&#45;&gt;Node3</title>
<g id="a_edge3_Node000003_Node000004"><a xlink:title=" ">
<path fill="none" stroke="#9a32cd" stroke-dasharray="5,2" d="M362.21,-43.18C383.99,-42.37 408.25,-41.46 430.61,-40.62"/>
<polygon fill="#9a32cd" stroke="#9a32cd" points="361.92,-39.69 352.06,-43.56 362.18,-46.69 361.92,-39.69"/>
</a>
</g>
<text text-anchor="middle" x="391.5" y="-45.74" font-family="Helvetica,sans-Serif" font-size="10.00" fill="grey"> ptr</text>
</g>
</g>
</svg>

<g id="navigator" transform="translate(0 0)" fill="#404254">
  <rect fill="#f2f5e9" fill-opacity="0.5" stroke="#606060" stroke-width=".5" x="0" y="0" width="60" height="60"/>
  <use id="zoomplus" xlink:href="#zoomPlus" x="17" y="9" onmousedown="handleZoom(evt,'in')"/>
  <use id="zoomminus" xlink:href="#zoomMin" x="42" y="9" onmousedown="handleZoom(evt,'out')"/>
  <use id="reset" xlink:href="#resetDef" x="30" y="36" onmousedown="handleReset()"/>
   <use id="arrowup" xlink:href="#arrowUp" x="0" y="0" onmousedown="handlePan(0,-1)"/>
  <use id="arrowright" xlink:href="#arrowRight" x="0" y="0" onmousedown="handlePan(1,0)"/>
  <use id="arrowdown" xlink:href="#arrowDown" x="0" y="0" onmousedown="handlePan(0,1)"/>
  <use id="arrowleft" xlink:href="#arrowLeft" x="0" y="0" onmousedown="handlePan(-1,0)"/>
</g>
<svg viewBox="0 0 15 15" width="100%" height="30px" preserveAspectRatio="xMaxYMin meet">
 <g id="arrow_out" transform="scale(0.3 0.3)">
  <a xlink:href="structadvanced__structures_1_1ChunkBPlusTree_1_1Node__coll__graph_org.svg" target="_base">
   <rect id="button" ry="5" rx="5" y="6" x="6" height="38" width="38"
        fill="#f2f5e9" fill-opacity="0.5" stroke="#606060" stroke-width="1.0"/>
   <path id="arrow"
     d="M 11.500037,31.436501 C 11.940474,20.09759 22.043105,11.32322 32.158766,21.979434 L 37.068811,17.246167 C 37.068811,17.246167 37.088388,32 37.088388,32 L 22.160133,31.978069 C 22.160133,31.978069 26.997745,27.140456 26.997745,27.140456 C 18.528582,18.264221 13.291696,25.230495 11.500037,31.436501 z"
     style="fill:#404040;"/>
  </a>
 </g>
</svg>

<style type='text/css'>
<![CDATA[
[data-mouse-over-selected='false'] { opacity: 0.7; }
[data-mouse-over-selected='true']  { opacity: 1.0; }
]]>
</style>
<script type="application/ecmascript"><![CDATA[
document.addEventListener('DOMContentLoaded', (event) => {
  highlightEdges();
  highlightAdjacentNodes();
});
]]></script>
</svg>
