<?xml version="1.0" encoding="UTF-8" standalone="no"?>
<!DOCTYPE svg PUBLIC "-//W3C//DTD SVG 1.1//EN"
 "http://www.w3.org/Graphics/SVG/1.1/DTD/svg11.dtd">
<!-- Generated by graphviz version 2.43.0 (0)
 -->
<!-- Title: advanced_structures.hpp Pages: 1 -->
<svg width="1027pt" height="93pt"
 viewBox="0.00 0.00 1026.50 93.00" xmlns="http://www.w3.org/2000/svg" xmlns:xlink="http://www.w3.org/1999/xlink">
<g id="graph0" class="graph" transform="scale(1 1) rotate(0) translate(4 89)">
<title>advanced_structures.hpp</title>
<!-- Node1 -->
<g id="Node000001" class="node">
<title>Node1</title>
<g id="a_Node000001"><a xlink:title=" ">
<polygon fill="#999999" stroke="#666666" points="640.5,-85 501.5,-85 501.5,-66 640.5,-66 640.5,-85"/>
<text text-anchor="middle" x="571" y="-73" font-family="Helvetica,sans-Serif" font-size="10.00">advanced_structures.hpp</text>
</a>
</g>
</g>
<!-- Node2 -->
<g id="Node000002" class="node">
<title>Node2</title>
<g id="a_Node000002"><a xlink:title=" ">
<polygon fill="#e0e0e0" stroke="#999999" points="64,-24.5 0,-24.5 0,-5.5 64,-5.5 64,-24.5"/>
<text text-anchor="middle" x="32" y="-12.5" font-family="Helvetica,sans-Serif" font-size="10.00">algorithm</text>
</a>
</g>
</g>
<!-- Node1&#45;&gt;Node2 -->
<g id="edge1_Node000001_Node000002" class="edge">
<title>Node1&#45;&gt;Node2</title>
<g id="a_edge1_Node000001_Node000002"><a xlink:title=" ">
<path fill="none" stroke="#63b8ff" d="M501.34,-73.52C404.34,-70.98 223.51,-61.94 73,-30 69.94,-29.35 66.78,-28.54 63.65,-27.64"/>
<polygon fill="#63b8ff" stroke="#63b8ff" points="64.45,-24.22 53.86,-24.55 62.34,-30.9 64.45,-24.22"/>
</a>
</g>
</g>
<!-- Node3 -->
<g id="Node000003" class="node">
<title>Node3</title>
<g id="a_Node000003"><a xlink:title=" ">
<polygon fill="#e0e0e0" stroke="#999999" points="209.5,-30 82.5,-30 82.5,0 209.5,0 209.5,-30"/>
<text text-anchor="start" x="90.5" y="-18" font-family="Helvetica,sans-Serif" font-size="10.00">boost/graph/adjacency</text>
<text text-anchor="middle" x="146" y="-7" font-family="Helvetica,sans-Serif" font-size="10.00">_list.hpp</text>
</a>
</g>
</g>
<!-- Node1&#45;&gt;Node3 -->
<g id="edge2_Node000001_Node000003" class="edge">
<title>Node1&#45;&gt;Node3</title>
<g id="a_edge2_Node000001_Node000003"><a xlink:title=" ">
<path fill="none" stroke="#63b8ff" d="M501.35,-67.02C432.43,-59.32 323.7,-46.36 219.71,-30.05"/>
<polygon fill="#63b8ff" stroke="#63b8ff" points="220.08,-26.56 209.66,-28.46 218.99,-33.48 220.08,-26.56"/>
</a>
</g>
</g>
<!-- Node4 -->
<g id="Node000004" class="node">
<title>Node4</title>
<g id="a_Node000004"><a xlink:title=" ">
<polygon fill="#e0e0e0" stroke="#999999" points="356,-30 228,-30 228,0 356,0 356,-30"/>
<text text-anchor="start" x="236" y="-18" font-family="Helvetica,sans-Serif" font-size="10.00">boost/graph/connected</text>
<text text-anchor="middle" x="292" y="-7" font-family="Helvetica,sans-Serif" font-size="10.00">_components.hpp</text>
</a>
</g>
</g>
<!-- Node1&#45;&gt;Node4 -->
<g id="edge3_Node000001_Node000004" class="edge">
<title>Node1&#45;&gt;Node4</title>
<g id="a_edge3_Node000001_Node000004"><a xlink:title=" ">
<path fill="none" stroke="#63b8ff" d="M530.43,-65.99C487.48,-56.99 418.75,-42.58 366.1,-31.54"/>
<polygon fill="#63b8ff" stroke="#63b8ff" points="366.63,-28.07 356.13,-29.45 365.2,-34.92 366.63,-28.07"/>
</a>
</g>
</g>
<!-- Node5 -->
<g id="Node000005" class="node">
<title>Node5</title>
<g id="a_Node000005"><a xlink:title=" ">
<polygon fill="#e0e0e0" stroke="#999999" points="421.5,-24.5 374.5,-24.5 374.5,-5.5 421.5,-5.5 421.5,-24.5"/>
<text text-anchor="middle" x="398" y="-12.5" font-family="Helvetica,sans-Serif" font-size="10.00">cmath</text>
</a>
</g>
</g>
<!-- Node1&#45;&gt;Node5 -->
<g id="edge4_Node000001_Node000005" class="edge">
<title>Node1&#45;&gt;Node5</title>
<g id="a_edge4_Node000001_Node000005"><a xlink:title=" ">
<path fill="none" stroke="#63b8ff" d="M540.7,-65.96C511.93,-57.6 467.61,-44.12 430,-30 428.79,-29.54 427.55,-29.07 426.31,-28.58"/>
<polygon fill="#63b8ff" stroke="#63b8ff" points="427.39,-25.24 416.81,-24.63 424.71,-31.7 427.39,-25.24"/>
</a>
</g>
</g>
<!-- Node6 -->
<g id="Node000006" class="node">
<title>Node6</title>
<g id="a_Node000006"><a xlink:title=" ">
<polygon fill="#e0e0e0" stroke="#999999" points="486.5,-24.5 439.5,-24.5 439.5,-5.5 486.5,-5.5 486.5,-24.5"/>
<text text-anchor="middle" x="463" y="-12.5" font-family="Helvetica,sans-Serif" font-size="10.00">deque</text>
</a>
</g>
</g>
<!-- Node1&#45;&gt;Node6 -->
<g id="edge5_Node000001_Node000006" class="edge">
<title>Node1&#45;&gt;Node6</title>
<g id="a_edge5_Node000001_Node000006"><a xlink:title=" ">
<path fill="none" stroke="#63b8ff" d="M555.06,-65.87C537.36,-56.28 508.54,-40.67 487.86,-29.47"/>
<polygon fill="#63b8ff" stroke="#63b8ff" points="489.46,-26.35 479,-24.67 486.13,-32.51 489.46,-26.35"/>
</a>
</g>
</g>
<!-- Node7 -->
<g id="Node000007" class="node">
<title>Node7</title>
<g id="a_Node000007"><a xlink:title=" ">
<polygon fill="#e0e0e0" stroke="#999999" points="563,-24.5 505,-24.5 505,-5.5 563,-5.5 563,-24.5"/>
<text text-anchor="middle" x="534" y="-12.5" font-family="Helvetica,sans-Serif" font-size="10.00">memory</text>
</a>
</g>
</g>
<!-- Node1&#45;&gt;Node7 -->
<g id="edge6_Node000001_Node000007" class="edge">
<title>Node1&#45;&gt;Node7</title>
<g id="a_edge6_Node000001_Node000007"><a xlink:title=" ">
<path fill="none" stroke="#63b8ff" d="M565.54,-65.87C560.13,-57.31 551.69,-43.97 544.9,-33.24"/>
<polygon fill="#63b8ff" stroke="#63b8ff" points="547.79,-31.25 539.48,-24.67 541.87,-34.99 547.79,-31.25"/>
</a>
</g>
</g>
<!-- Node8 -->
<g id="Node000008" class="node">
<title>Node8</title>
<g id="a_Node000008"><a xlink:title=" ">
<polygon fill="#e0e0e0" stroke="#999999" points="635,-24.5 581,-24.5 581,-5.5 635,-5.5 635,-24.5"/>
<text text-anchor="middle" x="608" y="-12.5" font-family="Helvetica,sans-Serif" font-size="10.00">random</text>
</a>
</g>
</g>
<!-- Node1&#45;&gt;Node8 -->
<g id="edge7_Node000001_Node000008" class="edge">
<title>Node1&#45;&gt;Node8</title>
<g id="a_edge7_Node000001_Node000008"><a xlink:title=" ">
<path fill="none" stroke="#63b8ff" d="M576.46,-65.87C581.87,-57.31 590.31,-43.97 597.1,-33.24"/>
<polygon fill="#63b8ff" stroke="#63b8ff" points="600.13,-34.99 602.52,-24.67 594.21,-31.25 600.13,-34.99"/>
</a>
</g>
</g>
<!-- Node9 -->
<g id="Node000009" class="node">
<title>Node9</title>
<g id="a_Node000009"><a xlink:title=" ">
<polygon fill="#e0e0e0" stroke="#999999" points="696.5,-24.5 653.5,-24.5 653.5,-5.5 696.5,-5.5 696.5,-24.5"/>
<text text-anchor="middle" x="675" y="-12.5" font-family="Helvetica,sans-Serif" font-size="10.00">stack</text>
</a>
</g>
</g>
<!-- Node1&#45;&gt;Node9 -->
<g id="edge8_Node000001_Node000009" class="edge">
<title>Node1&#45;&gt;Node9</title>
<g id="a_edge8_Node000001_Node000009"><a xlink:title=" ">
<path fill="none" stroke="#63b8ff" d="M586.35,-65.87C603.32,-56.32 630.9,-40.81 650.79,-29.62"/>
<polygon fill="#63b8ff" stroke="#63b8ff" points="652.59,-32.62 659.59,-24.67 649.16,-26.52 652.59,-32.62"/>
</a>
</g>
</g>
<!-- Node10 -->
<g id="Node000010" class="node">
<title>Node10</title>
<g id="a_Node000010"><a xlink:title=" ">
<polygon fill="#e0e0e0" stroke="#999999" points="779.5,-24.5 714.5,-24.5 714.5,-5.5 779.5,-5.5 779.5,-24.5"/>
<text text-anchor="middle" x="747" y="-12.5" font-family="Helvetica,sans-Serif" font-size="10.00">stdexcept</text>
</a>
</g>
</g>
<!-- Node1&#45;&gt;Node10 -->
<g id="edge9_Node000001_Node000010" class="edge">
<title>Node1&#45;&gt;Node10</title>
<g id="a_edge9_Node000001_Node000010"><a xlink:title=" ">
<path fill="none" stroke="#63b8ff" d="M597.16,-65.97C624.38,-57.07 668.22,-42.68 706,-30 708.09,-29.3 710.23,-28.58 712.39,-27.85"/>
<polygon fill="#63b8ff" stroke="#63b8ff" points="713.52,-31.16 721.86,-24.63 711.27,-24.53 713.52,-31.16"/>
</a>
</g>
</g>
<!-- Node11 -->
<g id="Node000011" class="node">
<title>Node11</title>
<g id="a_Node000011"><a xlink:title=" ">
<polygon fill="#e0e0e0" stroke="#999999" points="842,-24.5 798,-24.5 798,-5.5 842,-5.5 842,-24.5"/>
<text text-anchor="middle" x="820" y="-12.5" font-family="Helvetica,sans-Serif" font-size="10.00">string</text>
</a>
</g>
</g>
<!-- Node1&#45;&gt;Node11 -->
<g id="edge10_Node000001_Node000011" class="edge">
<title>Node1&#45;&gt;Node11</title>
<g id="a_edge10_Node000001_Node000011"><a xlink:title=" ">
<path fill="none" stroke="#63b8ff" d="M631.14,-65.93C675.44,-58.72 736.81,-46.88 789,-30 790.44,-29.53 791.9,-29.02 793.37,-28.48"/>
<polygon fill="#63b8ff" stroke="#63b8ff" points="794.98,-31.6 802.89,-24.55 792.31,-25.13 794.98,-31.6"/>
</a>
</g>
</g>
<!-- Node12 -->
<g id="Node000012" class="node">
<title>Node12</title>
<g id="a_Node000012"><a xlink:title=" ">
<polygon fill="#e0e0e0" stroke="#999999" points="953.5,-24.5 860.5,-24.5 860.5,-5.5 953.5,-5.5 953.5,-24.5"/>
<text text-anchor="middle" x="907" y="-12.5" font-family="Helvetica,sans-Serif" font-size="10.00">unordered_map</text>
</a>
</g>
</g>
<!-- Node1&#45;&gt;Node12 -->
<g id="edge11_Node000001_Node000012" class="edge">
<title>Node1&#45;&gt;Node12</title>
<g id="a_edge11_Node000001_Node000012"><a xlink:title=" ">
<path fill="none" stroke="#63b8ff" d="M634.67,-66C691.61,-58.01 777.21,-45.06 851,-30 855.48,-29.08 860.15,-28.05 864.79,-26.97"/>
<polygon fill="#63b8ff" stroke="#63b8ff" points="865.93,-30.3 874.83,-24.55 864.29,-23.49 865.93,-30.3"/>
</a>
</g>
</g>
<!-- Node13 -->
<g id="Node000013" class="node">
<title>Node13</title>
<g id="a_Node000013"><a xlink:title=" ">
<polygon fill="#e0e0e0" stroke="#999999" points="1018.5,-24.5 971.5,-24.5 971.5,-5.5 1018.5,-5.5 1018.5,-24.5"/>
<text text-anchor="middle" x="995" y="-12.5" font-family="Helvetica,sans-Serif" font-size="10.00">vector</text>
</a>
</g>
</g>
<!-- Node1&#45;&gt;Node13 -->
<g id="edge12_Node000001_Node000013" class="edge">
<title>Node1&#45;&gt;Node13</title>
<g id="a_edge12_Node000001_Node000013"><a xlink:title=" ">
<path fill="none" stroke="#63b8ff" d="M640.86,-72.85C720.18,-69.53 852.87,-59.62 963,-30 964.89,-29.49 966.81,-28.89 968.72,-28.23"/>
<polygon fill="#63b8ff" stroke="#63b8ff" points="970.06,-31.46 978.07,-24.53 967.48,-24.95 970.06,-31.46"/>
</a>
</g>
</g>
</g>
</svg>
