<?xml version="1.0" encoding="UTF-8" standalone="no"?>
<!DOCTYPE svg PUBLIC "-//W3C//DTD SVG 1.1//EN"
 "http://www.w3.org/Graphics/SVG/1.1/DTD/svg11.dtd">
<!-- Generated by graphviz version 2.43.0 (0)
 -->
<!-- Title: chunk_windows.hpp Pages: 1 -->
<svg width="585pt" height="192pt"
 viewBox="0.00 0.00 585.00 192.00" xmlns="http://www.w3.org/2000/svg" xmlns:xlink="http://www.w3.org/1999/xlink">
<g id="graph0" class="graph" transform="scale(1 1) rotate(0) translate(4 188)">
<title>chunk_windows.hpp</title>
<!-- Node1 -->
<g id="Node000001" class="node">
<title>Node1</title>
<g id="a_Node000001"><a xlink:title=" ">
<polygon fill="#999999" stroke="#666666" points="440,-184 325,-184 325,-165 440,-165 440,-184"/>
<text text-anchor="middle" x="382.5" y="-172" font-family="Helvetica,sans-Serif" font-size="10.00">chunk_windows.hpp</text>
</a>
</g>
</g>
<!-- Node2 -->
<g id="Node000002" class="node">
<title>Node2</title>
<g id="a_Node000002"><a xlink:href="chunk_8hpp.html" target="_top" xlink:title=" ">
<polygon fill="white" stroke="#666666" points="275,-129 208,-129 208,-110 275,-110 275,-129"/>
<text text-anchor="middle" x="241.5" y="-117" font-family="Helvetica,sans-Serif" font-size="10.00">chunk.hpp</text>
</a>
</g>
</g>
<!-- Node1&#45;&gt;Node2 -->
<g id="edge1_Node000001_Node000002" class="edge">
<title>Node1&#45;&gt;Node2</title>
<g id="a_edge1_Node000001_Node000002"><a xlink:title=" ">
<path fill="none" stroke="#63b8ff" d="M359.85,-164.98C336.65,-156.27 300.38,-142.63 274.1,-132.75"/>
<polygon fill="#63b8ff" stroke="#63b8ff" points="275.16,-129.41 264.57,-129.17 272.7,-135.97 275.16,-129.41"/>
</a>
</g>
</g>
<!-- Node3 -->
<g id="Node000003" class="node">
<title>Node3</title>
<g id="a_Node000003"><a xlink:href="chunk__common_8hpp.html" target="_top" xlink:title=" ">
<polygon fill="white" stroke="#666666" points="115,-74 0,-74 0,-55 115,-55 115,-74"/>
<text text-anchor="middle" x="57.5" y="-62" font-family="Helvetica,sans-Serif" font-size="10.00">chunk_common.hpp</text>
</a>
</g>
</g>
<!-- Node1&#45;&gt;Node3 -->
<g id="edge9_Node000001_Node000003" class="edge">
<title>Node1&#45;&gt;Node3</title>
<g id="a_edge9_Node000001_Node000003"><a xlink:title=" ">
<path fill="none" stroke="#63b8ff" d="M337.22,-165C299.56,-157.35 244.82,-144.88 198.5,-129 156.93,-114.75 110.87,-92.76 83.06,-78.75"/>
<polygon fill="#63b8ff" stroke="#63b8ff" points="84.52,-75.57 74.02,-74.16 81.35,-81.81 84.52,-75.57"/>
</a>
</g>
</g>
<!-- Node5 -->
<g id="Node000005" class="node">
<title>Node5</title>
<g id="a_Node000005"><a xlink:title=" ">
<polygon fill="#e0e0e0" stroke="#999999" points="167,-19 120,-19 120,0 167,0 167,-19"/>
<text text-anchor="middle" x="143.5" y="-7" font-family="Helvetica,sans-Serif" font-size="10.00">vector</text>
</a>
</g>
</g>
<!-- Node1&#45;&gt;Node5 -->
<g id="edge13_Node000001_Node000005" class="edge">
<title>Node1&#45;&gt;Node5</title>
<g id="a_edge13_Node000001_Node000005"><a xlink:title=" ">
<path fill="none" stroke="#63b8ff" d="M385.82,-164.81C393.4,-143.36 409.32,-87.28 382.5,-55 356.8,-24.07 236.93,-14.53 177.33,-11.67"/>
<polygon fill="#63b8ff" stroke="#63b8ff" points="177.42,-8.17 167.28,-11.23 177.11,-15.17 177.42,-8.17"/>
</a>
</g>
</g>
<!-- Node6 -->
<g id="Node000006" class="node">
<title>Node6</title>
<g id="a_Node000006"><a xlink:title=" ">
<polygon fill="#e0e0e0" stroke="#999999" points="373.5,-74 317.5,-74 317.5,-55 373.5,-55 373.5,-74"/>
<text text-anchor="middle" x="345.5" y="-62" font-family="Helvetica,sans-Serif" font-size="10.00">numeric</text>
</a>
</g>
</g>
<!-- Node1&#45;&gt;Node6 -->
<g id="edge12_Node000001_Node000006" class="edge">
<title>Node1&#45;&gt;Node6</title>
<g id="a_edge12_Node000001_Node000006"><a xlink:title=" ">
<path fill="none" stroke="#63b8ff" d="M379.47,-164.66C373.43,-147.01 359.75,-107.09 351.71,-83.64"/>
<polygon fill="#63b8ff" stroke="#63b8ff" points="355.02,-82.48 348.47,-74.16 348.4,-84.75 355.02,-82.48"/>
</a>
</g>
</g>
<!-- Node9 -->
<g id="Node000009" class="node">
<title>Node9</title>
<g id="a_Node000009"><a xlink:title=" ">
<polygon fill="#e0e0e0" stroke="#999999" points="493.5,-129 429.5,-129 429.5,-110 493.5,-110 493.5,-129"/>
<text text-anchor="middle" x="461.5" y="-117" font-family="Helvetica,sans-Serif" font-size="10.00">algorithm</text>
</a>
</g>
</g>
<!-- Node1&#45;&gt;Node9 -->
<g id="edge10_Node000001_Node000009" class="edge">
<title>Node1&#45;&gt;Node9</title>
<g id="a_edge10_Node000001_Node000009"><a xlink:title=" ">
<path fill="none" stroke="#63b8ff" d="M395.19,-164.98C407.33,-156.84 425.86,-144.41 440.25,-134.76"/>
<polygon fill="#63b8ff" stroke="#63b8ff" points="442.22,-137.65 448.58,-129.17 438.32,-131.84 442.22,-137.65"/>
</a>
</g>
</g>
<!-- Node10 -->
<g id="Node000010" class="node">
<title>Node10</title>
<g id="a_Node000010"><a xlink:title=" ">
<polygon fill="#e0e0e0" stroke="#999999" points="577,-129 512,-129 512,-110 577,-110 577,-129"/>
<text text-anchor="middle" x="544.5" y="-117" font-family="Helvetica,sans-Serif" font-size="10.00">functional</text>
</a>
</g>
</g>
<!-- Node1&#45;&gt;Node10 -->
<g id="edge11_Node000001_Node000010" class="edge">
<title>Node1&#45;&gt;Node10</title>
<g id="a_edge11_Node000001_Node000010"><a xlink:title=" ">
<path fill="none" stroke="#63b8ff" d="M408.53,-164.98C435.61,-156.13 478.21,-142.19 508.51,-132.28"/>
<polygon fill="#63b8ff" stroke="#63b8ff" points="509.85,-135.52 518.27,-129.08 507.68,-128.87 509.85,-135.52"/>
</a>
</g>
</g>
<!-- Node2&#45;&gt;Node3 -->
<g id="edge2_Node000002_Node000003" class="edge">
<title>Node2&#45;&gt;Node3</title>
<g id="a_edge2_Node000002_Node000003"><a xlink:title=" ">
<path fill="none" stroke="#63b8ff" d="M211.94,-109.98C180.78,-101.01 131.53,-86.82 97.04,-76.89"/>
<polygon fill="#63b8ff" stroke="#63b8ff" points="97.87,-73.49 87.29,-74.08 95.93,-80.21 97.87,-73.49"/>
</a>
</g>
</g>
<!-- Node2&#45;&gt;Node5 -->
<g id="edge8_Node000002_Node000005" class="edge">
<title>Node2&#45;&gt;Node5</title>
<g id="a_edge8_Node000002_Node000005"><a xlink:title=" ">
<path fill="none" stroke="#63b8ff" d="M216.01,-109.97C198.6,-102.91 176.26,-91.22 162.5,-74 152.28,-61.22 147.56,-43.05 145.37,-29.41"/>
<polygon fill="#63b8ff" stroke="#63b8ff" points="148.81,-28.72 144.07,-19.25 141.87,-29.61 148.81,-28.72"/>
</a>
</g>
</g>
<!-- Node2&#45;&gt;Node6 -->
<g id="edge5_Node000002_Node000006" class="edge">
<title>Node2&#45;&gt;Node6</title>
<g id="a_edge5_Node000002_Node000006"><a xlink:title=" ">
<path fill="none" stroke="#63b8ff" d="M258.21,-109.98C274.71,-101.57 300.2,-88.59 319.38,-78.81"/>
<polygon fill="#63b8ff" stroke="#63b8ff" points="321.17,-81.83 328.49,-74.17 317.99,-75.59 321.17,-81.83"/>
</a>
</g>
</g>
<!-- Node7 -->
<g id="Node000007" class="node">
<title>Node7</title>
<g id="a_Node000007"><a xlink:title=" ">
<polygon fill="#e0e0e0" stroke="#999999" points="237,-74 172,-74 172,-55 237,-55 237,-74"/>
<text text-anchor="middle" x="204.5" y="-62" font-family="Helvetica,sans-Serif" font-size="10.00">stdexcept</text>
</a>
</g>
</g>
<!-- Node2&#45;&gt;Node7 -->
<g id="edge6_Node000002_Node000007" class="edge">
<title>Node2&#45;&gt;Node7</title>
<g id="a_edge6_Node000002_Node000007"><a xlink:title=" ">
<path fill="none" stroke="#63b8ff" d="M235.39,-109.75C230.22,-102.34 222.65,-91.5 216.31,-82.41"/>
<polygon fill="#63b8ff" stroke="#63b8ff" points="219.09,-80.29 210.5,-74.09 213.35,-84.29 219.09,-80.29"/>
</a>
</g>
</g>
<!-- Node8 -->
<g id="Node000008" class="node">
<title>Node8</title>
<g id="a_Node000008"><a xlink:title=" ">
<polygon fill="#e0e0e0" stroke="#999999" points="299.5,-74 255.5,-74 255.5,-55 299.5,-55 299.5,-74"/>
<text text-anchor="middle" x="277.5" y="-62" font-family="Helvetica,sans-Serif" font-size="10.00">string</text>
</a>
</g>
</g>
<!-- Node2&#45;&gt;Node8 -->
<g id="edge7_Node000002_Node000008" class="edge">
<title>Node2&#45;&gt;Node8</title>
<g id="a_edge7_Node000002_Node000008"><a xlink:title=" ">
<path fill="none" stroke="#63b8ff" d="M247.44,-109.75C252.48,-102.34 259.84,-91.5 266.01,-82.41"/>
<polygon fill="#63b8ff" stroke="#63b8ff" points="268.94,-84.33 271.67,-74.09 263.15,-80.39 268.94,-84.33"/>
</a>
</g>
</g>
<!-- Node4 -->
<g id="Node000004" class="node">
<title>Node4</title>
<g id="a_Node000004"><a xlink:title=" ">
<polygon fill="#e0e0e0" stroke="#999999" points="92,-19 23,-19 23,0 92,0 92,-19"/>
<text text-anchor="middle" x="57.5" y="-7" font-family="Helvetica,sans-Serif" font-size="10.00">type_traits</text>
</a>
</g>
</g>
<!-- Node3&#45;&gt;Node4 -->
<g id="edge3_Node000003_Node000004" class="edge">
<title>Node3&#45;&gt;Node4</title>
<g id="a_edge3_Node000003_Node000004"><a xlink:title=" ">
<path fill="none" stroke="#63b8ff" d="M57.5,-54.75C57.5,-47.8 57.5,-37.85 57.5,-29.13"/>
<polygon fill="#63b8ff" stroke="#63b8ff" points="61,-29.09 57.5,-19.09 54,-29.09 61,-29.09"/>
</a>
</g>
</g>
<!-- Node3&#45;&gt;Node5 -->
<g id="edge4_Node000003_Node000005" class="edge">
<title>Node3&#45;&gt;Node5</title>
<g id="a_edge4_Node000003_Node000005"><a xlink:title=" ">
<path fill="none" stroke="#63b8ff" d="M71.32,-54.98C84.65,-46.77 105.08,-34.18 120.81,-24.49"/>
<polygon fill="#63b8ff" stroke="#63b8ff" points="122.75,-27.4 129.43,-19.17 119.08,-21.44 122.75,-27.4"/>
</a>
</g>
</g>
</g>
</svg>
