<?xml version="1.0" encoding="UTF-8" standalone="no"?>
<!DOCTYPE svg PUBLIC "-//W3C//DTD SVG 1.1//EN"
 "http://www.w3.org/Graphics/SVG/1.1/DTD/svg11.dtd">
<!-- Generated by graphviz version 2.43.0 (0)
 -->
<!-- Title: chunk.hpp Pages: 1 -->
<svg width="370pt" height="225pt"
 viewBox="0.00 0.00 369.81 225.00" xmlns="http://www.w3.org/2000/svg" xmlns:xlink="http://www.w3.org/1999/xlink">

<svg id="main" version="1.1" xmlns="http://www.w3.org/2000/svg" xmlns:xlink="http://www.w3.org/1999/xlink" xml:space="preserve" onload="init(evt)">
<style type="text/css"><![CDATA[
.node, .edge {opacity: 0.7;}
.node.selected, .edge.selected {opacity: 1;}
.edge:hover path { stroke: red; }
.edge:hover polygon { stroke: red; fill: red; }
]]></style>
<script type="application/ecmascript" xlink:href="svg.min.js"/>
<svg id="graph" class="graph">
<g id="graph0" class="graph" transform="scale(1 1) rotate(0) translate(4 221)">
<title>chunk.hpp</title>
<!-- Node1 -->
<g id="Node000001" class="node">
<title>Node1</title>
<g id="a_Node000001"><a xlink:title="Template class for chunk&#45;based data processing.">
<polygon fill="#999999" stroke="#666666" points="167.81,-217 100.81,-217 100.81,-198 167.81,-198 167.81,-217"/>
<text text-anchor="middle" x="134.31" y="-205" font-family="Helvetica,sans-Serif" font-size="10.00">chunk.hpp</text>
</a>
</g>
</g>
<!-- Node2 -->
<g id="Node000002" class="node">
<title>Node2</title>
<g id="a_Node000002"><a xlink:href="main_8cpp.html" target="_top" xlink:title="Demonstrates various chunking strategies and operations.">
<polygon fill="white" stroke="#666666" points="158.81,-52 21.81,-52 21.81,0 158.81,0 158.81,-52"/>
<text text-anchor="start" x="29.81" y="-40" font-family="Helvetica,sans-Serif" font-size="10.00">/mnt/c/Users/jonat</text>
<text text-anchor="start" x="29.81" y="-29" font-family="Helvetica,sans-Serif" font-size="10.00">/OneDrive/Documents</text>
<text text-anchor="start" x="29.81" y="-18" font-family="Helvetica,sans-Serif" font-size="10.00">/Python Scripts/chunking</text>
<text text-anchor="middle" x="90.31" y="-7" font-family="Helvetica,sans-Serif" font-size="10.00">_cpp/src/main.cpp</text>
</a>
</g>
</g>
<!-- Node1&#45;&gt;Node2 -->
<g id="edge1_Node000001_Node000002" class="edge">
<title>Node1&#45;&gt;Node2</title>
<g id="a_edge1_Node000001_Node000002"><a xlink:title=" ">
<path fill="none" stroke="#63b8ff" d="M90.95,-198.63C67.54,-192.34 39.75,-181.25 21.31,-162 3.41,-143.33 6.59,-132.51 2.31,-107 0.91,-98.67 -1.61,-95.48 2.31,-88 9.98,-73.34 22.96,-61.5 36.62,-52.3"/>
<polygon fill="#63b8ff" stroke="#63b8ff" points="90.12,-202.03 100.67,-201.05 91.81,-195.24 90.12,-202.03"/>
</a>
</g>
</g>
<!-- Node3 -->
<g id="Node000003" class="node">
<title>Node3</title>
<g id="a_Node000003"><a xlink:href="chunk__strategies_8hpp.html" target="_top" xlink:title="Defines various strategies for chunking data based on different criteria.">
<polygon fill="white" stroke="#666666" points="150.81,-162 29.81,-162 29.81,-143 150.81,-143 150.81,-162"/>
<text text-anchor="middle" x="90.31" y="-150" font-family="Helvetica,sans-Serif" font-size="10.00">chunk_strategies.hpp</text>
</a>
</g>
</g>
<!-- Node1&#45;&gt;Node3 -->
<g id="edge2_Node000001_Node000003" class="edge">
<title>Node1&#45;&gt;Node3</title>
<g id="a_edge2_Node000001_Node000003"><a xlink:title=" ">
<path fill="none" stroke="#63b8ff" d="M120.57,-189.96C112.91,-180.72 103.67,-169.6 97.44,-162.09"/>
<polygon fill="#63b8ff" stroke="#63b8ff" points="117.96,-192.29 127.04,-197.75 123.35,-187.82 117.96,-192.29"/>
</a>
</g>
</g>
<!-- Node5 -->
<g id="Node000005" class="node">
<title>Node5</title>
<g id="a_Node000005"><a xlink:href="chunk__windows_8hpp.html" target="_top" xlink:title=" ">
<polygon fill="white" stroke="#666666" points="294.81,-107 179.81,-107 179.81,-88 294.81,-88 294.81,-107"/>
<text text-anchor="middle" x="237.31" y="-95" font-family="Helvetica,sans-Serif" font-size="10.00">chunk_windows.hpp</text>
</a>
</g>
</g>
<!-- Node1&#45;&gt;Node5 -->
<g id="edge6_Node000001_Node000005" class="edge">
<title>Node1&#45;&gt;Node5</title>
<g id="a_edge6_Node000001_Node000005"><a xlink:title=" ">
<path fill="none" stroke="#63b8ff" d="M149.75,-190.3C171.88,-167.1 211.84,-125.21 229.05,-107.16"/>
<polygon fill="#63b8ff" stroke="#63b8ff" points="147.11,-188.01 142.74,-197.66 152.17,-192.84 147.11,-188.01"/>
</a>
</g>
</g>
<!-- Node6 -->
<g id="Node000006" class="node">
<title>Node6</title>
<g id="a_Node000006"><a xlink:href="parallel__chunk_8hpp.html" target="_top" xlink:title=" ">
<polygon fill="white" stroke="#666666" points="361.81,-162 252.81,-162 252.81,-143 361.81,-143 361.81,-162"/>
<text text-anchor="middle" x="307.31" y="-150" font-family="Helvetica,sans-Serif" font-size="10.00">parallel_chunk.hpp</text>
</a>
</g>
</g>
<!-- Node1&#45;&gt;Node6 -->
<g id="edge8_Node000001_Node000006" class="edge">
<title>Node1&#45;&gt;Node6</title>
<g id="a_edge8_Node000001_Node000006"><a xlink:title=" ">
<path fill="none" stroke="#63b8ff" d="M172.08,-194.93C204.39,-185.03 250.17,-171.01 279.29,-162.08"/>
<polygon fill="#63b8ff" stroke="#63b8ff" points="170.64,-191.71 162.1,-197.98 172.69,-198.4 170.64,-191.71"/>
</a>
</g>
</g>
<!-- Node3&#45;&gt;Node2 -->
<g id="edge3_Node000003_Node000002" class="edge">
<title>Node3&#45;&gt;Node2</title>
<g id="a_edge3_Node000003_Node000002"><a xlink:title=" ">
<path fill="none" stroke="#63b8ff" d="M49.45,-139.12C34.07,-132.26 18.17,-121.98 9.31,-107 -3.17,-85.91 15.44,-66.48 37.96,-52.05"/>
<polygon fill="#63b8ff" stroke="#63b8ff" points="48.3,-142.44 58.89,-142.97 50.95,-135.96 48.3,-142.44"/>
</a>
</g>
</g>
<!-- Node4 -->
<g id="Node000004" class="node">
<title>Node4</title>
<g id="a_Node000004"><a xlink:href="sub__chunk__strategies_8hpp.html" target="_top" xlink:title="Advanced sub&#45;chunking strategies for hierarchical data processing.">
<polygon fill="white" stroke="#666666" points="161.81,-107 18.81,-107 18.81,-88 161.81,-88 161.81,-107"/>
<text text-anchor="middle" x="90.31" y="-95" font-family="Helvetica,sans-Serif" font-size="10.00">sub_chunk_strategies.hpp</text>
</a>
</g>
</g>
<!-- Node3&#45;&gt;Node4 -->
<g id="edge4_Node000003_Node000004" class="edge">
<title>Node3&#45;&gt;Node4</title>
<g id="a_edge4_Node000003_Node000004"><a xlink:title=" ">
<path fill="none" stroke="#63b8ff" d="M90.31,-132.66C90.31,-123.93 90.31,-113.99 90.31,-107.09"/>
<polygon fill="#63b8ff" stroke="#63b8ff" points="86.81,-132.75 90.31,-142.75 93.81,-132.75 86.81,-132.75"/>
</a>
</g>
</g>
<!-- Node4&#45;&gt;Node2 -->
<g id="edge5_Node000004_Node000002" class="edge">
<title>Node4&#45;&gt;Node2</title>
<g id="a_edge5_Node000004_Node000002"><a xlink:title=" ">
<path fill="none" stroke="#63b8ff" d="M90.31,-77.96C90.31,-70.01 90.31,-60.61 90.31,-52.05"/>
<polygon fill="#63b8ff" stroke="#63b8ff" points="86.81,-77.98 90.31,-87.98 93.81,-77.98 86.81,-77.98"/>
</a>
</g>
</g>
<!-- Node5&#45;&gt;Node2 -->
<g id="edge7_Node000005_Node000002" class="edge">
<title>Node5&#45;&gt;Node2</title>
<g id="a_edge7_Node000005_Node000002"><a xlink:title=" ">
<path fill="none" stroke="#63b8ff" d="M210.17,-83.67C191.45,-74.82 165.96,-62.77 143.3,-52.05"/>
<polygon fill="#63b8ff" stroke="#63b8ff" points="208.75,-86.87 219.28,-87.98 211.74,-80.54 208.75,-86.87"/>
</a>
</g>
</g>
<!-- Node6&#45;&gt;Node2 -->
<g id="edge9_Node000006_Node000002" class="edge">
<title>Node6&#45;&gt;Node2</title>
<g id="a_edge9_Node000006_Node000002"><a xlink:title=" ">
<path fill="none" stroke="#63b8ff" d="M311.77,-132.71C313.9,-118.89 314.15,-100.42 304.31,-88 286.1,-65.03 214.28,-47.86 158.81,-37.68"/>
<polygon fill="#63b8ff" stroke="#63b8ff" points="308.32,-132.11 309.83,-142.6 315.19,-133.46 308.32,-132.11"/>
</a>
</g>
</g>
</g>
</svg>
</svg>

<style type='text/css'>
<![CDATA[
[data-mouse-over-selected='false'] { opacity: 0.7; }
[data-mouse-over-selected='true']  { opacity: 1.0; }
]]>
</style>
<script type="application/ecmascript"><![CDATA[
document.addEventListener('DOMContentLoaded', (event) => {
  highlightEdges();
  highlightAdjacentNodes();
});
]]></script>
</svg>
