<?xml version="1.0" encoding="UTF-8" standalone="no"?>
<!DOCTYPE svg PUBLIC "-//W3C//DTD SVG 1.1//EN"
 "http://www.w3.org/Graphics/SVG/1.1/DTD/svg11.dtd">
<!-- Generated by graphviz version 2.43.0 (0)
 -->
<!-- Title: chunk.hpp Pages: 1 -->
<svg width="725pt" height="225pt"
 viewBox="0.00 0.00 724.76 225.00" xmlns="http://www.w3.org/2000/svg" xmlns:xlink="http://www.w3.org/1999/xlink">
<g id="graph0" class="graph" transform="scale(1 1) rotate(0) translate(4 221)">
<title>chunk.hpp</title>
<!-- Node1 -->
<g id="Node000001" class="node">
<title>Node1</title>
<g id="a_Node000001"><a xlink:title=" ">
<polygon fill="#999999" stroke="#666666" points="257.76,-217 190.76,-217 190.76,-198 257.76,-198 257.76,-217"/>
<text text-anchor="middle" x="224.26" y="-205" font-family="Helvetica,sans-Serif" font-size="10.00">chunk.hpp</text>
</a>
</g>
</g>
<!-- Node2 -->
<g id="Node000002" class="node">
<title>Node2</title>
<g id="a_Node000002"><a xlink:href="benchmark_8cpp.html" target="_top" xlink:title="Implementation of benchmarking utilities.">
<polygon fill="white" stroke="#666666" points="162.76,-52 25.76,-52 25.76,0 162.76,0 162.76,-52"/>
<text text-anchor="start" x="33.76" y="-40" font-family="Helvetica,sans-Serif" font-size="10.00">/mnt/c/Users/jonat</text>
<text text-anchor="start" x="33.76" y="-29" font-family="Helvetica,sans-Serif" font-size="10.00">/OneDrive/Documents</text>
<text text-anchor="start" x="33.76" y="-18" font-family="Helvetica,sans-Serif" font-size="10.00">/Python Scripts/chunking</text>
<text text-anchor="middle" x="94.26" y="-7" font-family="Helvetica,sans-Serif" font-size="10.00">_cpp/src/benchmark.cpp</text>
</a>
</g>
</g>
<!-- Node1&#45;&gt;Node2 -->
<g id="edge1_Node000001_Node000002" class="edge">
<title>Node1&#45;&gt;Node2</title>
<g id="a_edge1_Node000001_Node000002"><a xlink:title=" ">
<path fill="none" stroke="#63b8ff" d="M180.41,-201.71C129.16,-195.27 48.52,-182.23 26.26,-162 1.22,-139.23 -7.28,-118.07 8.26,-88 15.82,-73.36 28.7,-61.48 42.22,-52.22"/>
<polygon fill="#63b8ff" stroke="#63b8ff" points="180.2,-205.21 190.55,-202.95 181.05,-198.26 180.2,-205.21"/>
</a>
</g>
</g>
<!-- Node3 -->
<g id="Node000003" class="node">
<title>Node3</title>
<g id="a_Node000003"><a xlink:href="main_8cpp.html" target="_top" xlink:title="Demonstrates various chunking strategies and operations.">
<polygon fill="white" stroke="#666666" points="392.76,-52 255.76,-52 255.76,0 392.76,0 392.76,-52"/>
<text text-anchor="start" x="263.76" y="-40" font-family="Helvetica,sans-Serif" font-size="10.00">/mnt/c/Users/jonat</text>
<text text-anchor="start" x="263.76" y="-29" font-family="Helvetica,sans-Serif" font-size="10.00">/OneDrive/Documents</text>
<text text-anchor="start" x="263.76" y="-18" font-family="Helvetica,sans-Serif" font-size="10.00">/Python Scripts/chunking</text>
<text text-anchor="middle" x="324.26" y="-7" font-family="Helvetica,sans-Serif" font-size="10.00">_cpp/src/main.cpp</text>
</a>
</g>
</g>
<!-- Node1&#45;&gt;Node3 -->
<g id="edge2_Node000001_Node000003" class="edge">
<title>Node1&#45;&gt;Node3</title>
<g id="a_edge2_Node000001_Node000003"><a xlink:title=" ">
<path fill="none" stroke="#63b8ff" d="M180.74,-198.85C107.5,-184.14 -27.81,-147.94 21.26,-88 28.72,-78.89 168.35,-53.6 255.43,-38.6"/>
<polygon fill="#63b8ff" stroke="#63b8ff" points="180.15,-202.3 190.64,-200.79 181.49,-195.43 180.15,-202.3"/>
</a>
</g>
</g>
<!-- Node4 -->
<g id="Node000004" class="node">
<title>Node4</title>
<g id="a_Node000004"><a xlink:href="chunk__benchmark_8hpp.html" target="_top" xlink:title="Performance benchmarking tools for chunk processing.">
<polygon fill="white" stroke="#666666" points="157.76,-107 30.76,-107 30.76,-88 157.76,-88 157.76,-107"/>
<text text-anchor="middle" x="94.26" y="-95" font-family="Helvetica,sans-Serif" font-size="10.00">chunk_benchmark.hpp</text>
</a>
</g>
</g>
<!-- Node1&#45;&gt;Node4 -->
<g id="edge3_Node000001_Node000004" class="edge">
<title>Node1&#45;&gt;Node4</title>
<g id="a_edge3_Node000001_Node000004"><a xlink:title=" ">
<path fill="none" stroke="#63b8ff" d="M199.51,-192.81C185.64,-184.64 168.34,-173.62 154.26,-162 133.21,-144.62 112.1,-120.29 101.42,-107.37"/>
<polygon fill="#63b8ff" stroke="#63b8ff" points="198.08,-196.02 208.49,-197.98 201.58,-189.96 198.08,-196.02"/>
</a>
</g>
</g>
<!-- Node5 -->
<g id="Node000005" class="node">
<title>Node5</title>
<g id="a_Node000005"><a xlink:href="chunk__strategies_8hpp.html" target="_top" xlink:title="Defines various strategies for chunking data based on different criteria.">
<polygon fill="white" stroke="#666666" points="284.76,-162 163.76,-162 163.76,-143 284.76,-143 284.76,-162"/>
<text text-anchor="middle" x="224.26" y="-150" font-family="Helvetica,sans-Serif" font-size="10.00">chunk_strategies.hpp</text>
</a>
</g>
</g>
<!-- Node1&#45;&gt;Node5 -->
<g id="edge5_Node000001_Node000005" class="edge">
<title>Node1&#45;&gt;Node5</title>
<g id="a_edge5_Node000001_Node000005"><a xlink:title=" ">
<path fill="none" stroke="#63b8ff" d="M224.26,-187.66C224.26,-178.93 224.26,-168.99 224.26,-162.09"/>
<polygon fill="#63b8ff" stroke="#63b8ff" points="220.76,-187.75 224.26,-197.75 227.76,-187.75 220.76,-187.75"/>
</a>
</g>
</g>
<!-- Node6 -->
<g id="Node000006" class="node">
<title>Node6</title>
<g id="a_Node000006"><a xlink:href="chunk__strategy__implementations_8hpp.html" target="_top" xlink:title=" ">
<polygon fill="white" stroke="#666666" points="614.76,-107 413.76,-107 413.76,-88 614.76,-88 614.76,-107"/>
<text text-anchor="middle" x="514.26" y="-95" font-family="Helvetica,sans-Serif" font-size="10.00">chunk_strategy_implementations.hpp</text>
</a>
</g>
</g>
<!-- Node1&#45;&gt;Node6 -->
<g id="edge12_Node000001_Node000006" class="edge">
<title>Node1&#45;&gt;Node6</title>
<g id="a_edge12_Node000001_Node000006"><a xlink:title=" ">
<path fill="none" stroke="#63b8ff" d="M257.13,-194.26C316.49,-172.15 440.13,-126.11 491.31,-107.05"/>
<polygon fill="#63b8ff" stroke="#63b8ff" points="255.65,-191.07 247.5,-197.84 258.1,-197.63 255.65,-191.07"/>
</a>
</g>
</g>
<!-- Node8 -->
<g id="Node000008" class="node">
<title>Node8</title>
<g id="a_Node000008"><a xlink:href="chunk__windows_8hpp.html" target="_top" xlink:title=" ">
<polygon fill="white" stroke="#666666" points="570.76,-162 455.76,-162 455.76,-143 570.76,-143 570.76,-162"/>
<text text-anchor="middle" x="513.26" y="-150" font-family="Helvetica,sans-Serif" font-size="10.00">chunk_windows.hpp</text>
</a>
</g>
</g>
<!-- Node1&#45;&gt;Node8 -->
<g id="edge13_Node000001_Node000008" class="edge">
<title>Node1&#45;&gt;Node8</title>
<g id="a_edge13_Node000001_Node000008"><a xlink:title=" ">
<path fill="none" stroke="#63b8ff" d="M267.86,-198.5C321.47,-188.67 412.07,-172.06 466.91,-162"/>
<polygon fill="#63b8ff" stroke="#63b8ff" points="267.18,-195.07 257.98,-200.32 268.45,-201.96 267.18,-195.07"/>
</a>
</g>
</g>
<!-- Node9 -->
<g id="Node000009" class="node">
<title>Node9</title>
<g id="a_Node000009"><a xlink:href="parallel__chunk_8hpp.html" target="_top" xlink:title=" ">
<polygon fill="white" stroke="#666666" points="716.76,-162 607.76,-162 607.76,-143 716.76,-143 716.76,-162"/>
<text text-anchor="middle" x="662.26" y="-150" font-family="Helvetica,sans-Serif" font-size="10.00">parallel_chunk.hpp</text>
</a>
</g>
</g>
<!-- Node1&#45;&gt;Node9 -->
<g id="edge15_Node000001_Node000009" class="edge">
<title>Node1&#45;&gt;Node9</title>
<g id="a_edge15_Node000001_Node000009"><a xlink:title=" ">
<path fill="none" stroke="#63b8ff" d="M268.18,-201.19C348.63,-191.45 519.45,-170.78 607.4,-160.14"/>
<polygon fill="#63b8ff" stroke="#63b8ff" points="267.41,-197.75 257.9,-202.43 268.25,-204.7 267.41,-197.75"/>
</a>
</g>
</g>
<!-- Node4&#45;&gt;Node2 -->
<g id="edge4_Node000004_Node000002" class="edge">
<title>Node4&#45;&gt;Node2</title>
<g id="a_edge4_Node000004_Node000002"><a xlink:title=" ">
<path fill="none" stroke="#63b8ff" d="M94.26,-77.96C94.26,-70.01 94.26,-60.61 94.26,-52.05"/>
<polygon fill="#63b8ff" stroke="#63b8ff" points="90.76,-77.98 94.26,-87.98 97.76,-77.98 90.76,-77.98"/>
</a>
</g>
</g>
<!-- Node5&#45;&gt;Node2 -->
<g id="edge6_Node000005_Node000002" class="edge">
<title>Node5&#45;&gt;Node2</title>
<g id="a_edge6_Node000005_Node000002"><a xlink:title=" ">
<path fill="none" stroke="#63b8ff" d="M210.42,-135.23C199,-122.07 182.14,-103.3 166.26,-88 153.52,-75.72 138.71,-62.95 125.85,-52.28"/>
<polygon fill="#63b8ff" stroke="#63b8ff" points="207.9,-137.67 217.08,-142.96 213.21,-133.1 207.9,-137.67"/>
</a>
</g>
</g>
<!-- Node5&#45;&gt;Node3 -->
<g id="edge7_Node000005_Node000003" class="edge">
<title>Node5&#45;&gt;Node3</title>
<g id="a_edge7_Node000005_Node000003"><a xlink:title=" ">
<path fill="none" stroke="#63b8ff" d="M226.65,-132.97C229.09,-119.53 233.92,-101.43 243.26,-88 253.02,-73.98 267.01,-61.83 280.63,-52.14"/>
<polygon fill="#63b8ff" stroke="#63b8ff" points="223.17,-132.54 225.11,-142.96 230.09,-133.61 223.17,-132.54"/>
</a>
</g>
</g>
<!-- Node5&#45;&gt;Node4 -->
<g id="edge8_Node000005_Node000004" class="edge">
<title>Node5&#45;&gt;Node4</title>
<g id="a_edge8_Node000005_Node000004"><a xlink:title=" ">
<path fill="none" stroke="#63b8ff" d="M193.99,-139.16C169.93,-129.35 136.87,-115.87 115.53,-107.17"/>
<polygon fill="#63b8ff" stroke="#63b8ff" points="192.79,-142.45 203.38,-142.98 195.44,-135.97 192.79,-142.45"/>
</a>
</g>
</g>
<!-- Node5&#45;&gt;Node6 -->
<g id="edge9_Node000005_Node000006" class="edge">
<title>Node5&#45;&gt;Node6</title>
<g id="a_edge9_Node000005_Node000006"><a xlink:title=" ">
<path fill="none" stroke="#63b8ff" d="M281.02,-141.13C335.39,-131.19 416.47,-116.37 467.3,-107.08"/>
<polygon fill="#63b8ff" stroke="#63b8ff" points="280.06,-137.74 270.86,-142.98 281.32,-144.63 280.06,-137.74"/>
</a>
</g>
</g>
<!-- Node7 -->
<g id="Node000007" class="node">
<title>Node7</title>
<g id="a_Node000007"><a xlink:href="sub__chunk__strategies_8hpp.html" target="_top" xlink:title="Advanced sub&#45;chunking strategies for hierarchical data processing.">
<polygon fill="white" stroke="#666666" points="395.76,-107 252.76,-107 252.76,-88 395.76,-88 395.76,-107"/>
<text text-anchor="middle" x="324.26" y="-95" font-family="Helvetica,sans-Serif" font-size="10.00">sub_chunk_strategies.hpp</text>
</a>
</g>
</g>
<!-- Node5&#45;&gt;Node7 -->
<g id="edge10_Node000005_Node000007" class="edge">
<title>Node5&#45;&gt;Node7</title>
<g id="a_edge10_Node000005_Node000007"><a xlink:title=" ">
<path fill="none" stroke="#63b8ff" d="M249.29,-138.23C267.63,-128.51 292,-115.6 307.9,-107.17"/>
<polygon fill="#63b8ff" stroke="#63b8ff" points="247.53,-135.21 240.33,-142.98 250.8,-141.39 247.53,-135.21"/>
</a>
</g>
</g>
<!-- Node7&#45;&gt;Node3 -->
<g id="edge11_Node000007_Node000003" class="edge">
<title>Node7&#45;&gt;Node3</title>
<g id="a_edge11_Node000007_Node000003"><a xlink:title=" ">
<path fill="none" stroke="#63b8ff" d="M324.26,-77.96C324.26,-70.01 324.26,-60.61 324.26,-52.05"/>
<polygon fill="#63b8ff" stroke="#63b8ff" points="320.76,-77.98 324.26,-87.98 327.76,-77.98 320.76,-77.98"/>
</a>
</g>
</g>
<!-- Node8&#45;&gt;Node3 -->
<g id="edge14_Node000008_Node000003" class="edge">
<title>Node8&#45;&gt;Node3</title>
<g id="a_edge14_Node000008_Node000003"><a xlink:title=" ">
<path fill="none" stroke="#63b8ff" d="M568.17,-140.39C605.56,-130.32 644.83,-113.17 624.26,-88 595.63,-52.97 472.4,-37.55 393.06,-31.15"/>
<polygon fill="#63b8ff" stroke="#63b8ff" points="567.07,-137.06 558.24,-142.92 568.79,-143.85 567.07,-137.06"/>
</a>
</g>
</g>
<!-- Node9&#45;&gt;Node3 -->
<g id="edge16_Node000009_Node000003" class="edge">
<title>Node9&#45;&gt;Node3</title>
<g id="a_edge16_Node000009_Node000003"><a xlink:title=" ">
<path fill="none" stroke="#63b8ff" d="M660.66,-132.34C658.42,-118.03 653.06,-99.09 640.26,-88 604.05,-56.62 474.54,-39.91 392.98,-32.3"/>
<polygon fill="#63b8ff" stroke="#63b8ff" points="657.22,-133.07 661.87,-142.59 664.17,-132.25 657.22,-133.07"/>
</a>
</g>
</g>
</g>
</svg>
