<?xml version="1.0" encoding="UTF-8" standalone="no"?>
<!DOCTYPE svg PUBLIC "-//W3C//DTD SVG 1.1//EN"
 "http://www.w3.org/Graphics/SVG/1.1/DTD/svg11.dtd">
<!-- Generated by graphviz version 2.43.0 (0)
 -->
<!-- Title: chunk_strategies.hpp Pages: 1 -->
<svg width="990pt" height="225pt"
 viewBox="0.00 0.00 990.00 225.00" xmlns="http://www.w3.org/2000/svg" xmlns:xlink="http://www.w3.org/1999/xlink">
<g id="graph0" class="graph" transform="scale(1 1) rotate(0) translate(4 221)">
<title>chunk_strategies.hpp</title>
<!-- Node1 -->
<g id="Node000001" class="node">
<title>Node1</title>
<g id="a_Node000001"><a xlink:title="Defines various strategies for chunking data based on different criteria.">
<polygon fill="#999999" stroke="#666666" points="479,-217 358,-217 358,-198 479,-198 479,-217"/>
<text text-anchor="middle" x="418.5" y="-205" font-family="Helvetica,sans-Serif" font-size="10.00">chunk_strategies.hpp</text>
</a>
</g>
</g>
<!-- Node2 -->
<g id="Node000002" class="node">
<title>Node2</title>
<g id="a_Node000002"><a xlink:href="benchmark_8cpp.html" target="_top" xlink:title="Implementation of benchmarking utilities.">
<polygon fill="white" stroke="#666666" points="768,-57.5 631,-57.5 631,-5.5 768,-5.5 768,-57.5"/>
<text text-anchor="start" x="639" y="-45.5" font-family="Helvetica,sans-Serif" font-size="10.00">/mnt/c/Users/jonat</text>
<text text-anchor="start" x="639" y="-34.5" font-family="Helvetica,sans-Serif" font-size="10.00">/OneDrive/Documents</text>
<text text-anchor="start" x="639" y="-23.5" font-family="Helvetica,sans-Serif" font-size="10.00">/Python Scripts/chunking</text>
<text text-anchor="middle" x="699.5" y="-12.5" font-family="Helvetica,sans-Serif" font-size="10.00">_cpp/src/benchmark.cpp</text>
</a>
</g>
</g>
<!-- Node1&#45;&gt;Node2 -->
<g id="edge1_Node000001_Node000002" class="edge">
<title>Node1&#45;&gt;Node2</title>
<g id="a_edge1_Node000001_Node000002"><a xlink:title=" ">
<path fill="none" stroke="#63b8ff" d="M489.12,-200.13C521.87,-194.31 559.81,-183.19 588.5,-162 614.99,-142.43 606.55,-124.4 627.5,-99 639.73,-84.17 655.2,-69.47 668.65,-57.68"/>
<polygon fill="#63b8ff" stroke="#63b8ff" points="488.43,-196.7 479.13,-201.78 489.57,-203.61 488.43,-196.7"/>
</a>
</g>
</g>
<!-- Node3 -->
<g id="Node000003" class="node">
<title>Node3</title>
<g id="a_Node000003"><a xlink:href="main_8cpp.html" target="_top" xlink:title="Demonstrates various chunking strategies and operations.">
<polygon fill="white" stroke="#666666" points="137,-57.5 0,-57.5 0,-5.5 137,-5.5 137,-57.5"/>
<text text-anchor="start" x="8" y="-45.5" font-family="Helvetica,sans-Serif" font-size="10.00">/mnt/c/Users/jonat</text>
<text text-anchor="start" x="8" y="-34.5" font-family="Helvetica,sans-Serif" font-size="10.00">/OneDrive/Documents</text>
<text text-anchor="start" x="8" y="-23.5" font-family="Helvetica,sans-Serif" font-size="10.00">/Python Scripts/chunking</text>
<text text-anchor="middle" x="68.5" y="-12.5" font-family="Helvetica,sans-Serif" font-size="10.00">_cpp/src/main.cpp</text>
</a>
</g>
</g>
<!-- Node1&#45;&gt;Node3 -->
<g id="edge2_Node000001_Node000003" class="edge">
<title>Node1&#45;&gt;Node3</title>
<g id="a_edge2_Node000001_Node000003"><a xlink:title=" ">
<path fill="none" stroke="#63b8ff" d="M347.78,-206.54C261.92,-205 124.14,-196.96 88.5,-162 60.97,-135 61.13,-86.98 64.38,-57.61"/>
<polygon fill="#63b8ff" stroke="#63b8ff" points="347.93,-210.04 357.98,-206.69 348.04,-203.04 347.93,-210.04"/>
</a>
</g>
</g>
<!-- Node4 -->
<g id="Node000004" class="node">
<title>Node4</title>
<g id="a_Node000004"><a xlink:href="advanced__chunk__strategies__test_8cpp.html" target="_top" xlink:title=" ">
<polygon fill="white" stroke="#666666" points="409,-162 258,-162 258,-99 409,-99 409,-162"/>
<text text-anchor="start" x="266" y="-150" font-family="Helvetica,sans-Serif" font-size="10.00">/mnt/c/Users/jonat</text>
<text text-anchor="start" x="266" y="-139" font-family="Helvetica,sans-Serif" font-size="10.00">/OneDrive/Documents</text>
<text text-anchor="start" x="266" y="-128" font-family="Helvetica,sans-Serif" font-size="10.00">/Python Scripts/chunking</text>
<text text-anchor="start" x="266" y="-117" font-family="Helvetica,sans-Serif" font-size="10.00">_cpp/tests/advanced_chunk</text>
<text text-anchor="middle" x="333.5" y="-106" font-family="Helvetica,sans-Serif" font-size="10.00">_strategies_test.cpp</text>
</a>
</g>
</g>
<!-- Node1&#45;&gt;Node4 -->
<g id="edge3_Node000001_Node000004" class="edge">
<title>Node1&#45;&gt;Node4</title>
<g id="a_edge3_Node000001_Node000004"><a xlink:title=" ">
<path fill="none" stroke="#63b8ff" d="M401.14,-191.19C391.62,-182.78 379.47,-172.06 368.1,-162.03"/>
<polygon fill="#63b8ff" stroke="#63b8ff" points="398.94,-193.9 408.75,-197.9 403.57,-188.66 398.94,-193.9"/>
</a>
</g>
</g>
<!-- Node5 -->
<g id="Node000005" class="node">
<title>Node5</title>
<g id="a_Node000005"><a xlink:href="chunk__strategies__test_8cpp.html" target="_top" xlink:title=" ">
<polygon fill="white" stroke="#666666" points="579.5,-162 427.5,-162 427.5,-99 579.5,-99 579.5,-162"/>
<text text-anchor="start" x="435.5" y="-150" font-family="Helvetica,sans-Serif" font-size="10.00">/mnt/c/Users/jonat</text>
<text text-anchor="start" x="435.5" y="-139" font-family="Helvetica,sans-Serif" font-size="10.00">/OneDrive/Documents</text>
<text text-anchor="start" x="435.5" y="-128" font-family="Helvetica,sans-Serif" font-size="10.00">/Python Scripts/chunking</text>
<text text-anchor="start" x="435.5" y="-117" font-family="Helvetica,sans-Serif" font-size="10.00">_cpp/tests/chunk_strategies</text>
<text text-anchor="middle" x="503.5" y="-106" font-family="Helvetica,sans-Serif" font-size="10.00">_test.cpp</text>
</a>
</g>
</g>
<!-- Node1&#45;&gt;Node5 -->
<g id="edge4_Node000001_Node000005" class="edge">
<title>Node1&#45;&gt;Node5</title>
<g id="a_edge4_Node000001_Node000005"><a xlink:title=" ">
<path fill="none" stroke="#63b8ff" d="M435.86,-191.19C445.38,-182.78 457.53,-172.06 468.9,-162.03"/>
<polygon fill="#63b8ff" stroke="#63b8ff" points="433.43,-188.66 428.25,-197.9 438.06,-193.9 433.43,-188.66"/>
</a>
</g>
</g>
<!-- Node6 -->
<g id="Node000006" class="node">
<title>Node6</title>
<g id="a_Node000006"><a xlink:href="chunk__benchmark_8hpp.html" target="_top" xlink:title="Performance benchmarking tools for chunk processing.">
<polygon fill="white" stroke="#666666" points="763,-140 636,-140 636,-121 763,-121 763,-140"/>
<text text-anchor="middle" x="699.5" y="-128" font-family="Helvetica,sans-Serif" font-size="10.00">chunk_benchmark.hpp</text>
</a>
</g>
</g>
<!-- Node1&#45;&gt;Node6 -->
<g id="edge5_Node000001_Node000006" class="edge">
<title>Node1&#45;&gt;Node6</title>
<g id="a_edge5_Node000001_Node000006"><a xlink:title=" ">
<path fill="none" stroke="#63b8ff" d="M477.92,-196.03C518.73,-188.21 573.91,-176.42 621.5,-162 641.96,-155.8 664.64,-146.66 680.24,-140.01"/>
<polygon fill="#63b8ff" stroke="#63b8ff" points="477.04,-192.63 467.87,-197.93 478.34,-199.51 477.04,-192.63"/>
</a>
</g>
</g>
<!-- Node7 -->
<g id="Node000007" class="node">
<title>Node7</title>
<g id="a_Node000007"><a xlink:href="chunk__strategy__implementations_8hpp.html" target="_top" xlink:title=" ">
<polygon fill="white" stroke="#666666" points="982,-140 781,-140 781,-121 982,-121 982,-140"/>
<text text-anchor="middle" x="881.5" y="-128" font-family="Helvetica,sans-Serif" font-size="10.00">chunk_strategy_implementations.hpp</text>
</a>
</g>
</g>
<!-- Node1&#45;&gt;Node7 -->
<g id="edge7_Node000001_Node000007" class="edge">
<title>Node1&#45;&gt;Node7</title>
<g id="a_edge7_Node000001_Node000007"><a xlink:title=" ">
<path fill="none" stroke="#63b8ff" d="M489.35,-200.7C561.18,-194.09 675.27,-181.6 772.5,-162 801.01,-156.25 832.99,-146.96 854.89,-140.14"/>
<polygon fill="#63b8ff" stroke="#63b8ff" points="488.71,-197.24 479.07,-201.63 489.35,-204.21 488.71,-197.24"/>
</a>
</g>
</g>
<!-- Node8 -->
<g id="Node000008" class="node">
<title>Node8</title>
<g id="a_Node000008"><a xlink:href="sub__chunk__strategies_8hpp.html" target="_top" xlink:title="Advanced sub&#45;chunking strategies for hierarchical data processing.">
<polygon fill="white" stroke="#666666" points="240,-140 97,-140 97,-121 240,-121 240,-140"/>
<text text-anchor="middle" x="168.5" y="-128" font-family="Helvetica,sans-Serif" font-size="10.00">sub_chunk_strategies.hpp</text>
</a>
</g>
</g>
<!-- Node1&#45;&gt;Node8 -->
<g id="edge9_Node000001_Node000008" class="edge">
<title>Node1&#45;&gt;Node8</title>
<g id="a_edge9_Node000001_Node000008"><a xlink:title=" ">
<path fill="none" stroke="#63b8ff" d="M364.41,-195.59C328.74,-187.27 281.41,-175.05 240.5,-162 219.89,-155.42 196.83,-146.6 182.21,-140.13"/>
<polygon fill="#63b8ff" stroke="#63b8ff" points="364.08,-199.11 374.61,-197.94 365.65,-192.29 364.08,-199.11"/>
</a>
</g>
</g>
<!-- Node6&#45;&gt;Node2 -->
<g id="edge6_Node000006_Node000002" class="edge">
<title>Node6&#45;&gt;Node2</title>
<g id="a_edge6_Node000006_Node000002"><a xlink:title=" ">
<path fill="none" stroke="#63b8ff" d="M699.5,-110.78C699.5,-95.72 699.5,-74.43 699.5,-57.85"/>
<polygon fill="#63b8ff" stroke="#63b8ff" points="696,-110.89 699.5,-120.89 703,-110.89 696,-110.89"/>
</a>
</g>
</g>
<!-- Node7&#45;&gt;Node2 -->
<g id="edge8_Node000007_Node000002" class="edge">
<title>Node7&#45;&gt;Node2</title>
<g id="a_edge8_Node000007_Node000002"><a xlink:title=" ">
<path fill="none" stroke="#63b8ff" d="M856.16,-115.99C827.92,-100.94 781.62,-76.27 746.67,-57.64"/>
<polygon fill="#63b8ff" stroke="#63b8ff" points="854.88,-119.28 865.35,-120.89 858.17,-113.1 854.88,-119.28"/>
</a>
</g>
</g>
<!-- Node8&#45;&gt;Node1 -->
<g id="edge12_Node000008_Node000001" class="edge">
<title>Node8&#45;&gt;Node1</title>
<g id="a_edge12_Node000008_Node000001"><a xlink:title=" ">
<path fill="none" stroke="#63b8ff" d="M206.62,-143.65C222.69,-149.56 241.43,-156.55 258.5,-162 303.45,-176.34 356.15,-189.68 388.58,-197.94"/>
<polygon fill="#63b8ff" stroke="#63b8ff" points="207.6,-140.28 197.01,-140.13 205.19,-146.85 207.6,-140.28"/>
</a>
</g>
</g>
<!-- Node8&#45;&gt;Node3 -->
<g id="edge10_Node000008_Node000003" class="edge">
<title>Node8&#45;&gt;Node3</title>
<g id="a_edge10_Node000008_Node000003"><a xlink:title=" ">
<path fill="none" stroke="#63b8ff" d="M152.3,-113.79C136.72,-98.67 112.9,-75.56 94.63,-57.85"/>
<polygon fill="#63b8ff" stroke="#63b8ff" points="150.01,-116.44 159.63,-120.89 154.88,-111.42 150.01,-116.44"/>
</a>
</g>
</g>
<!-- Node9 -->
<g id="Node000009" class="node">
<title>Node9</title>
<g id="a_Node000009"><a xlink:href="sub__chunk__strategies__test_8cpp.html" target="_top" xlink:title="Test suite for sub&#45;chunking strategies.">
<polygon fill="white" stroke="#666666" points="330,-63 155,-63 155,0 330,0 330,-63"/>
<text text-anchor="start" x="163" y="-51" font-family="Helvetica,sans-Serif" font-size="10.00">/mnt/c/Users/jonat</text>
<text text-anchor="start" x="163" y="-40" font-family="Helvetica,sans-Serif" font-size="10.00">/OneDrive/Documents</text>
<text text-anchor="start" x="163" y="-29" font-family="Helvetica,sans-Serif" font-size="10.00">/Python Scripts/chunking</text>
<text text-anchor="start" x="163" y="-18" font-family="Helvetica,sans-Serif" font-size="10.00">_cpp/tests/sub_chunk_strategies</text>
<text text-anchor="middle" x="242.5" y="-7" font-family="Helvetica,sans-Serif" font-size="10.00">_test.cpp</text>
</a>
</g>
</g>
<!-- Node8&#45;&gt;Node9 -->
<g id="edge11_Node000008_Node000009" class="edge">
<title>Node8&#45;&gt;Node9</title>
<g id="a_edge11_Node000008_Node000009"><a xlink:title=" ">
<path fill="none" stroke="#63b8ff" d="M181.14,-112.94C191.48,-99.37 206.41,-79.81 218.95,-63.37"/>
<polygon fill="#63b8ff" stroke="#63b8ff" points="178.35,-110.82 175.07,-120.89 183.92,-115.06 178.35,-110.82"/>
</a>
</g>
</g>
</g>
</svg>
