<?xml version="1.0" encoding="UTF-8" standalone="no"?>
<!DOCTYPE svg PUBLIC "-//W3C//DTD SVG 1.1//EN"
 "http://www.w3.org/Graphics/SVG/1.1/DTD/svg11.dtd">
<!-- Generated by graphviz version 2.43.0 (0)
 -->
<!-- Title: chunk.hpp Pages: 1 -->
<svg width="643pt" height="258pt"
 viewBox="0.00 0.00 643.00 258.00" xmlns="http://www.w3.org/2000/svg" xmlns:xlink="http://www.w3.org/1999/xlink">
<g id="graph0" class="graph" transform="scale(1 1) rotate(0) translate(4 254)">
<title>chunk.hpp</title>
<!-- Node1 -->
<g id="Node000001" class="node">
<title>Node1</title>
<g id="a_Node000001"><a xlink:title="Template class for chunk&#45;based data processing.">
<polygon fill="#999999" stroke="#666666" points="312,-250 245,-250 245,-231 312,-231 312,-250"/>
<text text-anchor="middle" x="278.5" y="-238" font-family="Helvetica,sans-Serif" font-size="10.00">chunk.hpp</text>
</a>
</g>
</g>
<!-- Node2 -->
<g id="Node000002" class="node">
<title>Node2</title>
<g id="a_Node000002"><a xlink:href="benchmark_8cpp.html" target="_top" xlink:title=" ">
<polygon fill="white" stroke="#666666" points="137,-195 0,-195 0,-143 137,-143 137,-195"/>
<text text-anchor="start" x="8" y="-183" font-family="Helvetica,sans-Serif" font-size="10.00">/mnt/c/Users/jonat</text>
<text text-anchor="start" x="8" y="-172" font-family="Helvetica,sans-Serif" font-size="10.00">/OneDrive/Documents</text>
<text text-anchor="start" x="8" y="-161" font-family="Helvetica,sans-Serif" font-size="10.00">/Python Scripts/chunking</text>
<text text-anchor="middle" x="68.5" y="-150" font-family="Helvetica,sans-Serif" font-size="10.00">_cpp/src/benchmark.cpp</text>
</a>
</g>
</g>
<!-- Node1&#45;&gt;Node2 -->
<g id="edge1_Node000001_Node000002" class="edge">
<title>Node1&#45;&gt;Node2</title>
<g id="a_edge1_Node000001_Node000002"><a xlink:title=" ">
<path fill="none" stroke="#63b8ff" d="M243.11,-227.79C214.27,-218.24 172.67,-204.48 137.32,-192.77"/>
<polygon fill="#63b8ff" stroke="#63b8ff" points="242.16,-231.16 252.75,-230.98 244.36,-224.51 242.16,-231.16"/>
</a>
</g>
</g>
<!-- Node3 -->
<g id="Node000003" class="node">
<title>Node3</title>
<g id="a_Node000003"><a xlink:href="main_8cpp.html" target="_top" xlink:title="Demonstrates various chunking strategies and operations.">
<polygon fill="white" stroke="#666666" points="372,-52 235,-52 235,0 372,0 372,-52"/>
<text text-anchor="start" x="243" y="-40" font-family="Helvetica,sans-Serif" font-size="10.00">/mnt/c/Users/jonat</text>
<text text-anchor="start" x="243" y="-29" font-family="Helvetica,sans-Serif" font-size="10.00">/OneDrive/Documents</text>
<text text-anchor="start" x="243" y="-18" font-family="Helvetica,sans-Serif" font-size="10.00">/Python Scripts/chunking</text>
<text text-anchor="middle" x="303.5" y="-7" font-family="Helvetica,sans-Serif" font-size="10.00">_cpp/src/main.cpp</text>
</a>
</g>
</g>
<!-- Node1&#45;&gt;Node3 -->
<g id="edge2_Node000001_Node000003" class="edge">
<title>Node1&#45;&gt;Node3</title>
<g id="a_edge2_Node000001_Node000003"><a xlink:title=" ">
<path fill="none" stroke="#63b8ff" d="M244.86,-226.43C231.33,-219.31 217.15,-209.03 209.5,-195 186.71,-153.18 191.15,-128.93 215.5,-88 224.15,-73.46 237.77,-61.55 251.73,-52.24"/>
<polygon fill="#63b8ff" stroke="#63b8ff" points="243.51,-229.66 254.03,-230.86 246.55,-223.36 243.51,-229.66"/>
</a>
</g>
</g>
<!-- Node4 -->
<g id="Node000004" class="node">
<title>Node4</title>
<g id="a_Node000004"><a xlink:href="chunk__strategies_8hpp.html" target="_top" xlink:title="Defines various strategies for chunking data based on different criteria.">
<polygon fill="white" stroke="#666666" points="339,-178.5 218,-178.5 218,-159.5 339,-159.5 339,-178.5"/>
<text text-anchor="middle" x="278.5" y="-166.5" font-family="Helvetica,sans-Serif" font-size="10.00">chunk_strategies.hpp</text>
</a>
</g>
</g>
<!-- Node1&#45;&gt;Node4 -->
<g id="edge3_Node000001_Node000004" class="edge">
<title>Node1&#45;&gt;Node4</title>
<g id="a_edge3_Node000001_Node000004"><a xlink:title=" ">
<path fill="none" stroke="#63b8ff" d="M278.5,-220.71C278.5,-207 278.5,-189.05 278.5,-178.59"/>
<polygon fill="#63b8ff" stroke="#63b8ff" points="275,-220.98 278.5,-230.98 282,-220.98 275,-220.98"/>
</a>
</g>
</g>
<!-- Node6 -->
<g id="Node000006" class="node">
<title>Node6</title>
<g id="a_Node000006"><a xlink:href="chunk__windows_8hpp.html" target="_top" xlink:title=" ">
<polygon fill="white" stroke="#666666" points="508,-107 393,-107 393,-88 508,-88 508,-107"/>
<text text-anchor="middle" x="450.5" y="-95" font-family="Helvetica,sans-Serif" font-size="10.00">chunk_windows.hpp</text>
</a>
</g>
</g>
<!-- Node1&#45;&gt;Node6 -->
<g id="edge7_Node000001_Node000006" class="edge">
<title>Node1&#45;&gt;Node6</title>
<g id="a_edge7_Node000001_Node000006"><a xlink:title=" ">
<path fill="none" stroke="#63b8ff" d="M302.74,-225.66C316.58,-217.38 334.01,-206.29 348.5,-195 386.19,-165.63 425.96,-124.67 442.53,-107.08"/>
<polygon fill="#63b8ff" stroke="#63b8ff" points="300.65,-222.83 293.81,-230.92 304.2,-228.86 300.65,-222.83"/>
</a>
</g>
</g>
<!-- Node7 -->
<g id="Node000007" class="node">
<title>Node7</title>
<g id="a_Node000007"><a xlink:href="parallel__chunk_8hpp.html" target="_top" xlink:title=" ">
<polygon fill="white" stroke="#666666" points="635,-107 526,-107 526,-88 635,-88 635,-107"/>
<text text-anchor="middle" x="580.5" y="-95" font-family="Helvetica,sans-Serif" font-size="10.00">parallel_chunk.hpp</text>
</a>
</g>
</g>
<!-- Node1&#45;&gt;Node7 -->
<g id="edge9_Node000001_Node000007" class="edge">
<title>Node1&#45;&gt;Node7</title>
<g id="a_edge9_Node000001_Node000007"><a xlink:title=" ">
<path fill="none" stroke="#63b8ff" d="M311.36,-227.36C333.86,-218.82 364.25,-206.85 390.5,-195 456.59,-165.16 532.85,-124.45 564.97,-107"/>
<polygon fill="#63b8ff" stroke="#63b8ff" points="310.05,-224.11 301.93,-230.91 312.52,-230.66 310.05,-224.11"/>
</a>
</g>
</g>
<!-- Node4&#45;&gt;Node3 -->
<g id="edge4_Node000004_Node000003" class="edge">
<title>Node4&#45;&gt;Node3</title>
<g id="a_edge4_Node000004_Node000003"><a xlink:title=" ">
<path fill="none" stroke="#63b8ff" d="M256.75,-153.42C236.59,-137.97 211.4,-112.45 223.5,-88 230.63,-73.6 242.97,-61.67 255.85,-52.3"/>
<polygon fill="#63b8ff" stroke="#63b8ff" points="254.82,-156.35 264.96,-159.4 258.94,-150.69 254.82,-156.35"/>
</a>
</g>
</g>
<!-- Node5 -->
<g id="Node000005" class="node">
<title>Node5</title>
<g id="a_Node000005"><a xlink:href="sub__chunk__strategies_8hpp.html" target="_top" xlink:title="Advanced sub&#45;chunking strategies for hierarchical data processing.">
<polygon fill="white" stroke="#666666" points="375,-107 232,-107 232,-88 375,-88 375,-107"/>
<text text-anchor="middle" x="303.5" y="-95" font-family="Helvetica,sans-Serif" font-size="10.00">sub_chunk_strategies.hpp</text>
</a>
</g>
</g>
<!-- Node4&#45;&gt;Node5 -->
<g id="edge5_Node000004_Node000005" class="edge">
<title>Node4&#45;&gt;Node5</title>
<g id="a_edge5_Node000004_Node000005"><a xlink:title=" ">
<path fill="none" stroke="#63b8ff" d="M284.96,-150.03C289.93,-136.22 296.57,-117.76 300.41,-107.09"/>
<polygon fill="#63b8ff" stroke="#63b8ff" points="281.66,-148.88 281.57,-159.48 288.24,-151.25 281.66,-148.88"/>
</a>
</g>
</g>
<!-- Node5&#45;&gt;Node3 -->
<g id="edge6_Node000005_Node000003" class="edge">
<title>Node5&#45;&gt;Node3</title>
<g id="a_edge6_Node000005_Node000003"><a xlink:title=" ">
<path fill="none" stroke="#63b8ff" d="M303.5,-77.96C303.5,-70.01 303.5,-60.61 303.5,-52.05"/>
<polygon fill="#63b8ff" stroke="#63b8ff" points="300,-77.98 303.5,-87.98 307,-77.98 300,-77.98"/>
</a>
</g>
</g>
<!-- Node6&#45;&gt;Node3 -->
<g id="edge8_Node000006_Node000003" class="edge">
<title>Node6&#45;&gt;Node3</title>
<g id="a_edge8_Node000006_Node000003"><a xlink:title=" ">
<path fill="none" stroke="#63b8ff" d="M423.36,-83.67C404.64,-74.82 379.15,-62.77 356.49,-52.05"/>
<polygon fill="#63b8ff" stroke="#63b8ff" points="421.94,-86.87 432.47,-87.98 424.93,-80.54 421.94,-86.87"/>
</a>
</g>
</g>
<!-- Node7&#45;&gt;Node3 -->
<g id="edge10_Node000007_Node000003" class="edge">
<title>Node7&#45;&gt;Node3</title>
<g id="a_edge10_Node000007_Node000003"><a xlink:title=" ">
<path fill="none" stroke="#63b8ff" d="M536.68,-85.51C492.51,-74.42 423.7,-57.16 372.26,-44.25"/>
<polygon fill="#63b8ff" stroke="#63b8ff" points="535.98,-88.94 546.53,-87.98 537.69,-82.15 535.98,-88.94"/>
</a>
</g>
</g>
</g>
</svg>
