<?xml version="1.0" encoding="UTF-8" standalone="no"?>
<!DOCTYPE svg PUBLIC "-//W3C//DTD SVG 1.1//EN"
 "http://www.w3.org/Graphics/SVG/1.1/DTD/svg11.dtd">
<!-- Generated by graphviz version 2.43.0 (0)
 -->
<!-- Title: chunk_strategies.hpp Pages: 1 -->
<!--zoomable 225 -->

<svg id="main" version="1.1" xmlns="http://www.w3.org/2000/svg" xmlns:xlink="http://www.w3.org/1999/xlink" xml:space="preserve" onload="init(evt)">
<style type="text/css"><![CDATA[
.node, .edge {opacity: 0.7;}
.node.selected, .edge.selected {opacity: 1;}
.edge:hover path { stroke: red; }
.edge:hover polygon { stroke: red; fill: red; }
]]></style>

<defs>
  <circle id="rim" cx="0" cy="0" r="7"/>
  <circle id="rim2" cx="0" cy="0" r="3.5"/>
  <g id="zoomPlus">
    <use xlink:href="#rim" fill="#404040"><set attributeName="fill" to="#808080" begin="zoomplus.mouseover" end="zoomplus.mouseout"/></use>
    <path d="M-4,0h8M0,-4v8" fill="none" stroke="white" stroke-width="1.5" pointer-events="none"/>
  </g>
  <g id="zoomMin">
    <use xlink:href="#rim" fill="#404040"><set attributeName="fill" to="#808080" begin="zoomminus.mouseover" end="zoomminus.mouseout"/></use>
    <path d="M-4,0h8" fill="none" stroke="white" stroke-width="1.5" pointer-events="none"/>
  </g>
  <g id="arrowUp" transform="translate(30 24)">
    <use xlink:href="#rim"/>
    <path pointer-events="none" fill="none" stroke="white" stroke-width="1.5" d="M0,-3.0v7 M-2.5,-0.5L0,-3.0L2.5,-0.5"/>
  </g>
  <g id="arrowRight" transform="rotate(90) translate(36 -43)">
    <use xlink:href="#rim"/>
    <path pointer-events="none" fill="none" stroke="white" stroke-width="1.5" d="M0,-3.0v7 M-2.5,-0.5L0,-3.0L2.5,-0.5"/>
  </g>
  <g id="arrowDown" transform="rotate(180) translate(-30 -48)">
    <use xlink:href="#rim"/>
    <path pointer-events="none" fill="none" stroke="white" stroke-width="1.5" d="M0,-3.0v7 M-2.5,-0.5L0,-3.0L2.5,-0.5"/>
  </g>
  <g id="arrowLeft" transform="rotate(270) translate(-36 17)">
    <use xlink:href="#rim"/>
    <path pointer-events="none" fill="none" stroke="white" stroke-width="1.5" d="M0,-3.0v7 M-2.5,-0.5L0,-3.0L2.5,-0.5"/>
  </g>
  <g id="resetDef">
    <use xlink:href="#rim2" fill="#404040"><set attributeName="fill" to="#808080" begin="reset.mouseover" end="reset.mouseout"/></use>
  </g>
</defs>
<script type="application/ecmascript">
var viewWidth = 990;
var viewHeight = 225;
var sectionId = 'dynsection-1';
</script>
<script type="application/ecmascript" xlink:href="svg.min.js"/>
<svg id="graph" class="graph">
<g id="viewport">
<title>chunk_strategies.hpp</title>
<!-- Node1 -->
<g id="Node000001" class="node">
<title>Node1</title>
<g id="a_Node000001"><a xlink:title="Defines various strategies for chunking data based on different criteria.">
<polygon fill="#999999" stroke="#666666" points="479,-217 358,-217 358,-198 479,-198 479,-217"/>
<text text-anchor="middle" x="418.5" y="-205" font-family="Helvetica,sans-Serif" font-size="10.00">chunk_strategies.hpp</text>
</a>
</g>
</g>
<!-- Node2 -->
<g id="Node000002" class="node">
<title>Node2</title>
<g id="a_Node000002"><a xlink:href="benchmark_8cpp.html" target="_top" xlink:title="Implementation of benchmarking utilities.">
<polygon fill="white" stroke="#666666" points="768,-57.5 631,-57.5 631,-5.5 768,-5.5 768,-57.5"/>
<text text-anchor="start" x="639" y="-45.5" font-family="Helvetica,sans-Serif" font-size="10.00">/mnt/c/Users/jonat</text>
<text text-anchor="start" x="639" y="-34.5" font-family="Helvetica,sans-Serif" font-size="10.00">/OneDrive/Documents</text>
<text text-anchor="start" x="639" y="-23.5" font-family="Helvetica,sans-Serif" font-size="10.00">/Python Scripts/chunking</text>
<text text-anchor="middle" x="699.5" y="-12.5" font-family="Helvetica,sans-Serif" font-size="10.00">_cpp/src/benchmark.cpp</text>
</a>
</g>
</g>
<!-- Node1&#45;&gt;Node2 -->
<g id="edge1_Node000001_Node000002" class="edge">
<title>Node1&#45;&gt;Node2</title>
<g id="a_edge1_Node000001_Node000002"><a xlink:title=" ">
<path fill="none" stroke="#63b8ff" d="M489.12,-200.13C521.87,-194.31 559.81,-183.19 588.5,-162 614.99,-142.43 606.55,-124.4 627.5,-99 639.73,-84.17 655.2,-69.47 668.65,-57.68"/>
<polygon fill="#63b8ff" stroke="#63b8ff" points="488.43,-196.7 479.13,-201.78 489.57,-203.61 488.43,-196.7"/>
</a>
</g>
</g>
<!-- Node3 -->
<g id="Node000003" class="node">
<title>Node3</title>
<g id="a_Node000003"><a xlink:href="main_8cpp.html" target="_top" xlink:title="Demonstrates various chunking strategies and operations.">
<polygon fill="white" stroke="#666666" points="137,-57.5 0,-57.5 0,-5.5 137,-5.5 137,-57.5"/>
<text text-anchor="start" x="8" y="-45.5" font-family="Helvetica,sans-Serif" font-size="10.00">/mnt/c/Users/jonat</text>
<text text-anchor="start" x="8" y="-34.5" font-family="Helvetica,sans-Serif" font-size="10.00">/OneDrive/Documents</text>
<text text-anchor="start" x="8" y="-23.5" font-family="Helvetica,sans-Serif" font-size="10.00">/Python Scripts/chunking</text>
<text text-anchor="middle" x="68.5" y="-12.5" font-family="Helvetica,sans-Serif" font-size="10.00">_cpp/src/main.cpp</text>
</a>
</g>
</g>
<!-- Node1&#45;&gt;Node3 -->
<g id="edge2_Node000001_Node000003" class="edge">
<title>Node1&#45;&gt;Node3</title>
<g id="a_edge2_Node000001_Node000003"><a xlink:title=" ">
<path fill="none" stroke="#63b8ff" d="M347.78,-206.54C261.92,-205 124.14,-196.96 88.5,-162 60.97,-135 61.13,-86.98 64.38,-57.61"/>
<polygon fill="#63b8ff" stroke="#63b8ff" points="347.93,-210.04 357.98,-206.69 348.04,-203.04 347.93,-210.04"/>
</a>
</g>
</g>
<!-- Node4 -->
<g id="Node000004" class="node">
<title>Node4</title>
<g id="a_Node000004"><a xlink:href="advanced__chunk__strategies__test_8cpp.html" target="_top" xlink:title=" ">
<polygon fill="white" stroke="#666666" points="409,-162 258,-162 258,-99 409,-99 409,-162"/>
<text text-anchor="start" x="266" y="-150" font-family="Helvetica,sans-Serif" font-size="10.00">/mnt/c/Users/jonat</text>
<text text-anchor="start" x="266" y="-139" font-family="Helvetica,sans-Serif" font-size="10.00">/OneDrive/Documents</text>
<text text-anchor="start" x="266" y="-128" font-family="Helvetica,sans-Serif" font-size="10.00">/Python Scripts/chunking</text>
<text text-anchor="start" x="266" y="-117" font-family="Helvetica,sans-Serif" font-size="10.00">_cpp/tests/advanced_chunk</text>
<text text-anchor="middle" x="333.5" y="-106" font-family="Helvetica,sans-Serif" font-size="10.00">_strategies_test.cpp</text>
</a>
</g>
</g>
<!-- Node1&#45;&gt;Node4 -->
<g id="edge3_Node000001_Node000004" class="edge">
<title>Node1&#45;&gt;Node4</title>
<g id="a_edge3_Node000001_Node000004"><a xlink:title=" ">
<path fill="none" stroke="#63b8ff" d="M401.14,-191.19C391.62,-182.78 379.47,-172.06 368.1,-162.03"/>
<polygon fill="#63b8ff" stroke="#63b8ff" points="398.94,-193.9 408.75,-197.9 403.57,-188.66 398.94,-193.9"/>
</a>
</g>
</g>
<!-- Node5 -->
<g id="Node000005" class="node">
<title>Node5</title>
<g id="a_Node000005"><a xlink:href="chunk__strategies__test_8cpp.html" target="_top" xlink:title=" ">
<polygon fill="white" stroke="#666666" points="579.5,-162 427.5,-162 427.5,-99 579.5,-99 579.5,-162"/>
<text text-anchor="start" x="435.5" y="-150" font-family="Helvetica,sans-Serif" font-size="10.00">/mnt/c/Users/jonat</text>
<text text-anchor="start" x="435.5" y="-139" font-family="Helvetica,sans-Serif" font-size="10.00">/OneDrive/Documents</text>
<text text-anchor="start" x="435.5" y="-128" font-family="Helvetica,sans-Serif" font-size="10.00">/Python Scripts/chunking</text>
<text text-anchor="start" x="435.5" y="-117" font-family="Helvetica,sans-Serif" font-size="10.00">_cpp/tests/chunk_strategies</text>
<text text-anchor="middle" x="503.5" y="-106" font-family="Helvetica,sans-Serif" font-size="10.00">_test.cpp</text>
</a>
</g>
</g>
<!-- Node1&#45;&gt;Node5 -->
<g id="edge4_Node000001_Node000005" class="edge">
<title>Node1&#45;&gt;Node5</title>
<g id="a_edge4_Node000001_Node000005"><a xlink:title=" ">
<path fill="none" stroke="#63b8ff" d="M435.86,-191.19C445.38,-182.78 457.53,-172.06 468.9,-162.03"/>
<polygon fill="#63b8ff" stroke="#63b8ff" points="433.43,-188.66 428.25,-197.9 438.06,-193.9 433.43,-188.66"/>
</a>
</g>
</g>
<!-- Node6 -->
<g id="Node000006" class="node">
<title>Node6</title>
<g id="a_Node000006"><a xlink:href="chunk__benchmark_8hpp.html" target="_top" xlink:title="Performance benchmarking tools for chunk processing.">
<polygon fill="white" stroke="#666666" points="763,-140 636,-140 636,-121 763,-121 763,-140"/>
<text text-anchor="middle" x="699.5" y="-128" font-family="Helvetica,sans-Serif" font-size="10.00">chunk_benchmark.hpp</text>
</a>
</g>
</g>
<!-- Node1&#45;&gt;Node6 -->
<g id="edge5_Node000001_Node000006" class="edge">
<title>Node1&#45;&gt;Node6</title>
<g id="a_edge5_Node000001_Node000006"><a xlink:title=" ">
<path fill="none" stroke="#63b8ff" d="M477.92,-196.03C518.73,-188.21 573.91,-176.42 621.5,-162 641.96,-155.8 664.64,-146.66 680.24,-140.01"/>
<polygon fill="#63b8ff" stroke="#63b8ff" points="477.04,-192.63 467.87,-197.93 478.34,-199.51 477.04,-192.63"/>
</a>
</g>
</g>
<!-- Node7 -->
<g id="Node000007" class="node">
<title>Node7</title>
<g id="a_Node000007"><a xlink:href="chunk__strategy__implementations_8hpp.html" target="_top" xlink:title=" ">
<polygon fill="white" stroke="#666666" points="982,-140 781,-140 781,-121 982,-121 982,-140"/>
<text text-anchor="middle" x="881.5" y="-128" font-family="Helvetica,sans-Serif" font-size="10.00">chunk_strategy_implementations.hpp</text>
</a>
</g>
</g>
<!-- Node1&#45;&gt;Node7 -->
<g id="edge7_Node000001_Node000007" class="edge">
<title>Node1&#45;&gt;Node7</title>
<g id="a_edge7_Node000001_Node000007"><a xlink:title=" ">
<path fill="none" stroke="#63b8ff" d="M489.35,-200.7C561.18,-194.09 675.27,-181.6 772.5,-162 801.01,-156.25 832.99,-146.96 854.89,-140.14"/>
<polygon fill="#63b8ff" stroke="#63b8ff" points="488.71,-197.24 479.07,-201.63 489.35,-204.21 488.71,-197.24"/>
</a>
</g>
</g>
<!-- Node8 -->
<g id="Node000008" class="node">
<title>Node8</title>
<g id="a_Node000008"><a xlink:href="sub__chunk__strategies_8hpp.html" target="_top" xlink:title="Advanced sub&#45;chunking strategies for hierarchical data processing.">
<polygon fill="white" stroke="#666666" points="240,-140 97,-140 97,-121 240,-121 240,-140"/>
<text text-anchor="middle" x="168.5" y="-128" font-family="Helvetica,sans-Serif" font-size="10.00">sub_chunk_strategies.hpp</text>
</a>
</g>
</g>
<!-- Node1&#45;&gt;Node8 -->
<g id="edge9_Node000001_Node000008" class="edge">
<title>Node1&#45;&gt;Node8</title>
<g id="a_edge9_Node000001_Node000008"><a xlink:title=" ">
<path fill="none" stroke="#63b8ff" d="M364.41,-195.59C328.74,-187.27 281.41,-175.05 240.5,-162 219.89,-155.42 196.83,-146.6 182.21,-140.13"/>
<polygon fill="#63b8ff" stroke="#63b8ff" points="364.08,-199.11 374.61,-197.94 365.65,-192.29 364.08,-199.11"/>
</a>
</g>
</g>
<!-- Node6&#45;&gt;Node2 -->
<g id="edge6_Node000006_Node000002" class="edge">
<title>Node6&#45;&gt;Node2</title>
<g id="a_edge6_Node000006_Node000002"><a xlink:title=" ">
<path fill="none" stroke="#63b8ff" d="M699.5,-110.78C699.5,-95.72 699.5,-74.43 699.5,-57.85"/>
<polygon fill="#63b8ff" stroke="#63b8ff" points="696,-110.89 699.5,-120.89 703,-110.89 696,-110.89"/>
</a>
</g>
</g>
<!-- Node7&#45;&gt;Node2 -->
<g id="edge8_Node000007_Node000002" class="edge">
<title>Node7&#45;&gt;Node2</title>
<g id="a_edge8_Node000007_Node000002"><a xlink:title=" ">
<path fill="none" stroke="#63b8ff" d="M856.16,-115.99C827.92,-100.94 781.62,-76.27 746.67,-57.64"/>
<polygon fill="#63b8ff" stroke="#63b8ff" points="854.88,-119.28 865.35,-120.89 858.17,-113.1 854.88,-119.28"/>
</a>
</g>
</g>
<!-- Node8&#45;&gt;Node1 -->
<g id="edge12_Node000008_Node000001" class="edge">
<title>Node8&#45;&gt;Node1</title>
<g id="a_edge12_Node000008_Node000001"><a xlink:title=" ">
<path fill="none" stroke="#63b8ff" d="M206.62,-143.65C222.69,-149.56 241.43,-156.55 258.5,-162 303.45,-176.34 356.15,-189.68 388.58,-197.94"/>
<polygon fill="#63b8ff" stroke="#63b8ff" points="207.6,-140.28 197.01,-140.13 205.19,-146.85 207.6,-140.28"/>
</a>
</g>
</g>
<!-- Node8&#45;&gt;Node3 -->
<g id="edge10_Node000008_Node000003" class="edge">
<title>Node8&#45;&gt;Node3</title>
<g id="a_edge10_Node000008_Node000003"><a xlink:title=" ">
<path fill="none" stroke="#63b8ff" d="M152.3,-113.79C136.72,-98.67 112.9,-75.56 94.63,-57.85"/>
<polygon fill="#63b8ff" stroke="#63b8ff" points="150.01,-116.44 159.63,-120.89 154.88,-111.42 150.01,-116.44"/>
</a>
</g>
</g>
<!-- Node9 -->
<g id="Node000009" class="node">
<title>Node9</title>
<g id="a_Node000009"><a xlink:href="sub__chunk__strategies__test_8cpp.html" target="_top" xlink:title="Test suite for sub&#45;chunking strategies.">
<polygon fill="white" stroke="#666666" points="330,-63 155,-63 155,0 330,0 330,-63"/>
<text text-anchor="start" x="163" y="-51" font-family="Helvetica,sans-Serif" font-size="10.00">/mnt/c/Users/jonat</text>
<text text-anchor="start" x="163" y="-40" font-family="Helvetica,sans-Serif" font-size="10.00">/OneDrive/Documents</text>
<text text-anchor="start" x="163" y="-29" font-family="Helvetica,sans-Serif" font-size="10.00">/Python Scripts/chunking</text>
<text text-anchor="start" x="163" y="-18" font-family="Helvetica,sans-Serif" font-size="10.00">_cpp/tests/sub_chunk_strategies</text>
<text text-anchor="middle" x="242.5" y="-7" font-family="Helvetica,sans-Serif" font-size="10.00">_test.cpp</text>
</a>
</g>
</g>
<!-- Node8&#45;&gt;Node9 -->
<g id="edge11_Node000008_Node000009" class="edge">
<title>Node8&#45;&gt;Node9</title>
<g id="a_edge11_Node000008_Node000009"><a xlink:title=" ">
<path fill="none" stroke="#63b8ff" d="M181.14,-112.94C191.48,-99.37 206.41,-79.81 218.95,-63.37"/>
<polygon fill="#63b8ff" stroke="#63b8ff" points="178.35,-110.82 175.07,-120.89 183.92,-115.06 178.35,-110.82"/>
</a>
</g>
</g>
</g>
</svg>

<g id="navigator" transform="translate(0 0)" fill="#404254">
  <rect fill="#f2f5e9" fill-opacity="0.5" stroke="#606060" stroke-width=".5" x="0" y="0" width="60" height="60"/>
  <use id="zoomplus" xlink:href="#zoomPlus" x="17" y="9" onmousedown="handleZoom(evt,'in')"/>
  <use id="zoomminus" xlink:href="#zoomMin" x="42" y="9" onmousedown="handleZoom(evt,'out')"/>
  <use id="reset" xlink:href="#resetDef" x="30" y="36" onmousedown="handleReset()"/>
   <use id="arrowup" xlink:href="#arrowUp" x="0" y="0" onmousedown="handlePan(0,-1)"/>
  <use id="arrowright" xlink:href="#arrowRight" x="0" y="0" onmousedown="handlePan(1,0)"/>
  <use id="arrowdown" xlink:href="#arrowDown" x="0" y="0" onmousedown="handlePan(0,1)"/>
  <use id="arrowleft" xlink:href="#arrowLeft" x="0" y="0" onmousedown="handlePan(-1,0)"/>
</g>
<svg viewBox="0 0 15 15" width="100%" height="30px" preserveAspectRatio="xMaxYMin meet">
 <g id="arrow_out" transform="scale(0.3 0.3)">
  <a xlink:href="chunk__strategies_8hpp__dep__incl_org.svg" target="_base">
   <rect id="button" ry="5" rx="5" y="6" x="6" height="38" width="38"
        fill="#f2f5e9" fill-opacity="0.5" stroke="#606060" stroke-width="1.0"/>
   <path id="arrow"
     d="M 11.500037,31.436501 C 11.940474,20.09759 22.043105,11.32322 32.158766,21.979434 L 37.068811,17.246167 C 37.068811,17.246167 37.088388,32 37.088388,32 L 22.160133,31.978069 C 22.160133,31.978069 26.997745,27.140456 26.997745,27.140456 C 18.528582,18.264221 13.291696,25.230495 11.500037,31.436501 z"
     style="fill:#404040;"/>
  </a>
 </g>
</svg>

<style type='text/css'>
<![CDATA[
[data-mouse-over-selected='false'] { opacity: 0.7; }
[data-mouse-over-selected='true']  { opacity: 1.0; }
]]>
</style>
<script type="application/ecmascript"><![CDATA[
document.addEventListener('DOMContentLoaded', (event) => {
  highlightEdges();
  highlightAdjacentNodes();
});
]]></script>
</svg>
