<?xml version="1.0" encoding="UTF-8" standalone="no"?>
<!DOCTYPE svg PUBLIC "-//W3C//DTD SVG 1.1//EN"
 "http://www.w3.org/Graphics/SVG/1.1/DTD/svg11.dtd">
<!-- Generated by graphviz version 2.43.0 (0)
 -->
<!-- Title: chunk_strategies.hpp Pages: 1 -->
<svg width="552pt" height="192pt"
 viewBox="0.00 0.00 552.00 192.00" xmlns="http://www.w3.org/2000/svg" xmlns:xlink="http://www.w3.org/1999/xlink">
<g id="graph0" class="graph" transform="scale(1 1) rotate(0) translate(4 188)">
<title>chunk_strategies.hpp</title>
<!-- Node1 -->
<g id="Node000001" class="node">
<title>Node1</title>
<g id="a_Node000001"><a xlink:title="Defines various strategies for chunking data based on different criteria.">
<polygon fill="#999999" stroke="#666666" points="337.5,-184 216.5,-184 216.5,-165 337.5,-165 337.5,-184"/>
<text text-anchor="middle" x="277" y="-172" font-family="Helvetica,sans-Serif" font-size="10.00">chunk_strategies.hpp</text>
</a>
</g>
</g>
<!-- Node2 -->
<g id="Node000002" class="node">
<title>Node2</title>
<g id="a_Node000002"><a xlink:href="chunk_8hpp.html" target="_top" xlink:title="Template class for chunk&#45;based data processing.">
<polygon fill="white" stroke="#666666" points="218.5,-129 151.5,-129 151.5,-110 218.5,-110 218.5,-129"/>
<text text-anchor="middle" x="185" y="-117" font-family="Helvetica,sans-Serif" font-size="10.00">chunk.hpp</text>
</a>
</g>
</g>
<!-- Node1&#45;&gt;Node2 -->
<g id="edge1_Node000001_Node000002" class="edge">
<title>Node1&#45;&gt;Node2</title>
<g id="a_edge1_Node000001_Node000002"><a xlink:title=" ">
<path fill="none" stroke="#63b8ff" d="M262.22,-164.98C247.82,-156.69 225.69,-143.94 208.81,-134.22"/>
<polygon fill="#63b8ff" stroke="#63b8ff" points="210.46,-131.13 200.05,-129.17 206.97,-137.19 210.46,-131.13"/>
</a>
</g>
</g>
<!-- Node3 -->
<g id="Node000003" class="node">
<title>Node3</title>
<g id="a_Node000003"><a xlink:title=" ">
<polygon fill="#e0e0e0" stroke="#999999" points="56,-74 0,-74 0,-55 56,-55 56,-74"/>
<text text-anchor="middle" x="28" y="-62" font-family="Helvetica,sans-Serif" font-size="10.00">numeric</text>
</a>
</g>
</g>
<!-- Node1&#45;&gt;Node3 -->
<g id="edge12_Node000001_Node000003" class="edge">
<title>Node1&#45;&gt;Node3</title>
<g id="a_edge12_Node000001_Node000003"><a xlink:title=" ">
<path fill="none" stroke="#63b8ff" d="M234.57,-164.95C202.91,-157.7 159.09,-145.78 123,-129 94.56,-115.77 65.01,-94.66 46.57,-80.45"/>
<polygon fill="#63b8ff" stroke="#63b8ff" points="48.49,-77.51 38.46,-74.09 44.17,-83.02 48.49,-77.51"/>
</a>
</g>
</g>
<!-- Node4 -->
<g id="Node000004" class="node">
<title>Node4</title>
<g id="a_Node000004"><a xlink:title=" ">
<polygon fill="#e0e0e0" stroke="#999999" points="139.5,-74 74.5,-74 74.5,-55 139.5,-55 139.5,-74"/>
<text text-anchor="middle" x="107" y="-62" font-family="Helvetica,sans-Serif" font-size="10.00">stdexcept</text>
</a>
</g>
</g>
<!-- Node1&#45;&gt;Node4 -->
<g id="edge13_Node000001_Node000004" class="edge">
<title>Node1&#45;&gt;Node4</title>
<g id="a_edge13_Node000001_Node000004"><a xlink:title=" ">
<path fill="none" stroke="#63b8ff" d="M221.47,-164.94C195.1,-158.6 164.5,-147.68 142,-129 127.8,-117.21 118.38,-98.1 112.93,-83.91"/>
<polygon fill="#63b8ff" stroke="#63b8ff" points="116.14,-82.5 109.52,-74.23 109.54,-84.83 116.14,-82.5"/>
</a>
</g>
</g>
<!-- Node6 -->
<g id="Node000006" class="node">
<title>Node6</title>
<g id="a_Node000006"><a xlink:title=" ">
<polygon fill="#e0e0e0" stroke="#999999" points="352.5,-74 305.5,-74 305.5,-55 352.5,-55 352.5,-74"/>
<text text-anchor="middle" x="329" y="-62" font-family="Helvetica,sans-Serif" font-size="10.00">vector</text>
</a>
</g>
</g>
<!-- Node1&#45;&gt;Node6 -->
<g id="edge14_Node000001_Node000006" class="edge">
<title>Node1&#45;&gt;Node6</title>
<g id="a_edge14_Node000001_Node000006"><a xlink:title=" ">
<path fill="none" stroke="#63b8ff" d="M272.22,-164.76C265.94,-152.01 256.74,-127.88 266,-110 273.04,-96.41 286.34,-86.09 298.92,-78.82"/>
<polygon fill="#63b8ff" stroke="#63b8ff" points="300.67,-81.86 307.85,-74.07 297.38,-75.68 300.67,-81.86"/>
</a>
</g>
</g>
<!-- Node9 -->
<g id="Node000009" class="node">
<title>Node9</title>
<g id="a_Node000009"><a xlink:title=" ">
<polygon fill="#e0e0e0" stroke="#999999" points="339,-129 275,-129 275,-110 339,-110 339,-129"/>
<text text-anchor="middle" x="307" y="-117" font-family="Helvetica,sans-Serif" font-size="10.00">algorithm</text>
</a>
</g>
</g>
<!-- Node1&#45;&gt;Node9 -->
<g id="edge8_Node000001_Node000009" class="edge">
<title>Node1&#45;&gt;Node9</title>
<g id="a_edge8_Node000001_Node000009"><a xlink:title=" ">
<path fill="none" stroke="#63b8ff" d="M281.95,-164.75C286.06,-157.49 292.03,-146.95 297.1,-137.98"/>
<polygon fill="#63b8ff" stroke="#63b8ff" points="300.26,-139.52 302.14,-129.09 294.17,-136.07 300.26,-139.52"/>
</a>
</g>
</g>
<!-- Node10 -->
<g id="Node000010" class="node">
<title>Node10</title>
<g id="a_Node000010"><a xlink:title=" ">
<polygon fill="#e0e0e0" stroke="#999999" points="404.5,-129 357.5,-129 357.5,-110 404.5,-110 404.5,-129"/>
<text text-anchor="middle" x="381" y="-117" font-family="Helvetica,sans-Serif" font-size="10.00">cmath</text>
</a>
</g>
</g>
<!-- Node1&#45;&gt;Node10 -->
<g id="edge9_Node000001_Node000010" class="edge">
<title>Node1&#45;&gt;Node10</title>
<g id="a_edge9_Node000001_Node000010"><a xlink:title=" ">
<path fill="none" stroke="#63b8ff" d="M293.71,-164.98C310.21,-156.57 335.7,-143.59 354.88,-133.81"/>
<polygon fill="#63b8ff" stroke="#63b8ff" points="356.67,-136.83 363.99,-129.17 353.49,-130.59 356.67,-136.83"/>
</a>
</g>
</g>
<!-- Node11 -->
<g id="Node000011" class="node">
<title>Node11</title>
<g id="a_Node000011"><a xlink:title=" ">
<polygon fill="#e0e0e0" stroke="#999999" points="487.5,-129 422.5,-129 422.5,-110 487.5,-110 487.5,-129"/>
<text text-anchor="middle" x="455" y="-117" font-family="Helvetica,sans-Serif" font-size="10.00">functional</text>
</a>
</g>
</g>
<!-- Node1&#45;&gt;Node11 -->
<g id="edge10_Node000001_Node000011" class="edge">
<title>Node1&#45;&gt;Node11</title>
<g id="a_edge10_Node000001_Node000011"><a xlink:title=" ">
<path fill="none" stroke="#63b8ff" d="M305.6,-164.98C335.61,-156.05 382.98,-141.94 416.32,-132.02"/>
<polygon fill="#63b8ff" stroke="#63b8ff" points="417.59,-135.29 426.18,-129.08 415.59,-128.58 417.59,-135.29"/>
</a>
</g>
</g>
<!-- Node12 -->
<g id="Node000012" class="node">
<title>Node12</title>
<g id="a_Node000012"><a xlink:title=" ">
<polygon fill="#e0e0e0" stroke="#999999" points="544,-129 506,-129 506,-110 544,-110 544,-129"/>
<text text-anchor="middle" x="525" y="-117" font-family="Helvetica,sans-Serif" font-size="10.00">map</text>
</a>
</g>
</g>
<!-- Node1&#45;&gt;Node12 -->
<g id="edge11_Node000001_Node000012" class="edge">
<title>Node1&#45;&gt;Node12</title>
<g id="a_edge11_Node000001_Node000012"><a xlink:title=" ">
<path fill="none" stroke="#63b8ff" d="M326.23,-164.93C368.83,-157.2 432.25,-144.95 495.97,-129.07"/>
<polygon fill="#63b8ff" stroke="#63b8ff" points="496.95,-132.43 505.79,-126.6 495.24,-125.65 496.95,-132.43"/>
</a>
</g>
</g>
<!-- Node2&#45;&gt;Node3 -->
<g id="edge2_Node000002_Node000003" class="edge">
<title>Node2&#45;&gt;Node3</title>
<g id="a_edge2_Node000002_Node000003"><a xlink:title=" ">
<path fill="none" stroke="#63b8ff" d="M159.78,-109.98C133.64,-101.16 92.6,-87.31 63.27,-77.41"/>
<polygon fill="#63b8ff" stroke="#63b8ff" points="64.02,-73.96 53.42,-74.08 61.78,-80.6 64.02,-73.96"/>
</a>
</g>
</g>
<!-- Node2&#45;&gt;Node4 -->
<g id="edge3_Node000002_Node000004" class="edge">
<title>Node2&#45;&gt;Node4</title>
<g id="a_edge3_Node000002_Node000004"><a xlink:title=" ">
<path fill="none" stroke="#63b8ff" d="M172.47,-109.98C160.6,-101.92 142.54,-89.65 128.39,-80.03"/>
<polygon fill="#63b8ff" stroke="#63b8ff" points="130,-76.9 119.76,-74.17 126.06,-82.69 130,-76.9"/>
</a>
</g>
</g>
<!-- Node5 -->
<g id="Node000005" class="node">
<title>Node5</title>
<g id="a_Node000005"><a xlink:title=" ">
<polygon fill="#e0e0e0" stroke="#999999" points="287,-74 243,-74 243,-55 287,-55 287,-74"/>
<text text-anchor="middle" x="265" y="-62" font-family="Helvetica,sans-Serif" font-size="10.00">string</text>
</a>
</g>
</g>
<!-- Node2&#45;&gt;Node5 -->
<g id="edge4_Node000002_Node000005" class="edge">
<title>Node2&#45;&gt;Node5</title>
<g id="a_edge4_Node000002_Node000005"><a xlink:title=" ">
<path fill="none" stroke="#63b8ff" d="M197.85,-109.98C210.14,-101.84 228.91,-89.41 243.48,-79.76"/>
<polygon fill="#63b8ff" stroke="#63b8ff" points="245.51,-82.61 251.91,-74.17 241.64,-76.78 245.51,-82.61"/>
</a>
</g>
</g>
<!-- Node2&#45;&gt;Node6 -->
<g id="edge5_Node000002_Node000006" class="edge">
<title>Node2&#45;&gt;Node6</title>
<g id="a_edge5_Node000002_Node000006"><a xlink:title=" ">
<path fill="none" stroke="#63b8ff" d="M208.14,-109.98C231.82,-101.27 268.87,-87.63 295.71,-77.75"/>
<polygon fill="#63b8ff" stroke="#63b8ff" points="297.27,-80.91 305.44,-74.17 294.85,-74.34 297.27,-80.91"/>
</a>
</g>
</g>
<!-- Node7 -->
<g id="Node000007" class="node">
<title>Node7</title>
<g id="a_Node000007"><a xlink:href="config_8hpp.html" target="_top" xlink:title=" ">
<polygon fill="white" stroke="#666666" points="224.5,-74 157.5,-74 157.5,-55 224.5,-55 224.5,-74"/>
<text text-anchor="middle" x="191" y="-62" font-family="Helvetica,sans-Serif" font-size="10.00">config.hpp</text>
</a>
</g>
</g>
<!-- Node2&#45;&gt;Node7 -->
<g id="edge6_Node000002_Node000007" class="edge">
<title>Node2&#45;&gt;Node7</title>
<g id="a_edge6_Node000002_Node000007"><a xlink:title=" ">
<path fill="none" stroke="#63b8ff" d="M185.99,-109.75C186.78,-102.8 187.9,-92.85 188.89,-84.13"/>
<polygon fill="#63b8ff" stroke="#63b8ff" points="192.38,-84.42 190.03,-74.09 185.42,-83.63 192.38,-84.42"/>
</a>
</g>
</g>
<!-- Node8 -->
<g id="Node000008" class="node">
<title>Node8</title>
<g id="a_Node000008"><a xlink:title=" ">
<polygon fill="#e0e0e0" stroke="#999999" points="217.5,-19 164.5,-19 164.5,0 217.5,0 217.5,-19"/>
<text text-anchor="middle" x="191" y="-7" font-family="Helvetica,sans-Serif" font-size="10.00">cstddef</text>
</a>
</g>
</g>
<!-- Node7&#45;&gt;Node8 -->
<g id="edge7_Node000007_Node000008" class="edge">
<title>Node7&#45;&gt;Node8</title>
<g id="a_edge7_Node000007_Node000008"><a xlink:title=" ">
<path fill="none" stroke="#63b8ff" d="M191,-54.75C191,-47.8 191,-37.85 191,-29.13"/>
<polygon fill="#63b8ff" stroke="#63b8ff" points="194.5,-29.09 191,-19.09 187.5,-29.09 194.5,-29.09"/>
</a>
</g>
</g>
</g>
</svg>
