<?xml version="1.0" encoding="UTF-8" standalone="no"?>
<!DOCTYPE svg PUBLIC "-//W3C//DTD SVG 1.1//EN"
 "http://www.w3.org/Graphics/SVG/1.1/DTD/svg11.dtd">
<!-- Generated by graphviz version 2.43.0 (0)
 -->
<!-- Title: chunk.hpp Pages: 1 -->
<svg width="983pt" height="225pt"
 viewBox="0.00 0.00 982.50 225.00" xmlns="http://www.w3.org/2000/svg" xmlns:xlink="http://www.w3.org/1999/xlink">
<g id="graph0" class="graph" transform="scale(1 1) rotate(0) translate(4 221)">
<title>chunk.hpp</title>
<!-- Node1 -->
<g id="Node000001" class="node">
<title>Node1</title>
<g id="a_Node000001"><a xlink:title=" ">
<polygon fill="#999999" stroke="#666666" points="457,-217 390,-217 390,-198 457,-198 457,-217"/>
<text text-anchor="middle" x="423.5" y="-205" font-family="Helvetica,sans-Serif" font-size="10.00">chunk.hpp</text>
</a>
</g>
</g>
<!-- Node2 -->
<g id="Node000002" class="node">
<title>Node2</title>
<g id="a_Node000002"><a xlink:href="benchmark_8cpp.html" target="_top" xlink:title="Implementation of benchmarking utilities.">
<polygon fill="white" stroke="#666666" points="137,-156.5 0,-156.5 0,-104.5 137,-104.5 137,-156.5"/>
<text text-anchor="start" x="8" y="-144.5" font-family="Helvetica,sans-Serif" font-size="10.00">/mnt/c/Users/jonat</text>
<text text-anchor="start" x="8" y="-133.5" font-family="Helvetica,sans-Serif" font-size="10.00">/OneDrive/Documents</text>
<text text-anchor="start" x="8" y="-122.5" font-family="Helvetica,sans-Serif" font-size="10.00">/Python Scripts/chunking</text>
<text text-anchor="middle" x="68.5" y="-111.5" font-family="Helvetica,sans-Serif" font-size="10.00">_cpp/src/benchmark.cpp</text>
</a>
</g>
</g>
<!-- Node1&#45;&gt;Node2 -->
<g id="edge1_Node000001_Node000002" class="edge">
<title>Node1&#45;&gt;Node2</title>
<g id="a_edge1_Node000001_Node000002"><a xlink:title=" ">
<path fill="none" stroke="#63b8ff" d="M380.05,-201.97C325.91,-195.74 230.84,-182.87 151.5,-162 145.41,-160.4 139.15,-158.53 132.91,-156.52"/>
<polygon fill="#63b8ff" stroke="#63b8ff" points="379.67,-205.45 390,-203.09 380.45,-198.49 379.67,-205.45"/>
</a>
</g>
</g>
<!-- Node3 -->
<g id="Node000003" class="node">
<title>Node3</title>
<g id="a_Node000003"><a xlink:href="main_8cpp.html" target="_top" xlink:title="Demonstrates various chunking strategies and operations.">
<polygon fill="white" stroke="#666666" points="816,-57.5 679,-57.5 679,-5.5 816,-5.5 816,-57.5"/>
<text text-anchor="start" x="687" y="-45.5" font-family="Helvetica,sans-Serif" font-size="10.00">/mnt/c/Users/jonat</text>
<text text-anchor="start" x="687" y="-34.5" font-family="Helvetica,sans-Serif" font-size="10.00">/OneDrive/Documents</text>
<text text-anchor="start" x="687" y="-23.5" font-family="Helvetica,sans-Serif" font-size="10.00">/Python Scripts/chunking</text>
<text text-anchor="middle" x="747.5" y="-12.5" font-family="Helvetica,sans-Serif" font-size="10.00">_cpp/src/main.cpp</text>
</a>
</g>
</g>
<!-- Node1&#45;&gt;Node3 -->
<g id="edge2_Node000001_Node000003" class="edge">
<title>Node1&#45;&gt;Node3</title>
<g id="a_edge2_Node000001_Node000003"><a xlink:title=" ">
<path fill="none" stroke="#63b8ff" d="M379.32,-204.79C317.17,-201.36 208.79,-191.23 184.5,-162 166.6,-140.47 165.9,-119.93 184.5,-99 216.87,-62.59 535.96,-42.72 678.88,-35.59"/>
<polygon fill="#63b8ff" stroke="#63b8ff" points="379.45,-208.3 389.61,-205.32 379.81,-201.31 379.45,-208.3"/>
</a>
</g>
</g>
<!-- Node4 -->
<g id="Node000004" class="node">
<title>Node4</title>
<g id="a_Node000004"><a xlink:href="chunk__test_8cpp.html" target="_top" xlink:title="Unit tests for the Chunk class.">
<polygon fill="white" stroke="#666666" points="337,-156.5 194,-156.5 194,-104.5 337,-104.5 337,-156.5"/>
<text text-anchor="start" x="202" y="-144.5" font-family="Helvetica,sans-Serif" font-size="10.00">/mnt/c/Users/jonat</text>
<text text-anchor="start" x="202" y="-133.5" font-family="Helvetica,sans-Serif" font-size="10.00">/OneDrive/Documents</text>
<text text-anchor="start" x="202" y="-122.5" font-family="Helvetica,sans-Serif" font-size="10.00">/Python Scripts/chunking</text>
<text text-anchor="middle" x="265.5" y="-111.5" font-family="Helvetica,sans-Serif" font-size="10.00">_cpp/tests/chunk_test.cpp</text>
</a>
</g>
</g>
<!-- Node1&#45;&gt;Node4 -->
<g id="edge3_Node000001_Node000004" class="edge">
<title>Node1&#45;&gt;Node4</title>
<g id="a_edge3_Node000001_Node000004"><a xlink:title=" ">
<path fill="none" stroke="#63b8ff" d="M396.25,-193.56C374.91,-183.43 344.56,-169.03 318.48,-156.65"/>
<polygon fill="#63b8ff" stroke="#63b8ff" points="394.84,-196.77 405.38,-197.9 397.84,-190.45 394.84,-196.77"/>
</a>
</g>
</g>
<!-- Node5 -->
<g id="Node000005" class="node">
<title>Node5</title>
<g id="a_Node000005"><a xlink:href="jagged__array__test_8cpp.html" target="_top" xlink:title=" ">
<polygon fill="white" stroke="#666666" points="492,-162 355,-162 355,-99 492,-99 492,-162"/>
<text text-anchor="start" x="363" y="-150" font-family="Helvetica,sans-Serif" font-size="10.00">/mnt/c/Users/jonat</text>
<text text-anchor="start" x="363" y="-139" font-family="Helvetica,sans-Serif" font-size="10.00">/OneDrive/Documents</text>
<text text-anchor="start" x="363" y="-128" font-family="Helvetica,sans-Serif" font-size="10.00">/Python Scripts/chunking</text>
<text text-anchor="start" x="363" y="-117" font-family="Helvetica,sans-Serif" font-size="10.00">_cpp/tests/jagged_array</text>
<text text-anchor="middle" x="423.5" y="-106" font-family="Helvetica,sans-Serif" font-size="10.00">_test.cpp</text>
</a>
</g>
</g>
<!-- Node1&#45;&gt;Node5 -->
<g id="edge4_Node000001_Node000005" class="edge">
<title>Node1&#45;&gt;Node5</title>
<g id="a_edge4_Node000001_Node000005"><a xlink:title=" ">
<path fill="none" stroke="#63b8ff" d="M423.5,-187.76C423.5,-179.98 423.5,-170.74 423.5,-162.03"/>
<polygon fill="#63b8ff" stroke="#63b8ff" points="420,-187.9 423.5,-197.9 427,-187.9 420,-187.9"/>
</a>
</g>
</g>
<!-- Node6 -->
<g id="Node000006" class="node">
<title>Node6</title>
<g id="a_Node000006"><a xlink:href="test__visualization_8cpp.html" target="_top" xlink:title=" ">
<polygon fill="white" stroke="#666666" points="686.5,-156.5 510.5,-156.5 510.5,-104.5 686.5,-104.5 686.5,-156.5"/>
<text text-anchor="start" x="518.5" y="-144.5" font-family="Helvetica,sans-Serif" font-size="10.00">/mnt/c/Users/jonat</text>
<text text-anchor="start" x="518.5" y="-133.5" font-family="Helvetica,sans-Serif" font-size="10.00">/OneDrive/Documents</text>
<text text-anchor="start" x="518.5" y="-122.5" font-family="Helvetica,sans-Serif" font-size="10.00">/Python Scripts/chunking</text>
<text text-anchor="middle" x="598.5" y="-111.5" font-family="Helvetica,sans-Serif" font-size="10.00">_cpp/tests/test_visualization.cpp</text>
</a>
</g>
</g>
<!-- Node1&#45;&gt;Node6 -->
<g id="edge5_Node000001_Node000006" class="edge">
<title>Node1&#45;&gt;Node6</title>
<g id="a_edge5_Node000001_Node000006"><a xlink:title=" ">
<path fill="none" stroke="#63b8ff" d="M453.05,-193.84C476.72,-183.69 510.67,-169.14 539.82,-156.65"/>
<polygon fill="#63b8ff" stroke="#63b8ff" points="451.39,-190.74 443.57,-197.9 454.14,-197.17 451.39,-190.74"/>
</a>
</g>
</g>
<!-- Node7 -->
<g id="Node000007" class="node">
<title>Node7</title>
<g id="a_Node000007"><a xlink:href="chunk__windows_8hpp.html" target="_top" xlink:title=" ">
<polygon fill="white" stroke="#666666" points="819,-140 704,-140 704,-121 819,-121 819,-140"/>
<text text-anchor="middle" x="761.5" y="-128" font-family="Helvetica,sans-Serif" font-size="10.00">chunk_windows.hpp</text>
</a>
</g>
</g>
<!-- Node1&#45;&gt;Node7 -->
<g id="edge6_Node000001_Node000007" class="edge">
<title>Node1&#45;&gt;Node7</title>
<g id="a_edge6_Node000001_Node000007"><a xlink:title=" ">
<path fill="none" stroke="#63b8ff" d="M467.24,-203.01C521.69,-197.85 617.07,-186.05 695.5,-162 713.6,-156.45 733.15,-146.93 746.23,-140"/>
<polygon fill="#63b8ff" stroke="#63b8ff" points="466.88,-199.53 457.24,-203.93 467.52,-206.5 466.88,-199.53"/>
</a>
</g>
</g>
<!-- Node8 -->
<g id="Node000008" class="node">
<title>Node8</title>
<g id="a_Node000008"><a xlink:href="parallel__chunk_8hpp.html" target="_top" xlink:title=" ">
<polygon fill="white" stroke="#666666" points="946,-140 837,-140 837,-121 946,-121 946,-140"/>
<text text-anchor="middle" x="891.5" y="-128" font-family="Helvetica,sans-Serif" font-size="10.00">parallel_chunk.hpp</text>
</a>
</g>
</g>
<!-- Node1&#45;&gt;Node8 -->
<g id="edge8_Node000001_Node000008" class="edge">
<title>Node1&#45;&gt;Node8</title>
<g id="a_edge8_Node000001_Node000008"><a xlink:title=" ">
<path fill="none" stroke="#63b8ff" d="M467.1,-206.53C542.34,-205.53 700.76,-198.75 828.5,-162 846.02,-156.96 864.64,-147.35 877.05,-140.26"/>
<polygon fill="#63b8ff" stroke="#63b8ff" points="467.01,-203.03 457.05,-206.64 467.08,-210.03 467.01,-203.03"/>
</a>
</g>
</g>
<!-- Node7&#45;&gt;Node3 -->
<g id="edge7_Node000007_Node000003" class="edge">
<title>Node7&#45;&gt;Node3</title>
<g id="a_edge7_Node000007_Node000003"><a xlink:title=" ">
<path fill="none" stroke="#63b8ff" d="M758.8,-110.78C756.63,-95.72 753.55,-74.43 751.16,-57.85"/>
<polygon fill="#63b8ff" stroke="#63b8ff" points="755.36,-111.49 760.26,-120.89 762.29,-110.49 755.36,-111.49"/>
</a>
</g>
</g>
<!-- Node8&#45;&gt;Node3 -->
<g id="edge9_Node000008_Node000003" class="edge">
<title>Node8&#45;&gt;Node3</title>
<g id="a_edge9_Node000008_Node000003"><a xlink:title=" ">
<path fill="none" stroke="#63b8ff" d="M870.27,-115.2C847.83,-100.08 811.99,-75.94 784.82,-57.64"/>
<polygon fill="#63b8ff" stroke="#63b8ff" points="868.47,-118.21 878.72,-120.89 872.38,-112.4 868.47,-118.21"/>
</a>
</g>
</g>
<!-- Node9 -->
<g id="Node000009" class="node">
<title>Node9</title>
<g id="a_Node000009"><a xlink:href="parallel__chunk__test_8cpp.html" target="_top" xlink:title=" ">
<polygon fill="white" stroke="#666666" points="974.5,-63 834.5,-63 834.5,0 974.5,0 974.5,-63"/>
<text text-anchor="start" x="842.5" y="-51" font-family="Helvetica,sans-Serif" font-size="10.00">/mnt/c/Users/jonat</text>
<text text-anchor="start" x="842.5" y="-40" font-family="Helvetica,sans-Serif" font-size="10.00">/OneDrive/Documents</text>
<text text-anchor="start" x="842.5" y="-29" font-family="Helvetica,sans-Serif" font-size="10.00">/Python Scripts/chunking</text>
<text text-anchor="start" x="842.5" y="-18" font-family="Helvetica,sans-Serif" font-size="10.00">_cpp/tests/parallel_chunk</text>
<text text-anchor="middle" x="904.5" y="-7" font-family="Helvetica,sans-Serif" font-size="10.00">_test.cpp</text>
</a>
</g>
</g>
<!-- Node8&#45;&gt;Node9 -->
<g id="edge10_Node000008_Node000009" class="edge">
<title>Node8&#45;&gt;Node9</title>
<g id="a_edge10_Node000008_Node000009"><a xlink:title=" ">
<path fill="none" stroke="#63b8ff" d="M893.98,-110.96C895.79,-97.52 898.26,-79.03 900.36,-63.37"/>
<polygon fill="#63b8ff" stroke="#63b8ff" points="890.51,-110.52 892.65,-120.89 897.45,-111.45 890.51,-110.52"/>
</a>
</g>
</g>
</g>
</svg>
