<?xml version="1.0" encoding="UTF-8" standalone="no"?>
<!DOCTYPE svg PUBLIC "-//W3C//DTD SVG 1.1//EN"
 "http://www.w3.org/Graphics/SVG/1.1/DTD/svg11.dtd">
<!-- Generated by graphviz version 2.43.0 (0)
 -->
<!-- Title: chunk_strategies::SubChunkStrategy&lt; T &gt; Pages: 1 -->
<svg width="363pt" height="134pt"
 viewBox="0.00 0.00 363.00 134.00" xmlns="http://www.w3.org/2000/svg" xmlns:xlink="http://www.w3.org/1999/xlink">
<g id="graph0" class="graph" transform="scale(1 1) rotate(0) translate(4 130)">
<title>chunk_strategies::SubChunkStrategy&lt; T &gt;</title>
<!-- Node1 -->
<g id="Node000001" class="node">
<title>Node1</title>
<g id="a_Node000001"><a xlink:title="Base class for sub&#45;chunking strategies.">
<polygon fill="#999999" stroke="#666666" points="155,-78 0,-78 0,-48 155,-48 155,-78"/>
<text text-anchor="start" x="8" y="-66" font-family="Helvetica,sans-Serif" font-size="10.00">chunk_strategies::SubChunk</text>
<text text-anchor="middle" x="77.5" y="-55" font-family="Helvetica,sans-Serif" font-size="10.00">Strategy&lt; T &gt;</text>
</a>
</g>
</g>
<!-- Node2 -->
<g id="Node000002" class="node">
<title>Node2</title>
<g id="a_Node000002"><a xlink:href="classchunk__strategies_1_1ConditionalSubChunkStrategy.html" target="_top" xlink:title="Strategy for conditional sub&#45;chunking based on chunk properties.">
<polygon fill="white" stroke="#666666" points="353.5,-126 192.5,-126 192.5,-96 353.5,-96 353.5,-126"/>
<text text-anchor="start" x="200.5" y="-114" font-family="Helvetica,sans-Serif" font-size="10.00">chunk_strategies::Conditional</text>
<text text-anchor="middle" x="273" y="-103" font-family="Helvetica,sans-Serif" font-size="10.00">SubChunkStrategy&lt; T &gt;</text>
</a>
</g>
</g>
<!-- Node1&#45;&gt;Node2 -->
<g id="edge1_Node000001_Node000002" class="edge">
<title>Node1&#45;&gt;Node2</title>
<g id="a_edge1_Node000001_Node000002"><a xlink:title=" ">
<path fill="none" stroke="#63b8ff" d="M149.09,-80.51C169.56,-85.59 191.73,-91.09 211.52,-96"/>
<polygon fill="#63b8ff" stroke="#63b8ff" points="149.74,-77.07 139.19,-78.06 148.06,-83.86 149.74,-77.07"/>
</a>
</g>
</g>
<!-- Node3 -->
<g id="Node000003" class="node">
<title>Node3</title>
<g id="a_Node000003"><a xlink:href="classchunk__strategies_1_1HierarchicalSubChunkStrategy.html" target="_top" xlink:title="Strategy for hierarchical sub&#45;chunking using multiple strategies.">
<polygon fill="white" stroke="#666666" points="355,-78 191,-78 191,-48 355,-48 355,-78"/>
<text text-anchor="start" x="199" y="-66" font-family="Helvetica,sans-Serif" font-size="10.00">chunk_strategies::Hierarchical</text>
<text text-anchor="middle" x="273" y="-55" font-family="Helvetica,sans-Serif" font-size="10.00">SubChunkStrategy&lt; T &gt;</text>
</a>
</g>
</g>
<!-- Node1&#45;&gt;Node3 -->
<g id="edge2_Node000001_Node000003" class="edge">
<title>Node1&#45;&gt;Node3</title>
<g id="a_edge2_Node000001_Node000003"><a xlink:title=" ">
<path fill="none" stroke="#63b8ff" d="M165.5,-63C173.95,-63 182.5,-63 190.89,-63"/>
<polygon fill="#63b8ff" stroke="#63b8ff" points="165.25,-59.5 155.25,-63 165.25,-66.5 165.25,-59.5"/>
</a>
</g>
</g>
<!-- Node4 -->
<g id="Node000004" class="node">
<title>Node4</title>
<g id="a_Node000004"><a xlink:href="classchunk__strategies_1_1RecursiveSubChunkStrategy.html" target="_top" xlink:title="Strategy for applying recursive sub&#45;chunking.">
<polygon fill="white" stroke="#666666" points="350,-30 196,-30 196,0 350,0 350,-30"/>
<text text-anchor="start" x="204" y="-18" font-family="Helvetica,sans-Serif" font-size="10.00">chunk_strategies::Recursive</text>
<text text-anchor="middle" x="273" y="-7" font-family="Helvetica,sans-Serif" font-size="10.00">SubChunkStrategy&lt; T &gt;</text>
</a>
</g>
</g>
<!-- Node1&#45;&gt;Node4 -->
<g id="edge3_Node000001_Node000004" class="edge">
<title>Node1&#45;&gt;Node4</title>
<g id="a_edge3_Node000001_Node000004"><a xlink:title=" ">
<path fill="none" stroke="#63b8ff" d="M149.09,-45.49C169.56,-40.41 191.73,-34.91 211.52,-30"/>
<polygon fill="#63b8ff" stroke="#63b8ff" points="148.06,-42.14 139.19,-47.94 149.74,-48.93 148.06,-42.14"/>
</a>
</g>
</g>
</g>
</svg>
