<?xml version="1.0" encoding="UTF-8" standalone="no"?>
<!DOCTYPE svg PUBLIC "-//W3C//DTD SVG 1.1//EN"
 "http://www.w3.org/Graphics/SVG/1.1/DTD/svg11.dtd">
<!-- Generated by graphviz version 2.43.0 (0)
 -->
<!-- Title: chunk_strategies::HierarchicalSubChunkStrategy&lt; T &gt; Pages: 1 -->
<svg width="655pt" height="98pt"
 viewBox="0.00 0.00 655.00 97.50" xmlns="http://www.w3.org/2000/svg" xmlns:xlink="http://www.w3.org/1999/xlink">
<g id="graph0" class="graph" transform="scale(1 1) rotate(0) translate(4 93.5)">
<title>chunk_strategies::HierarchicalSubChunkStrategy&lt; T &gt;</title>
<!-- Node1 -->
<g id="Node000001" class="node">
<title>Node1</title>
<g id="a_Node000001"><a xlink:title="Strategy for hierarchical sub&#45;chunking using multiple strategies.">
<polygon fill="#999999" stroke="#666666" points="647,-62.5 483,-62.5 483,-32.5 647,-32.5 647,-62.5"/>
<text text-anchor="start" x="491" y="-50.5" font-family="Helvetica,sans-Serif" font-size="10.00">chunk_strategies::Hierarchical</text>
<text text-anchor="middle" x="565" y="-39.5" font-family="Helvetica,sans-Serif" font-size="10.00">SubChunkStrategy&lt; T &gt;</text>
</a>
</g>
</g>
<!-- Node2 -->
<g id="Node000002" class="node">
<title>Node2</title>
<g id="a_Node000002"><a xlink:href="classchunk__strategies_1_1SubChunkStrategy.html" target="_top" xlink:title="Base class for sub&#45;chunking strategies.">
<polygon fill="white" stroke="#666666" points="389,-89.5 234,-89.5 234,-59.5 389,-59.5 389,-89.5"/>
<text text-anchor="start" x="242" y="-77.5" font-family="Helvetica,sans-Serif" font-size="10.00">chunk_strategies::SubChunk</text>
<text text-anchor="middle" x="311.5" y="-66.5" font-family="Helvetica,sans-Serif" font-size="10.00">Strategy&lt; T &gt;</text>
</a>
</g>
</g>
<!-- Node2&#45;&gt;Node1 -->
<g id="edge1_Node000001_Node000002" class="edge">
<title>Node2&#45;&gt;Node1</title>
<g id="a_edge1_Node000001_Node000002"><a xlink:title=" ">
<path fill="none" stroke="#63b8ff" d="M399.54,-65.16C426.57,-62.25 456.24,-59.07 482.85,-56.21"/>
<polygon fill="#63b8ff" stroke="#63b8ff" points="398.89,-61.7 389.32,-66.25 399.64,-68.66 398.89,-61.7"/>
</a>
</g>
</g>
<!-- Node3 -->
<g id="Node000003" class="node">
<title>Node3</title>
<g id="a_Node000003"><a xlink:title=" ">
<polygon fill="white" stroke="#666666" points="384.5,-41 238.5,-41 238.5,0 384.5,0 384.5,-41"/>
<text text-anchor="start" x="246.5" y="-29" font-family="Helvetica,sans-Serif" font-size="10.00">std::vector&lt; std::shared</text>
<text text-anchor="start" x="246.5" y="-18" font-family="Helvetica,sans-Serif" font-size="10.00">_ptr&lt; chunk_strategies</text>
<text text-anchor="middle" x="311.5" y="-7" font-family="Helvetica,sans-Serif" font-size="10.00">::ChunkStrategy&lt; T &gt; &gt; &gt;</text>
</a>
</g>
</g>
<!-- Node3&#45;&gt;Node1 -->
<g id="edge2_Node000001_Node000003" class="edge">
<title>Node3&#45;&gt;Node1</title>
<g id="a_edge2_Node000001_Node000003"><a xlink:title=" ">
<path fill="none" stroke="#9a32cd" stroke-dasharray="5,2" d="M394.79,-29.33C422.99,-32.36 454.51,-35.75 482.63,-38.76"/>
<polygon fill="#9a32cd" stroke="#9a32cd" points="394.89,-25.82 384.57,-28.24 394.14,-32.78 394.89,-25.82"/>
</a>
</g>
<text text-anchor="middle" x="436" y="-39.5" font-family="Helvetica,sans-Serif" font-size="10.00" fill="grey"> strategies_</text>
</g>
<!-- Node4 -->
<g id="Node000004" class="node">
<title>Node4</title>
<g id="a_Node000004"><a xlink:title=" ">
<polygon fill="white" stroke="#666666" points="149,-41 0,-41 0,0 149,0 149,-41"/>
<text text-anchor="start" x="8" y="-29" font-family="Helvetica,sans-Serif" font-size="10.00">std::shared_ptr&lt; chunk</text>
<text text-anchor="start" x="8" y="-18" font-family="Helvetica,sans-Serif" font-size="10.00">_strategies::ChunkStrategy</text>
<text text-anchor="middle" x="74.5" y="-7" font-family="Helvetica,sans-Serif" font-size="10.00">&lt; T &gt; &gt;</text>
</a>
</g>
</g>
<!-- Node4&#45;&gt;Node3 -->
<g id="edge3_Node000003_Node000004" class="edge">
<title>Node4&#45;&gt;Node3</title>
<g id="a_edge3_Node000003_Node000004"><a xlink:title=" ">
<path fill="none" stroke="#9a32cd" stroke-dasharray="5,2" d="M159.35,-20.5C185.15,-20.5 213.31,-20.5 238.26,-20.5"/>
<polygon fill="#9a32cd" stroke="#9a32cd" points="159.21,-17 149.21,-20.5 159.21,-24 159.21,-17"/>
</a>
</g>
<text text-anchor="middle" x="191.5" y="-23.5" font-family="Helvetica,sans-Serif" font-size="10.00" fill="grey"> elements</text>
</g>
</g>
</svg>
