<?xml version="1.0" encoding="UTF-8" standalone="no"?>
<!DOCTYPE svg PUBLIC "-//W3C//DTD SVG 1.1//EN"
 "http://www.w3.org/Graphics/SVG/1.1/DTD/svg11.dtd">
<!-- Generated by graphviz version 2.43.0 (0)
 -->
<!-- Title: advanced_structures::ChunkSkipList&lt; T &gt; Pages: 1 -->
<svg width="348pt" height="225pt"
 viewBox="0.00 0.00 348.00 225.00" xmlns="http://www.w3.org/2000/svg" xmlns:xlink="http://www.w3.org/1999/xlink">

<svg id="main" version="1.1" xmlns="http://www.w3.org/2000/svg" xmlns:xlink="http://www.w3.org/1999/xlink" xml:space="preserve" onload="init(evt)">
<style type="text/css"><![CDATA[
.node, .edge {opacity: 0.7;}
.node.selected, .edge.selected {opacity: 1;}
.edge:hover path { stroke: red; }
.edge:hover polygon { stroke: red; fill: red; }
]]></style>
<script type="application/ecmascript" xlink:href="svg.min.js"/>
<svg id="graph" class="graph">
<g id="graph0" class="graph" transform="scale(1 1) rotate(0) translate(4 221)">
<title>advanced_structures::ChunkSkipList&lt; T &gt;</title>
<!-- Node1 -->
<g id="Node000001" class="node">
<title>Node1</title>
<g id="a_Node000001"><a xlink:title="A skip list implementation for efficient chunk searching.">
<polygon fill="#999999" stroke="#666666" points="120,-123.5 0,-123.5 0,-93.5 120,-93.5 120,-123.5"/>
<text text-anchor="start" x="8" y="-111.5" font-family="Helvetica,sans-Serif" font-size="10.00">advanced_structures</text>
<text text-anchor="middle" x="60" y="-100.5" font-family="Helvetica,sans-Serif" font-size="10.00">::ChunkSkipList&lt; T &gt;</text>
</a>
</g>
</g>
<!-- Node2 -->
<g id="Node000002" class="node">
<title>Node2</title>
<g id="a_Node000002"><a xlink:title=" ">
<polygon fill="white" stroke="#666666" points="286,-217 138,-217 138,-176 286,-176 286,-217"/>
<text text-anchor="start" x="146" y="-205" font-family="Helvetica,sans-Serif" font-size="10.00">std::shared_ptr&lt; advanced</text>
<text text-anchor="start" x="146" y="-194" font-family="Helvetica,sans-Serif" font-size="10.00">_structures::ChunkSkipList</text>
<text text-anchor="middle" x="212" y="-183" font-family="Helvetica,sans-Serif" font-size="10.00">::Node &gt;</text>
</a>
</g>
</g>
<!-- Node2&#45;&gt;Node1 -->
<g id="edge1_Node000001_Node000002" class="edge">
<title>Node2&#45;&gt;Node1</title>
<g id="a_edge1_Node000001_Node000002"><a xlink:title=" ">
<path fill="none" stroke="#9a32cd" stroke-dasharray="5,2" d="M168.6,-170.95C141.49,-155.6 107.54,-136.4 84.88,-123.58"/>
<polygon fill="#9a32cd" stroke="#9a32cd" points="167.08,-174.11 177.51,-175.99 170.53,-168.01 167.08,-174.11"/>
</a>
</g>
<text text-anchor="middle" x="160" y="-150" font-family="Helvetica,sans-Serif" font-size="10.00" fill="grey"> head</text>
</g>
<!-- Node4 -->
<g id="Node000004" class="node">
<title>Node4</title>
<g id="a_Node000004"><a xlink:title=" ">
<polygon fill="white" stroke="#666666" points="286,-129 138,-129 138,-88 286,-88 286,-129"/>
<text text-anchor="start" x="146" y="-117" font-family="Helvetica,sans-Serif" font-size="10.00">std::vector&lt; std::shared</text>
<text text-anchor="start" x="146" y="-106" font-family="Helvetica,sans-Serif" font-size="10.00">_ptr&lt; advanced_structures</text>
<text text-anchor="middle" x="212" y="-95" font-family="Helvetica,sans-Serif" font-size="10.00">::ChunkSkipList::Node &gt; &gt;</text>
</a>
</g>
</g>
<!-- Node2&#45;&gt;Node4 -->
<g id="edge4_Node000004_Node000002" class="edge">
<title>Node2&#45;&gt;Node4</title>
<g id="a_edge4_Node000004_Node000002"><a xlink:title=" ">
<path fill="none" stroke="#9a32cd" stroke-dasharray="5,2" d="M212,-165.86C212,-153.76 212,-140.08 212,-129.24"/>
<polygon fill="#9a32cd" stroke="#9a32cd" points="208.5,-165.99 212,-175.99 215.5,-165.99 208.5,-165.99"/>
</a>
</g>
<text text-anchor="middle" x="236.5" y="-150" font-family="Helvetica,sans-Serif" font-size="10.00" fill="grey"> elements</text>
</g>
<!-- Node3 -->
<g id="Node000003" class="node">
<title>Node3</title>
<g id="a_Node000003"><a xlink:href="structadvanced__structures_1_1ChunkSkipList_1_1Node.html" target="_top" xlink:title=" ">
<polygon fill="white" stroke="#666666" points="340,-41 220,-41 220,0 340,0 340,-41"/>
<text text-anchor="start" x="228" y="-29" font-family="Helvetica,sans-Serif" font-size="10.00">advanced_structures</text>
<text text-anchor="start" x="228" y="-18" font-family="Helvetica,sans-Serif" font-size="10.00">::ChunkSkipList&lt; T &gt;</text>
<text text-anchor="middle" x="280" y="-7" font-family="Helvetica,sans-Serif" font-size="10.00">::Node</text>
</a>
</g>
</g>
<!-- Node3&#45;&gt;Node2 -->
<g id="edge2_Node000002_Node000003" class="edge">
<title>Node3&#45;&gt;Node2</title>
<g id="a_edge2_Node000002_Node000003"><a xlink:title=" ">
<path fill="none" stroke="#9a32cd" stroke-dasharray="5,2" d="M293.81,-50.83C294.69,-53.55 295.45,-56.3 296,-59 302.23,-89.48 307.39,-100.46 295,-129 286.32,-148.99 268.01,-164.68 250.79,-175.78"/>
<polygon fill="#9a32cd" stroke="#9a32cd" points="297,-49.37 290.18,-41.26 290.45,-51.85 297,-49.37"/>
</a>
</g>
<text text-anchor="middle" x="311.5" y="-106" font-family="Helvetica,sans-Serif" font-size="10.00" fill="grey"> ptr</text>
</g>
<!-- Node4&#45;&gt;Node3 -->
<g id="edge3_Node000003_Node000004" class="edge">
<title>Node4&#45;&gt;Node3</title>
<g id="a_edge3_Node000003_Node000004"><a xlink:title=" ">
<path fill="none" stroke="#9a32cd" stroke-dasharray="5,2" d="M233.71,-80.04C243.69,-67.42 255.3,-52.74 264.4,-41.24"/>
<polygon fill="#9a32cd" stroke="#9a32cd" points="230.89,-77.97 227.43,-87.99 236.38,-82.31 230.89,-77.97"/>
</a>
</g>
<text text-anchor="middle" x="271.5" y="-62" font-family="Helvetica,sans-Serif" font-size="10.00" fill="grey"> forward</text>
</g>
</g>
</svg>
</svg>

<style type='text/css'>
<![CDATA[
[data-mouse-over-selected='false'] { opacity: 0.7; }
[data-mouse-over-selected='true']  { opacity: 1.0; }
]]>
</style>
<script type="application/ecmascript"><![CDATA[
document.addEventListener('DOMContentLoaded', (event) => {
  highlightEdges();
  highlightAdjacentNodes();
});
]]></script>
</svg>
