<?xml version="1.0" encoding="UTF-8" standalone="no"?>
<!DOCTYPE svg PUBLIC "-//W3C//DTD SVG 1.1//EN"
 "http://www.w3.org/Graphics/SVG/1.1/DTD/svg11.dtd">
<!-- Generated by graphviz version 2.43.0 (0)
 -->
<!-- Title: chunk_strategies::ChunkStrategy&lt; T &gt; Pages: 1 -->
<svg width="429pt" height="401pt"
 viewBox="0.00 0.00 429.00 400.50" xmlns="http://www.w3.org/2000/svg" xmlns:xlink="http://www.w3.org/1999/xlink">

<svg id="main" version="1.1" xmlns="http://www.w3.org/2000/svg" xmlns:xlink="http://www.w3.org/1999/xlink" xml:space="preserve" onload="init(evt)">
<style type="text/css"><![CDATA[
.node, .edge {opacity: 0.7;}
.node.selected, .edge.selected {opacity: 1;}
.edge:hover path { stroke: red; }
.edge:hover polygon { stroke: red; fill: red; }
]]></style>
<script type="application/ecmascript" xlink:href="svg.min.js"/>
<svg id="graph" class="graph">
<g id="graph0" class="graph" transform="scale(1 1) rotate(0) translate(4 396.5)">
<title>chunk_strategies::ChunkStrategy&lt; T &gt;</title>
<!-- Node1 -->
<g id="Node000001" class="node">
<title>Node1</title>
<g id="a_Node000001"><a xlink:title="Base class for chunking strategies.">
<polygon fill="#999999" stroke="#666666" points="206,-264.5 0,-264.5 0,-245.5 206,-245.5 206,-264.5"/>
<text text-anchor="middle" x="103" y="-252.5" font-family="Helvetica,sans-Serif" font-size="10.00">chunk_strategies::ChunkStrategy&lt; T &gt;</text>
</a>
</g>
</g>
<!-- Node2 -->
<g id="Node000002" class="node">
<title>Node2</title>
<g id="a_Node000002"><a xlink:href="classNeuralChunkingStrategy.html" target="_top" xlink:title=" ">
<polygon fill="white" stroke="#666666" points="413.5,-392.5 249.5,-392.5 249.5,-373.5 413.5,-373.5 413.5,-392.5"/>
<text text-anchor="middle" x="331.5" y="-380.5" font-family="Helvetica,sans-Serif" font-size="10.00">NeuralChunkingStrategy&lt; T &gt;</text>
</a>
</g>
</g>
<!-- Node1&#45;&gt;Node2 -->
<g id="edge1_Node000001_Node000002" class="edge">
<title>Node1&#45;&gt;Node2</title>
<g id="a_edge1_Node000001_Node000002"><a xlink:title=" ">
<path fill="none" stroke="#63b8ff" d="M125.66,-271.32C151.07,-294.17 195.66,-334.36 242,-356 261.89,-365.29 286.49,-369.8 304.71,-373.45"/>
<polygon fill="#63b8ff" stroke="#63b8ff" points="127.89,-268.62 118.11,-264.55 123.22,-273.83 127.89,-268.62"/>
</a>
</g>
</g>
<!-- Node1&#45;&gt;Node2 -->
<g id="edge2_Node000001_Node000002" class="edge">
<title>Node1&#45;&gt;Node2</title>
<g id="a_edge2_Node000001_Node000002"><a xlink:title=" ">
<path fill="none" stroke="#63b8ff" d="M115.79,-272.99C138.06,-300.01 188.87,-349.2 242,-374 244.42,-375.13 246.9,-376.18 249.43,-377.17"/>
<polygon fill="#63b8ff" stroke="#63b8ff" points="118.27,-270.49 109.37,-264.75 112.75,-274.79 118.27,-270.49"/>
</a>
</g>
</g>
<!-- Node3 -->
<g id="Node000003" class="node">
<title>Node3</title>
<g id="a_Node000003"><a xlink:href="classSimilarityChunkingStrategy.html" target="_top" xlink:title=" ">
<polygon fill="white" stroke="#666666" points="421,-355.5 242,-355.5 242,-336.5 421,-336.5 421,-355.5"/>
<text text-anchor="middle" x="331.5" y="-343.5" font-family="Helvetica,sans-Serif" font-size="10.00">SimilarityChunkingStrategy&lt; T &gt;</text>
</a>
</g>
</g>
<!-- Node1&#45;&gt;Node3 -->
<g id="edge3_Node000001_Node000003" class="edge">
<title>Node1&#45;&gt;Node3</title>
<g id="a_edge3_Node000001_Node000003"><a xlink:title=" ">
<path fill="none" stroke="#63b8ff" d="M139.1,-269.3C166.3,-283.66 205.39,-304.79 242,-318 265.06,-326.32 292.88,-331.55 311.09,-336.41"/>
<polygon fill="#63b8ff" stroke="#63b8ff" points="140.48,-266.07 130,-264.53 137.23,-272.27 140.48,-266.07"/>
</a>
</g>
</g>
<!-- Node1&#45;&gt;Node3 -->
<g id="edge4_Node000001_Node000003" class="edge">
<title>Node1&#45;&gt;Node3</title>
<g id="a_edge4_Node000001_Node000003"><a xlink:title=" ">
<path fill="none" stroke="#63b8ff" d="M120.09,-270.97C145.18,-289.77 195.59,-319.26 242,-336 242.44,-336.16 242.89,-336.32 243.34,-336.48"/>
<polygon fill="#63b8ff" stroke="#63b8ff" points="122.05,-268.06 112.04,-264.57 117.69,-273.54 122.05,-268.06"/>
</a>
</g>
</g>
<!-- Node4 -->
<g id="Node000004" class="node">
<title>Node4</title>
<g id="a_Node000004"><a xlink:href="classchunk__strategies_1_1AdaptiveStrategy.html" target="_top" xlink:title=" ">
<polygon fill="white" stroke="#666666" points="406,-318 257,-318 257,-288 406,-288 406,-318"/>
<text text-anchor="start" x="265" y="-306" font-family="Helvetica,sans-Serif" font-size="10.00">chunk_strategies::Adaptive</text>
<text text-anchor="middle" x="331.5" y="-295" font-family="Helvetica,sans-Serif" font-size="10.00">Strategy&lt; T &gt;</text>
</a>
</g>
</g>
<!-- Node1&#45;&gt;Node4 -->
<g id="edge5_Node000001_Node000004" class="edge">
<title>Node1&#45;&gt;Node4</title>
<g id="a_edge5_Node000001_Node000004"><a xlink:title=" ">
<path fill="none" stroke="#63b8ff" d="M158.98,-266.65C189.27,-273.07 227.21,-281.11 259.7,-288"/>
<polygon fill="#63b8ff" stroke="#63b8ff" points="159.53,-263.19 149.02,-264.54 158.08,-270.04 159.53,-263.19"/>
</a>
</g>
</g>
<!-- Node5 -->
<g id="Node000005" class="node">
<title>Node5</title>
<g id="a_Node000005"><a xlink:href="classchunk__strategies_1_1DynamicThresholdStrategy.html" target="_top" xlink:title=" ">
<polygon fill="white" stroke="#666666" points="406,-270 257,-270 257,-240 406,-240 406,-270"/>
<text text-anchor="start" x="265" y="-258" font-family="Helvetica,sans-Serif" font-size="10.00">chunk_strategies::Dynamic</text>
<text text-anchor="middle" x="331.5" y="-247" font-family="Helvetica,sans-Serif" font-size="10.00">ThresholdStrategy&lt; T &gt;</text>
</a>
</g>
</g>
<!-- Node1&#45;&gt;Node5 -->
<g id="edge6_Node000001_Node000005" class="edge">
<title>Node1&#45;&gt;Node5</title>
<g id="a_edge6_Node000001_Node000005"><a xlink:title=" ">
<path fill="none" stroke="#63b8ff" d="M216.7,-255C230.31,-255 243.92,-255 256.76,-255"/>
<polygon fill="#63b8ff" stroke="#63b8ff" points="216.32,-251.5 206.32,-255 216.32,-258.5 216.32,-251.5"/>
</a>
</g>
</g>
<!-- Node6 -->
<g id="Node000006" class="node">
<title>Node6</title>
<g id="a_Node000006"><a xlink:href="classchunk__strategies_1_1EntropyStrategy.html" target="_top" xlink:title="Strategy for chunking based on entropy thresholds.">
<polygon fill="white" stroke="#666666" points="403,-222 260,-222 260,-192 403,-192 403,-222"/>
<text text-anchor="start" x="268" y="-210" font-family="Helvetica,sans-Serif" font-size="10.00">chunk_strategies::Entropy</text>
<text text-anchor="middle" x="331.5" y="-199" font-family="Helvetica,sans-Serif" font-size="10.00">Strategy&lt; T &gt;</text>
</a>
</g>
</g>
<!-- Node1&#45;&gt;Node6 -->
<g id="edge7_Node000001_Node000006" class="edge">
<title>Node1&#45;&gt;Node6</title>
<g id="a_edge7_Node000001_Node000006"><a xlink:title=" ">
<path fill="none" stroke="#63b8ff" d="M158.98,-243.35C189.27,-236.93 227.21,-228.89 259.7,-222"/>
<polygon fill="#63b8ff" stroke="#63b8ff" points="158.08,-239.96 149.02,-245.46 159.53,-246.81 158.08,-239.96"/>
</a>
</g>
</g>
<!-- Node7 -->
<g id="Node000007" class="node">
<title>Node7</title>
<g id="a_Node000007"><a xlink:href="classchunk__strategies_1_1MultiCriteriaStrategy.html" target="_top" xlink:title=" ">
<polygon fill="white" stroke="#666666" points="415,-174 248,-174 248,-144 415,-144 415,-174"/>
<text text-anchor="start" x="256" y="-162" font-family="Helvetica,sans-Serif" font-size="10.00">chunk_strategies::MultiCriteria</text>
<text text-anchor="middle" x="331.5" y="-151" font-family="Helvetica,sans-Serif" font-size="10.00">Strategy&lt; T &gt;</text>
</a>
</g>
</g>
<!-- Node1&#45;&gt;Node7 -->
<g id="edge8_Node000001_Node000007" class="edge">
<title>Node1&#45;&gt;Node7</title>
<g id="a_edge8_Node000001_Node000007"><a xlink:title=" ">
<path fill="none" stroke="#63b8ff" d="M128.37,-240.21C155.37,-224.33 200.58,-199.2 242,-183 250.3,-179.75 259.21,-176.78 268.05,-174.11"/>
<polygon fill="#63b8ff" stroke="#63b8ff" points="126.43,-237.3 119.62,-245.42 130,-243.32 126.43,-237.3"/>
</a>
</g>
</g>
<!-- Node8 -->
<g id="Node000008" class="node">
<title>Node8</title>
<g id="a_Node000008"><a xlink:href="classchunk__strategies_1_1PatternBasedStrategy.html" target="_top" xlink:title=" ">
<polygon fill="white" stroke="#666666" points="401.5,-126 261.5,-126 261.5,-96 401.5,-96 401.5,-126"/>
<text text-anchor="start" x="269.5" y="-114" font-family="Helvetica,sans-Serif" font-size="10.00">chunk_strategies::Pattern</text>
<text text-anchor="middle" x="331.5" y="-103" font-family="Helvetica,sans-Serif" font-size="10.00">BasedStrategy&lt; T &gt;</text>
</a>
</g>
</g>
<!-- Node1&#45;&gt;Node8 -->
<g id="edge9_Node000001_Node000008" class="edge">
<title>Node1&#45;&gt;Node8</title>
<g id="a_edge9_Node000001_Node000008"><a xlink:title=" ">
<path fill="none" stroke="#63b8ff" d="M119.04,-237.65C142.63,-211.53 190.95,-162.25 242,-135 248.32,-131.63 255.15,-128.7 262.12,-126.16"/>
<polygon fill="#63b8ff" stroke="#63b8ff" points="116.3,-235.47 112.28,-245.27 121.54,-240.12 116.3,-235.47"/>
</a>
</g>
</g>
<!-- Node9 -->
<g id="Node000009" class="node">
<title>Node9</title>
<g id="a_Node000009"><a xlink:href="classchunk__strategies_1_1QuantileStrategy.html" target="_top" xlink:title="Strategy for chunking based on quantile thresholds.">
<polygon fill="white" stroke="#666666" points="405,-78 258,-78 258,-48 405,-48 405,-78"/>
<text text-anchor="start" x="266" y="-66" font-family="Helvetica,sans-Serif" font-size="10.00">chunk_strategies::Quantile</text>
<text text-anchor="middle" x="331.5" y="-55" font-family="Helvetica,sans-Serif" font-size="10.00">Strategy&lt; T &gt;</text>
</a>
</g>
</g>
<!-- Node1&#45;&gt;Node9 -->
<g id="edge10_Node000001_Node000009" class="edge">
<title>Node1&#45;&gt;Node9</title>
<g id="a_edge10_Node000001_Node000009"><a xlink:title=" ">
<path fill="none" stroke="#63b8ff" d="M114.14,-236.15C133.93,-201.21 181.13,-126.36 242,-87 247.35,-83.54 253.18,-80.58 259.23,-78.04"/>
<polygon fill="#63b8ff" stroke="#63b8ff" points="110.88,-234.82 109.09,-245.26 117,-238.21 110.88,-234.82"/>
</a>
</g>
</g>
<!-- Node10 -->
<g id="Node000010" class="node">
<title>Node10</title>
<g id="a_Node000010"><a xlink:href="classchunk__strategies_1_1VarianceStrategy.html" target="_top" xlink:title="Strategy for chunking based on variance thresholds.">
<polygon fill="white" stroke="#666666" points="405.5,-30 257.5,-30 257.5,0 405.5,0 405.5,-30"/>
<text text-anchor="start" x="265.5" y="-18" font-family="Helvetica,sans-Serif" font-size="10.00">chunk_strategies::Variance</text>
<text text-anchor="middle" x="331.5" y="-7" font-family="Helvetica,sans-Serif" font-size="10.00">Strategy&lt; T &gt;</text>
</a>
</g>
</g>
<!-- Node1&#45;&gt;Node10 -->
<g id="edge11_Node000001_Node000010" class="edge">
<title>Node1&#45;&gt;Node10</title>
<g id="a_edge11_Node000001_Node000010"><a xlink:title=" ">
<path fill="none" stroke="#63b8ff" d="M110.71,-235.84C126.56,-193.5 170.41,-91.59 242,-39 246.75,-35.51 251.97,-32.53 257.43,-29.99"/>
<polygon fill="#63b8ff" stroke="#63b8ff" points="107.34,-234.87 107.21,-245.47 113.92,-237.27 107.34,-234.87"/>
</a>
</g>
</g>
</g>
</svg>
</svg>

<style type='text/css'>
<![CDATA[
[data-mouse-over-selected='false'] { opacity: 0.7; }
[data-mouse-over-selected='true']  { opacity: 1.0; }
]]>
</style>
<script type="application/ecmascript"><![CDATA[
document.addEventListener('DOMContentLoaded', (event) => {
  highlightEdges();
  highlightAdjacentNodes();
});
]]></script>
</svg>
