<?xml version="1.0" encoding="UTF-8" standalone="no"?>
<!DOCTYPE svg PUBLIC "-//W3C//DTD SVG 1.1//EN"
 "http://www.w3.org/Graphics/SVG/1.1/DTD/svg11.dtd">
<!-- Generated by graphviz version 2.43.0 (0)
 -->
<!-- Title: chunk_strategies::ChunkStrategy&lt; T &gt; Pages: 1 -->
<svg width="398pt" height="134pt"
 viewBox="0.00 0.00 398.00 134.00" xmlns="http://www.w3.org/2000/svg" xmlns:xlink="http://www.w3.org/1999/xlink">
<g id="graph0" class="graph" transform="scale(1 1) rotate(0) translate(4 130)">
<title>chunk_strategies::ChunkStrategy&lt; T &gt;</title>
<!-- Node1 -->
<g id="Node000001" class="node">
<title>Node1</title>
<g id="a_Node000001"><a xlink:title="Base class for chunking strategies.">
<polygon fill="#999999" stroke="#666666" points="206,-72.5 0,-72.5 0,-53.5 206,-53.5 206,-72.5"/>
<text text-anchor="middle" x="103" y="-60.5" font-family="Helvetica,sans-Serif" font-size="10.00">chunk_strategies::ChunkStrategy&lt; T &gt;</text>
</a>
</g>
</g>
<!-- Node2 -->
<g id="Node000002" class="node">
<title>Node2</title>
<g id="a_Node000002"><a xlink:href="classchunk__strategies_1_1EntropyStrategy.html" target="_top" xlink:title="Strategy for chunking based on entropy thresholds.">
<polygon fill="white" stroke="#666666" points="387.5,-126 244.5,-126 244.5,-96 387.5,-96 387.5,-126"/>
<text text-anchor="start" x="252.5" y="-114" font-family="Helvetica,sans-Serif" font-size="10.00">chunk_strategies::Entropy</text>
<text text-anchor="middle" x="316" y="-103" font-family="Helvetica,sans-Serif" font-size="10.00">Strategy&lt; T &gt;</text>
</a>
</g>
</g>
<!-- Node1&#45;&gt;Node2 -->
<g id="edge1_Node000001_Node000002" class="edge">
<title>Node1&#45;&gt;Node2</title>
<g id="a_edge1_Node000001_Node000002"><a xlink:title=" ">
<path fill="none" stroke="#63b8ff" d="M155.96,-74.82C184.05,-81.21 219.04,-89.17 249.05,-96"/>
<polygon fill="#63b8ff" stroke="#63b8ff" points="156.47,-71.35 145.94,-72.54 154.91,-78.17 156.47,-71.35"/>
</a>
</g>
</g>
<!-- Node3 -->
<g id="Node000003" class="node">
<title>Node3</title>
<g id="a_Node000003"><a xlink:href="classchunk__strategies_1_1QuantileStrategy.html" target="_top" xlink:title="Strategy for chunking based on quantile thresholds.">
<polygon fill="white" stroke="#666666" points="389.5,-78 242.5,-78 242.5,-48 389.5,-48 389.5,-78"/>
<text text-anchor="start" x="250.5" y="-66" font-family="Helvetica,sans-Serif" font-size="10.00">chunk_strategies::Quantile</text>
<text text-anchor="middle" x="316" y="-55" font-family="Helvetica,sans-Serif" font-size="10.00">Strategy&lt; T &gt;</text>
</a>
</g>
</g>
<!-- Node1&#45;&gt;Node3 -->
<g id="edge2_Node000001_Node000003" class="edge">
<title>Node1&#45;&gt;Node3</title>
<g id="a_edge2_Node000001_Node000003"><a xlink:title=" ">
<path fill="none" stroke="#63b8ff" d="M216.11,-63C224.96,-63 233.76,-63 242.24,-63"/>
<polygon fill="#63b8ff" stroke="#63b8ff" points="216.1,-59.5 206.1,-63 216.1,-66.5 216.1,-59.5"/>
</a>
</g>
</g>
<!-- Node4 -->
<g id="Node000004" class="node">
<title>Node4</title>
<g id="a_Node000004"><a xlink:href="classchunk__strategies_1_1VarianceStrategy.html" target="_top" xlink:title="Strategy for chunking based on variance thresholds.">
<polygon fill="white" stroke="#666666" points="390,-30 242,-30 242,0 390,0 390,-30"/>
<text text-anchor="start" x="250" y="-18" font-family="Helvetica,sans-Serif" font-size="10.00">chunk_strategies::Variance</text>
<text text-anchor="middle" x="316" y="-7" font-family="Helvetica,sans-Serif" font-size="10.00">Strategy&lt; T &gt;</text>
</a>
</g>
</g>
<!-- Node1&#45;&gt;Node4 -->
<g id="edge3_Node000001_Node000004" class="edge">
<title>Node1&#45;&gt;Node4</title>
<g id="a_edge3_Node000001_Node000004"><a xlink:title=" ">
<path fill="none" stroke="#63b8ff" d="M155.96,-51.18C184.05,-44.79 219.04,-36.83 249.05,-30"/>
<polygon fill="#63b8ff" stroke="#63b8ff" points="154.91,-47.83 145.94,-53.46 156.47,-54.65 154.91,-47.83"/>
</a>
</g>
</g>
</g>
</svg>
