<?xml version="1.0" encoding="UTF-8" standalone="no"?>
<!DOCTYPE svg PUBLIC "-//W3C//DTD SVG 1.1//EN"
 "http://www.w3.org/Graphics/SVG/1.1/DTD/svg11.dtd">
<!-- Generated by graphviz version 2.43.0 (0)
 -->
<!-- Title: advanced_structures::ChunkTreap&lt; T &gt; Pages: 1 -->
<svg width="284pt" height="137pt"
 viewBox="0.00 0.00 284.00 137.00" xmlns="http://www.w3.org/2000/svg" xmlns:xlink="http://www.w3.org/1999/xlink">
<g id="graph0" class="graph" transform="scale(1 1) rotate(0) translate(4 133)">
<title>advanced_structures::ChunkTreap&lt; T &gt;</title>
<!-- Node1 -->
<g id="Node000001" class="node">
<title>Node1</title>
<g id="a_Node000001"><a xlink:title="A treap implementation for efficient chunk searching and manipulation.">
<polygon fill="#999999" stroke="#666666" points="118,-30 0,-30 0,0 118,0 118,-30"/>
<text text-anchor="start" x="8" y="-18" font-family="Helvetica,sans-Serif" font-size="10.00">advanced_structures</text>
<text text-anchor="middle" x="59" y="-7" font-family="Helvetica,sans-Serif" font-size="10.00">::ChunkTreap&lt; T &gt;</text>
</a>
</g>
</g>
<!-- Node2 -->
<g id="Node000002" class="node">
<title>Node2</title>
<g id="a_Node000002"><a xlink:title=" ">
<polygon fill="white" stroke="#666666" points="234,-129 86,-129 86,-88 234,-88 234,-129"/>
<text text-anchor="start" x="94" y="-117" font-family="Helvetica,sans-Serif" font-size="10.00">std::shared_ptr&lt; advanced</text>
<text text-anchor="start" x="94" y="-106" font-family="Helvetica,sans-Serif" font-size="10.00">_structures::ChunkTreap</text>
<text text-anchor="middle" x="160" y="-95" font-family="Helvetica,sans-Serif" font-size="10.00">::Node &gt;</text>
</a>
</g>
</g>
<!-- Node2&#45;&gt;Node1 -->
<g id="edge1_Node000001_Node000002" class="edge">
<title>Node2&#45;&gt;Node1</title>
<g id="a_edge1_Node000001_Node000002"><a xlink:title=" ">
<path fill="none" stroke="#9a32cd" stroke-dasharray="5,2" d="M130.56,-80.83C112.27,-64.26 89.49,-43.63 74.62,-30.15"/>
<polygon fill="#9a32cd" stroke="#9a32cd" points="128.32,-83.53 138.08,-87.65 133.02,-78.34 128.32,-83.53"/>
</a>
</g>
<text text-anchor="middle" x="129.5" y="-56.5" font-family="Helvetica,sans-Serif" font-size="10.00" fill="grey"> root</text>
</g>
<!-- Node3 -->
<g id="Node000003" class="node">
<title>Node3</title>
<g id="a_Node000003"><a xlink:href="structadvanced__structures_1_1ChunkTreap_1_1Node.html" target="_top" xlink:title=" ">
<polygon fill="white" stroke="#666666" points="276,-30 136,-30 136,0 276,0 276,-30"/>
<text text-anchor="start" x="144" y="-18" font-family="Helvetica,sans-Serif" font-size="10.00">advanced_structures</text>
<text text-anchor="middle" x="206" y="-7" font-family="Helvetica,sans-Serif" font-size="10.00">::ChunkTreap&lt; T &gt;::Node</text>
</a>
</g>
</g>
<!-- Node2&#45;&gt;Node3 -->
<g id="edge3_Node000003_Node000002" class="edge">
<title>Node2&#45;&gt;Node3</title>
<g id="a_edge3_Node000003_Node000002"><a xlink:title=" ">
<path fill="none" stroke="#9a32cd" stroke-dasharray="5,2" d="M152.49,-77.89C151.47,-67.88 152.14,-56.98 157,-48 160.97,-40.67 167.42,-34.76 174.36,-30.1"/>
<polygon fill="#9a32cd" stroke="#9a32cd" points="149.05,-78.53 154.05,-87.87 155.96,-77.45 149.05,-78.53"/>
</a>
</g>
<text text-anchor="middle" x="168.5" y="-62" font-family="Helvetica,sans-Serif" font-size="10.00" fill="grey"> left</text>
<text text-anchor="middle" x="168.5" y="-51" font-family="Helvetica,sans-Serif" font-size="10.00" fill="grey">right</text>
</g>
<!-- Node3&#45;&gt;Node2 -->
<g id="edge2_Node000002_Node000003" class="edge">
<title>Node3&#45;&gt;Node2</title>
<g id="a_edge2_Node000002_Node000003"><a xlink:title=" ">
<path fill="none" stroke="#9a32cd" stroke-dasharray="5,2" d="M197.52,-39.45C193.76,-49.09 189.05,-60.26 184,-70 180.94,-75.9 177.23,-82.07 173.65,-87.66"/>
<polygon fill="#9a32cd" stroke="#9a32cd" points="200.81,-40.67 201.07,-30.07 194.26,-38.19 200.81,-40.67"/>
</a>
</g>
<text text-anchor="middle" x="202.5" y="-56.5" font-family="Helvetica,sans-Serif" font-size="10.00" fill="grey"> ptr</text>
</g>
</g>
</svg>
