<?xml version="1.0" encoding="UTF-8" standalone="no"?>
<!DOCTYPE svg PUBLIC "-//W3C//DTD SVG 1.1//EN"
 "http://www.w3.org/Graphics/SVG/1.1/DTD/svg11.dtd">
<!-- Generated by graphviz version 2.43.0 (0)
 -->
<!-- Title: advanced_structures::ChunkBPlusTree&lt; T &gt; Pages: 1 -->
<svg width="405pt" height="225pt"
 viewBox="0.00 0.00 404.50 225.00" xmlns="http://www.w3.org/2000/svg" xmlns:xlink="http://www.w3.org/1999/xlink">

<svg id="main" version="1.1" xmlns="http://www.w3.org/2000/svg" xmlns:xlink="http://www.w3.org/1999/xlink" xml:space="preserve" onload="init(evt)">
<style type="text/css"><![CDATA[
.node, .edge {opacity: 0.7;}
.node.selected, .edge.selected {opacity: 1;}
.edge:hover path { stroke: red; }
.edge:hover polygon { stroke: red; fill: red; }
]]></style>
<script type="application/ecmascript" xlink:href="svg.min.js"/>
<svg id="graph" class="graph">
<g id="graph0" class="graph" transform="scale(1 1) rotate(0) translate(4 221)">
<title>advanced_structures::ChunkBPlusTree&lt; T &gt;</title>
<!-- Node1 -->
<g id="Node000001" class="node">
<title>Node1</title>
<g id="a_Node000001"><a xlink:title="A B+ tree implementation for chunk indexing.">
<polygon fill="#999999" stroke="#666666" points="129,-123.5 0,-123.5 0,-93.5 129,-93.5 129,-123.5"/>
<text text-anchor="start" x="8" y="-111.5" font-family="Helvetica,sans-Serif" font-size="10.00">advanced_structures</text>
<text text-anchor="middle" x="64.5" y="-100.5" font-family="Helvetica,sans-Serif" font-size="10.00">::ChunkBPlusTree&lt; T &gt;</text>
</a>
</g>
</g>
<!-- Node2 -->
<g id="Node000002" class="node">
<title>Node2</title>
<g id="a_Node000002"><a xlink:title=" ">
<polygon fill="white" stroke="#666666" points="281,-217 126,-217 126,-176 281,-176 281,-217"/>
<text text-anchor="start" x="134" y="-205" font-family="Helvetica,sans-Serif" font-size="10.00">std::shared_ptr&lt; advanced</text>
<text text-anchor="start" x="134" y="-194" font-family="Helvetica,sans-Serif" font-size="10.00">_structures::ChunkBPlusTree</text>
<text text-anchor="middle" x="203.5" y="-183" font-family="Helvetica,sans-Serif" font-size="10.00">::Node &gt;</text>
</a>
</g>
</g>
<!-- Node2&#45;&gt;Node1 -->
<g id="edge1_Node000001_Node000002" class="edge">
<title>Node2&#45;&gt;Node1</title>
<g id="a_edge1_Node000001_Node000002"><a xlink:title=" ">
<path fill="none" stroke="#9a32cd" stroke-dasharray="5,2" d="M151.81,-171.23C143.87,-167.06 135.87,-162.58 128.5,-158 111.69,-147.55 93.83,-133.77 81.27,-123.57"/>
<polygon fill="#9a32cd" stroke="#9a32cd" points="150.21,-174.35 160.71,-175.81 153.41,-168.12 150.21,-174.35"/>
</a>
</g>
<text text-anchor="middle" x="140" y="-150" font-family="Helvetica,sans-Serif" font-size="10.00" fill="grey"> root</text>
</g>
<!-- Node3 -->
<g id="Node000003" class="node">
<title>Node3</title>
<g id="a_Node000003"><a xlink:href="structadvanced__structures_1_1ChunkBPlusTree_1_1Node.html" target="_top" xlink:title=" ">
<polygon fill="white" stroke="#666666" points="345.5,-41 227.5,-41 227.5,0 345.5,0 345.5,-41"/>
<text text-anchor="start" x="235.5" y="-29" font-family="Helvetica,sans-Serif" font-size="10.00">advanced_structures</text>
<text text-anchor="start" x="235.5" y="-18" font-family="Helvetica,sans-Serif" font-size="10.00">::ChunkBPlusTree&lt; T</text>
<text text-anchor="middle" x="286.5" y="-7" font-family="Helvetica,sans-Serif" font-size="10.00"> &gt;::Node</text>
</a>
</g>
</g>
<!-- Node2&#45;&gt;Node3 -->
<g id="edge5_Node000003_Node000002" class="edge">
<title>Node2&#45;&gt;Node3</title>
<g id="a_edge5_Node000003_Node000002"><a xlink:title=" ">
<path fill="none" stroke="#9a32cd" stroke-dasharray="5,2" d="M184.5,-166.96C172.06,-144.38 160.46,-112.66 174.5,-88 186.64,-66.68 208.61,-51.48 229.89,-41.05"/>
<polygon fill="#9a32cd" stroke="#9a32cd" points="181.56,-168.86 189.63,-175.73 187.6,-165.33 181.56,-168.86"/>
</a>
</g>
<text text-anchor="middle" x="187" y="-106" font-family="Helvetica,sans-Serif" font-size="10.00" fill="grey"> next</text>
</g>
<!-- Node4 -->
<g id="Node000004" class="node">
<title>Node4</title>
<g id="a_Node000004"><a xlink:title=" ">
<polygon fill="white" stroke="#666666" points="364,-129 209,-129 209,-88 364,-88 364,-129"/>
<text text-anchor="start" x="217" y="-117" font-family="Helvetica,sans-Serif" font-size="10.00">std::vector&lt; std::shared</text>
<text text-anchor="start" x="217" y="-106" font-family="Helvetica,sans-Serif" font-size="10.00">_ptr&lt; advanced_structures</text>
<text text-anchor="middle" x="286.5" y="-95" font-family="Helvetica,sans-Serif" font-size="10.00">::ChunkBPlusTree::Node &gt; &gt;</text>
</a>
</g>
</g>
<!-- Node2&#45;&gt;Node4 -->
<g id="edge4_Node000004_Node000002" class="edge">
<title>Node2&#45;&gt;Node4</title>
<g id="a_edge4_Node000004_Node000002"><a xlink:title=" ">
<path fill="none" stroke="#9a32cd" stroke-dasharray="5,2" d="M229.3,-168.76C241.64,-155.98 256.14,-140.96 267.45,-129.24"/>
<polygon fill="#9a32cd" stroke="#9a32cd" points="226.76,-166.36 222.33,-175.99 231.8,-171.22 226.76,-166.36"/>
</a>
</g>
<text text-anchor="middle" x="275" y="-150" font-family="Helvetica,sans-Serif" font-size="10.00" fill="grey"> elements</text>
</g>
<!-- Node3&#45;&gt;Node2 -->
<g id="edge2_Node000002_Node000003" class="edge">
<title>Node3&#45;&gt;Node2</title>
<g id="a_edge2_Node000002_Node000003"><a xlink:title=" ">
<path fill="none" stroke="#9a32cd" stroke-dasharray="5,2" d="M334.86,-46.64C350.09,-57.2 365.11,-71.03 373.5,-88 381.57,-104.34 383.62,-113.85 373.5,-129 352.9,-159.83 315.62,-176.37 281.21,-185.24"/>
<polygon fill="#9a32cd" stroke="#9a32cd" points="336.7,-43.66 326.42,-41.11 332.87,-49.52 336.7,-43.66"/>
</a>
</g>
<text text-anchor="middle" x="388" y="-106" font-family="Helvetica,sans-Serif" font-size="10.00" fill="grey"> ptr</text>
</g>
<!-- Node4&#45;&gt;Node3 -->
<g id="edge3_Node000003_Node000004" class="edge">
<title>Node4&#45;&gt;Node3</title>
<g id="a_edge3_Node000003_Node000004"><a xlink:title=" ">
<path fill="none" stroke="#9a32cd" stroke-dasharray="5,2" d="M286.5,-77.86C286.5,-65.76 286.5,-52.08 286.5,-41.24"/>
<polygon fill="#9a32cd" stroke="#9a32cd" points="283,-77.99 286.5,-87.99 290,-77.99 283,-77.99"/>
</a>
</g>
<text text-anchor="middle" x="308" y="-62" font-family="Helvetica,sans-Serif" font-size="10.00" fill="grey"> children</text>
</g>
</g>
</svg>
</svg>

<style type='text/css'>
<![CDATA[
[data-mouse-over-selected='false'] { opacity: 0.7; }
[data-mouse-over-selected='true']  { opacity: 1.0; }
]]>
</style>
<script type="application/ecmascript"><![CDATA[
document.addEventListener('DOMContentLoaded', (event) => {
  highlightEdges();
  highlightAdjacentNodes();
});
]]></script>
</svg>
