<?xml version="1.0" encoding="UTF-8" standalone="no"?>
<!DOCTYPE svg PUBLIC "-//W3C//DTD SVG 1.1//EN"
 "http://www.w3.org/Graphics/SVG/1.1/DTD/svg11.dtd">
<!-- Generated by graphviz version 2.43.0 (0)
 -->
<!-- Title: chunk_strategies::RecursiveSubChunkStrategy&lt; T &gt; Pages: 1 -->
<svg width="402pt" height="98pt"
 viewBox="0.00 0.00 402.00 97.50" xmlns="http://www.w3.org/2000/svg" xmlns:xlink="http://www.w3.org/1999/xlink">
<g id="graph0" class="graph" transform="scale(1 1) rotate(0) translate(4 93.5)">
<title>chunk_strategies::RecursiveSubChunkStrategy&lt; T &gt;</title>
<!-- Node1 -->
<g id="Node000001" class="node">
<title>Node1</title>
<g id="a_Node000001"><a xlink:title="Strategy for applying recursive sub&#45;chunking.">
<polygon fill="#999999" stroke="#666666" points="394,-62.5 240,-62.5 240,-32.5 394,-32.5 394,-62.5"/>
<text text-anchor="start" x="248" y="-50.5" font-family="Helvetica,sans-Serif" font-size="10.00">chunk_strategies::Recursive</text>
<text text-anchor="middle" x="317" y="-39.5" font-family="Helvetica,sans-Serif" font-size="10.00">SubChunkStrategy&lt; T &gt;</text>
</a>
</g>
</g>
<!-- Node2 -->
<g id="Node000002" class="node">
<title>Node2</title>
<g id="a_Node000002"><a xlink:href="classchunk__strategies_1_1SubChunkStrategy.html" target="_top" xlink:title="Base class for sub&#45;chunking strategies.">
<polygon fill="white" stroke="#666666" points="155,-89.5 0,-89.5 0,-59.5 155,-59.5 155,-89.5"/>
<text text-anchor="start" x="8" y="-77.5" font-family="Helvetica,sans-Serif" font-size="10.00">chunk_strategies::SubChunk</text>
<text text-anchor="middle" x="77.5" y="-66.5" font-family="Helvetica,sans-Serif" font-size="10.00">Strategy&lt; T &gt;</text>
</a>
</g>
</g>
<!-- Node2&#45;&gt;Node1 -->
<g id="edge1_Node000001_Node000002" class="edge">
<title>Node2&#45;&gt;Node1</title>
<g id="a_edge1_Node000001_Node000002"><a xlink:title=" ">
<path fill="none" stroke="#63b8ff" d="M165.26,-64.64C189.71,-61.86 216.11,-58.86 239.89,-56.15"/>
<polygon fill="#63b8ff" stroke="#63b8ff" points="164.82,-61.16 155.28,-65.77 165.61,-68.12 164.82,-61.16"/>
</a>
</g>
</g>
<!-- Node3 -->
<g id="Node000003" class="node">
<title>Node3</title>
<g id="a_Node000003"><a xlink:title=" ">
<polygon fill="white" stroke="#666666" points="152,-41 3,-41 3,0 152,0 152,-41"/>
<text text-anchor="start" x="11" y="-29" font-family="Helvetica,sans-Serif" font-size="10.00">std::shared_ptr&lt; chunk</text>
<text text-anchor="start" x="11" y="-18" font-family="Helvetica,sans-Serif" font-size="10.00">_strategies::ChunkStrategy</text>
<text text-anchor="middle" x="77.5" y="-7" font-family="Helvetica,sans-Serif" font-size="10.00">&lt; T &gt; &gt;</text>
</a>
</g>
</g>
<!-- Node3&#45;&gt;Node1 -->
<g id="edge2_Node000001_Node000003" class="edge">
<title>Node3&#45;&gt;Node1</title>
<g id="a_edge2_Node000001_Node000003"><a xlink:title=" ">
<path fill="none" stroke="#9a32cd" stroke-dasharray="5,2" d="M161.99,-29.99C187.36,-32.88 215.1,-36.03 239.96,-38.85"/>
<polygon fill="#9a32cd" stroke="#9a32cd" points="162.35,-26.51 152.02,-28.86 161.56,-33.47 162.35,-26.51"/>
</a>
</g>
<text text-anchor="middle" x="197.5" y="-39.5" font-family="Helvetica,sans-Serif" font-size="10.00" fill="grey"> strategy_</text>
</g>
</g>
</svg>
