<?xml version="1.0" encoding="UTF-8" standalone="no"?>
<!DOCTYPE svg PUBLIC "-//W3C//DTD SVG 1.1//EN"
 "http://www.w3.org/Graphics/SVG/1.1/DTD/svg11.dtd">
<!-- Generated by graphviz version 2.43.0 (0)
 -->
<!-- Title: config.hpp Pages: 1 -->
<svg width="419pt" height="280pt"
 viewBox="0.00 0.00 419.00 280.00" xmlns="http://www.w3.org/2000/svg" xmlns:xlink="http://www.w3.org/1999/xlink">
<g id="graph0" class="graph" transform="scale(1 1) rotate(0) translate(4 276)">
<title>config.hpp</title>
<!-- Node1 -->
<g id="Node000001" class="node">
<title>Node1</title>
<g id="a_Node000001"><a xlink:title=" ">
<polygon fill="#999999" stroke="#666666" points="67,-272 0,-272 0,-253 67,-253 67,-272"/>
<text text-anchor="middle" x="33.5" y="-260" font-family="Helvetica,sans-Serif" font-size="10.00">config.hpp</text>
</a>
</g>
</g>
<!-- Node2 -->
<g id="Node000002" class="node">
<title>Node2</title>
<g id="a_Node000002"><a xlink:href="main_8cpp.html" target="_top" xlink:title="Demonstrates various chunking strategies and operations.">
<polygon fill="white" stroke="#666666" points="165,-52 28,-52 28,0 165,0 165,-52"/>
<text text-anchor="start" x="36" y="-40" font-family="Helvetica,sans-Serif" font-size="10.00">/mnt/c/Users/jonat</text>
<text text-anchor="start" x="36" y="-29" font-family="Helvetica,sans-Serif" font-size="10.00">/OneDrive/Documents</text>
<text text-anchor="start" x="36" y="-18" font-family="Helvetica,sans-Serif" font-size="10.00">/Python Scripts/chunking</text>
<text text-anchor="middle" x="96.5" y="-7" font-family="Helvetica,sans-Serif" font-size="10.00">_cpp/src/main.cpp</text>
</a>
</g>
</g>
<!-- Node1&#45;&gt;Node2 -->
<g id="edge1_Node000001_Node000002" class="edge">
<title>Node1&#45;&gt;Node2</title>
<g id="a_edge1_Node000001_Node000002"><a xlink:title=" ">
<path fill="none" stroke="#63b8ff" d="M31.12,-242.81C27.75,-210.07 24.13,-140.83 45.5,-88 50.83,-74.82 60.13,-62.37 69.34,-52.2"/>
<polygon fill="#63b8ff" stroke="#63b8ff" points="27.65,-243.24 32.27,-252.78 34.6,-242.44 27.65,-243.24"/>
</a>
</g>
</g>
<!-- Node3 -->
<g id="Node000003" class="node">
<title>Node3</title>
<g id="a_Node000003"><a xlink:href="chunk_8hpp.html" target="_top" xlink:title="Template class for chunk&#45;based data processing.">
<polygon fill="white" stroke="#666666" points="155,-217 88,-217 88,-198 155,-198 155,-217"/>
<text text-anchor="middle" x="121.5" y="-205" font-family="Helvetica,sans-Serif" font-size="10.00">chunk.hpp</text>
</a>
</g>
</g>
<!-- Node1&#45;&gt;Node3 -->
<g id="edge2_Node000001_Node000003" class="edge">
<title>Node1&#45;&gt;Node3</title>
<g id="a_edge2_Node000001_Node000003"><a xlink:title=" ">
<path fill="none" stroke="#63b8ff" d="M56.42,-247.7C72.45,-238.04 93.37,-225.44 107.1,-217.17"/>
<polygon fill="#63b8ff" stroke="#63b8ff" points="54.4,-244.83 47.64,-252.98 58.01,-250.82 54.4,-244.83"/>
</a>
</g>
</g>
<!-- Node3&#45;&gt;Node2 -->
<g id="edge3_Node000003_Node000002" class="edge">
<title>Node3&#45;&gt;Node2</title>
<g id="a_edge3_Node000003_Node000002"><a xlink:title=" ">
<path fill="none" stroke="#63b8ff" d="M87.39,-193.54C73.67,-186.44 59.27,-176.15 51.5,-162 31.82,-126.16 56.39,-80.24 76.23,-52.25"/>
<polygon fill="#63b8ff" stroke="#63b8ff" points="86.16,-196.83 96.69,-197.95 89.16,-190.51 86.16,-196.83"/>
</a>
</g>
</g>
<!-- Node4 -->
<g id="Node000004" class="node">
<title>Node4</title>
<g id="a_Node000004"><a xlink:href="chunk__strategies_8hpp.html" target="_top" xlink:title="Defines various strategies for chunking data based on different criteria.">
<polygon fill="white" stroke="#666666" points="182,-162 61,-162 61,-143 182,-143 182,-162"/>
<text text-anchor="middle" x="121.5" y="-150" font-family="Helvetica,sans-Serif" font-size="10.00">chunk_strategies.hpp</text>
</a>
</g>
</g>
<!-- Node3&#45;&gt;Node4 -->
<g id="edge4_Node000003_Node000004" class="edge">
<title>Node3&#45;&gt;Node4</title>
<g id="a_edge4_Node000003_Node000004"><a xlink:title=" ">
<path fill="none" stroke="#63b8ff" d="M121.5,-187.66C121.5,-178.93 121.5,-168.99 121.5,-162.09"/>
<polygon fill="#63b8ff" stroke="#63b8ff" points="118,-187.75 121.5,-197.75 125,-187.75 118,-187.75"/>
</a>
</g>
</g>
<!-- Node6 -->
<g id="Node000006" class="node">
<title>Node6</title>
<g id="a_Node000006"><a xlink:href="chunk__windows_8hpp.html" target="_top" xlink:title=" ">
<polygon fill="white" stroke="#666666" points="351,-107 236,-107 236,-88 351,-88 351,-107"/>
<text text-anchor="middle" x="293.5" y="-95" font-family="Helvetica,sans-Serif" font-size="10.00">chunk_windows.hpp</text>
</a>
</g>
</g>
<!-- Node3&#45;&gt;Node6 -->
<g id="edge8_Node000003_Node000006" class="edge">
<title>Node3&#45;&gt;Node6</title>
<g id="a_edge8_Node000003_Node000006"><a xlink:title=" ">
<path fill="none" stroke="#63b8ff" d="M144.12,-192.3C180.28,-169.59 250.03,-125.8 279.65,-107.2"/>
<polygon fill="#63b8ff" stroke="#63b8ff" points="141.89,-189.56 135.28,-197.84 145.61,-195.49 141.89,-189.56"/>
</a>
</g>
</g>
<!-- Node7 -->
<g id="Node000007" class="node">
<title>Node7</title>
<g id="a_Node000007"><a xlink:href="parallel__chunk_8hpp.html" target="_top" xlink:title=" ">
<polygon fill="white" stroke="#666666" points="411,-162 302,-162 302,-143 411,-143 411,-162"/>
<text text-anchor="middle" x="356.5" y="-150" font-family="Helvetica,sans-Serif" font-size="10.00">parallel_chunk.hpp</text>
</a>
</g>
</g>
<!-- Node3&#45;&gt;Node7 -->
<g id="edge10_Node000003_Node000007" class="edge">
<title>Node3&#45;&gt;Node7</title>
<g id="a_edge10_Node000003_Node000007"><a xlink:title=" ">
<path fill="none" stroke="#63b8ff" d="M165.03,-196.68C209.12,-186.74 276.65,-171.51 318.61,-162.05"/>
<polygon fill="#63b8ff" stroke="#63b8ff" points="164.15,-193.29 155.17,-198.91 165.69,-200.12 164.15,-193.29"/>
</a>
</g>
</g>
<!-- Node4&#45;&gt;Node2 -->
<g id="edge5_Node000004_Node000002" class="edge">
<title>Node4&#45;&gt;Node2</title>
<g id="a_edge5_Node000004_Node000002"><a xlink:title=" ">
<path fill="none" stroke="#63b8ff" d="M94.96,-137.62C83.68,-130.18 71.72,-119.88 65.5,-107 56.89,-89.16 65.59,-68.26 75.94,-52.3"/>
<polygon fill="#63b8ff" stroke="#63b8ff" points="93.37,-140.75 103.73,-142.96 97.01,-134.77 93.37,-140.75"/>
</a>
</g>
</g>
<!-- Node5 -->
<g id="Node000005" class="node">
<title>Node5</title>
<g id="a_Node000005"><a xlink:href="sub__chunk__strategies_8hpp.html" target="_top" xlink:title="Advanced sub&#45;chunking strategies for hierarchical data processing.">
<polygon fill="white" stroke="#666666" points="218,-107 75,-107 75,-88 218,-88 218,-107"/>
<text text-anchor="middle" x="146.5" y="-95" font-family="Helvetica,sans-Serif" font-size="10.00">sub_chunk_strategies.hpp</text>
</a>
</g>
</g>
<!-- Node4&#45;&gt;Node5 -->
<g id="edge6_Node000004_Node000005" class="edge">
<title>Node4&#45;&gt;Node5</title>
<g id="a_edge6_Node000004_Node000005"><a xlink:title=" ">
<path fill="none" stroke="#63b8ff" d="M129.98,-133.53C134.19,-124.6 139.09,-114.22 142.45,-107.09"/>
<polygon fill="#63b8ff" stroke="#63b8ff" points="126.73,-132.21 125.63,-142.75 133.06,-135.2 126.73,-132.21"/>
</a>
</g>
</g>
<!-- Node5&#45;&gt;Node2 -->
<g id="edge7_Node000005_Node000002" class="edge">
<title>Node5&#45;&gt;Node2</title>
<g id="a_edge7_Node000005_Node000002"><a xlink:title=" ">
<path fill="none" stroke="#63b8ff" d="M134.52,-79.84C128.53,-71.53 121.17,-61.29 114.52,-52.05"/>
<polygon fill="#63b8ff" stroke="#63b8ff" points="131.69,-81.9 140.37,-87.98 137.37,-77.82 131.69,-81.9"/>
</a>
</g>
</g>
<!-- Node6&#45;&gt;Node2 -->
<g id="edge9_Node000006_Node000002" class="edge">
<title>Node6&#45;&gt;Node2</title>
<g id="a_edge9_Node000006_Node000002"><a xlink:title=" ">
<path fill="none" stroke="#63b8ff" d="M259.64,-84.56C233.78,-75.43 197.27,-62.55 165.35,-51.29"/>
<polygon fill="#63b8ff" stroke="#63b8ff" points="258.75,-87.95 269.34,-87.98 261.08,-81.35 258.75,-87.95"/>
</a>
</g>
</g>
<!-- Node7&#45;&gt;Node2 -->
<g id="edge11_Node000007_Node000002" class="edge">
<title>Node7&#45;&gt;Node2</title>
<g id="a_edge11_Node000007_Node000002"><a xlink:title=" ">
<path fill="none" stroke="#63b8ff" d="M363.43,-132.7C367.21,-118.88 369.36,-100.41 359.5,-88 335.63,-57.95 234.69,-41.39 165.04,-33.35"/>
<polygon fill="#63b8ff" stroke="#63b8ff" points="359.98,-132 360.24,-142.59 366.64,-134.15 359.98,-132"/>
</a>
</g>
</g>
</g>
</svg>
