<?xml version="1.0" encoding="UTF-8" standalone="no"?>
<!DOCTYPE svg PUBLIC "-//W3C//DTD SVG 1.1//EN"
 "http://www.w3.org/Graphics/SVG/1.1/DTD/svg11.dtd">
<!-- Generated by graphviz version 2.43.0 (0)
 -->
<!-- Title: Graphical Class Hierarchy Pages: 1 -->
<svg width="422pt" height="374pt"
 viewBox="0.00 0.00 422.00 374.00" xmlns="http://www.w3.org/2000/svg" xmlns:xlink="http://www.w3.org/1999/xlink">
<g id="graph0" class="graph" transform="scale(1 1) rotate(0) translate(4 370)">
<title>Graphical Class Hierarchy</title>
<!-- Node0 -->
<g id="Node000000" class="node">
<title>Node0</title>
<g id="a_Node000000"><a xlink:href="classchunk__processing_1_1ChunkStrategy.html" target="_top" xlink:title=" ">
<polygon fill="white" stroke="#666666" points="210,-192.5 0,-192.5 0,-173.5 210,-173.5 210,-192.5"/>
<text text-anchor="middle" x="105" y="-180.5" font-family="Helvetica,sans-Serif" font-size="10.00">chunk_processing::ChunkStrategy&lt; T &gt;</text>
</a>
</g>
</g>
<!-- Node1 -->
<g id="Node000001" class="node">
<title>Node1</title>
<g id="a_Node000001"><a xlink:href="classchunk__processing_1_1ConditionalSubChunkStrategy.html" target="_top" xlink:title=" ">
<polygon fill="white" stroke="#666666" points="412.5,-366 247.5,-366 247.5,-336 412.5,-336 412.5,-366"/>
<text text-anchor="start" x="255.5" y="-354" font-family="Helvetica,sans-Serif" font-size="10.00">chunk_processing::Conditional</text>
<text text-anchor="middle" x="330" y="-343" font-family="Helvetica,sans-Serif" font-size="10.00">SubChunkStrategy&lt; T &gt;</text>
</a>
</g>
</g>
<!-- Node0&#45;&gt;Node1 -->
<g id="edge1_Node000000_Node000001" class="edge">
<title>Node0&#45;&gt;Node1</title>
<g id="a_edge1_Node000000_Node000001"><a xlink:title=" ">
<path fill="none" stroke="#63b8ff" d="M118.63,-201.14C140.85,-231.69 189.91,-293.34 246,-327 251.66,-330.4 257.83,-333.33 264.16,-335.87"/>
<polygon fill="#63b8ff" stroke="#63b8ff" points="121.28,-198.83 112.62,-192.73 115.59,-202.9 121.28,-198.83"/>
</a>
</g>
</g>
<!-- Node2 -->
<g id="Node000002" class="node">
<title>Node2</title>
<g id="a_Node000002"><a xlink:href="classchunk__processing_1_1EntropyStrategy.html" target="_top" xlink:title=" ">
<polygon fill="white" stroke="#666666" points="403.5,-318 256.5,-318 256.5,-288 403.5,-288 403.5,-318"/>
<text text-anchor="start" x="264.5" y="-306" font-family="Helvetica,sans-Serif" font-size="10.00">chunk_processing::Entropy</text>
<text text-anchor="middle" x="330" y="-295" font-family="Helvetica,sans-Serif" font-size="10.00">Strategy&lt; T &gt;</text>
</a>
</g>
</g>
<!-- Node0&#45;&gt;Node2 -->
<g id="edge2_Node000000_Node000002" class="edge">
<title>Node0&#45;&gt;Node2</title>
<g id="a_edge2_Node000000_Node000002"><a xlink:title=" ">
<path fill="none" stroke="#63b8ff" d="M125.09,-199.06C150.96,-220.12 199.31,-256.95 246,-279 253.05,-282.33 260.67,-285.3 268.32,-287.91"/>
<polygon fill="#63b8ff" stroke="#63b8ff" points="127.15,-196.23 117.21,-192.57 122.7,-201.63 127.15,-196.23"/>
</a>
</g>
</g>
<!-- Node3 -->
<g id="Node000003" class="node">
<title>Node3</title>
<g id="a_Node000003"><a xlink:href="classchunk__processing_1_1HierarchicalSubChunkStrategy.html" target="_top" xlink:title=" ">
<polygon fill="white" stroke="#666666" points="414,-270 246,-270 246,-240 414,-240 414,-270"/>
<text text-anchor="start" x="254" y="-258" font-family="Helvetica,sans-Serif" font-size="10.00">chunk_processing::Hierarchical</text>
<text text-anchor="middle" x="330" y="-247" font-family="Helvetica,sans-Serif" font-size="10.00">SubChunkStrategy&lt; T &gt;</text>
</a>
</g>
</g>
<!-- Node0&#45;&gt;Node3 -->
<g id="edge3_Node000000_Node000003" class="edge">
<title>Node0&#45;&gt;Node3</title>
<g id="a_edge3_Node000000_Node000003"><a xlink:title=" ">
<path fill="none" stroke="#63b8ff" d="M141.89,-195.84C170.08,-205.8 210.38,-219.75 246,-231 255.44,-233.98 265.53,-237.02 275.31,-239.89"/>
<polygon fill="#63b8ff" stroke="#63b8ff" points="143.05,-192.54 132.45,-192.5 140.71,-199.14 143.05,-192.54"/>
</a>
</g>
</g>
<!-- Node4 -->
<g id="Node000004" class="node">
<title>Node4</title>
<g id="a_Node000004"><a xlink:href="classchunk__processing_1_1NeuralChunkingStrategy.html" target="_top" xlink:title=" ">
<polygon fill="white" stroke="#666666" points="401,-222 259,-222 259,-192 401,-192 401,-222"/>
<text text-anchor="start" x="267" y="-210" font-family="Helvetica,sans-Serif" font-size="10.00">chunk_processing::Neural</text>
<text text-anchor="middle" x="330" y="-199" font-family="Helvetica,sans-Serif" font-size="10.00">ChunkingStrategy&lt; T &gt;</text>
</a>
</g>
</g>
<!-- Node0&#45;&gt;Node4 -->
<g id="edge4_Node000000_Node000004" class="edge">
<title>Node0&#45;&gt;Node4</title>
<g id="a_edge4_Node000000_Node000004"><a xlink:title=" ">
<path fill="none" stroke="#63b8ff" d="M204.56,-193.61C222.86,-195.58 241.64,-197.6 258.87,-199.45"/>
<polygon fill="#63b8ff" stroke="#63b8ff" points="204.77,-190.11 194.46,-192.52 204.02,-197.07 204.77,-190.11"/>
</a>
</g>
</g>
<!-- Node5 -->
<g id="Node000005" class="node">
<title>Node5</title>
<g id="a_Node000005"><a xlink:href="classchunk__processing_1_1PatternBasedStrategy.html" target="_top" xlink:title=" ">
<polygon fill="white" stroke="#666666" points="402,-174 258,-174 258,-144 402,-144 402,-174"/>
<text text-anchor="start" x="266" y="-162" font-family="Helvetica,sans-Serif" font-size="10.00">chunk_processing::Pattern</text>
<text text-anchor="middle" x="330" y="-151" font-family="Helvetica,sans-Serif" font-size="10.00">BasedStrategy&lt; T &gt;</text>
</a>
</g>
</g>
<!-- Node0&#45;&gt;Node5 -->
<g id="edge5_Node000000_Node000005" class="edge">
<title>Node0&#45;&gt;Node5</title>
<g id="a_edge5_Node000000_Node000005"><a xlink:title=" ">
<path fill="none" stroke="#63b8ff" d="M204.89,-172.36C222.72,-170.44 240.98,-168.47 257.83,-166.66"/>
<polygon fill="#63b8ff" stroke="#63b8ff" points="204.02,-168.93 194.46,-173.48 204.77,-175.89 204.02,-168.93"/>
</a>
</g>
</g>
<!-- Node6 -->
<g id="Node000006" class="node">
<title>Node6</title>
<g id="a_Node000006"><a xlink:href="classchunk__processing_1_1RecursiveSubChunkStrategy.html" target="_top" xlink:title=" ">
<polygon fill="white" stroke="#666666" points="409,-126 251,-126 251,-96 409,-96 409,-126"/>
<text text-anchor="start" x="259" y="-114" font-family="Helvetica,sans-Serif" font-size="10.00">chunk_processing::Recursive</text>
<text text-anchor="middle" x="330" y="-103" font-family="Helvetica,sans-Serif" font-size="10.00">SubChunkStrategy&lt; T &gt;</text>
</a>
</g>
</g>
<!-- Node0&#45;&gt;Node6 -->
<g id="edge6_Node000000_Node000006" class="edge">
<title>Node0&#45;&gt;Node6</title>
<g id="a_edge6_Node000000_Node000006"><a xlink:title=" ">
<path fill="none" stroke="#63b8ff" d="M141.89,-170.16C170.08,-160.2 210.38,-146.25 246,-135 255.44,-132.02 265.53,-128.98 275.31,-126.11"/>
<polygon fill="#63b8ff" stroke="#63b8ff" points="140.71,-166.86 132.45,-173.5 143.05,-173.46 140.71,-166.86"/>
</a>
</g>
</g>
<!-- Node7 -->
<g id="Node000007" class="node">
<title>Node7</title>
<g id="a_Node000007"><a xlink:href="classchunk__processing_1_1SimilarityChunkingStrategy.html" target="_top" xlink:title=" ">
<polygon fill="white" stroke="#666666" points="408.5,-78 251.5,-78 251.5,-48 408.5,-48 408.5,-78"/>
<text text-anchor="start" x="259.5" y="-66" font-family="Helvetica,sans-Serif" font-size="10.00">chunk_processing::Similarity</text>
<text text-anchor="middle" x="330" y="-55" font-family="Helvetica,sans-Serif" font-size="10.00">ChunkingStrategy&lt; T &gt;</text>
</a>
</g>
</g>
<!-- Node0&#45;&gt;Node7 -->
<g id="edge7_Node000000_Node000007" class="edge">
<title>Node0&#45;&gt;Node7</title>
<g id="a_edge7_Node000000_Node000007"><a xlink:title=" ">
<path fill="none" stroke="#63b8ff" d="M125.09,-166.94C150.96,-145.88 199.31,-109.05 246,-87 253.05,-83.67 260.67,-80.7 268.32,-78.09"/>
<polygon fill="#63b8ff" stroke="#63b8ff" points="122.7,-164.37 117.21,-173.43 127.15,-169.77 122.7,-164.37"/>
</a>
</g>
</g>
<!-- Node8 -->
<g id="Node000008" class="node">
<title>Node8</title>
<g id="a_Node000008"><a xlink:href="classchunk__processing_1_1VarianceStrategy.html" target="_top" xlink:title=" ">
<polygon fill="white" stroke="#666666" points="406,-30 254,-30 254,0 406,0 406,-30"/>
<text text-anchor="start" x="262" y="-18" font-family="Helvetica,sans-Serif" font-size="10.00">chunk_processing::Variance</text>
<text text-anchor="middle" x="330" y="-7" font-family="Helvetica,sans-Serif" font-size="10.00">Strategy&lt; T &gt;</text>
</a>
</g>
</g>
<!-- Node0&#45;&gt;Node8 -->
<g id="edge8_Node000000_Node000008" class="edge">
<title>Node0&#45;&gt;Node8</title>
<g id="a_edge8_Node000000_Node000008"><a xlink:title=" ">
<path fill="none" stroke="#63b8ff" d="M118.63,-164.86C140.85,-134.31 189.91,-72.66 246,-39 251.66,-35.6 257.83,-32.67 264.16,-30.13"/>
<polygon fill="#63b8ff" stroke="#63b8ff" points="115.59,-163.1 112.62,-173.27 121.28,-167.17 115.59,-163.1"/>
</a>
</g>
</g>
</g>
</svg>
