<?xml version="1.0" encoding="UTF-8" standalone="no"?>
<!DOCTYPE svg PUBLIC "-//W3C//DTD SVG 1.1//EN"
 "http://www.w3.org/Graphics/SVG/1.1/DTD/svg11.dtd">
<!-- Generated by graphviz version 2.43.0 (0)
 -->
<!-- Title: Graphical Class Hierarchy Pages: 1 -->
<svg width="429pt" height="401pt"
 viewBox="0.00 0.00 429.00 400.50" xmlns="http://www.w3.org/2000/svg" xmlns:xlink="http://www.w3.org/1999/xlink">
<g id="graph0" class="graph" transform="scale(1 1) rotate(0) translate(4 396.5)">
<title>Graphical Class Hierarchy</title>
<!-- Node0 -->
<g id="Node000000" class="node">
<title>Node0</title>
<g id="a_Node000000"><a xlink:href="classchunk__strategies_1_1ChunkStrategy.html" target="_top" xlink:title="Base class for chunking strategies.">
<polygon fill="white" stroke="#666666" points="206,-216.5 0,-216.5 0,-197.5 206,-197.5 206,-216.5"/>
<text text-anchor="middle" x="103" y="-204.5" font-family="Helvetica,sans-Serif" font-size="10.00">chunk_strategies::ChunkStrategy&lt; T &gt;</text>
</a>
</g>
</g>
<!-- Node1 -->
<g id="Node000001" class="node">
<title>Node1</title>
<g id="a_Node000001"><a xlink:href="classNeuralChunkingStrategy.html" target="_top" xlink:title=" ">
<polygon fill="white" stroke="#666666" points="413.5,-392.5 249.5,-392.5 249.5,-373.5 413.5,-373.5 413.5,-392.5"/>
<text text-anchor="middle" x="331.5" y="-380.5" font-family="Helvetica,sans-Serif" font-size="10.00">NeuralChunkingStrategy&lt; T &gt;</text>
</a>
</g>
</g>
<!-- Node0&#45;&gt;Node1 -->
<g id="edge2_Node000000_Node000001" class="edge">
<title>Node0&#45;&gt;Node1</title>
<g id="a_edge2_Node000000_Node000001"><a xlink:title=" ">
<path fill="none" stroke="#63b8ff" d="M114.5,-225.55C134.58,-259.19 181.83,-330 242,-365 247.83,-368.39 254.2,-371.15 260.76,-373.39"/>
<polygon fill="#63b8ff" stroke="#63b8ff" points="117.43,-223.62 109.36,-216.75 111.38,-227.15 117.43,-223.62"/>
</a>
</g>
</g>
<!-- Node2 -->
<g id="Node000002" class="node">
<title>Node2</title>
<g id="a_Node000002"><a xlink:href="classSimilarityChunkingStrategy.html" target="_top" xlink:title=" ">
<polygon fill="white" stroke="#666666" points="421,-355.5 242,-355.5 242,-336.5 421,-336.5 421,-355.5"/>
<text text-anchor="middle" x="331.5" y="-343.5" font-family="Helvetica,sans-Serif" font-size="10.00">SimilarityChunkingStrategy&lt; T &gt;</text>
</a>
</g>
</g>
<!-- Node0&#45;&gt;Node2 -->
<g id="edge3_Node000000_Node000002" class="edge">
<title>Node0&#45;&gt;Node2</title>
<g id="a_edge3_Node000000_Node000002"><a xlink:title=" ">
<path fill="none" stroke="#63b8ff" d="M118.52,-224.29C141.75,-250.77 189.98,-300.99 242,-327 249.73,-330.87 258.22,-333.95 266.8,-336.4"/>
<polygon fill="#63b8ff" stroke="#63b8ff" points="121.06,-221.88 111.88,-216.59 115.76,-226.45 121.06,-221.88"/>
</a>
</g>
</g>
<!-- Node3 -->
<g id="Node000003" class="node">
<title>Node3</title>
<g id="a_Node000003"><a xlink:href="classchunk__strategies_1_1AdaptiveStrategy.html" target="_top" xlink:title=" ">
<polygon fill="white" stroke="#666666" points="406,-318 257,-318 257,-288 406,-288 406,-318"/>
<text text-anchor="start" x="265" y="-306" font-family="Helvetica,sans-Serif" font-size="10.00">chunk_strategies::Adaptive</text>
<text text-anchor="middle" x="331.5" y="-295" font-family="Helvetica,sans-Serif" font-size="10.00">Strategy&lt; T &gt;</text>
</a>
</g>
</g>
<!-- Node0&#45;&gt;Node3 -->
<g id="edge4_Node000000_Node000003" class="edge">
<title>Node0&#45;&gt;Node3</title>
<g id="a_edge4_Node000000_Node000003"><a xlink:title=" ">
<path fill="none" stroke="#63b8ff" d="M128.37,-221.79C155.37,-237.67 200.58,-262.8 242,-279 250.3,-282.25 259.21,-285.22 268.05,-287.89"/>
<polygon fill="#63b8ff" stroke="#63b8ff" points="130,-218.68 119.62,-216.58 126.43,-224.7 130,-218.68"/>
</a>
</g>
</g>
<!-- Node4 -->
<g id="Node000004" class="node">
<title>Node4</title>
<g id="a_Node000004"><a xlink:href="classchunk__strategies_1_1DynamicThresholdStrategy.html" target="_top" xlink:title=" ">
<polygon fill="white" stroke="#666666" points="406,-270 257,-270 257,-240 406,-240 406,-270"/>
<text text-anchor="start" x="265" y="-258" font-family="Helvetica,sans-Serif" font-size="10.00">chunk_strategies::Dynamic</text>
<text text-anchor="middle" x="331.5" y="-247" font-family="Helvetica,sans-Serif" font-size="10.00">ThresholdStrategy&lt; T &gt;</text>
</a>
</g>
</g>
<!-- Node0&#45;&gt;Node4 -->
<g id="edge5_Node000000_Node000004" class="edge">
<title>Node0&#45;&gt;Node4</title>
<g id="a_edge5_Node000000_Node000004"><a xlink:title=" ">
<path fill="none" stroke="#63b8ff" d="M158.98,-218.65C189.27,-225.07 227.21,-233.11 259.7,-240"/>
<polygon fill="#63b8ff" stroke="#63b8ff" points="159.53,-215.19 149.02,-216.54 158.08,-222.04 159.53,-215.19"/>
</a>
</g>
</g>
<!-- Node5 -->
<g id="Node000005" class="node">
<title>Node5</title>
<g id="a_Node000005"><a xlink:href="classchunk__strategies_1_1EntropyStrategy.html" target="_top" xlink:title="Strategy for chunking based on entropy thresholds.">
<polygon fill="white" stroke="#666666" points="403,-222 260,-222 260,-192 403,-192 403,-222"/>
<text text-anchor="start" x="268" y="-210" font-family="Helvetica,sans-Serif" font-size="10.00">chunk_strategies::Entropy</text>
<text text-anchor="middle" x="331.5" y="-199" font-family="Helvetica,sans-Serif" font-size="10.00">Strategy&lt; T &gt;</text>
</a>
</g>
</g>
<!-- Node0&#45;&gt;Node5 -->
<g id="edge6_Node000000_Node000005" class="edge">
<title>Node0&#45;&gt;Node5</title>
<g id="a_edge6_Node000000_Node000005"><a xlink:title=" ">
<path fill="none" stroke="#63b8ff" d="M216.5,-207C231.23,-207 245.98,-207 259.74,-207"/>
<polygon fill="#63b8ff" stroke="#63b8ff" points="216.32,-203.5 206.32,-207 216.32,-210.5 216.32,-203.5"/>
</a>
</g>
</g>
<!-- Node6 -->
<g id="Node000006" class="node">
<title>Node6</title>
<g id="a_Node000006"><a xlink:href="classchunk__strategies_1_1MultiCriteriaStrategy.html" target="_top" xlink:title=" ">
<polygon fill="white" stroke="#666666" points="415,-174 248,-174 248,-144 415,-144 415,-174"/>
<text text-anchor="start" x="256" y="-162" font-family="Helvetica,sans-Serif" font-size="10.00">chunk_strategies::MultiCriteria</text>
<text text-anchor="middle" x="331.5" y="-151" font-family="Helvetica,sans-Serif" font-size="10.00">Strategy&lt; T &gt;</text>
</a>
</g>
</g>
<!-- Node0&#45;&gt;Node6 -->
<g id="edge7_Node000000_Node000006" class="edge">
<title>Node0&#45;&gt;Node6</title>
<g id="a_edge7_Node000000_Node000006"><a xlink:title=" ">
<path fill="none" stroke="#63b8ff" d="M158.98,-195.35C189.27,-188.93 227.21,-180.89 259.7,-174"/>
<polygon fill="#63b8ff" stroke="#63b8ff" points="158.08,-191.96 149.02,-197.46 159.53,-198.81 158.08,-191.96"/>
</a>
</g>
</g>
<!-- Node7 -->
<g id="Node000007" class="node">
<title>Node7</title>
<g id="a_Node000007"><a xlink:href="classchunk__strategies_1_1PatternBasedStrategy.html" target="_top" xlink:title=" ">
<polygon fill="white" stroke="#666666" points="401.5,-126 261.5,-126 261.5,-96 401.5,-96 401.5,-126"/>
<text text-anchor="start" x="269.5" y="-114" font-family="Helvetica,sans-Serif" font-size="10.00">chunk_strategies::Pattern</text>
<text text-anchor="middle" x="331.5" y="-103" font-family="Helvetica,sans-Serif" font-size="10.00">BasedStrategy&lt; T &gt;</text>
</a>
</g>
</g>
<!-- Node0&#45;&gt;Node7 -->
<g id="edge8_Node000000_Node000007" class="edge">
<title>Node0&#45;&gt;Node7</title>
<g id="a_edge8_Node000000_Node000007"><a xlink:title=" ">
<path fill="none" stroke="#63b8ff" d="M128.37,-192.21C155.37,-176.33 200.58,-151.2 242,-135 250.3,-131.75 259.21,-128.78 268.05,-126.11"/>
<polygon fill="#63b8ff" stroke="#63b8ff" points="126.43,-189.3 119.62,-197.42 130,-195.32 126.43,-189.3"/>
</a>
</g>
</g>
<!-- Node8 -->
<g id="Node000008" class="node">
<title>Node8</title>
<g id="a_Node000008"><a xlink:href="classchunk__strategies_1_1QuantileStrategy.html" target="_top" xlink:title="Strategy for chunking based on quantile thresholds.">
<polygon fill="white" stroke="#666666" points="405,-78 258,-78 258,-48 405,-48 405,-78"/>
<text text-anchor="start" x="266" y="-66" font-family="Helvetica,sans-Serif" font-size="10.00">chunk_strategies::Quantile</text>
<text text-anchor="middle" x="331.5" y="-55" font-family="Helvetica,sans-Serif" font-size="10.00">Strategy&lt; T &gt;</text>
</a>
</g>
</g>
<!-- Node0&#45;&gt;Node8 -->
<g id="edge9_Node000000_Node000008" class="edge">
<title>Node0&#45;&gt;Node8</title>
<g id="a_edge9_Node000000_Node000008"><a xlink:title=" ">
<path fill="none" stroke="#63b8ff" d="M119.04,-189.65C142.63,-163.53 190.95,-114.25 242,-87 248.32,-83.63 255.15,-80.7 262.12,-78.16"/>
<polygon fill="#63b8ff" stroke="#63b8ff" points="116.3,-187.47 112.28,-197.27 121.54,-192.12 116.3,-187.47"/>
</a>
</g>
</g>
<!-- Node9 -->
<g id="Node000009" class="node">
<title>Node9</title>
<g id="a_Node000009"><a xlink:href="classchunk__strategies_1_1VarianceStrategy.html" target="_top" xlink:title="Strategy for chunking based on variance thresholds.">
<polygon fill="white" stroke="#666666" points="405.5,-30 257.5,-30 257.5,0 405.5,0 405.5,-30"/>
<text text-anchor="start" x="265.5" y="-18" font-family="Helvetica,sans-Serif" font-size="10.00">chunk_strategies::Variance</text>
<text text-anchor="middle" x="331.5" y="-7" font-family="Helvetica,sans-Serif" font-size="10.00">Strategy&lt; T &gt;</text>
</a>
</g>
</g>
<!-- Node0&#45;&gt;Node9 -->
<g id="edge10_Node000000_Node000009" class="edge">
<title>Node0&#45;&gt;Node9</title>
<g id="a_edge10_Node000000_Node000009"><a xlink:title=" ">
<path fill="none" stroke="#63b8ff" d="M114.14,-188.15C133.93,-153.21 181.13,-78.36 242,-39 247.35,-35.54 253.18,-32.58 259.23,-30.04"/>
<polygon fill="#63b8ff" stroke="#63b8ff" points="110.88,-186.82 109.09,-197.26 117,-190.21 110.88,-186.82"/>
</a>
</g>
</g>
</g>
</svg>
