<?xml version="1.0" encoding="UTF-8" standalone="no"?>
<!DOCTYPE svg PUBLIC "-//W3C//DTD SVG 1.1//EN"
 "http://www.w3.org/Graphics/SVG/1.1/DTD/svg11.dtd">
<!-- Generated by graphviz version 2.43.0 (0)
 -->
<!-- Title: Graphical Class Hierarchy Pages: 1 -->
<svg width="435pt" height="64pt"
 viewBox="0.00 0.00 435.00 64.00" xmlns="http://www.w3.org/2000/svg" xmlns:xlink="http://www.w3.org/1999/xlink">
<g id="graph0" class="graph" transform="scale(1 1) rotate(0) translate(4 60)">
<title>Graphical Class Hierarchy</title>
<!-- Node0 -->
<g id="Node000000" class="node">
<title>Node0</title>
<g id="a_Node000000"><a xlink:href="classchunk__benchmark_1_1ChunkStrategy.html" target="_top" xlink:title="Abstract base class for chunking strategies.">
<polygon fill="white" stroke="#666666" points="212,-37 0,-37 0,-18 212,-18 212,-37"/>
<text text-anchor="middle" x="106" y="-25" font-family="Helvetica,sans-Serif" font-size="10.00">chunk_benchmark::ChunkStrategy&lt; T &gt;</text>
</a>
</g>
</g>
<!-- Node1 -->
<g id="Node000001" class="node">
<title>Node1</title>
<g id="a_Node000001"><a xlink:href="classNeuralChunkingStrategy.html" target="_top" xlink:title=" ">
<polygon fill="white" stroke="#666666" points="419.5,-56 255.5,-56 255.5,-37 419.5,-37 419.5,-56"/>
<text text-anchor="middle" x="337.5" y="-44" font-family="Helvetica,sans-Serif" font-size="10.00">NeuralChunkingStrategy&lt; T &gt;</text>
</a>
</g>
</g>
<!-- Node0&#45;&gt;Node1 -->
<g id="edge1_Node000000_Node000001" class="edge">
<title>Node0&#45;&gt;Node1</title>
<g id="a_edge1_Node000000_Node000001"><a xlink:title=" ">
<path fill="none" stroke="#63b8ff" d="M222.24,-37.04C233.39,-37.96 244.54,-38.89 255.25,-39.77"/>
<polygon fill="#63b8ff" stroke="#63b8ff" points="222.27,-33.53 212.01,-36.19 221.69,-40.51 222.27,-33.53"/>
</a>
</g>
</g>
<!-- Node2 -->
<g id="Node000002" class="node">
<title>Node2</title>
<g id="a_Node000002"><a xlink:href="classSimilarityChunkingStrategy.html" target="_top" xlink:title=" ">
<polygon fill="white" stroke="#666666" points="427,-19 248,-19 248,0 427,0 427,-19"/>
<text text-anchor="middle" x="337.5" y="-7" font-family="Helvetica,sans-Serif" font-size="10.00">SimilarityChunkingStrategy&lt; T &gt;</text>
</a>
</g>
</g>
<!-- Node0&#45;&gt;Node2 -->
<g id="edge2_Node000000_Node000002" class="edge">
<title>Node0&#45;&gt;Node2</title>
<g id="a_edge2_Node000000_Node000002"><a xlink:title=" ">
<path fill="none" stroke="#63b8ff" d="M222.09,-18.47C230.69,-17.8 239.28,-17.13 247.68,-16.47"/>
<polygon fill="#63b8ff" stroke="#63b8ff" points="221.71,-14.99 212.01,-19.26 222.25,-21.97 221.71,-14.99"/>
</a>
</g>
</g>
</g>
</svg>
