<?xml version="1.0" encoding="UTF-8" standalone="no"?>
<!DOCTYPE svg PUBLIC "-//W3C//DTD SVG 1.1//EN"
 "http://www.w3.org/Graphics/SVG/1.1/DTD/svg11.dtd">
<!-- Generated by graphviz version 2.43.0 (0)
 -->
<!-- Title: /mnt/c/Users/jonat/OneDrive/Documents/Python Scripts/chunking_cpp/src/main.cpp Pages: 1 -->
<svg width="2210pt" height="291pt"
 viewBox="0.00 0.00 2210.49 291.00" xmlns="http://www.w3.org/2000/svg" xmlns:xlink="http://www.w3.org/1999/xlink">
<g id="graph0" class="graph" transform="scale(1 1) rotate(0) translate(4 287)">
<title>/mnt/c/Users/jonat/OneDrive/Documents/Python Scripts/chunking_cpp/src/main.cpp</title>
<!-- Node1 -->
<g id="Node000001" class="node">
<title>Node1</title>
<g id="a_Node000001"><a xlink:title="Demonstrates various chunking strategies and operations.">
<polygon fill="#999999" stroke="#666666" points="1508.99,-283 1371.99,-283 1371.99,-231 1508.99,-231 1508.99,-283"/>
<text text-anchor="start" x="1379.99" y="-271" font-family="Helvetica,sans-Serif" font-size="10.00">/mnt/c/Users/jonat</text>
<text text-anchor="start" x="1379.99" y="-260" font-family="Helvetica,sans-Serif" font-size="10.00">/OneDrive/Documents</text>
<text text-anchor="start" x="1379.99" y="-249" font-family="Helvetica,sans-Serif" font-size="10.00">/Python Scripts/chunking</text>
<text text-anchor="middle" x="1440.49" y="-238" font-family="Helvetica,sans-Serif" font-size="10.00">_cpp/src/main.cpp</text>
</a>
</g>
</g>
<!-- Node2 -->
<g id="Node000002" class="node">
<title>Node2</title>
<g id="a_Node000002"><a xlink:href="advanced__structures_8hpp.html" target="_top" xlink:title=" ">
<polygon fill="white" stroke="#666666" points="604.99,-140 465.99,-140 465.99,-121 604.99,-121 604.99,-140"/>
<text text-anchor="middle" x="535.49" y="-128" font-family="Helvetica,sans-Serif" font-size="10.00">advanced_structures.hpp</text>
</a>
</g>
</g>
<!-- Node1&#45;&gt;Node2 -->
<g id="edge1_Node000001_Node000002" class="edge">
<title>Node1&#45;&gt;Node2</title>
<g id="a_edge1_Node000001_Node000002"><a xlink:title=" ">
<path fill="none" stroke="#63b8ff" d="M1371.72,-255.86C1200.03,-254.71 756.47,-246.68 619.49,-195 592.39,-184.78 566.67,-162.9 550.99,-147.7"/>
<polygon fill="#63b8ff" stroke="#63b8ff" points="553.3,-145.06 543.76,-140.45 548.35,-150 553.3,-145.06"/>
</a>
</g>
</g>
<!-- Node8 -->
<g id="Node000008" class="node">
<title>Node8</title>
<g id="a_Node000008"><a xlink:title=" ">
<polygon fill="#e0e0e0" stroke="#999999" points="718.49,-79.5 660.49,-79.5 660.49,-60.5 718.49,-60.5 718.49,-79.5"/>
<text text-anchor="middle" x="689.49" y="-67.5" font-family="Helvetica,sans-Serif" font-size="10.00">memory</text>
</a>
</g>
</g>
<!-- Node1&#45;&gt;Node8 -->
<g id="edge71_Node000001_Node000008" class="edge">
<title>Node1&#45;&gt;Node8</title>
<g id="a_edge71_Node000001_Node000008"><a xlink:title=" ">
<path fill="none" stroke="#63b8ff" d="M1371.83,-256.67C1201.17,-256.68 765.24,-246.13 678.49,-140 666.88,-125.81 672.81,-104.32 679.62,-89.11"/>
<polygon fill="#63b8ff" stroke="#63b8ff" points="682.96,-90.25 684.26,-79.74 676.69,-87.14 682.96,-90.25"/>
</a>
</g>
</g>
<!-- Node14 -->
<g id="Node000014" class="node">
<title>Node14</title>
<g id="a_Node000014"><a xlink:title=" ">
<polygon fill="#e0e0e0" stroke="#999999" points="1433.99,-19 1386.99,-19 1386.99,0 1433.99,0 1433.99,-19"/>
<text text-anchor="middle" x="1410.49" y="-7" font-family="Helvetica,sans-Serif" font-size="10.00">vector</text>
</a>
</g>
</g>
<!-- Node1&#45;&gt;Node14 -->
<g id="edge73_Node000001_Node000014" class="edge">
<title>Node1&#45;&gt;Node14</title>
<g id="a_edge73_Node000001_Node000014"><a xlink:title=" ">
<path fill="none" stroke="#63b8ff" d="M1509.22,-243.02C1578.58,-225.94 1672.67,-189.67 1651.49,-121 1641.02,-87.07 1635.83,-74.98 1606.49,-55 1557,-21.31 1485.81,-12.79 1444.24,-10.83"/>
<polygon fill="#63b8ff" stroke="#63b8ff" points="1444.21,-7.33 1434.09,-10.46 1443.95,-14.32 1444.21,-7.33"/>
</a>
</g>
</g>
<!-- Node15 -->
<g id="Node000015" class="node">
<title>Node15</title>
<g id="a_Node000015"><a xlink:href="chunk_8hpp.html" target="_top" xlink:title="Template class for chunk&#45;based data processing.">
<polygon fill="white" stroke="#666666" points="1579.99,-79.5 1512.99,-79.5 1512.99,-60.5 1579.99,-60.5 1579.99,-79.5"/>
<text text-anchor="middle" x="1546.49" y="-67.5" font-family="Helvetica,sans-Serif" font-size="10.00">chunk.hpp</text>
</a>
</g>
</g>
<!-- Node1&#45;&gt;Node15 -->
<g id="edge14_Node000001_Node000015" class="edge">
<title>Node1&#45;&gt;Node15</title>
<g id="a_edge14_Node000001_Node000015"><a xlink:title=" ">
<path fill="none" stroke="#63b8ff" d="M1455,-230.66C1476.79,-192.64 1517.4,-121.76 1536.31,-88.76"/>
<polygon fill="#63b8ff" stroke="#63b8ff" points="1539.5,-90.23 1541.44,-79.81 1533.43,-86.75 1539.5,-90.23"/>
</a>
</g>
</g>
<!-- Node16 -->
<g id="Node000016" class="node">
<title>Node16</title>
<g id="a_Node000016"><a xlink:title=" ">
<polygon fill="#e0e0e0" stroke="#999999" points="1643.49,-19 1587.49,-19 1587.49,0 1643.49,0 1643.49,-19"/>
<text text-anchor="middle" x="1615.49" y="-7" font-family="Helvetica,sans-Serif" font-size="10.00">numeric</text>
</a>
</g>
</g>
<!-- Node1&#45;&gt;Node16 -->
<g id="edge72_Node000001_Node000016" class="edge">
<title>Node1&#45;&gt;Node16</title>
<g id="a_edge72_Node000001_Node000016"><a xlink:title=" ">
<path fill="none" stroke="#63b8ff" d="M1509.06,-246.46C1649.51,-225.34 1961.74,-169.68 2021.49,-85 2029.17,-74.11 2030.39,-64.93 2021.49,-55 1997.16,-27.87 1750.17,-15.62 1653.75,-11.84"/>
<polygon fill="#63b8ff" stroke="#63b8ff" points="1653.69,-8.34 1643.56,-11.45 1653.42,-15.33 1653.69,-8.34"/>
</a>
</g>
</g>
<!-- Node17 -->
<g id="Node000017" class="node">
<title>Node17</title>
<g id="a_Node000017"><a xlink:href="config_8hpp.html" target="_top" xlink:title=" ">
<polygon fill="white" stroke="#666666" points="358.99,-19 291.99,-19 291.99,0 358.99,0 358.99,-19"/>
<text text-anchor="middle" x="325.49" y="-7" font-family="Helvetica,sans-Serif" font-size="10.00">config.hpp</text>
</a>
</g>
</g>
<!-- Node1&#45;&gt;Node17 -->
<g id="edge37_Node000001_Node000017" class="edge">
<title>Node1&#45;&gt;Node17</title>
<g id="a_edge37_Node000001_Node000017"><a xlink:title=" ">
<path fill="none" stroke="#63b8ff" d="M1371.89,-253.25C1098.19,-241.57 94.74,-191.67 6.49,-85 -2.01,-74.73 -2.27,-65.06 6.49,-55 41.66,-14.58 202.95,-9.74 281.81,-9.86"/>
<polygon fill="#63b8ff" stroke="#63b8ff" points="281.9,-13.36 291.92,-9.9 281.93,-6.36 281.9,-13.36"/>
</a>
</g>
</g>
<!-- Node18 -->
<g id="Node000018" class="node">
<title>Node18</title>
<g id="a_Node000018"><a xlink:href="chunk__compression_8hpp.html" target="_top" xlink:title=" ">
<polygon fill="white" stroke="#666666" points="965.49,-140 831.49,-140 831.49,-121 965.49,-121 965.49,-140"/>
<text text-anchor="middle" x="898.49" y="-128" font-family="Helvetica,sans-Serif" font-size="10.00">chunk_compression.hpp</text>
</a>
</g>
</g>
<!-- Node1&#45;&gt;Node18 -->
<g id="edge20_Node000001_Node000018" class="edge">
<title>Node1&#45;&gt;Node18</title>
<g id="a_edge20_Node000001_Node000018"><a xlink:title=" ">
<path fill="none" stroke="#63b8ff" d="M1371.81,-245.07C1305.94,-234.11 1203.88,-215.9 1116.49,-195 1051.71,-179.51 977.48,-156.81 934.49,-143.16"/>
<polygon fill="#63b8ff" stroke="#63b8ff" points="935.36,-139.76 924.77,-140.06 933.24,-146.43 935.36,-139.76"/>
</a>
</g>
</g>
<!-- Node19 -->
<g id="Node000019" class="node">
<title>Node19</title>
<g id="a_Node000019"><a xlink:href="chunk__strategies_8hpp.html" target="_top" xlink:title="Defines various strategies for chunking data based on different criteria.">
<polygon fill="white" stroke="#666666" points="1142.99,-140 1021.99,-140 1021.99,-121 1142.99,-121 1142.99,-140"/>
<text text-anchor="middle" x="1082.49" y="-128" font-family="Helvetica,sans-Serif" font-size="10.00">chunk_strategies.hpp</text>
</a>
</g>
</g>
<!-- Node1&#45;&gt;Node19 -->
<g id="edge24_Node000001_Node000019" class="edge">
<title>Node1&#45;&gt;Node19</title>
<g id="a_edge24_Node000001_Node000019"><a xlink:title=" ">
<path fill="none" stroke="#63b8ff" d="M1371.94,-252.81C1309.83,-247.45 1217.43,-233.12 1146.49,-195 1125.25,-183.59 1106.4,-162.92 1094.75,-148.27"/>
<polygon fill="#63b8ff" stroke="#63b8ff" points="1097.33,-145.87 1088.47,-140.06 1091.77,-150.13 1097.33,-145.87"/>
</a>
</g>
</g>
<!-- Node22 -->
<g id="Node000022" class="node">
<title>Node22</title>
<g id="a_Node000022"><a xlink:href="chunk__windows_8hpp.html" target="_top" xlink:title=" ">
<polygon fill="white" stroke="#666666" points="1641.99,-140 1526.99,-140 1526.99,-121 1641.99,-121 1641.99,-140"/>
<text text-anchor="middle" x="1584.49" y="-128" font-family="Helvetica,sans-Serif" font-size="10.00">chunk_windows.hpp</text>
</a>
</g>
</g>
<!-- Node1&#45;&gt;Node22 -->
<g id="edge33_Node000001_Node000022" class="edge">
<title>Node1&#45;&gt;Node22</title>
<g id="a_edge33_Node000001_Node000022"><a xlink:title=" ">
<path fill="none" stroke="#63b8ff" d="M1470.37,-230.91C1483.36,-219.94 1498.73,-206.89 1512.49,-195 1531.25,-178.78 1552.52,-159.96 1567.05,-147.05"/>
<polygon fill="#63b8ff" stroke="#63b8ff" points="1569.61,-149.45 1574.76,-140.19 1564.96,-144.22 1569.61,-149.45"/>
</a>
</g>
</g>
<!-- Node23 -->
<g id="Node000023" class="node">
<title>Node23</title>
<g id="a_Node000023"><a xlink:href="data__structures_8hpp.html" target="_top" xlink:title=" ">
<polygon fill="white" stroke="#666666" points="812.99,-140 699.99,-140 699.99,-121 812.99,-121 812.99,-140"/>
<text text-anchor="middle" x="756.49" y="-128" font-family="Helvetica,sans-Serif" font-size="10.00">data_structures.hpp</text>
</a>
</g>
</g>
<!-- Node1&#45;&gt;Node23 -->
<g id="edge38_Node000001_Node000023" class="edge">
<title>Node1&#45;&gt;Node23</title>
<g id="a_edge38_Node000001_Node000023"><a xlink:title=" ">
<path fill="none" stroke="#63b8ff" d="M1371.77,-247.03C1291.71,-236.24 1155.58,-216.83 1039.49,-195 954.7,-179.06 856.64,-156.01 801.05,-142.51"/>
<polygon fill="#63b8ff" stroke="#63b8ff" points="801.72,-139.07 791.18,-140.11 800.06,-145.87 801.72,-139.07"/>
</a>
</g>
</g>
<!-- Node24 -->
<g id="Node000024" class="node">
<title>Node24</title>
<g id="a_Node000024"><a xlink:href="parallel__chunk_8hpp.html" target="_top" xlink:title=" ">
<polygon fill="white" stroke="#666666" points="1822.99,-140 1713.99,-140 1713.99,-121 1822.99,-121 1822.99,-140"/>
<text text-anchor="middle" x="1768.49" y="-128" font-family="Helvetica,sans-Serif" font-size="10.00">parallel_chunk.hpp</text>
</a>
</g>
</g>
<!-- Node1&#45;&gt;Node24 -->
<g id="edge44_Node000001_Node000024" class="edge">
<title>Node1&#45;&gt;Node24</title>
<g id="a_edge44_Node000001_Node000024"><a xlink:title=" ">
<path fill="none" stroke="#63b8ff" d="M1509.01,-246.45C1559.35,-237.65 1628.45,-221.8 1684.49,-195 1710.33,-182.64 1736,-161.62 1752.04,-147.17"/>
<polygon fill="#63b8ff" stroke="#63b8ff" points="1754.51,-149.65 1759.49,-140.3 1749.77,-144.51 1754.51,-149.65"/>
</a>
</g>
</g>
<!-- Node29 -->
<g id="Node000029" class="node">
<title>Node29</title>
<g id="a_Node000029"><a xlink:href="sub__chunk__strategies_8hpp.html" target="_top" xlink:title="Advanced sub&#45;chunking strategies for hierarchical data processing.">
<polygon fill="white" stroke="#666666" points="1297.99,-195 1154.99,-195 1154.99,-176 1297.99,-176 1297.99,-195"/>
<text text-anchor="middle" x="1226.49" y="-183" font-family="Helvetica,sans-Serif" font-size="10.00">sub_chunk_strategies.hpp</text>
</a>
</g>
</g>
<!-- Node1&#45;&gt;Node29 -->
<g id="edge52_Node000001_Node000029" class="edge">
<title>Node1&#45;&gt;Node29</title>
<g id="a_edge52_Node000001_Node000029"><a xlink:title=" ">
<path fill="none" stroke="#63b8ff" d="M1371.89,-233.72C1335.43,-221.88 1292.1,-207.81 1262.28,-198.12"/>
<polygon fill="#63b8ff" stroke="#63b8ff" points="1263.31,-194.78 1252.71,-195.02 1261.14,-201.44 1263.31,-194.78"/>
</a>
</g>
</g>
<!-- Node32 -->
<g id="Node000032" class="node">
<title>Node32</title>
<g id="a_Node000032"><a xlink:href="utils_8hpp.html" target="_top" xlink:title=" ">
<polygon fill="white" stroke="#666666" points="1469.99,-140 1410.99,-140 1410.99,-121 1469.99,-121 1469.99,-140"/>
<text text-anchor="middle" x="1440.49" y="-128" font-family="Helvetica,sans-Serif" font-size="10.00">utils.hpp</text>
</a>
</g>
</g>
<!-- Node1&#45;&gt;Node32 -->
<g id="edge60_Node000001_Node000032" class="edge">
<title>Node1&#45;&gt;Node32</title>
<g id="a_edge60_Node000001_Node000032"><a xlink:title=" ">
<path fill="none" stroke="#63b8ff" d="M1440.49,-230.81C1440.49,-206.95 1440.49,-171.69 1440.49,-150.24"/>
<polygon fill="#63b8ff" stroke="#63b8ff" points="1443.99,-150.15 1440.49,-140.15 1436.99,-150.15 1443.99,-150.15"/>
</a>
</g>
</g>
<!-- Node34 -->
<g id="Node000034" class="node">
<title>Node34</title>
<g id="a_Node000034"><a xlink:title=" ">
<polygon fill="#e0e0e0" stroke="#999999" points="2124.49,-195 2068.49,-195 2068.49,-176 2124.49,-176 2124.49,-195"/>
<text text-anchor="middle" x="2096.49" y="-183" font-family="Helvetica,sans-Serif" font-size="10.00">iomanip</text>
</a>
</g>
</g>
<!-- Node1&#45;&gt;Node34 -->
<g id="edge69_Node000001_Node000034" class="edge">
<title>Node1&#45;&gt;Node34</title>
<g id="a_edge69_Node000001_Node000034"><a xlink:title=" ">
<path fill="none" stroke="#63b8ff" d="M1509.37,-251.43C1623.24,-243.36 1857.72,-224.61 2054.49,-195 2055.59,-194.83 2056.71,-194.66 2057.83,-194.47"/>
<polygon fill="#63b8ff" stroke="#63b8ff" points="2058.86,-197.85 2068.09,-192.65 2057.63,-190.96 2058.86,-197.85"/>
</a>
</g>
</g>
<!-- Node35 -->
<g id="Node000035" class="node">
<title>Node35</title>
<g id="a_Node000035"><a xlink:title=" ">
<polygon fill="#e0e0e0" stroke="#999999" points="2202.49,-195 2142.49,-195 2142.49,-176 2202.49,-176 2202.49,-195"/>
<text text-anchor="middle" x="2172.49" y="-183" font-family="Helvetica,sans-Serif" font-size="10.00">iostream</text>
</a>
</g>
</g>
<!-- Node1&#45;&gt;Node35 -->
<g id="edge70_Node000001_Node000035" class="edge">
<title>Node1&#45;&gt;Node35</title>
<g id="a_edge70_Node000001_Node000035"><a xlink:title=" ">
<path fill="none" stroke="#63b8ff" d="M1509.19,-252.84C1632.29,-246.56 1898.65,-230.08 2132.28,-194.99"/>
<polygon fill="#63b8ff" stroke="#63b8ff" points="2132.96,-198.43 2142.32,-193.47 2131.91,-191.51 2132.96,-198.43"/>
</a>
</g>
</g>
<!-- Node3 -->
<g id="Node000003" class="node">
<title>Node3</title>
<g id="a_Node000003"><a xlink:title=" ">
<polygon fill="#e0e0e0" stroke="#999999" points="980.49,-79.5 916.49,-79.5 916.49,-60.5 980.49,-60.5 980.49,-79.5"/>
<text text-anchor="middle" x="948.49" y="-67.5" font-family="Helvetica,sans-Serif" font-size="10.00">algorithm</text>
</a>
</g>
</g>
<!-- Node2&#45;&gt;Node3 -->
<g id="edge2_Node000002_Node000003" class="edge">
<title>Node2&#45;&gt;Node3</title>
<g id="a_edge2_Node000002_Node000003"><a xlink:title=" ">
<path fill="none" stroke="#63b8ff" d="M605.12,-121.03C672.57,-112.62 777.7,-99 868.49,-85 880.79,-83.1 894.12,-80.85 906.31,-78.71"/>
<polygon fill="#63b8ff" stroke="#63b8ff" points="906.99,-82.14 916.23,-76.95 905.77,-75.25 906.99,-82.14"/>
</a>
</g>
</g>
<!-- Node4 -->
<g id="Node000004" class="node">
<title>Node4</title>
<g id="a_Node000004"><a xlink:title=" ">
<polygon fill="#e0e0e0" stroke="#999999" points="142.99,-85 15.99,-85 15.99,-55 142.99,-55 142.99,-85"/>
<text text-anchor="start" x="23.99" y="-73" font-family="Helvetica,sans-Serif" font-size="10.00">boost/graph/adjacency</text>
<text text-anchor="middle" x="79.49" y="-62" font-family="Helvetica,sans-Serif" font-size="10.00">_list.hpp</text>
</a>
</g>
</g>
<!-- Node2&#45;&gt;Node4 -->
<g id="edge3_Node000002_Node000004" class="edge">
<title>Node2&#45;&gt;Node4</title>
<g id="a_edge3_Node000002_Node000004"><a xlink:title=" ">
<path fill="none" stroke="#63b8ff" d="M465.74,-122.96C391,-115.59 268.66,-102.53 153.21,-85.03"/>
<polygon fill="#63b8ff" stroke="#63b8ff" points="153.55,-81.55 143.14,-83.49 152.49,-88.47 153.55,-81.55"/>
</a>
</g>
</g>
<!-- Node5 -->
<g id="Node000005" class="node">
<title>Node5</title>
<g id="a_Node000005"><a xlink:title=" ">
<polygon fill="#e0e0e0" stroke="#999999" points="289.49,-85 161.49,-85 161.49,-55 289.49,-55 289.49,-85"/>
<text text-anchor="start" x="169.49" y="-73" font-family="Helvetica,sans-Serif" font-size="10.00">boost/graph/connected</text>
<text text-anchor="middle" x="225.49" y="-62" font-family="Helvetica,sans-Serif" font-size="10.00">_components.hpp</text>
</a>
</g>
</g>
<!-- Node2&#45;&gt;Node5 -->
<g id="edge4_Node000002_Node000005" class="edge">
<title>Node2&#45;&gt;Node5</title>
<g id="a_edge4_Node000002_Node000005"><a xlink:title=" ">
<path fill="none" stroke="#63b8ff" d="M489.6,-120.94C443.99,-112.42 371.77,-98.89 299.74,-85.23"/>
<polygon fill="#63b8ff" stroke="#63b8ff" points="300.05,-81.73 289.58,-83.31 298.75,-88.61 300.05,-81.73"/>
</a>
</g>
</g>
<!-- Node6 -->
<g id="Node000006" class="node">
<title>Node6</title>
<g id="a_Node000006"><a xlink:title=" ">
<polygon fill="#e0e0e0" stroke="#999999" points="859.99,-79.5 812.99,-79.5 812.99,-60.5 859.99,-60.5 859.99,-79.5"/>
<text text-anchor="middle" x="836.49" y="-67.5" font-family="Helvetica,sans-Serif" font-size="10.00">cmath</text>
</a>
</g>
</g>
<!-- Node2&#45;&gt;Node6 -->
<g id="edge5_Node000002_Node000006" class="edge">
<title>Node2&#45;&gt;Node6</title>
<g id="a_edge5_Node000002_Node000006"><a xlink:title=" ">
<path fill="none" stroke="#63b8ff" d="M579.25,-120.99C639.91,-109.2 748.23,-88.15 802.92,-77.52"/>
<polygon fill="#63b8ff" stroke="#63b8ff" points="803.65,-80.95 812.8,-75.6 802.32,-74.08 803.65,-80.95"/>
</a>
</g>
</g>
<!-- Node7 -->
<g id="Node000007" class="node">
<title>Node7</title>
<g id="a_Node000007"><a xlink:title=" ">
<polygon fill="#e0e0e0" stroke="#999999" points="641.99,-79.5 594.99,-79.5 594.99,-60.5 641.99,-60.5 641.99,-79.5"/>
<text text-anchor="middle" x="618.49" y="-67.5" font-family="Helvetica,sans-Serif" font-size="10.00">deque</text>
</a>
</g>
</g>
<!-- Node2&#45;&gt;Node7 -->
<g id="edge6_Node000002_Node000007" class="edge">
<title>Node2&#45;&gt;Node7</title>
<g id="a_edge6_Node000002_Node000007"><a xlink:title=" ">
<path fill="none" stroke="#63b8ff" d="M547.73,-120.87C560.85,-111.62 581.9,-96.78 597.64,-85.69"/>
<polygon fill="#63b8ff" stroke="#63b8ff" points="600.03,-88.29 606.19,-79.67 596,-82.57 600.03,-88.29"/>
</a>
</g>
</g>
<!-- Node2&#45;&gt;Node8 -->
<g id="edge7_Node000002_Node000008" class="edge">
<title>Node2&#45;&gt;Node8</title>
<g id="a_edge7_Node000002_Node000008"><a xlink:title=" ">
<path fill="none" stroke="#63b8ff" d="M557.88,-120.99C584.11,-111.03 627.76,-94.45 657.54,-83.13"/>
<polygon fill="#63b8ff" stroke="#63b8ff" points="658.96,-86.34 667.07,-79.52 656.47,-79.8 658.96,-86.34"/>
</a>
</g>
</g>
<!-- Node9 -->
<g id="Node000009" class="node">
<title>Node9</title>
<g id="a_Node000009"><a xlink:title=" ">
<polygon fill="#e0e0e0" stroke="#999999" points="1052.49,-79.5 998.49,-79.5 998.49,-60.5 1052.49,-60.5 1052.49,-79.5"/>
<text text-anchor="middle" x="1025.49" y="-67.5" font-family="Helvetica,sans-Serif" font-size="10.00">random</text>
</a>
</g>
</g>
<!-- Node2&#45;&gt;Node9 -->
<g id="edge8_Node000002_Node000009" class="edge">
<title>Node2&#45;&gt;Node9</title>
<g id="a_edge8_Node000002_Node000009"><a xlink:title=" ">
<path fill="none" stroke="#63b8ff" d="M605.32,-124.99C713.98,-117.59 918.42,-101.96 989.49,-85 991.85,-84.44 994.27,-83.75 996.68,-82.99"/>
<polygon fill="#63b8ff" stroke="#63b8ff" points="998.11,-86.19 1006.37,-79.55 995.77,-79.6 998.11,-86.19"/>
</a>
</g>
</g>
<!-- Node10 -->
<g id="Node000010" class="node">
<title>Node10</title>
<g id="a_Node000010"><a xlink:title=" ">
<polygon fill="#e0e0e0" stroke="#999999" points="350.99,-79.5 307.99,-79.5 307.99,-60.5 350.99,-60.5 350.99,-79.5"/>
<text text-anchor="middle" x="329.49" y="-67.5" font-family="Helvetica,sans-Serif" font-size="10.00">stack</text>
</a>
</g>
</g>
<!-- Node2&#45;&gt;Node10 -->
<g id="edge9_Node000002_Node000010" class="edge">
<title>Node2&#45;&gt;Node10</title>
<g id="a_edge9_Node000002_Node000010"><a xlink:title=" ">
<path fill="none" stroke="#63b8ff" d="M492.13,-120.93C456.09,-113.25 403.72,-100.76 359.49,-85 358.27,-84.57 357.03,-84.1 355.79,-83.61"/>
<polygon fill="#63b8ff" stroke="#63b8ff" points="356.95,-80.3 346.39,-79.57 354.19,-86.73 356.95,-80.3"/>
</a>
</g>
</g>
<!-- Node11 -->
<g id="Node000011" class="node">
<title>Node11</title>
<g id="a_Node000011"><a xlink:title=" ">
<polygon fill="#e0e0e0" stroke="#999999" points="945.99,-19 880.99,-19 880.99,0 945.99,0 945.99,-19"/>
<text text-anchor="middle" x="913.49" y="-7" font-family="Helvetica,sans-Serif" font-size="10.00">stdexcept</text>
</a>
</g>
</g>
<!-- Node2&#45;&gt;Node11 -->
<g id="edge10_Node000002_Node000011" class="edge">
<title>Node2&#45;&gt;Node11</title>
<g id="a_edge10_Node000002_Node000011"><a xlink:title=" ">
<path fill="none" stroke="#63b8ff" d="M528.62,-120.99C517.28,-105.85 497.46,-74.03 514.49,-55 537.94,-28.78 772.56,-16.24 870.69,-12.11"/>
<polygon fill="#63b8ff" stroke="#63b8ff" points="871.01,-15.6 880.86,-11.69 870.72,-8.61 871.01,-15.6"/>
</a>
</g>
</g>
<!-- Node12 -->
<g id="Node000012" class="node">
<title>Node12</title>
<g id="a_Node000012"><a xlink:title=" ">
<polygon fill="#e0e0e0" stroke="#999999" points="1368.49,-19 1324.49,-19 1324.49,0 1368.49,0 1368.49,-19"/>
<text text-anchor="middle" x="1346.49" y="-7" font-family="Helvetica,sans-Serif" font-size="10.00">string</text>
</a>
</g>
</g>
<!-- Node2&#45;&gt;Node12 -->
<g id="edge11_Node000002_Node000012" class="edge">
<title>Node2&#45;&gt;Node12</title>
<g id="a_edge11_Node000002_Node000012"><a xlink:title=" ">
<path fill="none" stroke="#63b8ff" d="M534.49,-120.94C533.19,-105.12 533.02,-71.43 552.49,-55 582.04,-30.04 1168.51,-14.68 1314.03,-11.24"/>
<polygon fill="#63b8ff" stroke="#63b8ff" points="1314.19,-14.73 1324.11,-11 1314.03,-7.74 1314.19,-14.73"/>
</a>
</g>
</g>
<!-- Node13 -->
<g id="Node000013" class="node">
<title>Node13</title>
<g id="a_Node000013"><a xlink:title=" ">
<polygon fill="#e0e0e0" stroke="#999999" points="461.99,-79.5 368.99,-79.5 368.99,-60.5 461.99,-60.5 461.99,-79.5"/>
<text text-anchor="middle" x="415.49" y="-67.5" font-family="Helvetica,sans-Serif" font-size="10.00">unordered_map</text>
</a>
</g>
</g>
<!-- Node2&#45;&gt;Node13 -->
<g id="edge12_Node000002_Node000013" class="edge">
<title>Node2&#45;&gt;Node13</title>
<g id="a_edge12_Node000002_Node000013"><a xlink:title=" ">
<path fill="none" stroke="#63b8ff" d="M518.04,-120.99C498.13,-111.29 465.35,-95.31 442.21,-84.03"/>
<polygon fill="#63b8ff" stroke="#63b8ff" points="443.48,-80.75 432.96,-79.52 440.41,-87.04 443.48,-80.75"/>
</a>
</g>
</g>
<!-- Node2&#45;&gt;Node14 -->
<g id="edge13_Node000002_Node000014" class="edge">
<title>Node2&#45;&gt;Node14</title>
<g id="a_edge13_Node000002_Node000014"><a xlink:title=" ">
<path fill="none" stroke="#63b8ff" d="M538.41,-120.61C544.33,-104.24 559.42,-69.67 585.49,-55 659.93,-13.11 1252.84,-30.89 1376.62,-18.48"/>
<polygon fill="#63b8ff" stroke="#63b8ff" points="1377.31,-21.92 1386.81,-17.22 1376.46,-14.97 1377.31,-21.92"/>
</a>
</g>
</g>
<!-- Node15&#45;&gt;Node11 -->
<g id="edge16_Node000015_Node000011" class="edge">
<title>Node15&#45;&gt;Node11</title>
<g id="a_edge16_Node000015_Node000011"><a xlink:title=" ">
<path fill="none" stroke="#63b8ff" d="M1523.55,-60.41C1517.14,-58.32 1510.11,-56.31 1503.49,-55 1301.49,-15.1 1054.1,-10.4 956.24,-10.24"/>
<polygon fill="#63b8ff" stroke="#63b8ff" points="956.15,-6.74 946.15,-10.24 956.15,-13.74 956.15,-6.74"/>
</a>
</g>
</g>
<!-- Node15&#45;&gt;Node12 -->
<g id="edge17_Node000015_Node000012" class="edge">
<title>Node15&#45;&gt;Node12</title>
<g id="a_edge17_Node000015_Node000012"><a xlink:title=" ">
<path fill="none" stroke="#63b8ff" d="M1520.61,-60.4C1514.98,-58.58 1509.04,-56.69 1503.49,-55 1460.51,-41.92 1410.53,-27.97 1378.72,-19.25"/>
<polygon fill="#63b8ff" stroke="#63b8ff" points="1379.23,-15.76 1368.66,-16.5 1377.39,-22.51 1379.23,-15.76"/>
</a>
</g>
</g>
<!-- Node15&#45;&gt;Node14 -->
<g id="edge18_Node000015_Node000014" class="edge">
<title>Node15&#45;&gt;Node14</title>
<g id="a_edge18_Node000015_Node000014"><a xlink:title=" ">
<path fill="none" stroke="#63b8ff" d="M1526.71,-60.49C1503.85,-50.66 1466,-34.38 1439.73,-23.08"/>
<polygon fill="#63b8ff" stroke="#63b8ff" points="1440.85,-19.75 1430.28,-19.02 1438.09,-26.18 1440.85,-19.75"/>
</a>
</g>
</g>
<!-- Node15&#45;&gt;Node16 -->
<g id="edge15_Node000015_Node000016" class="edge">
<title>Node15&#45;&gt;Node16</title>
<g id="a_edge15_Node000015_Node000016"><a xlink:title=" ">
<path fill="none" stroke="#63b8ff" d="M1556.67,-60.37C1567.37,-51.3 1584.42,-36.84 1597.42,-25.82"/>
<polygon fill="#63b8ff" stroke="#63b8ff" points="1599.9,-28.3 1605.26,-19.17 1595.37,-22.96 1599.9,-28.3"/>
</a>
</g>
</g>
<!-- Node15&#45;&gt;Node17 -->
<g id="edge19_Node000015_Node000017" class="edge">
<title>Node15&#45;&gt;Node17</title>
<g id="a_edge19_Node000015_Node000017"><a xlink:title=" ">
<path fill="none" stroke="#63b8ff" d="M1524.02,-60.39C1517.49,-58.24 1510.29,-56.21 1503.49,-55 1390.35,-34.85 568.94,-15.8 369.18,-11.43"/>
<polygon fill="#63b8ff" stroke="#63b8ff" points="369.14,-7.93 359.06,-11.21 368.99,-14.93 369.14,-7.93"/>
</a>
</g>
</g>
<!-- Node18&#45;&gt;Node3 -->
<g id="edge21_Node000018_Node000003" class="edge">
<title>Node18&#45;&gt;Node3</title>
<g id="a_edge21_Node000018_Node000003"><a xlink:title=" ">
<path fill="none" stroke="#63b8ff" d="M905.86,-120.87C913.4,-112.05 925.27,-98.16 934.58,-87.27"/>
<polygon fill="#63b8ff" stroke="#63b8ff" points="937.24,-89.54 941.08,-79.67 931.92,-85 937.24,-89.54"/>
</a>
</g>
</g>
<!-- Node18&#45;&gt;Node6 -->
<g id="edge22_Node000018_Node000006" class="edge">
<title>Node18&#45;&gt;Node6</title>
<g id="a_edge22_Node000018_Node000006"><a xlink:title=" ">
<path fill="none" stroke="#63b8ff" d="M889.34,-120.87C879.81,-111.88 864.69,-97.61 853.06,-86.64"/>
<polygon fill="#63b8ff" stroke="#63b8ff" points="855.35,-83.98 845.67,-79.67 850.54,-89.08 855.35,-83.98"/>
</a>
</g>
</g>
<!-- Node18&#45;&gt;Node14 -->
<g id="edge23_Node000018_Node000014" class="edge">
<title>Node18&#45;&gt;Node14</title>
<g id="a_edge23_Node000018_Node000014"><a xlink:title=" ">
<path fill="none" stroke="#63b8ff" d="M896.45,-120.86C893.35,-105.21 889.51,-72.21 907.49,-55 943.62,-20.41 1292.32,-26.87 1376.71,-18.43"/>
<polygon fill="#63b8ff" stroke="#63b8ff" points="1377.33,-21.88 1386.8,-17.13 1376.43,-14.93 1377.33,-21.88"/>
</a>
</g>
</g>
<!-- Node19&#45;&gt;Node3 -->
<g id="edge26_Node000019_Node000003" class="edge">
<title>Node19&#45;&gt;Node3</title>
<g id="a_edge26_Node000019_Node000003"><a xlink:title=" ">
<path fill="none" stroke="#63b8ff" d="M1063,-120.99C1040.47,-111.16 1003.18,-94.88 977.3,-83.58"/>
<polygon fill="#63b8ff" stroke="#63b8ff" points="978.56,-80.31 967.99,-79.52 975.76,-86.73 978.56,-80.31"/>
</a>
</g>
</g>
<!-- Node19&#45;&gt;Node6 -->
<g id="edge27_Node000019_Node000006" class="edge">
<title>Node19&#45;&gt;Node6</title>
<g id="a_edge27_Node000019_Node000006"><a xlink:title=" ">
<path fill="none" stroke="#63b8ff" d="M1046.71,-120.99C999.27,-109.71 916.14,-89.94 869.9,-78.95"/>
<polygon fill="#63b8ff" stroke="#63b8ff" points="870.62,-75.52 860.08,-76.61 869,-82.33 870.62,-75.52"/>
</a>
</g>
</g>
<!-- Node19&#45;&gt;Node11 -->
<g id="edge31_Node000019_Node000011" class="edge">
<title>Node19&#45;&gt;Node11</title>
<g id="a_edge31_Node000019_Node000011"><a xlink:title=" ">
<path fill="none" stroke="#63b8ff" d="M1082.59,-120.83C1082.28,-105.43 1079.38,-73.21 1061.49,-55 1033.91,-26.94 989.37,-16.43 956.34,-12.56"/>
<polygon fill="#63b8ff" stroke="#63b8ff" points="956.36,-9.05 946.06,-11.53 955.66,-16.01 956.36,-9.05"/>
</a>
</g>
</g>
<!-- Node19&#45;&gt;Node14 -->
<g id="edge32_Node000019_Node000014" class="edge">
<title>Node19&#45;&gt;Node14</title>
<g id="a_edge32_Node000019_Node000014"><a xlink:title=" ">
<path fill="none" stroke="#63b8ff" d="M1086.68,-120.84C1094.92,-104.86 1114.85,-70.91 1142.49,-55 1231.28,-3.87 1271.51,-37.99 1376.71,-18.87"/>
<polygon fill="#63b8ff" stroke="#63b8ff" points="1377.61,-22.26 1386.76,-16.91 1376.27,-15.39 1377.61,-22.26"/>
</a>
</g>
</g>
<!-- Node19&#45;&gt;Node15 -->
<g id="edge25_Node000019_Node000015" class="edge">
<title>Node19&#45;&gt;Node15</title>
<g id="a_edge25_Node000019_Node000015"><a xlink:title=" ">
<path fill="none" stroke="#63b8ff" d="M1143.1,-124.67C1242.62,-116.47 1436.28,-99.33 1503.49,-85 1506.71,-84.31 1510.03,-83.47 1513.34,-82.55"/>
<polygon fill="#63b8ff" stroke="#63b8ff" points="1514.51,-85.85 1523.07,-79.61 1512.49,-79.15 1514.51,-85.85"/>
</a>
</g>
</g>
<!-- Node19&#45;&gt;Node16 -->
<g id="edge30_Node000019_Node000016" class="edge">
<title>Node19&#45;&gt;Node16</title>
<g id="a_edge30_Node000019_Node000016"><a xlink:title=" ">
<path fill="none" stroke="#63b8ff" d="M1093.99,-120.77C1115.91,-104.66 1165.7,-70.5 1213.49,-55 1280.65,-33.21 1490.38,-18.19 1577.23,-12.76"/>
<polygon fill="#63b8ff" stroke="#63b8ff" points="1577.67,-16.23 1587.44,-12.12 1577.24,-9.25 1577.67,-16.23"/>
</a>
</g>
</g>
<!-- Node20 -->
<g id="Node000020" class="node">
<title>Node20</title>
<g id="a_Node000020"><a xlink:title=" ">
<polygon fill="#e0e0e0" stroke="#999999" points="1343.99,-79.5 1278.99,-79.5 1278.99,-60.5 1343.99,-60.5 1343.99,-79.5"/>
<text text-anchor="middle" x="1311.49" y="-67.5" font-family="Helvetica,sans-Serif" font-size="10.00">functional</text>
</a>
</g>
</g>
<!-- Node19&#45;&gt;Node20 -->
<g id="edge28_Node000019_Node000020" class="edge">
<title>Node19&#45;&gt;Node20</title>
<g id="a_edge28_Node000019_Node000020"><a xlink:title=" ">
<path fill="none" stroke="#63b8ff" d="M1122.88,-120.97C1160.93,-112.67 1219.42,-99.27 1269.49,-85 1272.1,-84.26 1274.79,-83.45 1277.49,-82.61"/>
<polygon fill="#63b8ff" stroke="#63b8ff" points="1278.72,-85.9 1287.17,-79.51 1276.58,-79.23 1278.72,-85.9"/>
</a>
</g>
</g>
<!-- Node21 -->
<g id="Node000021" class="node">
<title>Node21</title>
<g id="a_Node000021"><a xlink:title=" ">
<polygon fill="#e0e0e0" stroke="#999999" points="1260.49,-79.5 1222.49,-79.5 1222.49,-60.5 1260.49,-60.5 1260.49,-79.5"/>
<text text-anchor="middle" x="1241.49" y="-67.5" font-family="Helvetica,sans-Serif" font-size="10.00">map</text>
</a>
</g>
</g>
<!-- Node19&#45;&gt;Node21 -->
<g id="edge29_Node000019_Node000021" class="edge">
<title>Node19&#45;&gt;Node21</title>
<g id="a_edge29_Node000019_Node000021"><a xlink:title=" ">
<path fill="none" stroke="#63b8ff" d="M1105.61,-120.99C1133.93,-110.57 1181.92,-92.92 1212.63,-81.62"/>
<polygon fill="#63b8ff" stroke="#63b8ff" points="1214.15,-84.79 1222.33,-78.05 1211.74,-78.22 1214.15,-84.79"/>
</a>
</g>
</g>
<!-- Node22&#45;&gt;Node14 -->
<g id="edge36_Node000022_Node000014" class="edge">
<title>Node22&#45;&gt;Node14</title>
<g id="a_edge36_Node000022_Node000014"><a xlink:title=" ">
<path fill="none" stroke="#63b8ff" d="M1588.53,-120.59C1594.76,-105.38 1604.5,-74.2 1589.49,-55 1571.79,-32.37 1490.97,-19.6 1444.2,-13.99"/>
<polygon fill="#63b8ff" stroke="#63b8ff" points="1444.55,-10.5 1434.21,-12.84 1443.75,-17.46 1444.55,-10.5"/>
</a>
</g>
</g>
<!-- Node22&#45;&gt;Node15 -->
<g id="edge34_Node000022_Node000015" class="edge">
<title>Node22&#45;&gt;Node15</title>
<g id="a_edge34_Node000022_Node000015"><a xlink:title=" ">
<path fill="none" stroke="#63b8ff" d="M1578.88,-120.87C1573.32,-112.31 1564.66,-98.97 1557.68,-88.24"/>
<polygon fill="#63b8ff" stroke="#63b8ff" points="1560.5,-86.15 1552.12,-79.67 1554.63,-89.96 1560.5,-86.15"/>
</a>
</g>
</g>
<!-- Node22&#45;&gt;Node20 -->
<g id="edge35_Node000022_Node000020" class="edge">
<title>Node22&#45;&gt;Node20</title>
<g id="a_edge35_Node000022_Node000020"><a xlink:title=" ">
<path fill="none" stroke="#63b8ff" d="M1544.79,-120.99C1494.05,-110.12 1406.53,-91.37 1354.32,-80.18"/>
<polygon fill="#63b8ff" stroke="#63b8ff" points="1354.89,-76.72 1344.38,-78.05 1353.42,-83.57 1354.89,-76.72"/>
</a>
</g>
</g>
<!-- Node23&#45;&gt;Node7 -->
<g id="edge39_Node000023_Node000007" class="edge">
<title>Node23&#45;&gt;Node7</title>
<g id="a_edge39_Node000023_Node000007"><a xlink:title=" ">
<path fill="none" stroke="#63b8ff" d="M736.42,-120.99C713.12,-111.12 674.47,-94.73 647.81,-83.43"/>
<polygon fill="#63b8ff" stroke="#63b8ff" points="649.15,-80.2 638.58,-79.52 646.42,-86.64 649.15,-80.2"/>
</a>
</g>
</g>
<!-- Node23&#45;&gt;Node8 -->
<g id="edge41_Node000023_Node000008" class="edge">
<title>Node23&#45;&gt;Node8</title>
<g id="a_edge41_Node000023_Node000008"><a xlink:title=" ">
<path fill="none" stroke="#63b8ff" d="M746.6,-120.87C736.21,-111.8 719.65,-97.34 707.03,-86.32"/>
<polygon fill="#63b8ff" stroke="#63b8ff" points="709.25,-83.61 699.41,-79.67 704.64,-88.88 709.25,-83.61"/>
</a>
</g>
</g>
<!-- Node23&#45;&gt;Node11 -->
<g id="edge42_Node000023_Node000011" class="edge">
<title>Node23&#45;&gt;Node11</title>
<g id="a_edge42_Node000023_Node000011"><a xlink:title=" ">
<path fill="none" stroke="#63b8ff" d="M755.48,-120.92C754.2,-105.67 753.86,-73.68 770.49,-55 795.68,-26.7 838.53,-16.2 870.77,-12.4"/>
<polygon fill="#63b8ff" stroke="#63b8ff" points="871.23,-15.88 880.83,-11.39 870.53,-8.91 871.23,-15.88"/>
</a>
</g>
</g>
<!-- Node23&#45;&gt;Node14 -->
<g id="edge43_Node000023_Node000014" class="edge">
<title>Node23&#45;&gt;Node14</title>
<g id="a_edge43_Node000023_Node000014"><a xlink:title=" ">
<path fill="none" stroke="#63b8ff" d="M759.09,-120.67C764.42,-104.4 778.23,-69.98 803.49,-55 910.73,8.6 1234.9,-36.69 1376.52,-18.65"/>
<polygon fill="#63b8ff" stroke="#63b8ff" points="1377.4,-22.06 1386.81,-17.17 1376.41,-15.13 1377.4,-22.06"/>
</a>
</g>
</g>
<!-- Node23&#45;&gt;Node20 -->
<g id="edge40_Node000023_Node000020" class="edge">
<title>Node23&#45;&gt;Node20</title>
<g id="a_edge40_Node000023_Node000020"><a xlink:title=" ">
<path fill="none" stroke="#63b8ff" d="M812.99,-122.04C816.2,-121.68 819.38,-121.32 822.49,-121 1020.71,-100.26 1074.19,-124.8 1269.49,-85 1272.72,-84.34 1276.06,-83.51 1279.37,-82.58"/>
<polygon fill="#63b8ff" stroke="#63b8ff" points="1280.57,-85.87 1289.09,-79.58 1278.5,-79.18 1280.57,-85.87"/>
</a>
</g>
</g>
<!-- Node24&#45;&gt;Node14 -->
<g id="edge51_Node000024_Node000014" class="edge">
<title>Node24&#45;&gt;Node14</title>
<g id="a_edge51_Node000024_Node000014"><a xlink:title=" ">
<path fill="none" stroke="#63b8ff" d="M1759.19,-120.98C1741.46,-105.22 1700.94,-71.63 1660.49,-55 1587.17,-24.86 1493.51,-15.11 1444.26,-11.97"/>
<polygon fill="#63b8ff" stroke="#63b8ff" points="1444.34,-8.47 1434.16,-11.38 1443.94,-15.46 1444.34,-8.47"/>
</a>
</g>
</g>
<!-- Node24&#45;&gt;Node15 -->
<g id="edge45_Node000024_Node000015" class="edge">
<title>Node24&#45;&gt;Node15</title>
<g id="a_edge45_Node000024_Node000015"><a xlink:title=" ">
<path fill="none" stroke="#63b8ff" d="M1736.2,-120.99C1697.24,-110.73 1631.61,-93.43 1588.67,-82.12"/>
<polygon fill="#63b8ff" stroke="#63b8ff" points="1589.37,-78.68 1578.81,-79.52 1587.58,-85.45 1589.37,-78.68"/>
</a>
</g>
</g>
<!-- Node24&#45;&gt;Node20 -->
<g id="edge47_Node000024_Node000020" class="edge">
<title>Node24&#45;&gt;Node20</title>
<g id="a_edge47_Node000024_Node000020"><a xlink:title=" ">
<path fill="none" stroke="#63b8ff" d="M1713.81,-122.5C1621.68,-110.71 1437.42,-87.12 1354.12,-76.46"/>
<polygon fill="#63b8ff" stroke="#63b8ff" points="1354.36,-72.96 1344,-75.16 1353.47,-79.9 1354.36,-72.96"/>
</a>
</g>
</g>
<!-- Node25 -->
<g id="Node000025" class="node">
<title>Node25</title>
<g id="a_Node000025"><a xlink:title=" ">
<polygon fill="#e0e0e0" stroke="#999999" points="1815.99,-79.5 1750.99,-79.5 1750.99,-60.5 1815.99,-60.5 1815.99,-79.5"/>
<text text-anchor="middle" x="1783.49" y="-67.5" font-family="Helvetica,sans-Serif" font-size="10.00">exception</text>
</a>
</g>
</g>
<!-- Node24&#45;&gt;Node25 -->
<g id="edge46_Node000024_Node000025" class="edge">
<title>Node24&#45;&gt;Node25</title>
<g id="a_edge46_Node000024_Node000025"><a xlink:title=" ">
<path fill="none" stroke="#63b8ff" d="M1770.7,-120.87C1772.8,-112.66 1776.04,-100.04 1778.73,-89.55"/>
<polygon fill="#63b8ff" stroke="#63b8ff" points="1782.17,-90.22 1781.26,-79.67 1775.39,-88.48 1782.17,-90.22"/>
</a>
</g>
</g>
<!-- Node26 -->
<g id="Node000026" class="node">
<title>Node26</title>
<g id="a_Node000026"><a xlink:title=" ">
<polygon fill="#e0e0e0" stroke="#999999" points="1880.49,-79.5 1834.49,-79.5 1834.49,-60.5 1880.49,-60.5 1880.49,-79.5"/>
<text text-anchor="middle" x="1857.49" y="-67.5" font-family="Helvetica,sans-Serif" font-size="10.00">future</text>
</a>
</g>
</g>
<!-- Node24&#45;&gt;Node26 -->
<g id="edge48_Node000024_Node000026" class="edge">
<title>Node24&#45;&gt;Node26</title>
<g id="a_edge48_Node000024_Node000026"><a xlink:title=" ">
<path fill="none" stroke="#63b8ff" d="M1781.62,-120.87C1795.82,-111.54 1818.68,-96.51 1835.6,-85.38"/>
<polygon fill="#63b8ff" stroke="#63b8ff" points="1837.87,-88.08 1844.3,-79.67 1834.02,-82.24 1837.87,-88.08"/>
</a>
</g>
</g>
<!-- Node27 -->
<g id="Node000027" class="node">
<title>Node27</title>
<g id="a_Node000027"><a xlink:title=" ">
<polygon fill="#e0e0e0" stroke="#999999" points="1946.49,-79.5 1898.49,-79.5 1898.49,-60.5 1946.49,-60.5 1946.49,-79.5"/>
<text text-anchor="middle" x="1922.49" y="-67.5" font-family="Helvetica,sans-Serif" font-size="10.00">mutex</text>
</a>
</g>
</g>
<!-- Node24&#45;&gt;Node27 -->
<g id="edge49_Node000024_Node000027" class="edge">
<title>Node24&#45;&gt;Node27</title>
<g id="a_edge49_Node000024_Node000027"><a xlink:title=" ">
<path fill="none" stroke="#63b8ff" d="M1792.72,-120.98C1817.25,-112.27 1856.19,-98.18 1889.49,-85 1890.69,-84.52 1891.92,-84.03 1893.15,-83.53"/>
<polygon fill="#63b8ff" stroke="#63b8ff" points="1894.76,-86.66 1902.66,-79.6 1892.08,-80.19 1894.76,-86.66"/>
</a>
</g>
</g>
<!-- Node28 -->
<g id="Node000028" class="node">
<title>Node28</title>
<g id="a_Node000028"><a xlink:title=" ">
<polygon fill="#e0e0e0" stroke="#999999" points="2012.49,-79.5 1964.49,-79.5 1964.49,-60.5 2012.49,-60.5 2012.49,-79.5"/>
<text text-anchor="middle" x="1988.49" y="-67.5" font-family="Helvetica,sans-Serif" font-size="10.00">thread</text>
</a>
</g>
</g>
<!-- Node24&#45;&gt;Node28 -->
<g id="edge50_Node000024_Node000028" class="edge">
<title>Node24&#45;&gt;Node28</title>
<g id="a_edge50_Node000024_Node000028"><a xlink:title=" ">
<path fill="none" stroke="#63b8ff" d="M1813.66,-120.97C1851.9,-113.22 1907.93,-100.62 1955.49,-85 1957.11,-84.47 1958.77,-83.88 1960.43,-83.27"/>
<polygon fill="#63b8ff" stroke="#63b8ff" points="1961.83,-86.48 1969.85,-79.55 1959.26,-79.97 1961.83,-86.48"/>
</a>
</g>
</g>
<!-- Node29&#45;&gt;Node3 -->
<g id="edge54_Node000029_Node000003" class="edge">
<title>Node29&#45;&gt;Node3</title>
<g id="a_edge54_Node000029_Node000003"><a xlink:title=" ">
<path fill="none" stroke="#63b8ff" d="M1154.61,-180.33C1111.43,-175.27 1056.66,-164.19 1013.49,-140 990.92,-127.36 971.56,-104.24 959.98,-88.26"/>
<polygon fill="#63b8ff" stroke="#63b8ff" points="962.68,-86.02 954.09,-79.82 956.94,-90.02 962.68,-86.02"/>
</a>
</g>
</g>
<!-- Node29&#45;&gt;Node8 -->
<g id="edge58_Node000029_Node000008" class="edge">
<title>Node29&#45;&gt;Node8</title>
<g id="a_edge58_Node000029_Node000008"><a xlink:title=" ">
<path fill="none" stroke="#63b8ff" d="M1154.98,-183.79C1016.29,-181.67 721.55,-173.27 690.49,-140 678.11,-126.75 680.02,-105.07 683.64,-89.54"/>
<polygon fill="#63b8ff" stroke="#63b8ff" points="687.12,-90.11 686.41,-79.53 680.37,-88.24 687.12,-90.11"/>
</a>
</g>
</g>
<!-- Node29&#45;&gt;Node14 -->
<g id="edge59_Node000029_Node000014" class="edge">
<title>Node29&#45;&gt;Node14</title>
<g id="a_edge59_Node000029_Node000014"><a xlink:title=" ">
<path fill="none" stroke="#63b8ff" d="M1216.6,-175.75C1208.1,-167.5 1196.44,-154.3 1191.49,-140 1181.48,-111.1 1208.86,-59.16 1213.49,-55 1266.69,-7.14 1301.92,-33.89 1376.88,-18.89"/>
<polygon fill="#63b8ff" stroke="#63b8ff" points="1377.7,-22.3 1386.72,-16.73 1376.2,-15.46 1377.7,-22.3"/>
</a>
</g>
</g>
<!-- Node29&#45;&gt;Node19 -->
<g id="edge53_Node000029_Node000019" class="edge">
<title>Node29&#45;&gt;Node19</title>
<g id="a_edge53_Node000029_Node000019"><a xlink:title=" ">
<path fill="none" stroke="#63b8ff" d="M1203.35,-175.98C1179.66,-167.27 1142.62,-153.63 1115.78,-143.75"/>
<polygon fill="#63b8ff" stroke="#63b8ff" points="1116.64,-140.34 1106.04,-140.17 1114.22,-146.91 1116.64,-140.34"/>
</a>
</g>
</g>
<!-- Node29&#45;&gt;Node20 -->
<g id="edge56_Node000029_Node000020" class="edge">
<title>Node29&#45;&gt;Node20</title>
<g id="a_edge56_Node000029_Node000020"><a xlink:title=" ">
<path fill="none" stroke="#63b8ff" d="M1246.05,-175.99C1260.9,-168.55 1280.71,-156.38 1292.49,-140 1303.12,-125.21 1307.8,-104.72 1309.87,-89.92"/>
<polygon fill="#63b8ff" stroke="#63b8ff" points="1313.35,-90.23 1310.99,-79.9 1306.4,-89.45 1313.35,-90.23"/>
</a>
</g>
</g>
<!-- Node30 -->
<g id="Node000030" class="node">
<title>Node30</title>
<g id="a_Node000030"><a xlink:title=" ">
<polygon fill="#e0e0e0" stroke="#999999" points="1392.99,-140 1339.99,-140 1339.99,-121 1392.99,-121 1392.99,-140"/>
<text text-anchor="middle" x="1366.49" y="-128" font-family="Helvetica,sans-Serif" font-size="10.00">cstddef</text>
</a>
</g>
</g>
<!-- Node29&#45;&gt;Node30 -->
<g id="edge55_Node000029_Node000030" class="edge">
<title>Node29&#45;&gt;Node30</title>
<g id="a_edge55_Node000029_Node000030"><a xlink:title=" ">
<path fill="none" stroke="#63b8ff" d="M1248.98,-175.98C1272.01,-167.27 1308.03,-153.63 1334.12,-143.75"/>
<polygon fill="#63b8ff" stroke="#63b8ff" points="1335.47,-146.98 1343.58,-140.17 1332.99,-140.44 1335.47,-146.98"/>
</a>
</g>
</g>
<!-- Node31 -->
<g id="Node000031" class="node">
<title>Node31</title>
<g id="a_Node000031"><a xlink:title=" ">
<polygon fill="#e0e0e0" stroke="#999999" points="1282.99,-140 1199.99,-140 1199.99,-121 1282.99,-121 1282.99,-140"/>
<text text-anchor="middle" x="1241.49" y="-128" font-family="Helvetica,sans-Serif" font-size="10.00">initializer_list</text>
</a>
</g>
</g>
<!-- Node29&#45;&gt;Node31 -->
<g id="edge57_Node000029_Node000031" class="edge">
<title>Node29&#45;&gt;Node31</title>
<g id="a_edge57_Node000029_Node000031"><a xlink:title=" ">
<path fill="none" stroke="#63b8ff" d="M1228.96,-175.75C1230.95,-168.72 1233.81,-158.62 1236.29,-149.84"/>
<polygon fill="#63b8ff" stroke="#63b8ff" points="1239.7,-150.66 1239.05,-140.09 1232.96,-148.76 1239.7,-150.66"/>
</a>
</g>
</g>
<!-- Node32&#45;&gt;Node3 -->
<g id="edge61_Node000032_Node000003" class="edge">
<title>Node32&#45;&gt;Node3</title>
<g id="a_edge61_Node000032_Node000003"><a xlink:title=" ">
<path fill="none" stroke="#63b8ff" d="M1410.69,-122.44C1407.92,-121.91 1405.16,-121.41 1402.49,-121 1220.4,-92.83 1169.77,-123.05 989.49,-85 986.42,-84.35 983.27,-83.55 980.13,-82.65"/>
<polygon fill="#63b8ff" stroke="#63b8ff" points="980.93,-79.23 970.34,-79.55 978.82,-85.9 980.93,-79.23"/>
</a>
</g>
</g>
<!-- Node32&#45;&gt;Node9 -->
<g id="edge65_Node000032_Node000009" class="edge">
<title>Node32&#45;&gt;Node9</title>
<g id="a_edge65_Node000032_Node000009"><a xlink:title=" ">
<path fill="none" stroke="#63b8ff" d="M1410.66,-122.57C1407.91,-122.01 1405.15,-121.47 1402.49,-121 1278.77,-99 1130.64,-82.08 1062.77,-74.84"/>
<polygon fill="#63b8ff" stroke="#63b8ff" points="1062.9,-71.34 1052.58,-73.76 1062.16,-78.3 1062.9,-71.34"/>
</a>
</g>
</g>
<!-- Node32&#45;&gt;Node12 -->
<g id="edge67_Node000032_Node000012" class="edge">
<title>Node32&#45;&gt;Node12</title>
<g id="a_edge67_Node000032_Node000012"><a xlink:title=" ">
<path fill="none" stroke="#63b8ff" d="M1433.73,-120.94C1418.29,-101.4 1380.2,-53.18 1359.84,-27.4"/>
<polygon fill="#63b8ff" stroke="#63b8ff" points="1362.38,-24.98 1353.44,-19.3 1356.89,-29.32 1362.38,-24.98"/>
</a>
</g>
</g>
<!-- Node32&#45;&gt;Node14 -->
<g id="edge68_Node000032_Node000014" class="edge">
<title>Node32&#45;&gt;Node14</title>
<g id="a_edge68_Node000032_Node000014"><a xlink:title=" ">
<path fill="none" stroke="#63b8ff" d="M1438.33,-120.94C1433.51,-101.82 1421.77,-55.27 1415.18,-29.12"/>
<polygon fill="#63b8ff" stroke="#63b8ff" points="1418.54,-28.14 1412.7,-19.3 1411.76,-29.85 1418.54,-28.14"/>
</a>
</g>
</g>
<!-- Node32&#45;&gt;Node16 -->
<g id="edge64_Node000032_Node000016" class="edge">
<title>Node32&#45;&gt;Node16</title>
<g id="a_edge64_Node000032_Node000016"><a xlink:title=" ">
<path fill="none" stroke="#63b8ff" d="M1470.17,-128.4C1503.41,-125.59 1556.89,-116.15 1589.49,-85 1604.78,-70.39 1611.08,-46.31 1613.68,-29.49"/>
<polygon fill="#63b8ff" stroke="#63b8ff" points="1617.19,-29.57 1614.94,-19.22 1610.25,-28.71 1617.19,-29.57"/>
</a>
</g>
</g>
<!-- Node32&#45;&gt;Node20 -->
<g id="edge62_Node000032_Node000020" class="edge">
<title>Node32&#45;&gt;Node20</title>
<g id="a_edge62_Node000032_Node000020"><a xlink:title=" ">
<path fill="none" stroke="#63b8ff" d="M1421.73,-120.99C1400.14,-111.2 1364.46,-95.02 1339.55,-83.73"/>
<polygon fill="#63b8ff" stroke="#63b8ff" points="1340.82,-80.46 1330.27,-79.52 1337.93,-86.83 1340.82,-80.46"/>
</a>
</g>
</g>
<!-- Node32&#45;&gt;Node21 -->
<g id="edge63_Node000032_Node000021" class="edge">
<title>Node32&#45;&gt;Node21</title>
<g id="a_edge63_Node000032_Node000021"><a xlink:title=" ">
<path fill="none" stroke="#63b8ff" d="M1410.9,-122.49C1369.42,-112.53 1296.18,-94.46 1270.49,-85 1269.44,-84.61 1268.37,-84.2 1267.31,-83.77"/>
<polygon fill="#63b8ff" stroke="#63b8ff" points="1268.37,-80.41 1257.81,-79.56 1265.53,-86.81 1268.37,-80.41"/>
</a>
</g>
</g>
<!-- Node33 -->
<g id="Node000033" class="node">
<title>Node33</title>
<g id="a_Node000033"><a xlink:title=" ">
<polygon fill="#e0e0e0" stroke="#999999" points="1494.49,-79.5 1438.49,-79.5 1438.49,-60.5 1494.49,-60.5 1494.49,-79.5"/>
<text text-anchor="middle" x="1466.49" y="-67.5" font-family="Helvetica,sans-Serif" font-size="10.00">sstream</text>
</a>
</g>
</g>
<!-- Node32&#45;&gt;Node33 -->
<g id="edge66_Node000032_Node000033" class="edge">
<title>Node32&#45;&gt;Node33</title>
<g id="a_edge66_Node000032_Node000033"><a xlink:title=" ">
<path fill="none" stroke="#63b8ff" d="M1444.32,-120.87C1448.05,-112.49 1453.81,-99.51 1458.53,-88.89"/>
<polygon fill="#63b8ff" stroke="#63b8ff" points="1461.77,-90.23 1462.63,-79.67 1455.37,-87.38 1461.77,-90.23"/>
</a>
</g>
</g>
</g>
</svg>
