<?xml version="1.0" encoding="UTF-8" standalone="no"?>
<!DOCTYPE svg PUBLIC "-//W3C//DTD SVG 1.1//EN"
 "http://www.w3.org/Graphics/SVG/1.1/DTD/svg11.dtd">
<!-- Generated by graphviz version 2.43.0 (0)
 -->
<!-- Title: /mnt/c/Users/jonat/OneDrive/Documents/Python Scripts/chunking_cpp/src/main.cpp Pages: 1 -->
<svg width="2221pt" height="291pt"
 viewBox="0.00 0.00 2220.66 291.00" xmlns="http://www.w3.org/2000/svg" xmlns:xlink="http://www.w3.org/1999/xlink">
<g id="graph0" class="graph" transform="scale(1 1) rotate(0) translate(4 287)">
<title>/mnt/c/Users/jonat/OneDrive/Documents/Python Scripts/chunking_cpp/src/main.cpp</title>
<!-- Node1 -->
<g id="Node000001" class="node">
<title>Node1</title>
<g id="a_Node000001"><a xlink:title="Demonstrates various chunking strategies and operations.">
<polygon fill="#999999" stroke="#666666" points="1208.16,-283 1071.16,-283 1071.16,-231 1208.16,-231 1208.16,-283"/>
<text text-anchor="start" x="1079.16" y="-271" font-family="Helvetica,sans-Serif" font-size="10.00">/mnt/c/Users/jonat</text>
<text text-anchor="start" x="1079.16" y="-260" font-family="Helvetica,sans-Serif" font-size="10.00">/OneDrive/Documents</text>
<text text-anchor="start" x="1079.16" y="-249" font-family="Helvetica,sans-Serif" font-size="10.00">/Python Scripts/chunking</text>
<text text-anchor="middle" x="1139.66" y="-238" font-family="Helvetica,sans-Serif" font-size="10.00">_cpp/src/main.cpp</text>
</a>
</g>
</g>
<!-- Node2 -->
<g id="Node000002" class="node">
<title>Node2</title>
<g id="a_Node000002"><a xlink:href="advanced__structures_8hpp.html" target="_top" xlink:title=" ">
<polygon fill="white" stroke="#666666" points="654.16,-140 515.16,-140 515.16,-121 654.16,-121 654.16,-140"/>
<text text-anchor="middle" x="584.66" y="-128" font-family="Helvetica,sans-Serif" font-size="10.00">advanced_structures.hpp</text>
</a>
</g>
</g>
<!-- Node1&#45;&gt;Node2 -->
<g id="edge1_Node000001_Node000002" class="edge">
<title>Node1&#45;&gt;Node2</title>
<g id="a_edge1_Node000001_Node000002"><a xlink:title=" ">
<path fill="none" stroke="#63b8ff" d="M1070.93,-241.44C1013.79,-229.27 930.36,-211.32 857.66,-195 777.82,-177.08 685.07,-155.3 630.83,-142.47"/>
<polygon fill="#63b8ff" stroke="#63b8ff" points="631.37,-139 620.83,-140.1 629.75,-145.81 631.37,-139"/>
</a>
</g>
</g>
<!-- Node8 -->
<g id="Node000008" class="node">
<title>Node8</title>
<g id="a_Node000008"><a xlink:title=" ">
<polygon fill="#e0e0e0" stroke="#999999" points="83.66,-79.5 25.66,-79.5 25.66,-60.5 83.66,-60.5 83.66,-79.5"/>
<text text-anchor="middle" x="54.66" y="-67.5" font-family="Helvetica,sans-Serif" font-size="10.00">memory</text>
</a>
</g>
</g>
<!-- Node1&#45;&gt;Node8 -->
<g id="edge73_Node000001_Node000008" class="edge">
<title>Node1&#45;&gt;Node8</title>
<g id="a_edge73_Node000001_Node000008"><a xlink:title=" ">
<path fill="none" stroke="#63b8ff" d="M1070.89,-248.41C931.37,-232.49 605.27,-192.71 334.66,-140 247.87,-123.1 147.56,-96.67 93.7,-81.91"/>
<polygon fill="#63b8ff" stroke="#63b8ff" points="94.45,-78.49 83.88,-79.21 92.59,-85.24 94.45,-78.49"/>
</a>
</g>
</g>
<!-- Node14 -->
<g id="Node000014" class="node">
<title>Node14</title>
<g id="a_Node000014"><a xlink:title=" ">
<polygon fill="#e0e0e0" stroke="#999999" points="1408.16,-19 1361.16,-19 1361.16,0 1408.16,0 1408.16,-19"/>
<text text-anchor="middle" x="1384.66" y="-7" font-family="Helvetica,sans-Serif" font-size="10.00">vector</text>
</a>
</g>
</g>
<!-- Node1&#45;&gt;Node14 -->
<g id="edge75_Node000001_Node000014" class="edge">
<title>Node1&#45;&gt;Node14</title>
<g id="a_edge75_Node000001_Node000014"><a xlink:title=" ">
<path fill="none" stroke="#63b8ff" d="M1208.2,-254.23C1399.78,-247.63 1933.32,-217.46 2031.66,-85 2039.61,-74.29 2040.76,-64.75 2031.66,-55 1989.57,-9.92 1545.55,-9.41 1418.46,-10.2"/>
<polygon fill="#63b8ff" stroke="#63b8ff" points="1418.15,-6.7 1408.18,-10.27 1418.2,-13.7 1418.15,-6.7"/>
</a>
</g>
</g>
<!-- Node15 -->
<g id="Node000015" class="node">
<title>Node15</title>
<g id="a_Node000015"><a xlink:href="chunk_8hpp.html" target="_top" xlink:title=" ">
<polygon fill="white" stroke="#666666" points="1262.16,-79.5 1195.16,-79.5 1195.16,-60.5 1262.16,-60.5 1262.16,-79.5"/>
<text text-anchor="middle" x="1228.66" y="-67.5" font-family="Helvetica,sans-Serif" font-size="10.00">chunk.hpp</text>
</a>
</g>
</g>
<!-- Node1&#45;&gt;Node15 -->
<g id="edge14_Node000001_Node000015" class="edge">
<title>Node1&#45;&gt;Node15</title>
<g id="a_edge14_Node000001_Node000015"><a xlink:title=" ">
<path fill="none" stroke="#63b8ff" d="M1092.13,-230.93C1047.74,-204.24 992.64,-160.49 1023.66,-121 1033.67,-108.26 1127.71,-89.26 1184.89,-78.73"/>
<polygon fill="#63b8ff" stroke="#63b8ff" points="1185.55,-82.16 1194.76,-76.92 1184.29,-75.28 1185.55,-82.16"/>
</a>
</g>
</g>
<!-- Node17 -->
<g id="Node000017" class="node">
<title>Node17</title>
<g id="a_Node000017"><a xlink:title=" ">
<polygon fill="#e0e0e0" stroke="#999999" points="1146.66,-19 1090.66,-19 1090.66,0 1146.66,0 1146.66,-19"/>
<text text-anchor="middle" x="1118.66" y="-7" font-family="Helvetica,sans-Serif" font-size="10.00">numeric</text>
</a>
</g>
</g>
<!-- Node1&#45;&gt;Node17 -->
<g id="edge74_Node000001_Node000017" class="edge">
<title>Node1&#45;&gt;Node17</title>
<g id="a_edge74_Node000001_Node000017"><a xlink:title=" ">
<path fill="none" stroke="#63b8ff" d="M1070.78,-254.52C804.62,-247.66 -134.41,-212.16 16.66,-55 51.8,-18.45 878,-21.13 928.66,-19 981.28,-16.78 1042.09,-14.03 1080.45,-12.27"/>
<polygon fill="#63b8ff" stroke="#63b8ff" points="1080.83,-15.75 1090.65,-11.8 1080.5,-8.76 1080.83,-15.75"/>
</a>
</g>
</g>
<!-- Node18 -->
<g id="Node000018" class="node">
<title>Node18</title>
<g id="a_Node000018"><a xlink:href="chunk__compression_8hpp.html" target="_top" xlink:title=" ">
<polygon fill="white" stroke="#666666" points="937.66,-140 803.66,-140 803.66,-121 937.66,-121 937.66,-140"/>
<text text-anchor="middle" x="870.66" y="-128" font-family="Helvetica,sans-Serif" font-size="10.00">chunk_compression.hpp</text>
</a>
</g>
</g>
<!-- Node1&#45;&gt;Node18 -->
<g id="edge20_Node000001_Node000018" class="edge">
<title>Node1&#45;&gt;Node18</title>
<g id="a_edge20_Node000001_Node000018"><a xlink:title=" ">
<path fill="none" stroke="#63b8ff" d="M1070.77,-239.9C1034.13,-229.82 989.07,-214.92 951.66,-195 927.17,-181.96 902.6,-161.38 887.04,-147.21"/>
<polygon fill="#63b8ff" stroke="#63b8ff" points="889.09,-144.33 879.39,-140.08 884.32,-149.45 889.09,-144.33"/>
</a>
</g>
</g>
<!-- Node19 -->
<g id="Node000019" class="node">
<title>Node19</title>
<g id="a_Node000019"><a xlink:href="chunk__strategies_8hpp.html" target="_top" xlink:title="Defines various strategies for chunking data based on different criteria.">
<polygon fill="white" stroke="#666666" points="1153.16,-140 1032.16,-140 1032.16,-121 1153.16,-121 1153.16,-140"/>
<text text-anchor="middle" x="1092.66" y="-128" font-family="Helvetica,sans-Serif" font-size="10.00">chunk_strategies.hpp</text>
</a>
</g>
</g>
<!-- Node1&#45;&gt;Node19 -->
<g id="edge24_Node000001_Node000019" class="edge">
<title>Node1&#45;&gt;Node19</title>
<g id="a_edge24_Node000001_Node000019"><a xlink:title=" ">
<path fill="none" stroke="#63b8ff" d="M1130.15,-230.81C1121.06,-206.74 1107.59,-171.04 1099.51,-149.65"/>
<polygon fill="#63b8ff" stroke="#63b8ff" points="1102.73,-148.27 1095.93,-140.15 1096.18,-150.74 1102.73,-148.27"/>
</a>
</g>
</g>
<!-- Node22 -->
<g id="Node000022" class="node">
<title>Node22</title>
<g id="a_Node000022"><a xlink:href="chunk__windows_8hpp.html" target="_top" xlink:title=" ">
<polygon fill="white" stroke="#666666" points="1286.16,-140 1171.16,-140 1171.16,-121 1286.16,-121 1286.16,-140"/>
<text text-anchor="middle" x="1228.66" y="-128" font-family="Helvetica,sans-Serif" font-size="10.00">chunk_windows.hpp</text>
</a>
</g>
</g>
<!-- Node1&#45;&gt;Node22 -->
<g id="edge33_Node000001_Node000022" class="edge">
<title>Node1&#45;&gt;Node22</title>
<g id="a_edge33_Node000001_Node000022"><a xlink:title=" ">
<path fill="none" stroke="#63b8ff" d="M1141.16,-230.92C1143.24,-214.05 1148.16,-192.06 1159.66,-176 1169.37,-162.44 1184.62,-151.98 1198.31,-144.62"/>
<polygon fill="#63b8ff" stroke="#63b8ff" points="1200.1,-147.64 1207.46,-140.02 1196.95,-141.39 1200.1,-147.64"/>
</a>
</g>
</g>
<!-- Node23 -->
<g id="Node000023" class="node">
<title>Node23</title>
<g id="a_Node000023"><a xlink:href="config_8hpp.html" target="_top" xlink:title=" ">
<polygon fill="white" stroke="#666666" points="1235.16,-195 1168.16,-195 1168.16,-176 1235.16,-176 1235.16,-195"/>
<text text-anchor="middle" x="1201.66" y="-183" font-family="Helvetica,sans-Serif" font-size="10.00">config.hpp</text>
</a>
</g>
</g>
<!-- Node1&#45;&gt;Node23 -->
<g id="edge39_Node000001_Node000023" class="edge">
<title>Node1&#45;&gt;Node23</title>
<g id="a_edge39_Node000001_Node000023"><a xlink:title=" ">
<path fill="none" stroke="#63b8ff" d="M1162.04,-230.91C1170.37,-221.58 1179.59,-211.24 1187.05,-202.88"/>
<polygon fill="#63b8ff" stroke="#63b8ff" points="1189.76,-205.09 1193.81,-195.3 1184.54,-200.43 1189.76,-205.09"/>
</a>
</g>
</g>
<!-- Node24 -->
<g id="Node000024" class="node">
<title>Node24</title>
<g id="a_Node000024"><a xlink:href="data__structures_8hpp.html" target="_top" xlink:title=" ">
<polygon fill="white" stroke="#666666" points="785.16,-140 672.16,-140 672.16,-121 785.16,-121 785.16,-140"/>
<text text-anchor="middle" x="728.66" y="-128" font-family="Helvetica,sans-Serif" font-size="10.00">data_structures.hpp</text>
</a>
</g>
</g>
<!-- Node1&#45;&gt;Node24 -->
<g id="edge40_Node000001_Node000024" class="edge">
<title>Node1&#45;&gt;Node24</title>
<g id="a_edge40_Node000001_Node000024"><a xlink:title=" ">
<path fill="none" stroke="#63b8ff" d="M1071.03,-237.93C1027.5,-226.23 970.09,-210.36 919.66,-195 864.27,-178.13 800.57,-156.49 762.52,-143.33"/>
<polygon fill="#63b8ff" stroke="#63b8ff" points="763.55,-139.99 752.96,-140.02 761.26,-146.6 763.55,-139.99"/>
</a>
</g>
</g>
<!-- Node25 -->
<g id="Node000025" class="node">
<title>Node25</title>
<g id="a_Node000025"><a xlink:href="parallel__chunk_8hpp.html" target="_top" xlink:title=" ">
<polygon fill="white" stroke="#666666" points="1840.16,-140 1731.16,-140 1731.16,-121 1840.16,-121 1840.16,-140"/>
<text text-anchor="middle" x="1785.66" y="-128" font-family="Helvetica,sans-Serif" font-size="10.00">parallel_chunk.hpp</text>
</a>
</g>
</g>
<!-- Node1&#45;&gt;Node25 -->
<g id="edge46_Node000001_Node000025" class="edge">
<title>Node1&#45;&gt;Node25</title>
<g id="a_edge46_Node000001_Node000025"><a xlink:title=" ">
<path fill="none" stroke="#63b8ff" d="M1208.18,-242.79C1337.39,-217.89 1614.55,-164.48 1731.66,-141.91"/>
<polygon fill="#63b8ff" stroke="#63b8ff" points="1732.32,-145.34 1741.48,-140.01 1731,-138.47 1732.32,-145.34"/>
</a>
</g>
</g>
<!-- Node30 -->
<g id="Node000030" class="node">
<title>Node30</title>
<g id="a_Node000030"><a xlink:href="sub__chunk__strategies_8hpp.html" target="_top" xlink:title="Advanced sub&#45;chunking strategies for hierarchical data processing.">
<polygon fill="white" stroke="#666666" points="1398.16,-195 1255.16,-195 1255.16,-176 1398.16,-176 1398.16,-195"/>
<text text-anchor="middle" x="1326.66" y="-183" font-family="Helvetica,sans-Serif" font-size="10.00">sub_chunk_strategies.hpp</text>
</a>
</g>
</g>
<!-- Node1&#45;&gt;Node30 -->
<g id="edge54_Node000001_Node000030" class="edge">
<title>Node1&#45;&gt;Node30</title>
<g id="a_edge54_Node000001_Node000030"><a xlink:title=" ">
<path fill="none" stroke="#63b8ff" d="M1207.17,-230.91C1236.65,-219.95 1269.87,-207.61 1293.78,-198.72"/>
<polygon fill="#63b8ff" stroke="#63b8ff" points="1295.27,-201.9 1303.43,-195.14 1292.83,-195.34 1295.27,-201.9"/>
</a>
</g>
</g>
<!-- Node33 -->
<g id="Node000033" class="node">
<title>Node33</title>
<g id="a_Node000033"><a xlink:href="utils_8hpp.html" target="_top" xlink:title=" ">
<polygon fill="white" stroke="#666666" points="1574.16,-140 1515.16,-140 1515.16,-121 1574.16,-121 1574.16,-140"/>
<text text-anchor="middle" x="1544.66" y="-128" font-family="Helvetica,sans-Serif" font-size="10.00">utils.hpp</text>
</a>
</g>
</g>
<!-- Node1&#45;&gt;Node33 -->
<g id="edge62_Node000001_Node000033" class="edge">
<title>Node1&#45;&gt;Node33</title>
<g id="a_edge62_Node000001_Node000033"><a xlink:title=" ">
<path fill="none" stroke="#63b8ff" d="M1208.22,-244.51C1263.03,-234.35 1341.39,-217.62 1407.66,-195 1448.32,-181.12 1493.06,-158.99 1520,-144.86"/>
<polygon fill="#63b8ff" stroke="#63b8ff" points="1521.88,-147.82 1529.08,-140.05 1518.6,-141.64 1521.88,-147.82"/>
</a>
</g>
</g>
<!-- Node35 -->
<g id="Node000035" class="node">
<title>Node35</title>
<g id="a_Node000035"><a xlink:title=" ">
<polygon fill="#e0e0e0" stroke="#999999" points="2134.66,-195 2078.66,-195 2078.66,-176 2134.66,-176 2134.66,-195"/>
<text text-anchor="middle" x="2106.66" y="-183" font-family="Helvetica,sans-Serif" font-size="10.00">iomanip</text>
</a>
</g>
</g>
<!-- Node1&#45;&gt;Node35 -->
<g id="edge71_Node000001_Node000035" class="edge">
<title>Node1&#45;&gt;Node35</title>
<g id="a_edge71_Node000001_Node000035"><a xlink:title=" ">
<path fill="none" stroke="#63b8ff" d="M1208.44,-254.61C1362.43,-250.81 1746.41,-237.5 2064.66,-195 2065.77,-194.85 2066.89,-194.69 2068.02,-194.52"/>
<polygon fill="#63b8ff" stroke="#63b8ff" points="2069.01,-197.9 2078.28,-192.78 2067.84,-191 2069.01,-197.9"/>
</a>
</g>
</g>
<!-- Node36 -->
<g id="Node000036" class="node">
<title>Node36</title>
<g id="a_Node000036"><a xlink:title=" ">
<polygon fill="#e0e0e0" stroke="#999999" points="2212.66,-195 2152.66,-195 2152.66,-176 2212.66,-176 2212.66,-195"/>
<text text-anchor="middle" x="2182.66" y="-183" font-family="Helvetica,sans-Serif" font-size="10.00">iostream</text>
</a>
</g>
</g>
<!-- Node1&#45;&gt;Node36 -->
<g id="edge72_Node000001_Node000036" class="edge">
<title>Node1&#45;&gt;Node36</title>
<g id="a_edge72_Node000001_Node000036"><a xlink:title=" ">
<path fill="none" stroke="#63b8ff" d="M1208.19,-255.46C1369.63,-253.42 1786.42,-243.58 2142.52,-194.93"/>
<polygon fill="#63b8ff" stroke="#63b8ff" points="2143.08,-198.38 2152.51,-193.55 2142.12,-191.45 2143.08,-198.38"/>
</a>
</g>
</g>
<!-- Node3 -->
<g id="Node000003" class="node">
<title>Node3</title>
<g id="a_Node000003"><a xlink:title=" ">
<polygon fill="#e0e0e0" stroke="#999999" points="990.66,-79.5 926.66,-79.5 926.66,-60.5 990.66,-60.5 990.66,-79.5"/>
<text text-anchor="middle" x="958.66" y="-67.5" font-family="Helvetica,sans-Serif" font-size="10.00">algorithm</text>
</a>
</g>
</g>
<!-- Node2&#45;&gt;Node3 -->
<g id="edge2_Node000002_Node000003" class="edge">
<title>Node2&#45;&gt;Node3</title>
<g id="a_edge2_Node000002_Node000003"><a xlink:title=" ">
<path fill="none" stroke="#63b8ff" d="M643.57,-120.99C702.97,-112.31 797.27,-98.28 878.66,-85 890.95,-83 904.27,-80.71 916.46,-78.57"/>
<polygon fill="#63b8ff" stroke="#63b8ff" points="917.14,-82.01 926.38,-76.82 915.93,-75.11 917.14,-82.01"/>
</a>
</g>
</g>
<!-- Node4 -->
<g id="Node000004" class="node">
<title>Node4</title>
<g id="a_Node000004"><a xlink:title=" ">
<polygon fill="#e0e0e0" stroke="#999999" points="267.16,-85 140.16,-85 140.16,-55 267.16,-55 267.16,-85"/>
<text text-anchor="start" x="148.16" y="-73" font-family="Helvetica,sans-Serif" font-size="10.00">boost/graph/adjacency</text>
<text text-anchor="middle" x="203.66" y="-62" font-family="Helvetica,sans-Serif" font-size="10.00">_list.hpp</text>
</a>
</g>
</g>
<!-- Node2&#45;&gt;Node4 -->
<g id="edge3_Node000002_Node000004" class="edge">
<title>Node2&#45;&gt;Node4</title>
<g id="a_edge3_Node000002_Node000004"><a xlink:title=" ">
<path fill="none" stroke="#63b8ff" d="M519.63,-120.99C459.46,-112.91 367.27,-100.03 277.42,-85.08"/>
<polygon fill="#63b8ff" stroke="#63b8ff" points="277.77,-81.59 267.33,-83.39 276.61,-88.49 277.77,-81.59"/>
</a>
</g>
</g>
<!-- Node5 -->
<g id="Node000005" class="node">
<title>Node5</title>
<g id="a_Node000005"><a xlink:title=" ">
<polygon fill="#e0e0e0" stroke="#999999" points="413.66,-85 285.66,-85 285.66,-55 413.66,-55 413.66,-85"/>
<text text-anchor="start" x="293.66" y="-73" font-family="Helvetica,sans-Serif" font-size="10.00">boost/graph/connected</text>
<text text-anchor="middle" x="349.66" y="-62" font-family="Helvetica,sans-Serif" font-size="10.00">_components.hpp</text>
</a>
</g>
</g>
<!-- Node2&#45;&gt;Node5 -->
<g id="edge4_Node000002_Node000005" class="edge">
<title>Node2&#45;&gt;Node5</title>
<g id="a_edge4_Node000002_Node000005"><a xlink:title=" ">
<path fill="none" stroke="#63b8ff" d="M550.49,-120.99C515.34,-112.24 459.69,-98.39 415.88,-87.48"/>
<polygon fill="#63b8ff" stroke="#63b8ff" points="416.71,-84.08 406.16,-85.06 415.02,-90.88 416.71,-84.08"/>
</a>
</g>
</g>
<!-- Node6 -->
<g id="Node000006" class="node">
<title>Node6</title>
<g id="a_Node000006"><a xlink:title=" ">
<polygon fill="#e0e0e0" stroke="#999999" points="870.16,-79.5 823.16,-79.5 823.16,-60.5 870.16,-60.5 870.16,-79.5"/>
<text text-anchor="middle" x="846.66" y="-67.5" font-family="Helvetica,sans-Serif" font-size="10.00">cmath</text>
</a>
</g>
</g>
<!-- Node2&#45;&gt;Node6 -->
<g id="edge5_Node000002_Node000006" class="edge">
<title>Node2&#45;&gt;Node6</title>
<g id="a_edge5_Node000002_Node000006"><a xlink:title=" ">
<path fill="none" stroke="#63b8ff" d="M622.76,-120.99C673.93,-109.57 764.06,-89.44 812.91,-78.54"/>
<polygon fill="#63b8ff" stroke="#63b8ff" points="813.96,-81.89 822.96,-76.29 812.44,-75.05 813.96,-81.89"/>
</a>
</g>
</g>
<!-- Node7 -->
<g id="Node000007" class="node">
<title>Node7</title>
<g id="a_Node000007"><a xlink:title=" ">
<polygon fill="#e0e0e0" stroke="#999999" points="728.16,-79.5 681.16,-79.5 681.16,-60.5 728.16,-60.5 728.16,-79.5"/>
<text text-anchor="middle" x="704.66" y="-67.5" font-family="Helvetica,sans-Serif" font-size="10.00">deque</text>
</a>
</g>
</g>
<!-- Node2&#45;&gt;Node7 -->
<g id="edge6_Node000002_Node000007" class="edge">
<title>Node2&#45;&gt;Node7</title>
<g id="a_edge6_Node000002_Node000007"><a xlink:title=" ">
<path fill="none" stroke="#63b8ff" d="M602.11,-120.99C622.02,-111.29 654.8,-95.31 677.93,-84.03"/>
<polygon fill="#63b8ff" stroke="#63b8ff" points="679.73,-87.04 687.19,-79.52 676.67,-80.75 679.73,-87.04"/>
</a>
</g>
</g>
<!-- Node2&#45;&gt;Node8 -->
<g id="edge7_Node000002_Node000008" class="edge">
<title>Node2&#45;&gt;Node8</title>
<g id="a_edge7_Node000002_Node000008"><a xlink:title=" ">
<path fill="none" stroke="#63b8ff" d="M515,-125.06C400.03,-117.41 175.52,-101.02 97.66,-85 94.25,-84.3 90.73,-83.42 87.24,-82.45"/>
<polygon fill="#63b8ff" stroke="#63b8ff" points="88.2,-79.08 77.61,-79.52 86.16,-85.78 88.2,-79.08"/>
</a>
</g>
</g>
<!-- Node9 -->
<g id="Node000009" class="node">
<title>Node9</title>
<g id="a_Node000009"><a xlink:title=" ">
<polygon fill="#e0e0e0" stroke="#999999" points="1138.66,-79.5 1084.66,-79.5 1084.66,-60.5 1138.66,-60.5 1138.66,-79.5"/>
<text text-anchor="middle" x="1111.66" y="-67.5" font-family="Helvetica,sans-Serif" font-size="10.00">random</text>
</a>
</g>
</g>
<!-- Node2&#45;&gt;Node9 -->
<g id="edge8_Node000002_Node000009" class="edge">
<title>Node2&#45;&gt;Node9</title>
<g id="a_edge8_Node000002_Node000009"><a xlink:title=" ">
<path fill="none" stroke="#63b8ff" d="M654.4,-121.89C657.19,-121.59 659.95,-121.29 662.66,-121 812.42,-104.84 850.03,-102.34 999.66,-85 1024.59,-82.11 1052.6,-78.61 1074.37,-75.83"/>
<polygon fill="#63b8ff" stroke="#63b8ff" points="1075.04,-79.27 1084.52,-74.53 1074.15,-72.33 1075.04,-79.27"/>
</a>
</g>
</g>
<!-- Node10 -->
<g id="Node000010" class="node">
<title>Node10</title>
<g id="a_Node000010"><a xlink:title=" ">
<polygon fill="#e0e0e0" stroke="#999999" points="475.16,-79.5 432.16,-79.5 432.16,-60.5 475.16,-60.5 475.16,-79.5"/>
<text text-anchor="middle" x="453.66" y="-67.5" font-family="Helvetica,sans-Serif" font-size="10.00">stack</text>
</a>
</g>
</g>
<!-- Node2&#45;&gt;Node10 -->
<g id="edge9_Node000002_Node000010" class="edge">
<title>Node2&#45;&gt;Node10</title>
<g id="a_edge9_Node000002_Node000010"><a xlink:title=" ">
<path fill="none" stroke="#63b8ff" d="M564.86,-120.93C544.46,-112.06 511.75,-97.74 483.66,-85 482.81,-84.62 481.95,-84.22 481.08,-83.83"/>
<polygon fill="#63b8ff" stroke="#63b8ff" points="482.26,-80.52 471.72,-79.5 479.33,-86.87 482.26,-80.52"/>
</a>
</g>
</g>
<!-- Node11 -->
<g id="Node000011" class="node">
<title>Node11</title>
<g id="a_Node000011"><a xlink:title=" ">
<polygon fill="#e0e0e0" stroke="#999999" points="920.16,-19 855.16,-19 855.16,0 920.16,0 920.16,-19"/>
<text text-anchor="middle" x="887.66" y="-7" font-family="Helvetica,sans-Serif" font-size="10.00">stdexcept</text>
</a>
</g>
</g>
<!-- Node2&#45;&gt;Node11 -->
<g id="edge10_Node000002_Node000011" class="edge">
<title>Node2&#45;&gt;Node11</title>
<g id="a_edge10_Node000002_Node000011"><a xlink:title=" ">
<path fill="none" stroke="#63b8ff" d="M515.15,-125.12C391.12,-116.98 143.39,-99.04 130.66,-85 121.7,-75.12 121.51,-64.7 130.66,-55 155.3,-28.87 688.06,-14.95 844.71,-11.41"/>
<polygon fill="#63b8ff" stroke="#63b8ff" points="844.98,-14.91 854.9,-11.19 844.82,-7.91 844.98,-14.91"/>
</a>
</g>
</g>
<!-- Node12 -->
<g id="Node000012" class="node">
<title>Node12</title>
<g id="a_Node000012"><a xlink:title=" ">
<polygon fill="#e0e0e0" stroke="#999999" points="1342.66,-19 1298.66,-19 1298.66,0 1342.66,0 1342.66,-19"/>
<text text-anchor="middle" x="1320.66" y="-7" font-family="Helvetica,sans-Serif" font-size="10.00">string</text>
</a>
</g>
</g>
<!-- Node2&#45;&gt;Node12 -->
<g id="edge11_Node000002_Node000012" class="edge">
<title>Node2&#45;&gt;Node12</title>
<g id="a_edge11_Node000002_Node000012"><a xlink:title=" ">
<path fill="none" stroke="#63b8ff" d="M588.05,-120.61C594.82,-104.25 611.74,-69.69 638.66,-55 763.12,12.9 1130.41,-39.91 1288.34,-18.71"/>
<polygon fill="#63b8ff" stroke="#63b8ff" points="1289.06,-22.14 1298.43,-17.2 1288.03,-15.22 1289.06,-22.14"/>
</a>
</g>
</g>
<!-- Node13 -->
<g id="Node000013" class="node">
<title>Node13</title>
<g id="a_Node000013"><a xlink:title=" ">
<polygon fill="#e0e0e0" stroke="#999999" points="586.16,-79.5 493.16,-79.5 493.16,-60.5 586.16,-60.5 586.16,-79.5"/>
<text text-anchor="middle" x="539.66" y="-67.5" font-family="Helvetica,sans-Serif" font-size="10.00">unordered_map</text>
</a>
</g>
</g>
<!-- Node2&#45;&gt;Node13 -->
<g id="edge12_Node000002_Node000013" class="edge">
<title>Node2&#45;&gt;Node13</title>
<g id="a_edge12_Node000002_Node000013"><a xlink:title=" ">
<path fill="none" stroke="#63b8ff" d="M578.02,-120.87C571.37,-112.23 560.97,-98.7 552.67,-87.92"/>
<polygon fill="#63b8ff" stroke="#63b8ff" points="555.2,-85.46 546.33,-79.67 549.65,-89.73 555.2,-85.46"/>
</a>
</g>
</g>
<!-- Node2&#45;&gt;Node14 -->
<g id="edge13_Node000002_Node000014" class="edge">
<title>Node2&#45;&gt;Node14</title>
<g id="a_edge13_Node000002_Node000014"><a xlink:title=" ">
<path fill="none" stroke="#63b8ff" d="M595.28,-120.71C606.03,-111.79 623.09,-97.54 637.66,-85 652.93,-71.85 653.01,-62.62 671.66,-55 808.87,1.07 1186.19,-40.22 1350.92,-18.64"/>
<polygon fill="#63b8ff" stroke="#63b8ff" points="1351.58,-22.08 1360.98,-17.2 1350.59,-15.15 1351.58,-22.08"/>
</a>
</g>
</g>
<!-- Node15&#45;&gt;Node11 -->
<g id="edge17_Node000015_Node000011" class="edge">
<title>Node15&#45;&gt;Node11</title>
<g id="a_edge17_Node000015_Node000011"><a xlink:title=" ">
<path fill="none" stroke="#63b8ff" d="M1194.77,-63.13C1180.26,-60.62 1163.13,-57.66 1147.66,-55 1071.24,-41.86 982.16,-26.63 930.6,-17.83"/>
<polygon fill="#63b8ff" stroke="#63b8ff" points="930.94,-14.34 920.5,-16.1 929.77,-21.24 930.94,-14.34"/>
</a>
</g>
</g>
<!-- Node15&#45;&gt;Node12 -->
<g id="edge18_Node000015_Node000012" class="edge">
<title>Node15&#45;&gt;Node12</title>
<g id="a_edge18_Node000015_Node000012"><a xlink:title=" ">
<path fill="none" stroke="#63b8ff" d="M1242.24,-60.37C1257.05,-50.95 1280.99,-35.73 1298.52,-24.58"/>
<polygon fill="#63b8ff" stroke="#63b8ff" points="1300.47,-27.49 1307.03,-19.17 1296.71,-21.58 1300.47,-27.49"/>
</a>
</g>
</g>
<!-- Node15&#45;&gt;Node14 -->
<g id="edge19_Node000015_Node000014" class="edge">
<title>Node15&#45;&gt;Node14</title>
<g id="a_edge19_Node000015_Node000014"><a xlink:title=" ">
<path fill="none" stroke="#63b8ff" d="M1251.34,-60.49C1277.92,-50.53 1322.14,-33.95 1352.3,-22.63"/>
<polygon fill="#63b8ff" stroke="#63b8ff" points="1353.81,-25.81 1361.95,-19.02 1351.36,-19.25 1353.81,-25.81"/>
</a>
</g>
</g>
<!-- Node16 -->
<g id="Node000016" class="node">
<title>Node16</title>
<g id="a_Node000016"><a xlink:href="chunk__common_8hpp.html" target="_top" xlink:title=" ">
<polygon fill="white" stroke="#666666" points="1280.16,-19 1165.16,-19 1165.16,0 1280.16,0 1280.16,-19"/>
<text text-anchor="middle" x="1222.66" y="-7" font-family="Helvetica,sans-Serif" font-size="10.00">chunk_common.hpp</text>
</a>
</g>
</g>
<!-- Node15&#45;&gt;Node16 -->
<g id="edge15_Node000015_Node000016" class="edge">
<title>Node15&#45;&gt;Node16</title>
<g id="a_edge15_Node000015_Node000016"><a xlink:title=" ">
<path fill="none" stroke="#63b8ff" d="M1227.77,-60.37C1226.94,-52.25 1225.67,-39.81 1224.6,-29.39"/>
<polygon fill="#63b8ff" stroke="#63b8ff" points="1228.05,-28.76 1223.55,-19.17 1221.09,-29.47 1228.05,-28.76"/>
</a>
</g>
</g>
<!-- Node15&#45;&gt;Node17 -->
<g id="edge16_Node000015_Node000017" class="edge">
<title>Node15&#45;&gt;Node17</title>
<g id="a_edge16_Node000015_Node000017"><a xlink:title=" ">
<path fill="none" stroke="#63b8ff" d="M1212.43,-60.37C1194.39,-50.78 1165.04,-35.17 1143.98,-23.97"/>
<polygon fill="#63b8ff" stroke="#63b8ff" points="1145.43,-20.77 1134.96,-19.17 1142.14,-26.95 1145.43,-20.77"/>
</a>
</g>
</g>
<!-- Node18&#45;&gt;Node3 -->
<g id="edge21_Node000018_Node000003" class="edge">
<title>Node18&#45;&gt;Node3</title>
<g id="a_edge21_Node000018_Node000003"><a xlink:title=" ">
<path fill="none" stroke="#63b8ff" d="M883.64,-120.87C897.68,-111.54 920.29,-96.51 937.02,-85.38"/>
<polygon fill="#63b8ff" stroke="#63b8ff" points="939.23,-88.12 945.62,-79.67 935.36,-82.29 939.23,-88.12"/>
</a>
</g>
</g>
<!-- Node18&#45;&gt;Node6 -->
<g id="edge22_Node000018_Node000006" class="edge">
<title>Node18&#45;&gt;Node6</title>
<g id="a_edge22_Node000018_Node000006"><a xlink:title=" ">
<path fill="none" stroke="#63b8ff" d="M867.12,-120.87C863.72,-112.57 858.47,-99.78 854.14,-89.22"/>
<polygon fill="#63b8ff" stroke="#63b8ff" points="857.25,-87.59 850.22,-79.67 850.77,-90.25 857.25,-87.59"/>
</a>
</g>
</g>
<!-- Node18&#45;&gt;Node14 -->
<g id="edge23_Node000018_Node000014" class="edge">
<title>Node18&#45;&gt;Node14</title>
<g id="a_edge23_Node000018_Node000014"><a xlink:title=" ">
<path fill="none" stroke="#63b8ff" d="M873.3,-120.72C878.67,-104.52 892.56,-70.23 917.66,-55 997.89,-6.32 1240.91,-33.36 1351.05,-18.62"/>
<polygon fill="#63b8ff" stroke="#63b8ff" points="1351.61,-22.08 1360.97,-17.11 1350.56,-15.16 1351.61,-22.08"/>
</a>
</g>
</g>
<!-- Node19&#45;&gt;Node3 -->
<g id="edge26_Node000019_Node000003" class="edge">
<title>Node19&#45;&gt;Node3</title>
<g id="a_edge26_Node000019_Node000003"><a xlink:title=" ">
<path fill="none" stroke="#63b8ff" d="M1073.18,-120.99C1050.65,-111.16 1013.35,-94.88 987.47,-83.58"/>
<polygon fill="#63b8ff" stroke="#63b8ff" points="988.73,-80.31 978.17,-79.52 985.93,-86.73 988.73,-80.31"/>
</a>
</g>
</g>
<!-- Node19&#45;&gt;Node6 -->
<g id="edge27_Node000019_Node000006" class="edge">
<title>Node19&#45;&gt;Node6</title>
<g id="a_edge27_Node000019_Node000006"><a xlink:title=" ">
<path fill="none" stroke="#63b8ff" d="M1056.89,-120.99C1009.44,-109.71 926.31,-89.94 880.08,-78.95"/>
<polygon fill="#63b8ff" stroke="#63b8ff" points="880.79,-75.52 870.25,-76.61 879.17,-82.33 880.79,-75.52"/>
</a>
</g>
</g>
<!-- Node19&#45;&gt;Node11 -->
<g id="edge31_Node000019_Node000011" class="edge">
<title>Node19&#45;&gt;Node11</title>
<g id="a_edge31_Node000019_Node000011"><a xlink:title=" ">
<path fill="none" stroke="#63b8ff" d="M1083.83,-120.9C1068.04,-105.9 1033.46,-74.66 999.66,-55 976.19,-41.35 947.72,-30.1 925.37,-22.33"/>
<polygon fill="#63b8ff" stroke="#63b8ff" points="926.47,-19.01 915.88,-19.11 924.22,-25.64 926.47,-19.01"/>
</a>
</g>
</g>
<!-- Node19&#45;&gt;Node14 -->
<g id="edge32_Node000019_Node000014" class="edge">
<title>Node19&#45;&gt;Node14</title>
<g id="a_edge32_Node000019_Node000014"><a xlink:title=" ">
<path fill="none" stroke="#63b8ff" d="M1153.31,-121.02C1189.06,-114.43 1234.43,-103.26 1271.66,-85 1290.98,-75.52 1291.92,-67.18 1309.66,-55 1325.83,-43.89 1344.86,-32.62 1359.7,-24.21"/>
<polygon fill="#63b8ff" stroke="#63b8ff" points="1361.76,-27.06 1368.77,-19.12 1358.34,-20.95 1361.76,-27.06"/>
</a>
</g>
</g>
<!-- Node19&#45;&gt;Node15 -->
<g id="edge25_Node000019_Node000015" class="edge">
<title>Node19&#45;&gt;Node15</title>
<g id="a_edge25_Node000019_Node000015"><a xlink:title=" ">
<path fill="none" stroke="#63b8ff" d="M1112.44,-120.99C1135.3,-111.16 1173.15,-94.88 1199.42,-83.58"/>
<polygon fill="#63b8ff" stroke="#63b8ff" points="1201.06,-86.68 1208.86,-79.52 1198.29,-80.25 1201.06,-86.68"/>
</a>
</g>
</g>
<!-- Node19&#45;&gt;Node17 -->
<g id="edge30_Node000019_Node000017" class="edge">
<title>Node19&#45;&gt;Node17</title>
<g id="a_edge30_Node000019_Node000017"><a xlink:title=" ">
<path fill="none" stroke="#63b8ff" d="M1087.47,-120.97C1079.58,-106.84 1066.41,-77.88 1075.66,-55 1080.35,-43.41 1089.66,-33.16 1098.42,-25.43"/>
<polygon fill="#63b8ff" stroke="#63b8ff" points="1100.66,-28.12 1106.17,-19.07 1096.22,-22.71 1100.66,-28.12"/>
</a>
</g>
</g>
<!-- Node20 -->
<g id="Node000020" class="node">
<title>Node20</title>
<g id="a_Node000020"><a xlink:title=" ">
<polygon fill="#e0e0e0" stroke="#999999" points="1478.16,-79.5 1413.16,-79.5 1413.16,-60.5 1478.16,-60.5 1478.16,-79.5"/>
<text text-anchor="middle" x="1445.66" y="-67.5" font-family="Helvetica,sans-Serif" font-size="10.00">functional</text>
</a>
</g>
</g>
<!-- Node19&#45;&gt;Node20 -->
<g id="edge28_Node000019_Node000020" class="edge">
<title>Node19&#45;&gt;Node20</title>
<g id="a_edge28_Node000019_Node000020"><a xlink:title=" ">
<path fill="none" stroke="#63b8ff" d="M1146.05,-120.99C1201.1,-112.16 1289.43,-97.88 1365.66,-85 1377.83,-82.94 1391.02,-80.66 1403.12,-78.54"/>
<polygon fill="#63b8ff" stroke="#63b8ff" points="1403.74,-81.98 1412.98,-76.81 1402.52,-75.09 1403.74,-81.98"/>
</a>
</g>
</g>
<!-- Node21 -->
<g id="Node000021" class="node">
<title>Node21</title>
<g id="a_Node000021"><a xlink:title=" ">
<polygon fill="#e0e0e0" stroke="#999999" points="1356.66,-79.5 1318.66,-79.5 1318.66,-60.5 1356.66,-60.5 1356.66,-79.5"/>
<text text-anchor="middle" x="1337.66" y="-67.5" font-family="Helvetica,sans-Serif" font-size="10.00">map</text>
</a>
</g>
</g>
<!-- Node19&#45;&gt;Node21 -->
<g id="edge29_Node000019_Node000021" class="edge">
<title>Node19&#45;&gt;Node21</title>
<g id="a_edge29_Node000019_Node000021"><a xlink:title=" ">
<path fill="none" stroke="#63b8ff" d="M1147.88,-120.94C1191.11,-113.52 1252.45,-101.38 1304.66,-85 1306.29,-84.49 1307.96,-83.92 1309.62,-83.33"/>
<polygon fill="#63b8ff" stroke="#63b8ff" points="1311.01,-86.54 1319.05,-79.64 1308.46,-80.02 1311.01,-86.54"/>
</a>
</g>
</g>
<!-- Node22&#45;&gt;Node3 -->
<g id="edge35_Node000022_Node000003" class="edge">
<title>Node22&#45;&gt;Node3</title>
<g id="a_edge35_Node000022_Node000003"><a xlink:title=" ">
<path fill="none" stroke="#63b8ff" d="M1189.4,-120.99C1139.08,-110.09 1052.19,-91.27 1000.61,-80.09"/>
<polygon fill="#63b8ff" stroke="#63b8ff" points="1001.3,-76.66 990.78,-77.96 999.81,-83.5 1001.3,-76.66"/>
</a>
</g>
</g>
<!-- Node22&#45;&gt;Node14 -->
<g id="edge38_Node000022_Node000014" class="edge">
<title>Node22&#45;&gt;Node14</title>
<g id="a_edge38_Node000022_Node000014"><a xlink:title=" ">
<path fill="none" stroke="#63b8ff" d="M1268.93,-120.95C1304.36,-112.64 1352.32,-99.23 1365.66,-85 1379.75,-69.97 1383.76,-45.97 1384.72,-29.29"/>
<polygon fill="#63b8ff" stroke="#63b8ff" points="1388.22,-29.2 1384.98,-19.11 1381.22,-29.02 1388.22,-29.2"/>
</a>
</g>
</g>
<!-- Node22&#45;&gt;Node15 -->
<g id="edge34_Node000022_Node000015" class="edge">
<title>Node22&#45;&gt;Node15</title>
<g id="a_edge34_Node000022_Node000015"><a xlink:title=" ">
<path fill="none" stroke="#63b8ff" d="M1228.66,-120.87C1228.66,-112.75 1228.66,-100.31 1228.66,-89.89"/>
<polygon fill="#63b8ff" stroke="#63b8ff" points="1232.16,-89.67 1228.66,-79.67 1225.16,-89.67 1232.16,-89.67"/>
</a>
</g>
</g>
<!-- Node22&#45;&gt;Node17 -->
<g id="edge37_Node000022_Node000017" class="edge">
<title>Node22&#45;&gt;Node17</title>
<g id="a_edge37_Node000022_Node000017"><a xlink:title=" ">
<path fill="none" stroke="#63b8ff" d="M1220.25,-120.68C1211.74,-111.73 1198.22,-97.46 1186.66,-85 1168.17,-65.07 1147.09,-41.92 1133.37,-26.78"/>
<polygon fill="#63b8ff" stroke="#63b8ff" points="1135.88,-24.32 1126.57,-19.26 1130.69,-29.02 1135.88,-24.32"/>
</a>
</g>
</g>
<!-- Node22&#45;&gt;Node20 -->
<g id="edge36_Node000022_Node000020" class="edge">
<title>Node22&#45;&gt;Node20</title>
<g id="a_edge36_Node000022_Node000020"><a xlink:title=" ">
<path fill="none" stroke="#63b8ff" d="M1262.62,-120.97C1297,-112.25 1351.65,-98.15 1398.66,-85 1401.6,-84.18 1404.64,-83.31 1407.69,-82.43"/>
<polygon fill="#63b8ff" stroke="#63b8ff" points="1408.76,-85.76 1417.37,-79.59 1406.79,-79.04 1408.76,-85.76"/>
</a>
</g>
</g>
<!-- Node24&#45;&gt;Node7 -->
<g id="edge41_Node000024_Node000007" class="edge">
<title>Node24&#45;&gt;Node7</title>
<g id="a_edge41_Node000024_Node000007"><a xlink:title=" ">
<path fill="none" stroke="#63b8ff" d="M725.12,-120.87C721.72,-112.57 716.47,-99.78 712.14,-89.22"/>
<polygon fill="#63b8ff" stroke="#63b8ff" points="715.25,-87.59 708.22,-79.67 708.77,-90.25 715.25,-87.59"/>
</a>
</g>
</g>
<!-- Node24&#45;&gt;Node8 -->
<g id="edge43_Node000024_Node000008" class="edge">
<title>Node24&#45;&gt;Node8</title>
<g id="a_edge43_Node000024_Node000008"><a xlink:title=" ">
<path fill="none" stroke="#63b8ff" d="M672.16,-122C668.95,-121.64 665.76,-121.3 662.66,-121 426.81,-97.85 365.8,-114.51 130.66,-85 118.61,-83.49 105.59,-81.3 93.78,-79.09"/>
<polygon fill="#63b8ff" stroke="#63b8ff" points="94.25,-75.62 83.77,-77.17 92.93,-82.49 94.25,-75.62"/>
</a>
</g>
</g>
<!-- Node24&#45;&gt;Node11 -->
<g id="edge44_Node000024_Node000011" class="edge">
<title>Node24&#45;&gt;Node11</title>
<g id="a_edge44_Node000024_Node000011"><a xlink:title=" ">
<path fill="none" stroke="#63b8ff" d="M732.59,-120.95C739.98,-105.73 757.32,-73.79 780.66,-55 799.47,-39.86 824.15,-29.14 845.07,-22.02"/>
<polygon fill="#63b8ff" stroke="#63b8ff" points="846.26,-25.31 854.69,-18.9 844.1,-18.65 846.26,-25.31"/>
</a>
</g>
</g>
<!-- Node24&#45;&gt;Node14 -->
<g id="edge45_Node000024_Node000014" class="edge">
<title>Node24&#45;&gt;Node14</title>
<g id="a_edge45_Node000024_Node000014"><a xlink:title=" ">
<path fill="none" stroke="#63b8ff" d="M739.1,-120.73C749.65,-111.81 766.4,-97.58 780.66,-85 795.52,-71.89 795.42,-62.76 813.66,-55 921.12,-9.27 1217.77,-36.55 1350.91,-18.65"/>
<polygon fill="#63b8ff" stroke="#63b8ff" points="1351.6,-22.09 1360.98,-17.16 1350.57,-15.17 1351.6,-22.09"/>
</a>
</g>
</g>
<!-- Node24&#45;&gt;Node20 -->
<g id="edge42_Node000024_Node000020" class="edge">
<title>Node24&#45;&gt;Node20</title>
<g id="a_edge42_Node000024_Node000020"><a xlink:title=" ">
<path fill="none" stroke="#63b8ff" d="M785.52,-121.94C788.61,-121.6 791.67,-121.29 794.66,-121 1047.78,-96.75 1113.15,-114.96 1365.66,-85 1377.91,-83.55 1391.13,-81.45 1403.23,-79.32"/>
<polygon fill="#63b8ff" stroke="#63b8ff" points="1403.87,-82.76 1413.08,-77.54 1402.62,-75.88 1403.87,-82.76"/>
</a>
</g>
</g>
<!-- Node25&#45;&gt;Node14 -->
<g id="edge53_Node000025_Node000014" class="edge">
<title>Node25&#45;&gt;Node14</title>
<g id="a_edge53_Node000025_Node000014"><a xlink:title=" ">
<path fill="none" stroke="#63b8ff" d="M1779.65,-120.79C1768.03,-104.72 1740.78,-70.62 1708.66,-55 1658.03,-30.37 1491.4,-17.2 1418.88,-12.51"/>
<polygon fill="#63b8ff" stroke="#63b8ff" points="1418.69,-8.99 1408.49,-11.85 1418.25,-15.98 1418.69,-8.99"/>
</a>
</g>
</g>
<!-- Node25&#45;&gt;Node15 -->
<g id="edge47_Node000025_Node000015" class="edge">
<title>Node25&#45;&gt;Node15</title>
<g id="a_edge47_Node000025_Node000015"><a xlink:title=" ">
<path fill="none" stroke="#63b8ff" d="M1730.89,-125.77C1642.18,-119.43 1461.66,-105.21 1309.66,-85 1297.62,-83.4 1284.64,-81.32 1272.67,-79.25"/>
<polygon fill="#63b8ff" stroke="#63b8ff" points="1272.92,-75.74 1262.46,-77.45 1271.7,-82.63 1272.92,-75.74"/>
</a>
</g>
</g>
<!-- Node25&#45;&gt;Node20 -->
<g id="edge49_Node000025_Node000020" class="edge">
<title>Node25&#45;&gt;Node20</title>
<g id="a_edge49_Node000025_Node000020"><a xlink:title=" ">
<path fill="none" stroke="#63b8ff" d="M1736.22,-120.99C1669.4,-109.5 1551.38,-89.19 1488.28,-78.33"/>
<polygon fill="#63b8ff" stroke="#63b8ff" points="1488.72,-74.86 1478.27,-76.61 1487.53,-81.76 1488.72,-74.86"/>
</a>
</g>
</g>
<!-- Node26 -->
<g id="Node000026" class="node">
<title>Node26</title>
<g id="a_Node000026"><a xlink:title=" ">
<polygon fill="#e0e0e0" stroke="#999999" points="1826.16,-79.5 1761.16,-79.5 1761.16,-60.5 1826.16,-60.5 1826.16,-79.5"/>
<text text-anchor="middle" x="1793.66" y="-67.5" font-family="Helvetica,sans-Serif" font-size="10.00">exception</text>
</a>
</g>
</g>
<!-- Node25&#45;&gt;Node26 -->
<g id="edge48_Node000025_Node000026" class="edge">
<title>Node25&#45;&gt;Node26</title>
<g id="a_edge48_Node000025_Node000026"><a xlink:title=" ">
<path fill="none" stroke="#63b8ff" d="M1786.84,-120.87C1787.95,-112.75 1789.65,-100.31 1791.08,-89.89"/>
<polygon fill="#63b8ff" stroke="#63b8ff" points="1794.59,-90.05 1792.47,-79.67 1787.65,-89.1 1794.59,-90.05"/>
</a>
</g>
</g>
<!-- Node27 -->
<g id="Node000027" class="node">
<title>Node27</title>
<g id="a_Node000027"><a xlink:title=" ">
<polygon fill="#e0e0e0" stroke="#999999" points="1890.66,-79.5 1844.66,-79.5 1844.66,-60.5 1890.66,-60.5 1890.66,-79.5"/>
<text text-anchor="middle" x="1867.66" y="-67.5" font-family="Helvetica,sans-Serif" font-size="10.00">future</text>
</a>
</g>
</g>
<!-- Node25&#45;&gt;Node27 -->
<g id="edge50_Node000025_Node000027" class="edge">
<title>Node25&#45;&gt;Node27</title>
<g id="a_edge50_Node000025_Node000027"><a xlink:title=" ">
<path fill="none" stroke="#63b8ff" d="M1797.76,-120.87C1810.72,-111.62 1831.52,-96.78 1847.06,-85.69"/>
<polygon fill="#63b8ff" stroke="#63b8ff" points="1849.4,-88.32 1855.51,-79.67 1845.34,-82.63 1849.4,-88.32"/>
</a>
</g>
</g>
<!-- Node28 -->
<g id="Node000028" class="node">
<title>Node28</title>
<g id="a_Node000028"><a xlink:title=" ">
<polygon fill="#e0e0e0" stroke="#999999" points="1956.66,-79.5 1908.66,-79.5 1908.66,-60.5 1956.66,-60.5 1956.66,-79.5"/>
<text text-anchor="middle" x="1932.66" y="-67.5" font-family="Helvetica,sans-Serif" font-size="10.00">mutex</text>
</a>
</g>
</g>
<!-- Node25&#45;&gt;Node28 -->
<g id="edge51_Node000025_Node000028" class="edge">
<title>Node25&#45;&gt;Node28</title>
<g id="a_edge51_Node000025_Node000028"><a xlink:title=" ">
<path fill="none" stroke="#63b8ff" d="M1808.02,-120.99C1831.06,-112.18 1867.98,-97.9 1899.66,-85 1900.86,-84.51 1902.08,-84.01 1903.32,-83.5"/>
<polygon fill="#63b8ff" stroke="#63b8ff" points="1904.93,-86.62 1912.81,-79.53 1902.23,-80.16 1904.93,-86.62"/>
</a>
</g>
</g>
<!-- Node29 -->
<g id="Node000029" class="node">
<title>Node29</title>
<g id="a_Node000029"><a xlink:title=" ">
<polygon fill="#e0e0e0" stroke="#999999" points="2022.66,-79.5 1974.66,-79.5 1974.66,-60.5 2022.66,-60.5 2022.66,-79.5"/>
<text text-anchor="middle" x="1998.66" y="-67.5" font-family="Helvetica,sans-Serif" font-size="10.00">thread</text>
</a>
</g>
</g>
<!-- Node25&#45;&gt;Node29 -->
<g id="edge52_Node000025_Node000029" class="edge">
<title>Node25&#45;&gt;Node29</title>
<g id="a_edge52_Node000025_Node000029"><a xlink:title=" ">
<path fill="none" stroke="#63b8ff" d="M1828.39,-120.94C1865.21,-113.09 1919.55,-100.37 1965.66,-85 1967.28,-84.46 1968.94,-83.87 1970.6,-83.26"/>
<polygon fill="#63b8ff" stroke="#63b8ff" points="1972.01,-86.46 1980.01,-79.52 1969.43,-79.96 1972.01,-86.46"/>
</a>
</g>
</g>
<!-- Node30&#45;&gt;Node3 -->
<g id="edge56_Node000030_Node000003" class="edge">
<title>Node30&#45;&gt;Node3</title>
<g id="a_edge56_Node000030_Node000003"><a xlink:title=" ">
<path fill="none" stroke="#63b8ff" d="M1254.93,-176.47C1171.86,-166.78 1043.79,-150.49 1023.66,-140 1000.48,-127.92 981.04,-104.27 969.63,-88.05"/>
<polygon fill="#63b8ff" stroke="#63b8ff" points="972.36,-85.84 963.86,-79.51 966.56,-89.76 972.36,-85.84"/>
</a>
</g>
</g>
<!-- Node30&#45;&gt;Node8 -->
<g id="edge60_Node000030_Node000008" class="edge">
<title>Node30&#45;&gt;Node8</title>
<g id="a_edge60_Node000030_Node000008"><a xlink:title=" ">
<path fill="none" stroke="#63b8ff" d="M1255.13,-176.85C1251.59,-176.55 1248.09,-176.26 1244.66,-176 916.77,-151.04 833,-171.29 505.66,-140 333.6,-123.55 290.85,-115.17 120.66,-85 111.96,-83.46 102.65,-81.61 93.85,-79.77"/>
<polygon fill="#63b8ff" stroke="#63b8ff" points="94.33,-76.29 83.82,-77.63 92.87,-83.13 94.33,-76.29"/>
</a>
</g>
</g>
<!-- Node30&#45;&gt;Node14 -->
<g id="edge61_Node000030_Node000014" class="edge">
<title>Node30&#45;&gt;Node14</title>
<g id="a_edge61_Node000030_Node000014"><a xlink:title=" ">
<path fill="none" stroke="#63b8ff" d="M1398.37,-181.51C1451.5,-177.09 1524.6,-166.28 1583.66,-140 1619.81,-123.91 1636.36,-120.59 1653.66,-85 1659.49,-73.01 1662.28,-65.17 1653.66,-55 1623.86,-19.86 1483.84,-12.43 1418.46,-10.89"/>
<polygon fill="#63b8ff" stroke="#63b8ff" points="1418.33,-7.39 1408.26,-10.68 1418.19,-14.38 1418.33,-7.39"/>
</a>
</g>
</g>
<!-- Node30&#45;&gt;Node19 -->
<g id="edge55_Node000030_Node000019" class="edge">
<title>Node30&#45;&gt;Node19</title>
<g id="a_edge55_Node000030_Node000019"><a xlink:title=" ">
<path fill="none" stroke="#63b8ff" d="M1289.06,-175.98C1248.67,-166.84 1184.38,-152.27 1140.43,-142.32"/>
<polygon fill="#63b8ff" stroke="#63b8ff" points="1141.08,-138.88 1130.55,-140.08 1139.53,-145.7 1141.08,-138.88"/>
</a>
</g>
</g>
<!-- Node30&#45;&gt;Node20 -->
<g id="edge58_Node000030_Node000020" class="edge">
<title>Node30&#45;&gt;Node20</title>
<g id="a_edge58_Node000030_Node000020"><a xlink:title=" ">
<path fill="none" stroke="#63b8ff" d="M1398.22,-179.26C1424.38,-173.45 1451.5,-162.05 1467.66,-140 1478.99,-124.55 1469.04,-103.05 1459.12,-88.17"/>
<polygon fill="#63b8ff" stroke="#63b8ff" points="1461.83,-85.94 1453.15,-79.88 1456.15,-90.04 1461.83,-85.94"/>
</a>
</g>
</g>
<!-- Node31 -->
<g id="Node000031" class="node">
<title>Node31</title>
<g id="a_Node000031"><a xlink:title=" ">
<polygon fill="#e0e0e0" stroke="#999999" points="1357.16,-140 1304.16,-140 1304.16,-121 1357.16,-121 1357.16,-140"/>
<text text-anchor="middle" x="1330.66" y="-128" font-family="Helvetica,sans-Serif" font-size="10.00">cstddef</text>
</a>
</g>
</g>
<!-- Node30&#45;&gt;Node31 -->
<g id="edge57_Node000030_Node000031" class="edge">
<title>Node30&#45;&gt;Node31</title>
<g id="a_edge57_Node000030_Node000031"><a xlink:title=" ">
<path fill="none" stroke="#63b8ff" d="M1327.32,-175.75C1327.84,-168.8 1328.6,-158.85 1329.25,-150.13"/>
<polygon fill="#63b8ff" stroke="#63b8ff" points="1332.75,-150.32 1330.01,-140.09 1325.77,-149.8 1332.75,-150.32"/>
</a>
</g>
</g>
<!-- Node32 -->
<g id="Node000032" class="node">
<title>Node32</title>
<g id="a_Node000032"><a xlink:title=" ">
<polygon fill="#e0e0e0" stroke="#999999" points="1458.16,-140 1375.16,-140 1375.16,-121 1458.16,-121 1458.16,-140"/>
<text text-anchor="middle" x="1416.66" y="-128" font-family="Helvetica,sans-Serif" font-size="10.00">initializer_list</text>
</a>
</g>
</g>
<!-- Node30&#45;&gt;Node32 -->
<g id="edge59_Node000030_Node000032" class="edge">
<title>Node30&#45;&gt;Node32</title>
<g id="a_edge59_Node000030_Node000032"><a xlink:title=" ">
<path fill="none" stroke="#63b8ff" d="M1341.12,-175.98C1355.08,-167.77 1376.45,-155.18 1392.91,-145.49"/>
<polygon fill="#63b8ff" stroke="#63b8ff" points="1395.1,-148.26 1401.94,-140.17 1391.54,-142.23 1395.1,-148.26"/>
</a>
</g>
</g>
<!-- Node33&#45;&gt;Node3 -->
<g id="edge63_Node000033_Node000003" class="edge">
<title>Node33&#45;&gt;Node3</title>
<g id="a_edge63_Node000033_Node000003"><a xlink:title=" ">
<path fill="none" stroke="#63b8ff" d="M1515.06,-126.1C1500.74,-124.49 1483.32,-122.58 1467.66,-121 1293.59,-103.4 1249.65,-103.4 1075.66,-85 1050.9,-82.38 1023.23,-79.09 1001.02,-76.35"/>
<polygon fill="#63b8ff" stroke="#63b8ff" points="1001.27,-72.86 990.91,-75.1 1000.41,-79.8 1001.27,-72.86"/>
</a>
</g>
</g>
<!-- Node33&#45;&gt;Node9 -->
<g id="edge67_Node000033_Node000009" class="edge">
<title>Node33&#45;&gt;Node9</title>
<g id="a_edge67_Node000033_Node000009"><a xlink:title=" ">
<path fill="none" stroke="#63b8ff" d="M1514.98,-126.05C1441.04,-117.41 1250.02,-94.84 1186.66,-85 1174.31,-83.08 1160.87,-80.68 1148.83,-78.4"/>
<polygon fill="#63b8ff" stroke="#63b8ff" points="1149.15,-74.9 1138.67,-76.45 1147.83,-81.77 1149.15,-74.9"/>
</a>
</g>
</g>
<!-- Node33&#45;&gt;Node12 -->
<g id="edge69_Node000033_Node000012" class="edge">
<title>Node33&#45;&gt;Node12</title>
<g id="a_edge69_Node000033_Node000012"><a xlink:title=" ">
<path fill="none" stroke="#63b8ff" d="M1544.53,-120.9C1543.8,-105.31 1539.91,-72.41 1520.66,-55 1466.34,-5.89 1429.99,-34.24 1353.1,-18.81"/>
<polygon fill="#63b8ff" stroke="#63b8ff" points="1353.52,-15.32 1343,-16.58 1352.01,-22.16 1353.52,-15.32"/>
</a>
</g>
</g>
<!-- Node33&#45;&gt;Node14 -->
<g id="edge70_Node000033_Node000014" class="edge">
<title>Node33&#45;&gt;Node14</title>
<g id="a_edge70_Node000033_Node000014"><a xlink:title=" ">
<path fill="none" stroke="#63b8ff" d="M1574.6,-123.92C1596.21,-118.16 1623.92,-106.81 1637.66,-85 1644.77,-73.72 1646.23,-65.21 1637.66,-55 1610.08,-22.15 1481.09,-13.54 1418.67,-11.29"/>
<polygon fill="#63b8ff" stroke="#63b8ff" points="1418.64,-7.79 1408.54,-10.96 1418.42,-14.79 1418.64,-7.79"/>
</a>
</g>
</g>
<!-- Node33&#45;&gt;Node17 -->
<g id="edge66_Node000033_Node000017" class="edge">
<title>Node33&#45;&gt;Node17</title>
<g id="a_edge66_Node000033_Node000017"><a xlink:title=" ">
<path fill="none" stroke="#63b8ff" d="M1540.86,-120.74C1533.34,-104.58 1514.9,-70.35 1487.66,-55 1423.2,-18.69 1229.65,-31.09 1156.66,-19 1156.56,-18.98 1156.46,-18.97 1156.36,-18.95"/>
<polygon fill="#63b8ff" stroke="#63b8ff" points="1157.29,-15.56 1146.81,-17.17 1156,-22.44 1157.29,-15.56"/>
</a>
</g>
</g>
<!-- Node33&#45;&gt;Node20 -->
<g id="edge64_Node000033_Node000020" class="edge">
<title>Node33&#45;&gt;Node20</title>
<g id="a_edge64_Node000033_Node000020"><a xlink:title=" ">
<path fill="none" stroke="#63b8ff" d="M1530.05,-120.87C1513.97,-111.36 1487.88,-95.95 1468.96,-84.77"/>
<polygon fill="#63b8ff" stroke="#63b8ff" points="1470.72,-81.74 1460.33,-79.67 1467.16,-87.77 1470.72,-81.74"/>
</a>
</g>
</g>
<!-- Node33&#45;&gt;Node21 -->
<g id="edge65_Node000033_Node000021" class="edge">
<title>Node33&#45;&gt;Node21</title>
<g id="a_edge65_Node000033_Node000021"><a xlink:title=" ">
<path fill="none" stroke="#63b8ff" d="M1515,-121.12C1475.39,-109.92 1405.67,-90.22 1366.48,-79.15"/>
<polygon fill="#63b8ff" stroke="#63b8ff" points="1367.33,-75.75 1356.75,-76.4 1365.43,-82.48 1367.33,-75.75"/>
</a>
</g>
</g>
<!-- Node34 -->
<g id="Node000034" class="node">
<title>Node34</title>
<g id="a_Node000034"><a xlink:title=" ">
<polygon fill="#e0e0e0" stroke="#999999" points="1628.66,-79.5 1572.66,-79.5 1572.66,-60.5 1628.66,-60.5 1628.66,-79.5"/>
<text text-anchor="middle" x="1600.66" y="-67.5" font-family="Helvetica,sans-Serif" font-size="10.00">sstream</text>
</a>
</g>
</g>
<!-- Node33&#45;&gt;Node34 -->
<g id="edge68_Node000033_Node000034" class="edge">
<title>Node33&#45;&gt;Node34</title>
<g id="a_edge68_Node000033_Node000034"><a xlink:title=" ">
<path fill="none" stroke="#63b8ff" d="M1552.92,-120.87C1561.44,-111.97 1574.92,-97.89 1585.39,-86.95"/>
<polygon fill="#63b8ff" stroke="#63b8ff" points="1587.98,-89.31 1592.36,-79.67 1582.92,-84.47 1587.98,-89.31"/>
</a>
</g>
</g>
</g>
</svg>
