<?xml version="1.0" encoding="UTF-8" standalone="no"?>
<!DOCTYPE svg PUBLIC "-//W3C//DTD SVG 1.1//EN"
 "http://www.w3.org/Graphics/SVG/1.1/DTD/svg11.dtd">
<!-- Generated by graphviz version 2.43.0 (0)
 -->
<!-- Title: /mnt/c/Users/jonat/OneDrive/Documents/Python Scripts/chunking_cpp/src/main.cpp Pages: 1 -->
<svg width="2076pt" height="346pt"
 viewBox="0.00 0.00 2075.76 346.00" xmlns="http://www.w3.org/2000/svg" xmlns:xlink="http://www.w3.org/1999/xlink">
<g id="graph0" class="graph" transform="scale(1 1) rotate(0) translate(4 342)">
<title>/mnt/c/Users/jonat/OneDrive/Documents/Python Scripts/chunking_cpp/src/main.cpp</title>
<!-- Node1 -->
<g id="Node000001" class="node">
<title>Node1</title>
<g id="a_Node000001"><a xlink:title="Demonstrates various chunking strategies and operations.">
<polygon fill="#999999" stroke="#666666" points="1293.26,-338 1156.26,-338 1156.26,-286 1293.26,-286 1293.26,-338"/>
<text text-anchor="start" x="1164.26" y="-326" font-family="Helvetica,sans-Serif" font-size="10.00">/mnt/c/Users/jonat</text>
<text text-anchor="start" x="1164.26" y="-315" font-family="Helvetica,sans-Serif" font-size="10.00">/OneDrive/Documents</text>
<text text-anchor="start" x="1164.26" y="-304" font-family="Helvetica,sans-Serif" font-size="10.00">/Python Scripts/chunking</text>
<text text-anchor="middle" x="1224.76" y="-293" font-family="Helvetica,sans-Serif" font-size="10.00">_cpp/src/main.cpp</text>
</a>
</g>
</g>
<!-- Node2 -->
<g id="Node000002" class="node">
<title>Node2</title>
<g id="a_Node000002"><a xlink:href="advanced__structures_8hpp.html" target="_top" xlink:title=" ">
<polygon fill="white" stroke="#666666" points="653.26,-195 514.26,-195 514.26,-176 653.26,-176 653.26,-195"/>
<text text-anchor="middle" x="583.76" y="-183" font-family="Helvetica,sans-Serif" font-size="10.00">advanced_structures.hpp</text>
</a>
</g>
</g>
<!-- Node1&#45;&gt;Node2 -->
<g id="edge1_Node000001_Node000002" class="edge">
<title>Node1&#45;&gt;Node2</title>
<g id="a_edge1_Node000001_Node000002"><a xlink:title=" ">
<path fill="none" stroke="#63b8ff" d="M1156.01,-304.9C1069.4,-296.43 916.33,-278.78 787.76,-250 726.19,-236.22 656.38,-212.72 616.46,-198.5"/>
<polygon fill="#63b8ff" stroke="#63b8ff" points="617.57,-195.18 606.98,-195.09 615.21,-201.77 617.57,-195.18"/>
</a>
</g>
</g>
<!-- Node8 -->
<g id="Node000008" class="node">
<title>Node8</title>
<g id="a_Node000008"><a xlink:title=" ">
<polygon fill="#e0e0e0" stroke="#999999" points="811.76,-134.5 753.76,-134.5 753.76,-115.5 811.76,-115.5 811.76,-134.5"/>
<text text-anchor="middle" x="782.76" y="-122.5" font-family="Helvetica,sans-Serif" font-size="10.00">memory</text>
</a>
</g>
</g>
<!-- Node1&#45;&gt;Node8 -->
<g id="edge72_Node000001_Node000008" class="edge">
<title>Node1&#45;&gt;Node8</title>
<g id="a_edge72_Node000001_Node000008"><a xlink:title=" ">
<path fill="none" stroke="#63b8ff" d="M1156.22,-297.26C1081.33,-280.4 959.4,-247.4 864.76,-195 838.97,-180.73 813.71,-157.7 798.18,-142.22"/>
<polygon fill="#63b8ff" stroke="#63b8ff" points="800.51,-139.59 791.01,-134.9 795.51,-144.49 800.51,-139.59"/>
</a>
</g>
</g>
<!-- Node14 -->
<g id="Node000014" class="node">
<title>Node14</title>
<g id="a_Node000014"><a xlink:title=" ">
<polygon fill="#e0e0e0" stroke="#999999" points="1434.26,-74 1387.26,-74 1387.26,-55 1434.26,-55 1434.26,-74"/>
<text text-anchor="middle" x="1410.76" y="-62" font-family="Helvetica,sans-Serif" font-size="10.00">vector</text>
</a>
</g>
</g>
<!-- Node1&#45;&gt;Node14 -->
<g id="edge74_Node000001_Node000014" class="edge">
<title>Node1&#45;&gt;Node14</title>
<g id="a_edge74_Node000001_Node000014"><a xlink:title=" ">
<path fill="none" stroke="#63b8ff" d="M1293.58,-302.54C1403.23,-287.49 1609.62,-252.14 1652.76,-195 1665.38,-178.28 1679.62,-146.74 1645.76,-110 1619.07,-81.04 1502.9,-70.56 1444.51,-67.08"/>
<polygon fill="#63b8ff" stroke="#63b8ff" points="1444.5,-63.57 1434.32,-66.51 1444.11,-70.56 1444.5,-63.57"/>
</a>
</g>
</g>
<!-- Node15 -->
<g id="Node000015" class="node">
<title>Node15</title>
<g id="a_Node000015"><a xlink:href="chunk_8hpp.html" target="_top" xlink:title="Template class for chunk&#45;based data processing.">
<polygon fill="white" stroke="#666666" points="1287.26,-134.5 1220.26,-134.5 1220.26,-115.5 1287.26,-115.5 1287.26,-134.5"/>
<text text-anchor="middle" x="1253.76" y="-122.5" font-family="Helvetica,sans-Serif" font-size="10.00">chunk.hpp</text>
</a>
</g>
</g>
<!-- Node1&#45;&gt;Node15 -->
<g id="edge14_Node000001_Node000015" class="edge">
<title>Node1&#45;&gt;Node15</title>
<g id="a_edge14_Node000001_Node000015"><a xlink:title=" ">
<path fill="none" stroke="#63b8ff" d="M1228.25,-285.83C1232.07,-258.69 1238.49,-214.23 1244.76,-176 1246.44,-165.73 1248.49,-154.3 1250.2,-144.97"/>
<polygon fill="#63b8ff" stroke="#63b8ff" points="1253.7,-145.31 1252.08,-134.84 1246.81,-144.03 1253.7,-145.31"/>
</a>
</g>
</g>
<!-- Node16 -->
<g id="Node000016" class="node">
<title>Node16</title>
<g id="a_Node000016"><a xlink:title=" ">
<polygon fill="#e0e0e0" stroke="#999999" points="1188.76,-74 1132.76,-74 1132.76,-55 1188.76,-55 1188.76,-74"/>
<text text-anchor="middle" x="1160.76" y="-62" font-family="Helvetica,sans-Serif" font-size="10.00">numeric</text>
</a>
</g>
</g>
<!-- Node1&#45;&gt;Node16 -->
<g id="edge73_Node000001_Node000016" class="edge">
<title>Node1&#45;&gt;Node16</title>
<g id="a_edge73_Node000001_Node000016"><a xlink:title=" ">
<path fill="none" stroke="#63b8ff" d="M1155.89,-310.22C877.97,-305.93 -138.45,-278.66 23.76,-110 59.33,-73.01 895.48,-76.02 946.76,-74 1008.24,-71.58 1079.65,-68.74 1122.47,-67.03"/>
<polygon fill="#63b8ff" stroke="#63b8ff" points="1122.86,-70.52 1132.71,-66.62 1122.58,-63.52 1122.86,-70.52"/>
</a>
</g>
</g>
<!-- Node17 -->
<g id="Node000017" class="node">
<title>Node17</title>
<g id="a_Node000017"><a xlink:href="config_8hpp.html" target="_top" xlink:title=" ">
<polygon fill="white" stroke="#666666" points="855.26,-74 788.26,-74 788.26,-55 855.26,-55 855.26,-74"/>
<text text-anchor="middle" x="821.76" y="-62" font-family="Helvetica,sans-Serif" font-size="10.00">config.hpp</text>
</a>
</g>
</g>
<!-- Node1&#45;&gt;Node17 -->
<g id="edge38_Node000001_Node000017" class="edge">
<title>Node1&#45;&gt;Node17</title>
<g id="a_edge38_Node000001_Node000017"><a xlink:title=" ">
<path fill="none" stroke="#63b8ff" d="M1155.99,-309.83C952.38,-305.94 354.92,-291.23 164.76,-250 98.61,-235.66 69.32,-244.11 22.76,-195 5.06,-176.34 8.81,-165.4 4.76,-140 2.66,-126.83 -4.41,-119.68 4.76,-110 31.52,-81.74 611.38,-69.25 777.59,-66.24"/>
<polygon fill="#63b8ff" stroke="#63b8ff" points="778,-69.74 787.93,-66.06 777.87,-62.74 778,-69.74"/>
</a>
</g>
</g>
<!-- Node19 -->
<g id="Node000019" class="node">
<title>Node19</title>
<g id="a_Node000019"><a xlink:href="chunk__compression_8hpp.html" target="_top" xlink:title=" ">
<polygon fill="white" stroke="#666666" points="1056.76,-195 922.76,-195 922.76,-176 1056.76,-176 1056.76,-195"/>
<text text-anchor="middle" x="989.76" y="-183" font-family="Helvetica,sans-Serif" font-size="10.00">chunk_compression.hpp</text>
</a>
</g>
</g>
<!-- Node1&#45;&gt;Node19 -->
<g id="edge21_Node000001_Node000019" class="edge">
<title>Node1&#45;&gt;Node19</title>
<g id="a_edge21_Node000001_Node000019"><a xlink:title=" ">
<path fill="none" stroke="#63b8ff" d="M1177.48,-285.96C1128.43,-259.97 1053.58,-220.32 1014.88,-199.81"/>
<polygon fill="#63b8ff" stroke="#63b8ff" points="1016.34,-196.62 1005.86,-195.03 1013.06,-202.81 1016.34,-196.62"/>
</a>
</g>
</g>
<!-- Node20 -->
<g id="Node000020" class="node">
<title>Node20</title>
<g id="a_Node000020"><a xlink:href="chunk__strategies_8hpp.html" target="_top" xlink:title="Defines various strategies for chunking data based on different criteria.">
<polygon fill="white" stroke="#666666" points="1196.26,-195 1075.26,-195 1075.26,-176 1196.26,-176 1196.26,-195"/>
<text text-anchor="middle" x="1135.76" y="-183" font-family="Helvetica,sans-Serif" font-size="10.00">chunk_strategies.hpp</text>
</a>
</g>
</g>
<!-- Node1&#45;&gt;Node20 -->
<g id="edge25_Node000001_Node000020" class="edge">
<title>Node1&#45;&gt;Node20</title>
<g id="a_edge25_Node000001_Node000020"><a xlink:title=" ">
<path fill="none" stroke="#63b8ff" d="M1206.75,-285.81C1189.23,-261.3 1163.09,-224.74 1147.9,-203.49"/>
<polygon fill="#63b8ff" stroke="#63b8ff" points="1150.6,-201.25 1141.94,-195.15 1144.91,-205.32 1150.6,-201.25"/>
</a>
</g>
</g>
<!-- Node23 -->
<g id="Node000023" class="node">
<title>Node23</title>
<g id="a_Node000023"><a xlink:href="chunk__windows_8hpp.html" target="_top" xlink:title=" ">
<polygon fill="white" stroke="#666666" points="1624.26,-195 1509.26,-195 1509.26,-176 1624.26,-176 1624.26,-195"/>
<text text-anchor="middle" x="1566.76" y="-183" font-family="Helvetica,sans-Serif" font-size="10.00">chunk_windows.hpp</text>
</a>
</g>
</g>
<!-- Node1&#45;&gt;Node23 -->
<g id="edge34_Node000001_Node000023" class="edge">
<title>Node1&#45;&gt;Node23</title>
<g id="a_edge34_Node000001_Node000023"><a xlink:title=" ">
<path fill="none" stroke="#63b8ff" d="M1293.5,-292.33C1332.41,-281.19 1381.75,-266.1 1424.76,-250 1465.93,-234.58 1512.17,-213.09 1540.37,-199.49"/>
<polygon fill="#63b8ff" stroke="#63b8ff" points="1542.09,-202.55 1549.56,-195.03 1539.03,-196.25 1542.09,-202.55"/>
</a>
</g>
</g>
<!-- Node24 -->
<g id="Node000024" class="node">
<title>Node24</title>
<g id="a_Node000024"><a xlink:href="data__structures_8hpp.html" target="_top" xlink:title=" ">
<polygon fill="white" stroke="#666666" points="790.26,-195 677.26,-195 677.26,-176 790.26,-176 790.26,-195"/>
<text text-anchor="middle" x="733.76" y="-183" font-family="Helvetica,sans-Serif" font-size="10.00">data_structures.hpp</text>
</a>
</g>
</g>
<!-- Node1&#45;&gt;Node24 -->
<g id="edge39_Node000001_Node000024" class="edge">
<title>Node1&#45;&gt;Node24</title>
<g id="a_edge39_Node000001_Node000024"><a xlink:title=" ">
<path fill="none" stroke="#63b8ff" d="M1156.18,-309.67C1074.91,-306.04 936.66,-293.33 826.76,-250 797.68,-238.54 768.66,-216.63 750.96,-201.79"/>
<polygon fill="#63b8ff" stroke="#63b8ff" points="753.09,-199.01 743.23,-195.15 748.53,-204.33 753.09,-199.01"/>
</a>
</g>
</g>
<!-- Node25 -->
<g id="Node000025" class="node">
<title>Node25</title>
<g id="a_Node000025"><a xlink:href="parallel__chunk_8hpp.html" target="_top" xlink:title=" ">
<polygon fill="white" stroke="#666666" points="1915.26,-195 1806.26,-195 1806.26,-176 1915.26,-176 1915.26,-195"/>
<text text-anchor="middle" x="1860.76" y="-183" font-family="Helvetica,sans-Serif" font-size="10.00">parallel_chunk.hpp</text>
</a>
</g>
</g>
<!-- Node1&#45;&gt;Node25 -->
<g id="edge45_Node000001_Node000025" class="edge">
<title>Node1&#45;&gt;Node25</title>
<g id="a_edge45_Node000001_Node000025"><a xlink:title=" ">
<path fill="none" stroke="#63b8ff" d="M1293.49,-308.78C1389.59,-304.25 1568.8,-290.64 1715.76,-250 1735.89,-244.43 1739.63,-239.4 1758.76,-231 1783.38,-220.19 1811.39,-207.97 1831.82,-199.08"/>
<polygon fill="#63b8ff" stroke="#63b8ff" points="1833.42,-202.2 1841.19,-195 1830.62,-195.78 1833.42,-202.2"/>
</a>
</g>
</g>
<!-- Node30 -->
<g id="Node000030" class="node">
<title>Node30</title>
<g id="a_Node000030"><a xlink:href="sub__chunk__strategies_8hpp.html" target="_top" xlink:title="Advanced sub&#45;chunking strategies for hierarchical data processing.">
<polygon fill="white" stroke="#666666" points="1396.26,-250 1253.26,-250 1253.26,-231 1396.26,-231 1396.26,-250"/>
<text text-anchor="middle" x="1324.76" y="-238" font-family="Helvetica,sans-Serif" font-size="10.00">sub_chunk_strategies.hpp</text>
</a>
</g>
</g>
<!-- Node1&#45;&gt;Node30 -->
<g id="edge53_Node000001_Node000030" class="edge">
<title>Node1&#45;&gt;Node30</title>
<g id="a_edge53_Node000001_Node000030"><a xlink:title=" ">
<path fill="none" stroke="#63b8ff" d="M1260.86,-285.91C1275.27,-275.9 1291.34,-264.72 1303.77,-256.09"/>
<polygon fill="#63b8ff" stroke="#63b8ff" points="1305.88,-258.88 1312.09,-250.3 1301.88,-253.14 1305.88,-258.88"/>
</a>
</g>
</g>
<!-- Node32 -->
<g id="Node000032" class="node">
<title>Node32</title>
<g id="a_Node000032"><a xlink:href="utils_8hpp.html" target="_top" xlink:title=" ">
<polygon fill="white" stroke="#666666" points="1452.26,-195 1393.26,-195 1393.26,-176 1452.26,-176 1452.26,-195"/>
<text text-anchor="middle" x="1422.76" y="-183" font-family="Helvetica,sans-Serif" font-size="10.00">utils.hpp</text>
</a>
</g>
</g>
<!-- Node1&#45;&gt;Node32 -->
<g id="edge61_Node000001_Node000032" class="edge">
<title>Node1&#45;&gt;Node32</title>
<g id="a_edge61_Node000001_Node000032"><a xlink:title=" ">
<path fill="none" stroke="#63b8ff" d="M1293.47,-303.71C1331.46,-296.2 1376.71,-280.95 1405.76,-250 1417.1,-237.92 1421.04,-219.12 1422.33,-205.1"/>
<polygon fill="#63b8ff" stroke="#63b8ff" points="1425.83,-205.29 1422.89,-195.11 1418.84,-204.9 1425.83,-205.29"/>
</a>
</g>
</g>
<!-- Node34 -->
<g id="Node000034" class="node">
<title>Node34</title>
<g id="a_Node000034"><a xlink:title=" ">
<polygon fill="#e0e0e0" stroke="#999999" points="1823.76,-250 1767.76,-250 1767.76,-231 1823.76,-231 1823.76,-250"/>
<text text-anchor="middle" x="1795.76" y="-238" font-family="Helvetica,sans-Serif" font-size="10.00">iomanip</text>
</a>
</g>
</g>
<!-- Node1&#45;&gt;Node34 -->
<g id="edge70_Node000001_Node000034" class="edge">
<title>Node1&#45;&gt;Node34</title>
<g id="a_edge70_Node000001_Node000034"><a xlink:title=" ">
<path fill="none" stroke="#63b8ff" d="M1293.49,-304.95C1394.64,-295.63 1589.4,-276.06 1753.76,-250 1754.86,-249.83 1755.98,-249.64 1757.1,-249.45"/>
<polygon fill="#63b8ff" stroke="#63b8ff" points="1758.14,-252.82 1767.35,-247.59 1756.88,-245.93 1758.14,-252.82"/>
</a>
</g>
</g>
<!-- Node35 -->
<g id="Node000035" class="node">
<title>Node35</title>
<g id="a_Node000035"><a xlink:title=" ">
<polygon fill="#e0e0e0" stroke="#999999" points="1901.76,-250 1841.76,-250 1841.76,-231 1901.76,-231 1901.76,-250"/>
<text text-anchor="middle" x="1871.76" y="-238" font-family="Helvetica,sans-Serif" font-size="10.00">iostream</text>
</a>
</g>
</g>
<!-- Node1&#45;&gt;Node35 -->
<g id="edge71_Node000001_Node000035" class="edge">
<title>Node1&#45;&gt;Node35</title>
<g id="a_edge71_Node000001_Node000035"><a xlink:title=" ">
<path fill="none" stroke="#63b8ff" d="M1293.47,-306.68C1404.6,-299.13 1630.73,-281.43 1831.44,-250.03"/>
<polygon fill="#63b8ff" stroke="#63b8ff" points="1832.26,-253.45 1841.59,-248.43 1831.16,-246.54 1832.26,-253.45"/>
</a>
</g>
</g>
<!-- Node3 -->
<g id="Node000003" class="node">
<title>Node3</title>
<g id="a_Node000003"><a xlink:title=" ">
<polygon fill="#e0e0e0" stroke="#999999" points="1107.76,-134.5 1043.76,-134.5 1043.76,-115.5 1107.76,-115.5 1107.76,-134.5"/>
<text text-anchor="middle" x="1075.76" y="-122.5" font-family="Helvetica,sans-Serif" font-size="10.00">algorithm</text>
</a>
</g>
</g>
<!-- Node2&#45;&gt;Node3 -->
<g id="edge2_Node000002_Node000003" class="edge">
<title>Node2&#45;&gt;Node3</title>
<g id="a_edge2_Node000002_Node000003"><a xlink:title=" ">
<path fill="none" stroke="#63b8ff" d="M653.38,-177.26C762.22,-165.9 963.69,-144.71 996.76,-140 1008.7,-138.3 1021.61,-136.15 1033.46,-134.04"/>
<polygon fill="#63b8ff" stroke="#63b8ff" points="1034.33,-137.44 1043.55,-132.22 1033.09,-130.55 1034.33,-137.44"/>
</a>
</g>
</g>
<!-- Node4 -->
<g id="Node000004" class="node">
<title>Node4</title>
<g id="a_Node000004"><a xlink:title=" ">
<polygon fill="#e0e0e0" stroke="#999999" points="271.26,-140 144.26,-140 144.26,-110 271.26,-110 271.26,-140"/>
<text text-anchor="start" x="152.26" y="-128" font-family="Helvetica,sans-Serif" font-size="10.00">boost/graph/adjacency</text>
<text text-anchor="middle" x="207.76" y="-117" font-family="Helvetica,sans-Serif" font-size="10.00">_list.hpp</text>
</a>
</g>
</g>
<!-- Node2&#45;&gt;Node4 -->
<g id="edge3_Node000002_Node000004" class="edge">
<title>Node2&#45;&gt;Node4</title>
<g id="a_edge3_Node000002_Node000004"><a xlink:title=" ">
<path fill="none" stroke="#63b8ff" d="M520.08,-175.97C460.9,-167.86 370.05,-154.93 281.39,-140.06"/>
<polygon fill="#63b8ff" stroke="#63b8ff" points="281.87,-136.59 271.43,-138.38 280.71,-143.5 281.87,-136.59"/>
</a>
</g>
</g>
<!-- Node5 -->
<g id="Node000005" class="node">
<title>Node5</title>
<g id="a_Node000005"><a xlink:title=" ">
<polygon fill="#e0e0e0" stroke="#999999" points="417.76,-140 289.76,-140 289.76,-110 417.76,-110 417.76,-140"/>
<text text-anchor="start" x="297.76" y="-128" font-family="Helvetica,sans-Serif" font-size="10.00">boost/graph/connected</text>
<text text-anchor="middle" x="353.76" y="-117" font-family="Helvetica,sans-Serif" font-size="10.00">_components.hpp</text>
</a>
</g>
</g>
<!-- Node2&#45;&gt;Node5 -->
<g id="edge4_Node000002_Node000005" class="edge">
<title>Node2&#45;&gt;Node5</title>
<g id="a_edge4_Node000002_Node000005"><a xlink:title=" ">
<path fill="none" stroke="#63b8ff" d="M550.31,-175.99C515.98,-167.26 461.68,-153.45 418.84,-142.55"/>
<polygon fill="#63b8ff" stroke="#63b8ff" points="419.61,-139.14 409.05,-140.06 417.88,-145.92 419.61,-139.14"/>
</a>
</g>
</g>
<!-- Node6 -->
<g id="Node000006" class="node">
<title>Node6</title>
<g id="a_Node000006"><a xlink:title=" ">
<polygon fill="#e0e0e0" stroke="#999999" points="877.26,-134.5 830.26,-134.5 830.26,-115.5 877.26,-115.5 877.26,-134.5"/>
<text text-anchor="middle" x="853.76" y="-122.5" font-family="Helvetica,sans-Serif" font-size="10.00">cmath</text>
</a>
</g>
</g>
<!-- Node2&#45;&gt;Node6 -->
<g id="edge5_Node000002_Node000006" class="edge">
<title>Node2&#45;&gt;Node6</title>
<g id="a_edge5_Node000002_Node000006"><a xlink:title=" ">
<path fill="none" stroke="#63b8ff" d="M650.06,-175.96C698.09,-168.84 764.25,-157.07 820.76,-140 822.44,-139.49 824.15,-138.93 825.86,-138.32"/>
<polygon fill="#63b8ff" stroke="#63b8ff" points="827.47,-141.45 835.52,-134.57 824.93,-134.93 827.47,-141.45"/>
</a>
</g>
</g>
<!-- Node7 -->
<g id="Node000007" class="node">
<title>Node7</title>
<g id="a_Node000007"><a xlink:title=" ">
<polygon fill="#e0e0e0" stroke="#999999" points="659.26,-134.5 612.26,-134.5 612.26,-115.5 659.26,-115.5 659.26,-134.5"/>
<text text-anchor="middle" x="635.76" y="-122.5" font-family="Helvetica,sans-Serif" font-size="10.00">deque</text>
</a>
</g>
</g>
<!-- Node2&#45;&gt;Node7 -->
<g id="edge6_Node000002_Node000007" class="edge">
<title>Node2&#45;&gt;Node7</title>
<g id="a_edge6_Node000002_Node000007"><a xlink:title=" ">
<path fill="none" stroke="#63b8ff" d="M591.43,-175.87C599.26,-167.05 611.62,-153.16 621.29,-142.27"/>
<polygon fill="#63b8ff" stroke="#63b8ff" points="624.02,-144.47 628.05,-134.67 618.79,-139.82 624.02,-144.47"/>
</a>
</g>
</g>
<!-- Node2&#45;&gt;Node8 -->
<g id="edge7_Node000002_Node000008" class="edge">
<title>Node2&#45;&gt;Node8</title>
<g id="a_edge7_Node000002_Node000008"><a xlink:title=" ">
<path fill="none" stroke="#63b8ff" d="M612.69,-175.99C647.33,-165.81 705.46,-148.72 743.96,-137.4"/>
<polygon fill="#63b8ff" stroke="#63b8ff" points="745.18,-140.7 753.79,-134.52 743.2,-133.98 745.18,-140.7"/>
</a>
</g>
</g>
<!-- Node9 -->
<g id="Node000009" class="node">
<title>Node9</title>
<g id="a_Node000009"><a xlink:title=" ">
<polygon fill="#e0e0e0" stroke="#999999" points="987.76,-134.5 933.76,-134.5 933.76,-115.5 987.76,-115.5 987.76,-134.5"/>
<text text-anchor="middle" x="960.76" y="-122.5" font-family="Helvetica,sans-Serif" font-size="10.00">random</text>
</a>
</g>
</g>
<!-- Node2&#45;&gt;Node9 -->
<g id="edge8_Node000002_Node000009" class="edge">
<title>Node2&#45;&gt;Node9</title>
<g id="a_edge8_Node000002_Node000009"><a xlink:title=" ">
<path fill="none" stroke="#63b8ff" d="M646.33,-175.99C707.48,-167.51 803.17,-153.79 885.76,-140 898.08,-137.94 911.51,-135.5 923.56,-133.23"/>
<polygon fill="#63b8ff" stroke="#63b8ff" points="924.55,-136.61 933.72,-131.3 923.25,-129.73 924.55,-136.61"/>
</a>
</g>
</g>
<!-- Node10 -->
<g id="Node000010" class="node">
<title>Node10</title>
<g id="a_Node000010"><a xlink:title=" ">
<polygon fill="#e0e0e0" stroke="#999999" points="479.26,-134.5 436.26,-134.5 436.26,-115.5 479.26,-115.5 479.26,-134.5"/>
<text text-anchor="middle" x="457.76" y="-122.5" font-family="Helvetica,sans-Serif" font-size="10.00">stack</text>
</a>
</g>
</g>
<!-- Node2&#45;&gt;Node10 -->
<g id="edge9_Node000002_Node000010" class="edge">
<title>Node2&#45;&gt;Node10</title>
<g id="a_edge9_Node000002_Node000010"><a xlink:title=" ">
<path fill="none" stroke="#63b8ff" d="M565.44,-175.99C544.35,-166.2 509.5,-150.02 485.17,-138.73"/>
<polygon fill="#63b8ff" stroke="#63b8ff" points="486.64,-135.55 476.1,-134.52 483.7,-141.9 486.64,-135.55"/>
</a>
</g>
</g>
<!-- Node11 -->
<g id="Node000011" class="node">
<title>Node11</title>
<g id="a_Node000011"><a xlink:title=" ">
<polygon fill="#e0e0e0" stroke="#999999" points="938.26,-74 873.26,-74 873.26,-55 938.26,-55 938.26,-74"/>
<text text-anchor="middle" x="905.76" y="-62" font-family="Helvetica,sans-Serif" font-size="10.00">stdexcept</text>
</a>
</g>
</g>
<!-- Node2&#45;&gt;Node11 -->
<g id="edge10_Node000002_Node000011" class="edge">
<title>Node2&#45;&gt;Node11</title>
<g id="a_edge10_Node000002_Node000011"><a xlink:title=" ">
<path fill="none" stroke="#63b8ff" d="M570.17,-175.97C548.88,-161.59 512.06,-131.95 531.76,-110 579.43,-56.87 774.73,-83.17 863.25,-73.69"/>
<polygon fill="#63b8ff" stroke="#63b8ff" points="863.79,-77.15 873.25,-72.38 862.88,-70.21 863.79,-77.15"/>
</a>
</g>
</g>
<!-- Node12 -->
<g id="Node000012" class="node">
<title>Node12</title>
<g id="a_Node000012"><a xlink:title=" ">
<polygon fill="#e0e0e0" stroke="#999999" points="1275.76,-74 1231.76,-74 1231.76,-55 1275.76,-55 1275.76,-74"/>
<text text-anchor="middle" x="1253.76" y="-62" font-family="Helvetica,sans-Serif" font-size="10.00">string</text>
</a>
</g>
</g>
<!-- Node2&#45;&gt;Node12 -->
<g id="edge11_Node000002_Node000012" class="edge">
<title>Node2&#45;&gt;Node12</title>
<g id="a_edge11_Node000002_Node000012"><a xlink:title=" ">
<path fill="none" stroke="#63b8ff" d="M578.02,-175.82C568.62,-160.41 552.59,-128.18 569.76,-110 617.74,-59.18 1128.24,-81.25 1197.76,-74 1205.58,-73.18 1213.98,-72.05 1221.83,-70.87"/>
<polygon fill="#63b8ff" stroke="#63b8ff" points="1222.4,-74.33 1231.74,-69.33 1221.32,-67.41 1222.4,-74.33"/>
</a>
</g>
</g>
<!-- Node13 -->
<g id="Node000013" class="node">
<title>Node13</title>
<g id="a_Node000013"><a xlink:title=" ">
<polygon fill="#e0e0e0" stroke="#999999" points="126.26,-134.5 33.26,-134.5 33.26,-115.5 126.26,-115.5 126.26,-134.5"/>
<text text-anchor="middle" x="79.76" y="-122.5" font-family="Helvetica,sans-Serif" font-size="10.00">unordered_map</text>
</a>
</g>
</g>
<!-- Node2&#45;&gt;Node13 -->
<g id="edge12_Node000002_Node000013" class="edge">
<title>Node2&#45;&gt;Node13</title>
<g id="a_edge12_Node000002_Node000013"><a xlink:title=" ">
<path fill="none" stroke="#63b8ff" d="M514.09,-180.85C425.44,-175.47 267.84,-163.4 134.76,-140 129.92,-139.15 124.88,-138.1 119.89,-136.96"/>
<polygon fill="#63b8ff" stroke="#63b8ff" points="120.38,-133.48 109.84,-134.53 118.74,-140.28 120.38,-133.48"/>
</a>
</g>
</g>
<!-- Node2&#45;&gt;Node14 -->
<g id="edge13_Node000002_Node000014" class="edge">
<title>Node2&#45;&gt;Node14</title>
<g id="a_edge13_Node000002_Node000014"><a xlink:title=" ">
<path fill="none" stroke="#63b8ff" d="M583.01,-175.91C582.16,-160.03 582.94,-126.25 602.76,-110 661.43,-61.88 1209.01,-78.55 1284.76,-74 1315.97,-72.12 1351.51,-69.7 1376.87,-67.92"/>
<polygon fill="#63b8ff" stroke="#63b8ff" points="1377.35,-71.4 1387.08,-67.2 1376.85,-64.41 1377.35,-71.4"/>
</a>
</g>
</g>
<!-- Node15&#45;&gt;Node11 -->
<g id="edge16_Node000015_Node000011" class="edge">
<title>Node15&#45;&gt;Node11</title>
<g id="a_edge16_Node000015_Node000011"><a xlink:title=" ">
<path fill="none" stroke="#63b8ff" d="M1229.85,-115.42C1223.69,-113.43 1217.03,-111.47 1210.76,-110 1118.59,-88.44 1008.18,-75.43 948.74,-69.45"/>
<polygon fill="#63b8ff" stroke="#63b8ff" points="948.89,-65.94 938.6,-68.44 948.21,-72.91 948.89,-65.94"/>
</a>
</g>
</g>
<!-- Node15&#45;&gt;Node12 -->
<g id="edge17_Node000015_Node000012" class="edge">
<title>Node15&#45;&gt;Node12</title>
<g id="a_edge17_Node000015_Node000012"><a xlink:title=" ">
<path fill="none" stroke="#63b8ff" d="M1253.76,-115.37C1253.76,-107.25 1253.76,-94.81 1253.76,-84.39"/>
<polygon fill="#63b8ff" stroke="#63b8ff" points="1257.26,-84.17 1253.76,-74.17 1250.26,-84.17 1257.26,-84.17"/>
</a>
</g>
</g>
<!-- Node15&#45;&gt;Node14 -->
<g id="edge18_Node000015_Node000014" class="edge">
<title>Node15&#45;&gt;Node14</title>
<g id="a_edge18_Node000015_Node000014"><a xlink:title=" ">
<path fill="none" stroke="#63b8ff" d="M1276.59,-115.49C1303.33,-105.53 1347.83,-88.95 1378.19,-77.63"/>
<polygon fill="#63b8ff" stroke="#63b8ff" points="1379.75,-80.79 1387.9,-74.02 1377.31,-74.23 1379.75,-80.79"/>
</a>
</g>
</g>
<!-- Node15&#45;&gt;Node16 -->
<g id="edge15_Node000015_Node000016" class="edge">
<title>Node15&#45;&gt;Node16</title>
<g id="a_edge15_Node000015_Node000016"><a xlink:title=" ">
<path fill="none" stroke="#63b8ff" d="M1240.03,-115.37C1225.06,-105.95 1200.86,-90.73 1183.13,-79.58"/>
<polygon fill="#63b8ff" stroke="#63b8ff" points="1184.86,-76.53 1174.54,-74.17 1181.14,-82.45 1184.86,-76.53"/>
</a>
</g>
</g>
<!-- Node15&#45;&gt;Node17 -->
<g id="edge19_Node000015_Node000017" class="edge">
<title>Node15&#45;&gt;Node17</title>
<g id="a_edge19_Node000015_Node000017"><a xlink:title=" ">
<path fill="none" stroke="#63b8ff" d="M1230.34,-115.39C1224.06,-113.35 1217.21,-111.37 1210.76,-110 1062.34,-78.51 1018.89,-96.59 865.87,-74.18"/>
<polygon fill="#63b8ff" stroke="#63b8ff" points="866.04,-70.67 855.63,-72.65 865,-77.59 866.04,-70.67"/>
</a>
</g>
</g>
<!-- Node18 -->
<g id="Node000018" class="node">
<title>Node18</title>
<g id="a_Node000018"><a xlink:title=" ">
<polygon fill="#e0e0e0" stroke="#999999" points="1326.26,-19 1273.26,-19 1273.26,0 1326.26,0 1326.26,-19"/>
<text text-anchor="middle" x="1299.76" y="-7" font-family="Helvetica,sans-Serif" font-size="10.00">cstddef</text>
</a>
</g>
</g>
<!-- Node17&#45;&gt;Node18 -->
<g id="edge20_Node000017_Node000018" class="edge">
<title>Node17&#45;&gt;Node18</title>
<g id="a_edge20_Node000017_Node000018"><a xlink:title=" ">
<path fill="none" stroke="#63b8ff" d="M855.63,-56.35C858.38,-55.86 861.11,-55.4 863.76,-55 1010.74,-32.68 1187.34,-18.51 1262.73,-13.05"/>
<polygon fill="#63b8ff" stroke="#63b8ff" points="1263.38,-16.51 1273.1,-12.31 1262.88,-9.53 1263.38,-16.51"/>
</a>
</g>
</g>
<!-- Node19&#45;&gt;Node3 -->
<g id="edge22_Node000019_Node000003" class="edge">
<title>Node19&#45;&gt;Node3</title>
<g id="a_edge22_Node000019_Node000003"><a xlink:title=" ">
<path fill="none" stroke="#63b8ff" d="M1002.45,-175.87C1016.17,-166.54 1038.26,-151.51 1054.61,-140.38"/>
<polygon fill="#63b8ff" stroke="#63b8ff" points="1056.72,-143.19 1063.02,-134.67 1052.78,-137.4 1056.72,-143.19"/>
</a>
</g>
</g>
<!-- Node19&#45;&gt;Node6 -->
<g id="edge23_Node000019_Node000006" class="edge">
<title>Node19&#45;&gt;Node6</title>
<g id="a_edge23_Node000019_Node000006"><a xlink:title=" ">
<path fill="none" stroke="#63b8ff" d="M969.98,-175.99C947.12,-166.16 909.27,-149.88 883,-138.58"/>
<polygon fill="#63b8ff" stroke="#63b8ff" points="884.13,-135.25 873.56,-134.52 881.36,-141.68 884.13,-135.25"/>
</a>
</g>
</g>
<!-- Node19&#45;&gt;Node14 -->
<g id="edge24_Node000019_Node000014" class="edge">
<title>Node19&#45;&gt;Node14</title>
<g id="a_edge24_Node000019_Node000014"><a xlink:title=" ">
<path fill="none" stroke="#63b8ff" d="M992.22,-175.81C997.25,-159.77 1010.37,-125.72 1034.76,-110 1063.26,-91.62 1290.2,-73.95 1377.08,-67.8"/>
<polygon fill="#63b8ff" stroke="#63b8ff" points="1377.47,-71.28 1387.2,-67.09 1376.98,-64.29 1377.47,-71.28"/>
</a>
</g>
</g>
<!-- Node20&#45;&gt;Node3 -->
<g id="edge27_Node000020_Node000003" class="edge">
<title>Node20&#45;&gt;Node3</title>
<g id="a_edge27_Node000020_Node000003"><a xlink:title=" ">
<path fill="none" stroke="#63b8ff" d="M1126.9,-175.87C1117.78,-166.97 1103.33,-152.89 1092.12,-141.95"/>
<polygon fill="#63b8ff" stroke="#63b8ff" points="1094.25,-139.14 1084.65,-134.67 1089.36,-144.15 1094.25,-139.14"/>
</a>
</g>
</g>
<!-- Node20&#45;&gt;Node6 -->
<g id="edge28_Node000020_Node000006" class="edge">
<title>Node20&#45;&gt;Node6</title>
<g id="a_edge28_Node000020_Node000006"><a xlink:title=" ">
<path fill="none" stroke="#63b8ff" d="M1075.19,-176.43C1025.42,-169.09 953.34,-156.82 891.76,-140 889.32,-139.34 886.83,-138.58 884.33,-137.78"/>
<polygon fill="#63b8ff" stroke="#63b8ff" points="885.45,-134.46 874.85,-134.51 883.16,-141.08 885.45,-134.46"/>
</a>
</g>
</g>
<!-- Node20&#45;&gt;Node11 -->
<g id="edge32_Node000020_Node000011" class="edge">
<title>Node20&#45;&gt;Node11</title>
<g id="a_edge32_Node000020_Node000011"><a xlink:title=" ">
<path fill="none" stroke="#63b8ff" d="M1080.81,-175.98C1022.13,-166.41 936.02,-150.8 924.76,-140 909.88,-125.74 906.04,-101.58 905.33,-84.66"/>
<polygon fill="#63b8ff" stroke="#63b8ff" points="908.83,-84.27 905.24,-74.3 901.83,-84.33 908.83,-84.27"/>
</a>
</g>
</g>
<!-- Node20&#45;&gt;Node14 -->
<g id="edge33_Node000020_Node000014" class="edge">
<title>Node20&#45;&gt;Node14</title>
<g id="a_edge33_Node000020_Node000014"><a xlink:title=" ">
<path fill="none" stroke="#63b8ff" d="M1180.78,-175.97C1213.8,-168.79 1259.23,-156.95 1296.76,-140 1332.74,-123.75 1370.29,-97 1392.05,-80.36"/>
<polygon fill="#63b8ff" stroke="#63b8ff" points="1394.34,-83.01 1400.1,-74.11 1390.05,-77.48 1394.34,-83.01"/>
</a>
</g>
</g>
<!-- Node20&#45;&gt;Node15 -->
<g id="edge26_Node000020_Node000015" class="edge">
<title>Node20&#45;&gt;Node15</title>
<g id="a_edge26_Node000020_Node000015"><a xlink:title=" ">
<path fill="none" stroke="#63b8ff" d="M1152.92,-175.99C1172.49,-166.29 1204.73,-150.31 1227.47,-139.03"/>
<polygon fill="#63b8ff" stroke="#63b8ff" points="1229.17,-142.09 1236.58,-134.52 1226.06,-135.82 1229.17,-142.09"/>
</a>
</g>
</g>
<!-- Node20&#45;&gt;Node16 -->
<g id="edge31_Node000020_Node000016" class="edge">
<title>Node20&#45;&gt;Node16</title>
<g id="a_edge31_Node000020_Node000016"><a xlink:title=" ">
<path fill="none" stroke="#63b8ff" d="M1137.55,-175.94C1141.57,-156.82 1151.35,-110.27 1156.84,-84.12"/>
<polygon fill="#63b8ff" stroke="#63b8ff" points="1160.28,-84.81 1158.91,-74.3 1153.43,-83.37 1160.28,-84.81"/>
</a>
</g>
</g>
<!-- Node21 -->
<g id="Node000021" class="node">
<title>Node21</title>
<g id="a_Node000021"><a xlink:title=" ">
<polygon fill="#e0e0e0" stroke="#999999" points="1597.26,-134.5 1532.26,-134.5 1532.26,-115.5 1597.26,-115.5 1597.26,-134.5"/>
<text text-anchor="middle" x="1564.76" y="-122.5" font-family="Helvetica,sans-Serif" font-size="10.00">functional</text>
</a>
</g>
</g>
<!-- Node20&#45;&gt;Node21 -->
<g id="edge29_Node000020_Node000021" class="edge">
<title>Node20&#45;&gt;Node21</title>
<g id="a_edge29_Node000020_Node000021"><a xlink:title=" ">
<path fill="none" stroke="#63b8ff" d="M1196.34,-179.08C1289.13,-170.52 1462.09,-153.45 1522.76,-140 1525.81,-139.32 1528.95,-138.51 1532.08,-137.62"/>
<polygon fill="#63b8ff" stroke="#63b8ff" points="1533.38,-140.88 1541.89,-134.58 1531.3,-134.19 1533.38,-140.88"/>
</a>
</g>
</g>
<!-- Node22 -->
<g id="Node000022" class="node">
<title>Node22</title>
<g id="a_Node000022"><a xlink:title=" ">
<polygon fill="#e0e0e0" stroke="#999999" points="1201.76,-134.5 1163.76,-134.5 1163.76,-115.5 1201.76,-115.5 1201.76,-134.5"/>
<text text-anchor="middle" x="1182.76" y="-122.5" font-family="Helvetica,sans-Serif" font-size="10.00">map</text>
</a>
</g>
</g>
<!-- Node20&#45;&gt;Node22 -->
<g id="edge30_Node000020_Node000022" class="edge">
<title>Node20&#45;&gt;Node22</title>
<g id="a_edge30_Node000020_Node000022"><a xlink:title=" ">
<path fill="none" stroke="#63b8ff" d="M1142.69,-175.87C1149.7,-167.14 1160.72,-153.43 1169.43,-142.59"/>
<polygon fill="#63b8ff" stroke="#63b8ff" points="1172.26,-144.66 1175.79,-134.67 1166.8,-140.27 1172.26,-144.66"/>
</a>
</g>
</g>
<!-- Node23&#45;&gt;Node14 -->
<g id="edge37_Node000023_Node000014" class="edge">
<title>Node23&#45;&gt;Node14</title>
<g id="a_edge37_Node000023_Node000014"><a xlink:title=" ">
<path fill="none" stroke="#63b8ff" d="M1577.64,-175.86C1594.65,-161.32 1623.89,-131.45 1606.76,-110 1586.84,-85.05 1495.26,-73.03 1444.63,-68.21"/>
<polygon fill="#63b8ff" stroke="#63b8ff" points="1444.77,-64.7 1434.49,-67.28 1444.14,-71.68 1444.77,-64.7"/>
</a>
</g>
</g>
<!-- Node23&#45;&gt;Node15 -->
<g id="edge35_Node000023_Node000015" class="edge">
<title>Node23&#45;&gt;Node15</title>
<g id="a_edge35_Node000023_Node000015"><a xlink:title=" ">
<path fill="none" stroke="#63b8ff" d="M1521.24,-175.99C1461.26,-164.78 1356.47,-145.2 1297.43,-134.16"/>
<polygon fill="#63b8ff" stroke="#63b8ff" points="1297.78,-130.67 1287.31,-132.27 1296.49,-137.55 1297.78,-130.67"/>
</a>
</g>
</g>
<!-- Node23&#45;&gt;Node21 -->
<g id="edge36_Node000023_Node000021" class="edge">
<title>Node23&#45;&gt;Node21</title>
<g id="a_edge36_Node000023_Node000021"><a xlink:title=" ">
<path fill="none" stroke="#63b8ff" d="M1566.46,-175.87C1566.18,-167.75 1565.76,-155.31 1565.4,-144.89"/>
<polygon fill="#63b8ff" stroke="#63b8ff" points="1568.89,-144.54 1565.05,-134.67 1561.9,-144.78 1568.89,-144.54"/>
</a>
</g>
</g>
<!-- Node24&#45;&gt;Node7 -->
<g id="edge40_Node000024_Node000007" class="edge">
<title>Node24&#45;&gt;Node7</title>
<g id="a_edge40_Node000024_Node000007"><a xlink:title=" ">
<path fill="none" stroke="#63b8ff" d="M719.3,-175.87C703.45,-166.41 677.78,-151.09 659.08,-139.92"/>
<polygon fill="#63b8ff" stroke="#63b8ff" points="660.66,-136.79 650.28,-134.67 657.07,-142.8 660.66,-136.79"/>
</a>
</g>
</g>
<!-- Node24&#45;&gt;Node8 -->
<g id="edge42_Node000024_Node000008" class="edge">
<title>Node24&#45;&gt;Node8</title>
<g id="a_edge42_Node000024_Node000008"><a xlink:title=" ">
<path fill="none" stroke="#63b8ff" d="M740.99,-175.87C748.3,-167.14 759.78,-153.43 768.86,-142.59"/>
<polygon fill="#63b8ff" stroke="#63b8ff" points="771.76,-144.58 775.5,-134.67 766.39,-140.09 771.76,-144.58"/>
</a>
</g>
</g>
<!-- Node24&#45;&gt;Node11 -->
<g id="edge43_Node000024_Node000011" class="edge">
<title>Node24&#45;&gt;Node11</title>
<g id="a_edge43_Node000024_Node000011"><a xlink:title=" ">
<path fill="none" stroke="#63b8ff" d="M726.58,-175.72C715.23,-160.71 695.96,-129.83 711.76,-110 714.14,-107 806.44,-86.78 862.85,-74.65"/>
<polygon fill="#63b8ff" stroke="#63b8ff" points="863.89,-78.01 872.94,-72.49 862.42,-71.16 863.89,-78.01"/>
</a>
</g>
</g>
<!-- Node24&#45;&gt;Node14 -->
<g id="edge44_Node000024_Node000014" class="edge">
<title>Node24&#45;&gt;Node14</title>
<g id="a_edge44_Node000024_Node000014"><a xlink:title=" ">
<path fill="none" stroke="#63b8ff" d="M731.98,-175.81C729.32,-160.07 726.41,-126.94 744.76,-110 788.94,-69.21 1224.76,-78.02 1284.76,-74 1315.96,-71.91 1351.5,-69.51 1376.87,-67.79"/>
<polygon fill="#63b8ff" stroke="#63b8ff" points="1377.33,-71.27 1387.07,-67.1 1376.86,-64.29 1377.33,-71.27"/>
</a>
</g>
</g>
<!-- Node24&#45;&gt;Node21 -->
<g id="edge41_Node000024_Node000021" class="edge">
<title>Node24&#45;&gt;Node21</title>
<g id="a_edge41_Node000024_Node000021"><a xlink:title=" ">
<path fill="none" stroke="#63b8ff" d="M790.33,-181.72C965.11,-173.08 1486.9,-146.86 1522.76,-140 1526.18,-139.34 1529.71,-138.48 1533.2,-137.51"/>
<polygon fill="#63b8ff" stroke="#63b8ff" points="1534.3,-140.83 1542.82,-134.53 1532.23,-134.14 1534.3,-140.83"/>
</a>
</g>
</g>
<!-- Node25&#45;&gt;Node14 -->
<g id="edge52_Node000025_Node000014" class="edge">
<title>Node25&#45;&gt;Node14</title>
<g id="a_edge52_Node000025_Node000014"><a xlink:title=" ">
<path fill="none" stroke="#63b8ff" d="M1847.8,-175.97C1823.2,-160.19 1767.51,-126.56 1715.76,-110 1620.48,-79.51 1501.7,-69.82 1444.56,-66.81"/>
<polygon fill="#63b8ff" stroke="#63b8ff" points="1444.46,-63.3 1434.3,-66.31 1444.12,-70.29 1444.46,-63.3"/>
</a>
</g>
</g>
<!-- Node25&#45;&gt;Node15 -->
<g id="edge46_Node000025_Node000015" class="edge">
<title>Node25&#45;&gt;Node15</title>
<g id="a_edge46_Node000025_Node000015"><a xlink:title=" ">
<path fill="none" stroke="#63b8ff" d="M1806.09,-179.23C1687.07,-167.76 1406.5,-140.72 1297.83,-130.25"/>
<polygon fill="#63b8ff" stroke="#63b8ff" points="1297.85,-126.73 1287.56,-129.26 1297.17,-133.7 1297.85,-126.73"/>
</a>
</g>
</g>
<!-- Node25&#45;&gt;Node21 -->
<g id="edge48_Node000025_Node000021" class="edge">
<title>Node25&#45;&gt;Node21</title>
<g id="a_edge48_Node000025_Node000021"><a xlink:title=" ">
<path fill="none" stroke="#63b8ff" d="M1817.72,-175.99C1761.41,-164.87 1663.36,-145.49 1607.3,-134.41"/>
<polygon fill="#63b8ff" stroke="#63b8ff" points="1607.83,-130.95 1597.34,-132.44 1606.47,-137.81 1607.83,-130.95"/>
</a>
</g>
</g>
<!-- Node26 -->
<g id="Node000026" class="node">
<title>Node26</title>
<g id="a_Node000026"><a xlink:title=" ">
<polygon fill="#e0e0e0" stroke="#999999" points="1937.26,-134.5 1872.26,-134.5 1872.26,-115.5 1937.26,-115.5 1937.26,-134.5"/>
<text text-anchor="middle" x="1904.76" y="-122.5" font-family="Helvetica,sans-Serif" font-size="10.00">exception</text>
</a>
</g>
</g>
<!-- Node25&#45;&gt;Node26 -->
<g id="edge47_Node000025_Node000026" class="edge">
<title>Node25&#45;&gt;Node26</title>
<g id="a_edge47_Node000025_Node000026"><a xlink:title=" ">
<path fill="none" stroke="#63b8ff" d="M1867.25,-175.87C1873.75,-167.23 1883.92,-153.7 1892.03,-142.92"/>
<polygon fill="#63b8ff" stroke="#63b8ff" points="1895.02,-144.76 1898.24,-134.67 1889.43,-140.56 1895.02,-144.76"/>
</a>
</g>
</g>
<!-- Node27 -->
<g id="Node000027" class="node">
<title>Node27</title>
<g id="a_Node000027"><a xlink:title=" ">
<polygon fill="#e0e0e0" stroke="#999999" points="2001.76,-134.5 1955.76,-134.5 1955.76,-115.5 2001.76,-115.5 2001.76,-134.5"/>
<text text-anchor="middle" x="1978.76" y="-122.5" font-family="Helvetica,sans-Serif" font-size="10.00">future</text>
</a>
</g>
</g>
<!-- Node25&#45;&gt;Node27 -->
<g id="edge49_Node000025_Node000027" class="edge">
<title>Node25&#45;&gt;Node27</title>
<g id="a_edge49_Node000025_Node000027"><a xlink:title=" ">
<path fill="none" stroke="#63b8ff" d="M1877.92,-175.99C1897.49,-166.29 1929.73,-150.31 1952.47,-139.03"/>
<polygon fill="#63b8ff" stroke="#63b8ff" points="1954.17,-142.09 1961.58,-134.52 1951.06,-135.82 1954.17,-142.09"/>
</a>
</g>
</g>
<!-- Node28 -->
<g id="Node000028" class="node">
<title>Node28</title>
<g id="a_Node000028"><a xlink:title=" ">
<polygon fill="#e0e0e0" stroke="#999999" points="2067.76,-134.5 2019.76,-134.5 2019.76,-115.5 2067.76,-115.5 2067.76,-134.5"/>
<text text-anchor="middle" x="2043.76" y="-122.5" font-family="Helvetica,sans-Serif" font-size="10.00">mutex</text>
</a>
</g>
</g>
<!-- Node25&#45;&gt;Node28 -->
<g id="edge50_Node000025_Node000028" class="edge">
<title>Node25&#45;&gt;Node28</title>
<g id="a_edge50_Node000025_Node000028"><a xlink:title=" ">
<path fill="none" stroke="#63b8ff" d="M1893.28,-175.99C1923.9,-167.71 1970.88,-154.32 2010.76,-140 2012.18,-139.49 2013.64,-138.95 2015.1,-138.38"/>
<polygon fill="#63b8ff" stroke="#63b8ff" points="2016.74,-141.5 2024.71,-134.51 2014.12,-135.01 2016.74,-141.5"/>
</a>
</g>
</g>
<!-- Node29 -->
<g id="Node000029" class="node">
<title>Node29</title>
<g id="a_Node000029"><a xlink:title=" ">
<polygon fill="#e0e0e0" stroke="#999999" points="1853.76,-134.5 1805.76,-134.5 1805.76,-115.5 1853.76,-115.5 1853.76,-134.5"/>
<text text-anchor="middle" x="1829.76" y="-122.5" font-family="Helvetica,sans-Serif" font-size="10.00">thread</text>
</a>
</g>
</g>
<!-- Node25&#45;&gt;Node29 -->
<g id="edge51_Node000025_Node000029" class="edge">
<title>Node25&#45;&gt;Node29</title>
<g id="a_edge51_Node000025_Node000029"><a xlink:title=" ">
<path fill="none" stroke="#63b8ff" d="M1856.18,-175.87C1851.7,-167.4 1844.72,-154.24 1839.07,-143.57"/>
<polygon fill="#63b8ff" stroke="#63b8ff" points="1842.12,-141.86 1834.35,-134.67 1835.94,-145.14 1842.12,-141.86"/>
</a>
</g>
</g>
<!-- Node30&#45;&gt;Node3 -->
<g id="edge55_Node000030_Node000003" class="edge">
<title>Node30&#45;&gt;Node3</title>
<g id="a_edge55_Node000030_Node000003"><a xlink:title=" ">
<path fill="none" stroke="#63b8ff" d="M1332.39,-230.72C1342.96,-217.49 1359.27,-192.25 1345.76,-176 1343.93,-173.8 1193.39,-146.85 1117.92,-133.46"/>
<polygon fill="#63b8ff" stroke="#63b8ff" points="1118.25,-129.96 1107.79,-131.66 1117.02,-136.85 1118.25,-129.96"/>
</a>
</g>
</g>
<!-- Node30&#45;&gt;Node8 -->
<g id="edge59_Node000030_Node000008" class="edge">
<title>Node30&#45;&gt;Node8</title>
<g id="a_edge59_Node000030_Node000008"><a xlink:title=" ">
<path fill="none" stroke="#63b8ff" d="M1252.96,-239.81C1169.62,-238.35 1028.91,-230.16 913.76,-195 872.34,-182.35 828.7,-156.47 803.7,-140.25"/>
<polygon fill="#63b8ff" stroke="#63b8ff" points="805.35,-137.14 795.07,-134.55 801.49,-142.98 805.35,-137.14"/>
</a>
</g>
</g>
<!-- Node30&#45;&gt;Node14 -->
<g id="edge60_Node000030_Node000014" class="edge">
<title>Node30&#45;&gt;Node14</title>
<g id="a_edge60_Node000030_Node000014"><a xlink:title=" ">
<path fill="none" stroke="#63b8ff" d="M1396.45,-239.58C1477.97,-237.97 1603.68,-229.72 1633.76,-195 1648.54,-177.94 1658.75,-147.53 1622.76,-110 1598.6,-84.81 1498.01,-72.75 1444.53,-68.03"/>
<polygon fill="#63b8ff" stroke="#63b8ff" points="1444.76,-64.54 1434.5,-67.18 1444.17,-71.51 1444.76,-64.54"/>
</a>
</g>
</g>
<!-- Node30&#45;&gt;Node18 -->
<g id="edge56_Node000030_Node000018" class="edge">
<title>Node30&#45;&gt;Node18</title>
<g id="a_edge56_Node000030_Node000018"><a xlink:title=" ">
<path fill="none" stroke="#63b8ff" d="M1396.27,-240.3C1482.56,-239.56 1620.15,-232.33 1652.76,-195 1749.06,-84.75 1444.69,-30.67 1336.46,-15.26"/>
<polygon fill="#63b8ff" stroke="#63b8ff" points="1336.71,-11.76 1326.32,-13.85 1335.75,-18.69 1336.71,-11.76"/>
</a>
</g>
</g>
<!-- Node30&#45;&gt;Node20 -->
<g id="edge54_Node000030_Node000020" class="edge">
<title>Node30&#45;&gt;Node20</title>
<g id="a_edge54_Node000030_Node000020"><a xlink:title=" ">
<path fill="none" stroke="#63b8ff" d="M1294.39,-230.98C1262.39,-222.01 1211.8,-207.82 1176.37,-197.89"/>
<polygon fill="#63b8ff" stroke="#63b8ff" points="1176.93,-194.41 1166.36,-195.08 1175.04,-201.15 1176.93,-194.41"/>
</a>
</g>
</g>
<!-- Node30&#45;&gt;Node21 -->
<g id="edge57_Node000030_Node000021" class="edge">
<title>Node30&#45;&gt;Node21</title>
<g id="a_edge57_Node000030_Node000021"><a xlink:title=" ">
<path fill="none" stroke="#63b8ff" d="M1359.84,-230.98C1388.15,-223.43 1428.58,-211.12 1461.76,-195 1493.29,-179.68 1526.4,-155.92 1546.31,-140.66"/>
<polygon fill="#63b8ff" stroke="#63b8ff" points="1548.49,-143.4 1554.23,-134.5 1544.19,-137.88 1548.49,-143.4"/>
</a>
</g>
</g>
<!-- Node31 -->
<g id="Node000031" class="node">
<title>Node31</title>
<g id="a_Node000031"><a xlink:title=" ">
<polygon fill="#e0e0e0" stroke="#999999" points="1336.26,-195 1253.26,-195 1253.26,-176 1336.26,-176 1336.26,-195"/>
<text text-anchor="middle" x="1294.76" y="-183" font-family="Helvetica,sans-Serif" font-size="10.00">initializer_list</text>
</a>
</g>
</g>
<!-- Node30&#45;&gt;Node31 -->
<g id="edge58_Node000030_Node000031" class="edge">
<title>Node30&#45;&gt;Node31</title>
<g id="a_edge58_Node000030_Node000031"><a xlink:title=" ">
<path fill="none" stroke="#63b8ff" d="M1319.8,-230.75C1315.7,-223.49 1309.73,-212.95 1304.65,-203.98"/>
<polygon fill="#63b8ff" stroke="#63b8ff" points="1307.59,-202.07 1299.62,-195.09 1301.5,-205.52 1307.59,-202.07"/>
</a>
</g>
</g>
<!-- Node32&#45;&gt;Node3 -->
<g id="edge62_Node000032_Node000003" class="edge">
<title>Node32&#45;&gt;Node3</title>
<g id="a_edge62_Node000032_Node000003"><a xlink:title=" ">
<path fill="none" stroke="#63b8ff" d="M1392.96,-178.61C1388.21,-177.71 1383.35,-176.81 1378.76,-176 1279.47,-158.44 1254.18,-156.8 1154.76,-140 1142.86,-137.99 1129.97,-135.74 1118.12,-133.64"/>
<polygon fill="#63b8ff" stroke="#63b8ff" points="1118.48,-130.15 1108.02,-131.84 1117.25,-137.04 1118.48,-130.15"/>
</a>
</g>
</g>
<!-- Node32&#45;&gt;Node9 -->
<g id="edge66_Node000032_Node000009" class="edge">
<title>Node32&#45;&gt;Node9</title>
<g id="a_edge66_Node000032_Node000009"><a xlink:title=" ">
<path fill="none" stroke="#63b8ff" d="M1393.09,-181.22C1308.49,-171.86 1069.95,-145.34 1034.76,-140 1022.76,-138.18 1009.73,-135.84 998,-133.59"/>
<polygon fill="#63b8ff" stroke="#63b8ff" points="998.57,-130.14 988.09,-131.66 997.23,-137.01 998.57,-130.14"/>
</a>
</g>
</g>
<!-- Node32&#45;&gt;Node12 -->
<g id="edge68_Node000032_Node000012" class="edge">
<title>Node32&#45;&gt;Node12</title>
<g id="a_edge68_Node000032_Node000012"><a xlink:title=" ">
<path fill="none" stroke="#63b8ff" d="M1413.08,-175.96C1396.56,-161.57 1361.63,-131.93 1329.76,-110 1313.27,-98.66 1293.79,-87.29 1278.67,-78.88"/>
<polygon fill="#63b8ff" stroke="#63b8ff" points="1280.34,-75.8 1269.89,-74.05 1276.97,-81.94 1280.34,-75.8"/>
</a>
</g>
</g>
<!-- Node32&#45;&gt;Node14 -->
<g id="edge69_Node000032_Node000014" class="edge">
<title>Node32&#45;&gt;Node14</title>
<g id="a_edge69_Node000032_Node000014"><a xlink:title=" ">
<path fill="none" stroke="#63b8ff" d="M1421.89,-175.94C1419.97,-156.91 1415.31,-110.69 1412.67,-84.47"/>
<polygon fill="#63b8ff" stroke="#63b8ff" points="1416.13,-83.9 1411.64,-74.3 1409.17,-84.6 1416.13,-83.9"/>
</a>
</g>
</g>
<!-- Node32&#45;&gt;Node16 -->
<g id="edge65_Node000032_Node000016" class="edge">
<title>Node32&#45;&gt;Node16</title>
<g id="a_edge65_Node000032_Node000016"><a xlink:title=" ">
<path fill="none" stroke="#63b8ff" d="M1400.36,-175.95C1380.89,-168.02 1352.33,-155.18 1329.76,-140 1313.31,-128.94 1313.89,-119.97 1296.76,-110 1265.97,-92.08 1227,-80.28 1198.68,-73.36"/>
<polygon fill="#63b8ff" stroke="#63b8ff" points="1199.3,-69.91 1188.76,-71.03 1197.69,-76.72 1199.3,-69.91"/>
</a>
</g>
</g>
<!-- Node32&#45;&gt;Node21 -->
<g id="edge63_Node000032_Node000021" class="edge">
<title>Node32&#45;&gt;Node21</title>
<g id="a_edge63_Node000032_Node000021"><a xlink:title=" ">
<path fill="none" stroke="#63b8ff" d="M1443.4,-175.99C1467.38,-166.12 1507.15,-149.73 1534.58,-138.43"/>
<polygon fill="#63b8ff" stroke="#63b8ff" points="1536.17,-141.56 1544.08,-134.52 1533.5,-135.09 1536.17,-141.56"/>
</a>
</g>
</g>
<!-- Node32&#45;&gt;Node22 -->
<g id="edge64_Node000032_Node000022" class="edge">
<title>Node32&#45;&gt;Node22</title>
<g id="a_edge64_Node000032_Node000022"><a xlink:title=" ">
<path fill="none" stroke="#63b8ff" d="M1392.98,-178.63C1338.95,-167.93 1228.76,-145.8 1211.76,-140 1210.54,-139.58 1209.3,-139.13 1208.06,-138.65"/>
<polygon fill="#63b8ff" stroke="#63b8ff" points="1209.29,-135.36 1198.72,-134.56 1206.48,-141.77 1209.29,-135.36"/>
</a>
</g>
</g>
<!-- Node33 -->
<g id="Node000033" class="node">
<title>Node33</title>
<g id="a_Node000033"><a xlink:title=" ">
<polygon fill="#e0e0e0" stroke="#999999" points="1513.76,-134.5 1457.76,-134.5 1457.76,-115.5 1513.76,-115.5 1513.76,-134.5"/>
<text text-anchor="middle" x="1485.76" y="-122.5" font-family="Helvetica,sans-Serif" font-size="10.00">sstream</text>
</a>
</g>
</g>
<!-- Node32&#45;&gt;Node33 -->
<g id="edge67_Node000032_Node000033" class="edge">
<title>Node32&#45;&gt;Node33</title>
<g id="a_edge67_Node000032_Node000033"><a xlink:title=" ">
<path fill="none" stroke="#63b8ff" d="M1432.05,-175.87C1441.73,-166.88 1457.1,-152.61 1468.92,-141.64"/>
<polygon fill="#63b8ff" stroke="#63b8ff" points="1471.48,-144.04 1476.42,-134.67 1466.71,-138.91 1471.48,-144.04"/>
</a>
</g>
</g>
</g>
</svg>
