<?xml version="1.0" encoding="UTF-8" standalone="no"?>
<!DOCTYPE svg PUBLIC "-//W3C//DTD SVG 1.1//EN"
 "http://www.w3.org/Graphics/SVG/1.1/DTD/svg11.dtd">
<!-- Generated by graphviz version 2.43.0 (0)
 -->
<!-- Title: parallel_chunk.hpp Pages: 1 -->
<svg width="685pt" height="192pt"
 viewBox="0.00 0.00 685.00 192.00" xmlns="http://www.w3.org/2000/svg" xmlns:xlink="http://www.w3.org/1999/xlink">
<g id="graph0" class="graph" transform="scale(1 1) rotate(0) translate(4 188)">
<title>parallel_chunk.hpp</title>
<!-- Node1 -->
<g id="Node000001" class="node">
<title>Node1</title>
<g id="a_Node000001"><a xlink:title=" ">
<polygon fill="#999999" stroke="#666666" points="502.5,-184 393.5,-184 393.5,-165 502.5,-165 502.5,-184"/>
<text text-anchor="middle" x="448" y="-172" font-family="Helvetica,sans-Serif" font-size="10.00">parallel_chunk.hpp</text>
</a>
</g>
</g>
<!-- Node2 -->
<g id="Node000002" class="node">
<title>Node2</title>
<g id="a_Node000002"><a xlink:href="chunk_8hpp.html" target="_top" xlink:title="Template class for chunk&#45;based data processing.">
<polygon fill="white" stroke="#666666" points="250.5,-129 183.5,-129 183.5,-110 250.5,-110 250.5,-129"/>
<text text-anchor="middle" x="217" y="-117" font-family="Helvetica,sans-Serif" font-size="10.00">chunk.hpp</text>
</a>
</g>
</g>
<!-- Node1&#45;&gt;Node2 -->
<g id="edge1_Node000001_Node000002" class="edge">
<title>Node1&#45;&gt;Node2</title>
<g id="a_edge1_Node000001_Node000002"><a xlink:title=" ">
<path fill="none" stroke="#63b8ff" d="M410.89,-164.98C369.92,-155.58 304.03,-140.47 260.62,-130.51"/>
<polygon fill="#63b8ff" stroke="#63b8ff" points="261.17,-127.04 250.64,-128.22 259.61,-133.87 261.17,-127.04"/>
</a>
</g>
</g>
<!-- Node6 -->
<g id="Node000006" class="node">
<title>Node6</title>
<g id="a_Node000006"><a xlink:title=" ">
<polygon fill="#e0e0e0" stroke="#999999" points="352.5,-74 305.5,-74 305.5,-55 352.5,-55 352.5,-74"/>
<text text-anchor="middle" x="329" y="-62" font-family="Helvetica,sans-Serif" font-size="10.00">vector</text>
</a>
</g>
</g>
<!-- Node1&#45;&gt;Node6 -->
<g id="edge13_Node000001_Node000006" class="edge">
<title>Node1&#45;&gt;Node6</title>
<g id="a_edge13_Node000001_Node000006"><a xlink:title=" ">
<path fill="none" stroke="#63b8ff" d="M393.25,-168.1C367.79,-162.53 339.73,-151.35 324,-129 314.86,-116.01 317.55,-97.61 321.67,-83.96"/>
<polygon fill="#63b8ff" stroke="#63b8ff" points="325.08,-84.82 325.09,-74.22 318.47,-82.5 325.08,-84.82"/>
</a>
</g>
</g>
<!-- Node9 -->
<g id="Node000009" class="node">
<title>Node9</title>
<g id="a_Node000009"><a xlink:title=" ">
<polygon fill="#e0e0e0" stroke="#999999" points="397.5,-129 332.5,-129 332.5,-110 397.5,-110 397.5,-129"/>
<text text-anchor="middle" x="365" y="-117" font-family="Helvetica,sans-Serif" font-size="10.00">exception</text>
</a>
</g>
</g>
<!-- Node1&#45;&gt;Node9 -->
<g id="edge8_Node000001_Node000009" class="edge">
<title>Node1&#45;&gt;Node9</title>
<g id="a_edge8_Node000001_Node000009"><a xlink:title=" ">
<path fill="none" stroke="#63b8ff" d="M434.66,-164.98C421.91,-156.84 402.45,-144.41 387.33,-134.76"/>
<polygon fill="#63b8ff" stroke="#63b8ff" points="388.89,-131.6 378.58,-129.17 385.12,-137.5 388.89,-131.6"/>
</a>
</g>
</g>
<!-- Node10 -->
<g id="Node000010" class="node">
<title>Node10</title>
<g id="a_Node000010"><a xlink:title=" ">
<polygon fill="#e0e0e0" stroke="#999999" points="480.5,-129 415.5,-129 415.5,-110 480.5,-110 480.5,-129"/>
<text text-anchor="middle" x="448" y="-117" font-family="Helvetica,sans-Serif" font-size="10.00">functional</text>
</a>
</g>
</g>
<!-- Node1&#45;&gt;Node10 -->
<g id="edge9_Node000001_Node000010" class="edge">
<title>Node1&#45;&gt;Node10</title>
<g id="a_edge9_Node000001_Node000010"><a xlink:title=" ">
<path fill="none" stroke="#63b8ff" d="M448,-164.75C448,-157.8 448,-147.85 448,-139.13"/>
<polygon fill="#63b8ff" stroke="#63b8ff" points="451.5,-139.09 448,-129.09 444.5,-139.09 451.5,-139.09"/>
</a>
</g>
</g>
<!-- Node11 -->
<g id="Node000011" class="node">
<title>Node11</title>
<g id="a_Node000011"><a xlink:title=" ">
<polygon fill="#e0e0e0" stroke="#999999" points="545,-129 499,-129 499,-110 545,-110 545,-129"/>
<text text-anchor="middle" x="522" y="-117" font-family="Helvetica,sans-Serif" font-size="10.00">future</text>
</a>
</g>
</g>
<!-- Node1&#45;&gt;Node11 -->
<g id="edge10_Node000001_Node000011" class="edge">
<title>Node1&#45;&gt;Node11</title>
<g id="a_edge10_Node000001_Node000011"><a xlink:title=" ">
<path fill="none" stroke="#63b8ff" d="M459.89,-164.98C471.15,-156.92 488.29,-144.65 501.71,-135.03"/>
<polygon fill="#63b8ff" stroke="#63b8ff" points="503.8,-137.84 509.89,-129.17 499.73,-132.15 503.8,-137.84"/>
</a>
</g>
</g>
<!-- Node12 -->
<g id="Node000012" class="node">
<title>Node12</title>
<g id="a_Node000012"><a xlink:title=" ">
<polygon fill="#e0e0e0" stroke="#999999" points="611,-129 563,-129 563,-110 611,-110 611,-129"/>
<text text-anchor="middle" x="587" y="-117" font-family="Helvetica,sans-Serif" font-size="10.00">mutex</text>
</a>
</g>
</g>
<!-- Node1&#45;&gt;Node12 -->
<g id="edge11_Node000001_Node000012" class="edge">
<title>Node1&#45;&gt;Node12</title>
<g id="a_edge11_Node000001_Node000012"><a xlink:title=" ">
<path fill="none" stroke="#63b8ff" d="M470.33,-164.98C493.2,-156.27 528.96,-142.63 554.86,-132.75"/>
<polygon fill="#63b8ff" stroke="#63b8ff" points="556.16,-136 564.26,-129.17 553.67,-129.46 556.16,-136"/>
</a>
</g>
</g>
<!-- Node13 -->
<g id="Node000013" class="node">
<title>Node13</title>
<g id="a_Node000013"><a xlink:title=" ">
<polygon fill="#e0e0e0" stroke="#999999" points="677,-129 629,-129 629,-110 677,-110 677,-129"/>
<text text-anchor="middle" x="653" y="-117" font-family="Helvetica,sans-Serif" font-size="10.00">thread</text>
</a>
</g>
</g>
<!-- Node1&#45;&gt;Node13 -->
<g id="edge12_Node000001_Node000013" class="edge">
<title>Node1&#45;&gt;Node13</title>
<g id="a_edge12_Node000001_Node000013"><a xlink:title=" ">
<path fill="none" stroke="#63b8ff" d="M480.94,-164.98C518.7,-155.22 580.31,-139.29 618.65,-129.38"/>
<polygon fill="#63b8ff" stroke="#63b8ff" points="620,-132.65 628.81,-126.75 618.25,-125.87 620,-132.65"/>
</a>
</g>
</g>
<!-- Node3 -->
<g id="Node000003" class="node">
<title>Node3</title>
<g id="a_Node000003"><a xlink:title=" ">
<polygon fill="#e0e0e0" stroke="#999999" points="56,-74 0,-74 0,-55 56,-55 56,-74"/>
<text text-anchor="middle" x="28" y="-62" font-family="Helvetica,sans-Serif" font-size="10.00">numeric</text>
</a>
</g>
</g>
<!-- Node2&#45;&gt;Node3 -->
<g id="edge2_Node000002_Node000003" class="edge">
<title>Node2&#45;&gt;Node3</title>
<g id="a_edge2_Node000002_Node000003"><a xlink:title=" ">
<path fill="none" stroke="#63b8ff" d="M186.63,-109.98C153.87,-100.8 101.63,-86.15 66.12,-76.19"/>
<polygon fill="#63b8ff" stroke="#63b8ff" points="66.7,-72.72 56.13,-73.39 64.81,-79.46 66.7,-72.72"/>
</a>
</g>
</g>
<!-- Node4 -->
<g id="Node000004" class="node">
<title>Node4</title>
<g id="a_Node000004"><a xlink:title=" ">
<polygon fill="#e0e0e0" stroke="#999999" points="139.5,-74 74.5,-74 74.5,-55 139.5,-55 139.5,-74"/>
<text text-anchor="middle" x="107" y="-62" font-family="Helvetica,sans-Serif" font-size="10.00">stdexcept</text>
</a>
</g>
</g>
<!-- Node2&#45;&gt;Node4 -->
<g id="edge3_Node000002_Node000004" class="edge">
<title>Node2&#45;&gt;Node4</title>
<g id="a_edge3_Node000002_Node000004"><a xlink:title=" ">
<path fill="none" stroke="#63b8ff" d="M199.33,-109.98C181.71,-101.5 154.42,-88.35 134.07,-78.54"/>
<polygon fill="#63b8ff" stroke="#63b8ff" points="135.52,-75.36 124.99,-74.17 132.48,-81.66 135.52,-75.36"/>
</a>
</g>
</g>
<!-- Node5 -->
<g id="Node000005" class="node">
<title>Node5</title>
<g id="a_Node000005"><a xlink:title=" ">
<polygon fill="#e0e0e0" stroke="#999999" points="202,-74 158,-74 158,-55 202,-55 202,-74"/>
<text text-anchor="middle" x="180" y="-62" font-family="Helvetica,sans-Serif" font-size="10.00">string</text>
</a>
</g>
</g>
<!-- Node2&#45;&gt;Node5 -->
<g id="edge4_Node000002_Node000005" class="edge">
<title>Node2&#45;&gt;Node5</title>
<g id="a_edge4_Node000002_Node000005"><a xlink:title=" ">
<path fill="none" stroke="#63b8ff" d="M210.89,-109.75C205.72,-102.34 198.15,-91.5 191.81,-82.41"/>
<polygon fill="#63b8ff" stroke="#63b8ff" points="194.59,-80.29 186,-74.09 188.85,-84.29 194.59,-80.29"/>
</a>
</g>
</g>
<!-- Node2&#45;&gt;Node6 -->
<g id="edge5_Node000002_Node000006" class="edge">
<title>Node2&#45;&gt;Node6</title>
<g id="a_edge5_Node000002_Node000006"><a xlink:title=" ">
<path fill="none" stroke="#63b8ff" d="M234.99,-109.98C252.93,-101.5 280.72,-88.35 301.43,-78.54"/>
<polygon fill="#63b8ff" stroke="#63b8ff" points="303.14,-81.61 310.68,-74.17 300.14,-75.28 303.14,-81.61"/>
</a>
</g>
</g>
<!-- Node7 -->
<g id="Node000007" class="node">
<title>Node7</title>
<g id="a_Node000007"><a xlink:href="config_8hpp.html" target="_top" xlink:title=" ">
<polygon fill="white" stroke="#666666" points="287.5,-74 220.5,-74 220.5,-55 287.5,-55 287.5,-74"/>
<text text-anchor="middle" x="254" y="-62" font-family="Helvetica,sans-Serif" font-size="10.00">config.hpp</text>
</a>
</g>
</g>
<!-- Node2&#45;&gt;Node7 -->
<g id="edge6_Node000002_Node000007" class="edge">
<title>Node2&#45;&gt;Node7</title>
<g id="a_edge6_Node000002_Node000007"><a xlink:title=" ">
<path fill="none" stroke="#63b8ff" d="M223.11,-109.75C228.28,-102.34 235.85,-91.5 242.19,-82.41"/>
<polygon fill="#63b8ff" stroke="#63b8ff" points="245.15,-84.29 248,-74.09 239.41,-80.29 245.15,-84.29"/>
</a>
</g>
</g>
<!-- Node8 -->
<g id="Node000008" class="node">
<title>Node8</title>
<g id="a_Node000008"><a xlink:title=" ">
<polygon fill="#e0e0e0" stroke="#999999" points="280.5,-19 227.5,-19 227.5,0 280.5,0 280.5,-19"/>
<text text-anchor="middle" x="254" y="-7" font-family="Helvetica,sans-Serif" font-size="10.00">cstddef</text>
</a>
</g>
</g>
<!-- Node7&#45;&gt;Node8 -->
<g id="edge7_Node000007_Node000008" class="edge">
<title>Node7&#45;&gt;Node8</title>
<g id="a_edge7_Node000007_Node000008"><a xlink:title=" ">
<path fill="none" stroke="#63b8ff" d="M254,-54.75C254,-47.8 254,-37.85 254,-29.13"/>
<polygon fill="#63b8ff" stroke="#63b8ff" points="257.5,-29.09 254,-19.09 250.5,-29.09 257.5,-29.09"/>
</a>
</g>
</g>
</g>
</svg>
