<?xml version="1.0" encoding="UTF-8" standalone="no"?>
<!DOCTYPE svg PUBLIC "-//W3C//DTD SVG 1.1//EN"
 "http://www.w3.org/Graphics/SVG/1.1/DTD/svg11.dtd">
<!-- Generated by graphviz version 2.43.0 (0)
 -->
<!-- Title: parallel_chunk.hpp Pages: 1 -->
<svg width="685pt" height="137pt"
 viewBox="0.00 0.00 685.00 137.00" xmlns="http://www.w3.org/2000/svg" xmlns:xlink="http://www.w3.org/1999/xlink">
<g id="graph0" class="graph" transform="scale(1 1) rotate(0) translate(4 133)">
<title>parallel_chunk.hpp</title>
<!-- Node1 -->
<g id="Node000001" class="node">
<title>Node1</title>
<g id="a_Node000001"><a xlink:title=" ">
<polygon fill="#999999" stroke="#666666" points="502.5,-129 393.5,-129 393.5,-110 502.5,-110 502.5,-129"/>
<text text-anchor="middle" x="448" y="-117" font-family="Helvetica,sans-Serif" font-size="10.00">parallel_chunk.hpp</text>
</a>
</g>
</g>
<!-- Node2 -->
<g id="Node000002" class="node">
<title>Node2</title>
<g id="a_Node000002"><a xlink:href="chunk_8hpp.html" target="_top" xlink:title="Template class for chunk&#45;based data processing.">
<polygon fill="white" stroke="#666666" points="250.5,-74 183.5,-74 183.5,-55 250.5,-55 250.5,-74"/>
<text text-anchor="middle" x="217" y="-62" font-family="Helvetica,sans-Serif" font-size="10.00">chunk.hpp</text>
</a>
</g>
</g>
<!-- Node1&#45;&gt;Node2 -->
<g id="edge1_Node000001_Node000002" class="edge">
<title>Node1&#45;&gt;Node2</title>
<g id="a_edge1_Node000001_Node000002"><a xlink:title=" ">
<path fill="none" stroke="#63b8ff" d="M410.89,-109.98C369.92,-100.58 304.03,-85.47 260.62,-75.51"/>
<polygon fill="#63b8ff" stroke="#63b8ff" points="261.17,-72.04 250.64,-73.22 259.61,-78.87 261.17,-72.04"/>
</a>
</g>
</g>
<!-- Node6 -->
<g id="Node000006" class="node">
<title>Node6</title>
<g id="a_Node000006"><a xlink:title=" ">
<polygon fill="#e0e0e0" stroke="#999999" points="352.5,-19 305.5,-19 305.5,0 352.5,0 352.5,-19"/>
<text text-anchor="middle" x="329" y="-7" font-family="Helvetica,sans-Serif" font-size="10.00">vector</text>
</a>
</g>
</g>
<!-- Node1&#45;&gt;Node6 -->
<g id="edge12_Node000001_Node000006" class="edge">
<title>Node1&#45;&gt;Node6</title>
<g id="a_edge12_Node000001_Node000006"><a xlink:title=" ">
<path fill="none" stroke="#63b8ff" d="M393.25,-113.1C367.79,-107.53 339.73,-96.35 324,-74 314.86,-61.01 317.55,-42.61 321.67,-28.96"/>
<polygon fill="#63b8ff" stroke="#63b8ff" points="325.08,-29.82 325.09,-19.22 318.47,-27.5 325.08,-29.82"/>
</a>
</g>
</g>
<!-- Node8 -->
<g id="Node000008" class="node">
<title>Node8</title>
<g id="a_Node000008"><a xlink:title=" ">
<polygon fill="#e0e0e0" stroke="#999999" points="397.5,-74 332.5,-74 332.5,-55 397.5,-55 397.5,-74"/>
<text text-anchor="middle" x="365" y="-62" font-family="Helvetica,sans-Serif" font-size="10.00">exception</text>
</a>
</g>
</g>
<!-- Node1&#45;&gt;Node8 -->
<g id="edge7_Node000001_Node000008" class="edge">
<title>Node1&#45;&gt;Node8</title>
<g id="a_edge7_Node000001_Node000008"><a xlink:title=" ">
<path fill="none" stroke="#63b8ff" d="M434.66,-109.98C421.91,-101.84 402.45,-89.41 387.33,-79.76"/>
<polygon fill="#63b8ff" stroke="#63b8ff" points="388.89,-76.6 378.58,-74.17 385.12,-82.5 388.89,-76.6"/>
</a>
</g>
</g>
<!-- Node9 -->
<g id="Node000009" class="node">
<title>Node9</title>
<g id="a_Node000009"><a xlink:title=" ">
<polygon fill="#e0e0e0" stroke="#999999" points="480.5,-74 415.5,-74 415.5,-55 480.5,-55 480.5,-74"/>
<text text-anchor="middle" x="448" y="-62" font-family="Helvetica,sans-Serif" font-size="10.00">functional</text>
</a>
</g>
</g>
<!-- Node1&#45;&gt;Node9 -->
<g id="edge8_Node000001_Node000009" class="edge">
<title>Node1&#45;&gt;Node9</title>
<g id="a_edge8_Node000001_Node000009"><a xlink:title=" ">
<path fill="none" stroke="#63b8ff" d="M448,-109.75C448,-102.8 448,-92.85 448,-84.13"/>
<polygon fill="#63b8ff" stroke="#63b8ff" points="451.5,-84.09 448,-74.09 444.5,-84.09 451.5,-84.09"/>
</a>
</g>
</g>
<!-- Node10 -->
<g id="Node000010" class="node">
<title>Node10</title>
<g id="a_Node000010"><a xlink:title=" ">
<polygon fill="#e0e0e0" stroke="#999999" points="545,-74 499,-74 499,-55 545,-55 545,-74"/>
<text text-anchor="middle" x="522" y="-62" font-family="Helvetica,sans-Serif" font-size="10.00">future</text>
</a>
</g>
</g>
<!-- Node1&#45;&gt;Node10 -->
<g id="edge9_Node000001_Node000010" class="edge">
<title>Node1&#45;&gt;Node10</title>
<g id="a_edge9_Node000001_Node000010"><a xlink:title=" ">
<path fill="none" stroke="#63b8ff" d="M459.89,-109.98C471.15,-101.92 488.29,-89.65 501.71,-80.03"/>
<polygon fill="#63b8ff" stroke="#63b8ff" points="503.8,-82.84 509.89,-74.17 499.73,-77.15 503.8,-82.84"/>
</a>
</g>
</g>
<!-- Node11 -->
<g id="Node000011" class="node">
<title>Node11</title>
<g id="a_Node000011"><a xlink:title=" ">
<polygon fill="#e0e0e0" stroke="#999999" points="611,-74 563,-74 563,-55 611,-55 611,-74"/>
<text text-anchor="middle" x="587" y="-62" font-family="Helvetica,sans-Serif" font-size="10.00">mutex</text>
</a>
</g>
</g>
<!-- Node1&#45;&gt;Node11 -->
<g id="edge10_Node000001_Node000011" class="edge">
<title>Node1&#45;&gt;Node11</title>
<g id="a_edge10_Node000001_Node000011"><a xlink:title=" ">
<path fill="none" stroke="#63b8ff" d="M470.33,-109.98C493.2,-101.27 528.96,-87.63 554.86,-77.75"/>
<polygon fill="#63b8ff" stroke="#63b8ff" points="556.16,-81 564.26,-74.17 553.67,-74.46 556.16,-81"/>
</a>
</g>
</g>
<!-- Node12 -->
<g id="Node000012" class="node">
<title>Node12</title>
<g id="a_Node000012"><a xlink:title=" ">
<polygon fill="#e0e0e0" stroke="#999999" points="677,-74 629,-74 629,-55 677,-55 677,-74"/>
<text text-anchor="middle" x="653" y="-62" font-family="Helvetica,sans-Serif" font-size="10.00">thread</text>
</a>
</g>
</g>
<!-- Node1&#45;&gt;Node12 -->
<g id="edge11_Node000001_Node000012" class="edge">
<title>Node1&#45;&gt;Node12</title>
<g id="a_edge11_Node000001_Node000012"><a xlink:title=" ">
<path fill="none" stroke="#63b8ff" d="M480.94,-109.98C518.7,-100.22 580.31,-84.29 618.65,-74.38"/>
<polygon fill="#63b8ff" stroke="#63b8ff" points="620,-77.65 628.81,-71.75 618.25,-70.87 620,-77.65"/>
</a>
</g>
</g>
<!-- Node3 -->
<g id="Node000003" class="node">
<title>Node3</title>
<g id="a_Node000003"><a xlink:title=" ">
<polygon fill="#e0e0e0" stroke="#999999" points="56,-19 0,-19 0,0 56,0 56,-19"/>
<text text-anchor="middle" x="28" y="-7" font-family="Helvetica,sans-Serif" font-size="10.00">numeric</text>
</a>
</g>
</g>
<!-- Node2&#45;&gt;Node3 -->
<g id="edge2_Node000002_Node000003" class="edge">
<title>Node2&#45;&gt;Node3</title>
<g id="a_edge2_Node000002_Node000003"><a xlink:title=" ">
<path fill="none" stroke="#63b8ff" d="M186.63,-54.98C153.87,-45.8 101.63,-31.15 66.12,-21.19"/>
<polygon fill="#63b8ff" stroke="#63b8ff" points="66.7,-17.72 56.13,-18.39 64.81,-24.46 66.7,-17.72"/>
</a>
</g>
</g>
<!-- Node4 -->
<g id="Node000004" class="node">
<title>Node4</title>
<g id="a_Node000004"><a xlink:title=" ">
<polygon fill="#e0e0e0" stroke="#999999" points="139.5,-19 74.5,-19 74.5,0 139.5,0 139.5,-19"/>
<text text-anchor="middle" x="107" y="-7" font-family="Helvetica,sans-Serif" font-size="10.00">stdexcept</text>
</a>
</g>
</g>
<!-- Node2&#45;&gt;Node4 -->
<g id="edge3_Node000002_Node000004" class="edge">
<title>Node2&#45;&gt;Node4</title>
<g id="a_edge3_Node000002_Node000004"><a xlink:title=" ">
<path fill="none" stroke="#63b8ff" d="M199.33,-54.98C181.71,-46.5 154.42,-33.35 134.07,-23.54"/>
<polygon fill="#63b8ff" stroke="#63b8ff" points="135.52,-20.36 124.99,-19.17 132.48,-26.66 135.52,-20.36"/>
</a>
</g>
</g>
<!-- Node5 -->
<g id="Node000005" class="node">
<title>Node5</title>
<g id="a_Node000005"><a xlink:title=" ">
<polygon fill="#e0e0e0" stroke="#999999" points="202,-19 158,-19 158,0 202,0 202,-19"/>
<text text-anchor="middle" x="180" y="-7" font-family="Helvetica,sans-Serif" font-size="10.00">string</text>
</a>
</g>
</g>
<!-- Node2&#45;&gt;Node5 -->
<g id="edge4_Node000002_Node000005" class="edge">
<title>Node2&#45;&gt;Node5</title>
<g id="a_edge4_Node000002_Node000005"><a xlink:title=" ">
<path fill="none" stroke="#63b8ff" d="M210.89,-54.75C205.72,-47.34 198.15,-36.5 191.81,-27.41"/>
<polygon fill="#63b8ff" stroke="#63b8ff" points="194.59,-25.29 186,-19.09 188.85,-29.29 194.59,-25.29"/>
</a>
</g>
</g>
<!-- Node2&#45;&gt;Node6 -->
<g id="edge5_Node000002_Node000006" class="edge">
<title>Node2&#45;&gt;Node6</title>
<g id="a_edge5_Node000002_Node000006"><a xlink:title=" ">
<path fill="none" stroke="#63b8ff" d="M234.99,-54.98C252.93,-46.5 280.72,-33.35 301.43,-23.54"/>
<polygon fill="#63b8ff" stroke="#63b8ff" points="303.14,-26.61 310.68,-19.17 300.14,-20.28 303.14,-26.61"/>
</a>
</g>
</g>
<!-- Node7 -->
<g id="Node000007" class="node">
<title>Node7</title>
<g id="a_Node000007"><a xlink:href="config_8hpp.html" target="_top" xlink:title=" ">
<polygon fill="white" stroke="#666666" points="287.5,-19 220.5,-19 220.5,0 287.5,0 287.5,-19"/>
<text text-anchor="middle" x="254" y="-7" font-family="Helvetica,sans-Serif" font-size="10.00">config.hpp</text>
</a>
</g>
</g>
<!-- Node2&#45;&gt;Node7 -->
<g id="edge6_Node000002_Node000007" class="edge">
<title>Node2&#45;&gt;Node7</title>
<g id="a_edge6_Node000002_Node000007"><a xlink:title=" ">
<path fill="none" stroke="#63b8ff" d="M223.11,-54.75C228.28,-47.34 235.85,-36.5 242.19,-27.41"/>
<polygon fill="#63b8ff" stroke="#63b8ff" points="245.15,-29.29 248,-19.09 239.41,-25.29 245.15,-29.29"/>
</a>
</g>
</g>
</g>
</svg>
