<?xml version="1.0" encoding="UTF-8" standalone="no"?>
<!DOCTYPE svg PUBLIC "-//W3C//DTD SVG 1.1//EN"
 "http://www.w3.org/Graphics/SVG/1.1/DTD/svg11.dtd">
<!-- Generated by graphviz version 2.43.0 (0)
 -->
<!-- Title: advanced_structures::ChunkBPlusTree&lt; T &gt;::Node Pages: 1 -->
<svg width="773pt" height="102pt"
 viewBox="0.00 0.00 773.00 101.74" xmlns="http://www.w3.org/2000/svg" xmlns:xlink="http://www.w3.org/1999/xlink">
<g id="graph0" class="graph" transform="scale(1 1) rotate(0) translate(4 97.74)">
<title>advanced_structures::ChunkBPlusTree&lt; T &gt;::Node</title>
<!-- Node1 -->
<g id="Node000001" class="node">
<title>Node1</title>
<g id="a_Node000001"><a xlink:title=" ">
<polygon fill="#999999" stroke="#666666" points="765,-92.24 647,-92.24 647,-51.24 765,-51.24 765,-92.24"/>
<text text-anchor="start" x="655" y="-80.24" font-family="Helvetica,sans-Serif" font-size="10.00">advanced_structures</text>
<text text-anchor="start" x="655" y="-69.24" font-family="Helvetica,sans-Serif" font-size="10.00">::ChunkBPlusTree&lt; T</text>
<text text-anchor="middle" x="706" y="-58.24" font-family="Helvetica,sans-Serif" font-size="10.00"> &gt;::Node</text>
</a>
</g>
</g>
<!-- Node2 -->
<g id="Node000002" class="node">
<title>Node2</title>
<g id="a_Node000002"><a xlink:title=" ">
<polygon fill="white" stroke="#666666" points="155,-66.24 0,-66.24 0,-25.24 155,-25.24 155,-66.24"/>
<text text-anchor="start" x="8" y="-54.24" font-family="Helvetica,sans-Serif" font-size="10.00">std::vector&lt; std::shared</text>
<text text-anchor="start" x="8" y="-43.24" font-family="Helvetica,sans-Serif" font-size="10.00">_ptr&lt; advanced_structures</text>
<text text-anchor="middle" x="77.5" y="-32.24" font-family="Helvetica,sans-Serif" font-size="10.00">::ChunkBPlusTree::Node &gt; &gt;</text>
</a>
</g>
</g>
<!-- Node2&#45;&gt;Node1 -->
<g id="edge1_Node000001_Node000002" class="edge">
<title>Node2&#45;&gt;Node1</title>
<g id="a_edge1_Node000001_Node000002"><a xlink:title=" ">
<path fill="none" stroke="#9a32cd" stroke-dasharray="5,2" d="M165.29,-65.51C187.57,-69.75 211.57,-73.6 234,-75.74 382.15,-89.9 557.71,-81.9 646.82,-76.1"/>
<polygon fill="#9a32cd" stroke="#9a32cd" points="165.68,-62.02 155.2,-63.54 164.34,-68.89 165.68,-62.02"/>
</a>
</g>
<text text-anchor="middle" x="391.5" y="-85.74" font-family="Helvetica,sans-Serif" font-size="10.00" fill="grey"> children</text>
</g>
<!-- Node4 -->
<g id="Node000004" class="node">
<title>Node4</title>
<g id="a_Node000004"><a xlink:href="structadvanced__structures_1_1ChunkBPlusTree_1_1Node.html" target="_top" xlink:title=" ">
<polygon fill="white" stroke="#666666" points="352,-66.24 234,-66.24 234,-25.24 352,-25.24 352,-66.24"/>
<text text-anchor="start" x="242" y="-54.24" font-family="Helvetica,sans-Serif" font-size="10.00">advanced_structures</text>
<text text-anchor="start" x="242" y="-43.24" font-family="Helvetica,sans-Serif" font-size="10.00">::ChunkBPlusTree&lt; T</text>
<text text-anchor="middle" x="293" y="-32.24" font-family="Helvetica,sans-Serif" font-size="10.00"> &gt;::Node</text>
</a>
</g>
</g>
<!-- Node2&#45;&gt;Node4 -->
<g id="edge4_Node000004_Node000002" class="edge">
<title>Node2&#45;&gt;Node4</title>
<g id="a_edge4_Node000004_Node000002"><a xlink:title=" ">
<path fill="none" stroke="#9a32cd" stroke-dasharray="5,2" d="M165.42,-45.74C188.5,-45.74 212.86,-45.74 233.97,-45.74"/>
<polygon fill="#9a32cd" stroke="#9a32cd" points="165.28,-42.24 155.28,-45.74 165.28,-49.24 165.28,-42.24"/>
</a>
</g>
<text text-anchor="middle" x="194.5" y="-48.74" font-family="Helvetica,sans-Serif" font-size="10.00" fill="grey"> children</text>
</g>
<!-- Node3 -->
<g id="Node000003" class="node">
<title>Node3</title>
<g id="a_Node000003"><a xlink:title=" ">
<polygon fill="white" stroke="#666666" points="586,-58.24 431,-58.24 431,-17.24 586,-17.24 586,-58.24"/>
<text text-anchor="start" x="439" y="-46.24" font-family="Helvetica,sans-Serif" font-size="10.00">std::shared_ptr&lt; advanced</text>
<text text-anchor="start" x="439" y="-35.24" font-family="Helvetica,sans-Serif" font-size="10.00">_structures::ChunkBPlusTree</text>
<text text-anchor="middle" x="508.5" y="-24.24" font-family="Helvetica,sans-Serif" font-size="10.00">::Node &gt;</text>
</a>
</g>
</g>
<!-- Node3&#45;&gt;Node1 -->
<g id="edge6_Node000001_Node000003" class="edge">
<title>Node3&#45;&gt;Node1</title>
<g id="a_edge6_Node000001_Node000003"><a xlink:title=" ">
<path fill="none" stroke="#9a32cd" stroke-dasharray="5,2" d="M596.24,-52.82C613.41,-55.81 631.03,-58.87 646.96,-61.64"/>
<polygon fill="#9a32cd" stroke="#9a32cd" points="596.66,-49.34 586.21,-51.08 595.46,-56.24 596.66,-49.34"/>
</a>
</g>
<text text-anchor="middle" x="616.5" y="-61.74" font-family="Helvetica,sans-Serif" font-size="10.00" fill="grey"> next</text>
</g>
<!-- Node3&#45;&gt;Node2 -->
<g id="edge2_Node000002_Node000003" class="edge">
<title>Node3&#45;&gt;Node2</title>
<g id="a_edge2_Node000002_Node000003"><a xlink:title=" ">
<path fill="none" stroke="#9a32cd" stroke-dasharray="5,2" d="M421.09,-16.06C398.74,-11.37 374.59,-7.11 352,-4.74 299.84,0.73 286.01,2 234,-4.74 202.99,-8.76 169.35,-17.11 141.32,-25.23"/>
<polygon fill="#9a32cd" stroke="#9a32cd" points="420.38,-19.48 430.89,-18.16 421.85,-12.64 420.38,-19.48"/>
</a>
</g>
<text text-anchor="middle" x="293" y="-7.74" font-family="Helvetica,sans-Serif" font-size="10.00" fill="grey"> elements</text>
</g>
<!-- Node3&#45;&gt;Node4 -->
<g id="edge5_Node000004_Node000003" class="edge">
<title>Node3&#45;&gt;Node4</title>
<g id="a_edge5_Node000004_Node000003"><a xlink:title=" ">
<path fill="none" stroke="#9a32cd" stroke-dasharray="5,2" d="M420.34,-25.45C403.6,-24.59 386.24,-24.74 370,-26.74 364.2,-27.45 358.2,-28.46 352.23,-29.65"/>
<polygon fill="#9a32cd" stroke="#9a32cd" points="420.45,-28.96 430.66,-26.1 420.9,-21.98 420.45,-28.96"/>
</a>
</g>
<text text-anchor="middle" x="391.5" y="-29.74" font-family="Helvetica,sans-Serif" font-size="10.00" fill="grey"> next</text>
</g>
<!-- Node4&#45;&gt;Node3 -->
<g id="edge3_Node000003_Node000004" class="edge">
<title>Node4&#45;&gt;Node3</title>
<g id="a_edge3_Node000003_Node000004"><a xlink:title=" ">
<path fill="none" stroke="#9a32cd" stroke-dasharray="5,2" d="M362.21,-43.18C383.99,-42.37 408.25,-41.46 430.61,-40.62"/>
<polygon fill="#9a32cd" stroke="#9a32cd" points="361.92,-39.69 352.06,-43.56 362.18,-46.69 361.92,-39.69"/>
</a>
</g>
<text text-anchor="middle" x="391.5" y="-45.74" font-family="Helvetica,sans-Serif" font-size="10.00" fill="grey"> ptr</text>
</g>
</g>
</svg>
