<?xml version="1.0" encoding="UTF-8" standalone="no"?>
<!DOCTYPE svg PUBLIC "-//W3C//DTD SVG 1.1//EN"
 "http://www.w3.org/Graphics/SVG/1.1/DTD/svg11.dtd">
<!-- Generated by graphviz version 2.43.0 (0)
 -->
<!-- Title: sub_chunk_strategies.hpp Pages: 1 -->
<!--zoomable 313 -->

<svg id="main" version="1.1" xmlns="http://www.w3.org/2000/svg" xmlns:xlink="http://www.w3.org/1999/xlink" xml:space="preserve" onload="init(evt)">
<style type="text/css"><![CDATA[
.node, .edge {opacity: 0.7;}
.node.selected, .edge.selected {opacity: 1;}
.edge:hover path { stroke: red; }
.edge:hover polygon { stroke: red; fill: red; }
]]></style>

<defs>
  <circle id="rim" cx="0" cy="0" r="7"/>
  <circle id="rim2" cx="0" cy="0" r="3.5"/>
  <g id="zoomPlus">
    <use xlink:href="#rim" fill="#404040"><set attributeName="fill" to="#808080" begin="zoomplus.mouseover" end="zoomplus.mouseout"/></use>
    <path d="M-4,0h8M0,-4v8" fill="none" stroke="white" stroke-width="1.5" pointer-events="none"/>
  </g>
  <g id="zoomMin">
    <use xlink:href="#rim" fill="#404040"><set attributeName="fill" to="#808080" begin="zoomminus.mouseover" end="zoomminus.mouseout"/></use>
    <path d="M-4,0h8" fill="none" stroke="white" stroke-width="1.5" pointer-events="none"/>
  </g>
  <g id="arrowUp" transform="translate(30 24)">
    <use xlink:href="#rim"/>
    <path pointer-events="none" fill="none" stroke="white" stroke-width="1.5" d="M0,-3.0v7 M-2.5,-0.5L0,-3.0L2.5,-0.5"/>
  </g>
  <g id="arrowRight" transform="rotate(90) translate(36 -43)">
    <use xlink:href="#rim"/>
    <path pointer-events="none" fill="none" stroke="white" stroke-width="1.5" d="M0,-3.0v7 M-2.5,-0.5L0,-3.0L2.5,-0.5"/>
  </g>
  <g id="arrowDown" transform="rotate(180) translate(-30 -48)">
    <use xlink:href="#rim"/>
    <path pointer-events="none" fill="none" stroke="white" stroke-width="1.5" d="M0,-3.0v7 M-2.5,-0.5L0,-3.0L2.5,-0.5"/>
  </g>
  <g id="arrowLeft" transform="rotate(270) translate(-36 17)">
    <use xlink:href="#rim"/>
    <path pointer-events="none" fill="none" stroke="white" stroke-width="1.5" d="M0,-3.0v7 M-2.5,-0.5L0,-3.0L2.5,-0.5"/>
  </g>
  <g id="resetDef">
    <use xlink:href="#rim2" fill="#404040"><set attributeName="fill" to="#808080" begin="reset.mouseover" end="reset.mouseout"/></use>
  </g>
</defs>
<script type="application/ecmascript">
var viewWidth = 888;
var viewHeight = 313;
var sectionId = 'dynsection-1';
</script>
<script type="application/ecmascript" xlink:href="svg.min.js"/>
<svg id="graph" class="graph">
<g id="viewport">
<title>sub_chunk_strategies.hpp</title>
<!-- Node1 -->
<g id="Node000001" class="node">
<title>Node1</title>
<g id="a_Node000001"><a xlink:title="Advanced sub&#45;chunking strategies for hierarchical data processing.">
<polygon fill="#999999" stroke="#666666" points="339,-305 196,-305 196,-286 339,-286 339,-305"/>
<text text-anchor="middle" x="267.5" y="-293" font-family="Helvetica,sans-Serif" font-size="10.00">sub_chunk_strategies.hpp</text>
</a>
</g>
</g>
<!-- Node2 -->
<g id="Node000002" class="node">
<title>Node2</title>
<g id="a_Node000002"><a xlink:href="main_8cpp.html" target="_top" xlink:title="Demonstrates various chunking strategies and operations.">
<polygon fill="white" stroke="#666666" points="137,-145.5 0,-145.5 0,-93.5 137,-93.5 137,-145.5"/>
<text text-anchor="start" x="8" y="-133.5" font-family="Helvetica,sans-Serif" font-size="10.00">/mnt/c/Users/jonat</text>
<text text-anchor="start" x="8" y="-122.5" font-family="Helvetica,sans-Serif" font-size="10.00">/OneDrive/Documents</text>
<text text-anchor="start" x="8" y="-111.5" font-family="Helvetica,sans-Serif" font-size="10.00">/Python Scripts/chunking</text>
<text text-anchor="middle" x="68.5" y="-100.5" font-family="Helvetica,sans-Serif" font-size="10.00">_cpp/src/main.cpp</text>
</a>
</g>
</g>
<!-- Node1&#45;&gt;Node2 -->
<g id="edge1_Node000001_Node000002" class="edge">
<title>Node1&#45;&gt;Node2</title>
<g id="a_edge1_Node000001_Node000002"><a xlink:title=" ">
<path fill="none" stroke="#63b8ff" d="M191.25,-284.28C148.8,-276.98 101.72,-265.67 87.5,-250 61.77,-221.65 61.68,-174.52 64.62,-145.61"/>
<polygon fill="#63b8ff" stroke="#63b8ff" points="190.91,-287.77 201.35,-285.95 192.05,-280.86 190.91,-287.77"/>
</a>
</g>
</g>
<!-- Node3 -->
<g id="Node000003" class="node">
<title>Node3</title>
<g id="a_Node000003"><a xlink:href="sub__chunk__strategies__test_8cpp.html" target="_top" xlink:title="Test suite for sub&#45;chunking strategies.">
<polygon fill="white" stroke="#666666" points="272,-250 97,-250 97,-187 272,-187 272,-250"/>
<text text-anchor="start" x="105" y="-238" font-family="Helvetica,sans-Serif" font-size="10.00">/mnt/c/Users/jonat</text>
<text text-anchor="start" x="105" y="-227" font-family="Helvetica,sans-Serif" font-size="10.00">/OneDrive/Documents</text>
<text text-anchor="start" x="105" y="-216" font-family="Helvetica,sans-Serif" font-size="10.00">/Python Scripts/chunking</text>
<text text-anchor="start" x="105" y="-205" font-family="Helvetica,sans-Serif" font-size="10.00">_cpp/tests/sub_chunk_strategies</text>
<text text-anchor="middle" x="184.5" y="-194" font-family="Helvetica,sans-Serif" font-size="10.00">_test.cpp</text>
</a>
</g>
</g>
<!-- Node1&#45;&gt;Node3 -->
<g id="edge2_Node000001_Node000003" class="edge">
<title>Node1&#45;&gt;Node3</title>
<g id="a_edge2_Node000001_Node000003"><a xlink:title=" ">
<path fill="none" stroke="#63b8ff" d="M250.55,-279.19C241.25,-270.78 229.38,-260.06 218.28,-250.03"/>
<polygon fill="#63b8ff" stroke="#63b8ff" points="248.21,-281.79 257.98,-285.9 252.91,-276.6 248.21,-281.79"/>
</a>
</g>
</g>
<!-- Node4 -->
<g id="Node000004" class="node">
<title>Node4</title>
<g id="a_Node000004"><a xlink:href="chunk__strategies_8hpp.html" target="_top" xlink:title="Defines various strategies for chunking data based on different criteria.">
<polygon fill="white" stroke="#666666" points="411,-228 290,-228 290,-209 411,-209 411,-228"/>
<text text-anchor="middle" x="350.5" y="-216" font-family="Helvetica,sans-Serif" font-size="10.00">chunk_strategies.hpp</text>
</a>
</g>
</g>
<!-- Node1&#45;&gt;Node4 -->
<g id="edge3_Node000001_Node000004" class="edge">
<title>Node1&#45;&gt;Node4</title>
<g id="a_edge3_Node000001_Node000004"><a xlink:title=" ">
<path fill="none" stroke="#63b8ff" d="M279.47,-278.59C294.77,-263.13 320.47,-240.27 336.62,-228"/>
<polygon fill="#63b8ff" stroke="#63b8ff" points="276.88,-276.24 272.53,-285.9 281.95,-281.06 276.88,-276.24"/>
</a>
</g>
</g>
<!-- Node4&#45;&gt;Node1 -->
<g id="edge12_Node000004_Node000001" class="edge">
<title>Node4&#45;&gt;Node1</title>
<g id="a_edge12_Node000004_Node000001"><a xlink:title=" ">
<path fill="none" stroke="#63b8ff" d="M338.65,-235.29C323.41,-250.7 297.72,-273.58 281.52,-285.9"/>
<polygon fill="#63b8ff" stroke="#63b8ff" points="341.22,-237.67 345.56,-228 336.14,-232.85 341.22,-237.67"/>
</a>
</g>
</g>
<!-- Node4&#45;&gt;Node2 -->
<g id="edge5_Node000004_Node000002" class="edge">
<title>Node4&#45;&gt;Node2</title>
<g id="a_edge5_Node000004_Node000002"><a xlink:title=" ">
<path fill="none" stroke="#63b8ff" d="M323.44,-204.66C310.6,-198.84 294.93,-192.13 280.5,-187 224.41,-167.06 208.15,-169.28 151.5,-151 146.24,-149.3 140.82,-147.48 135.38,-145.6"/>
<polygon fill="#63b8ff" stroke="#63b8ff" points="322.1,-207.9 332.65,-208.9 325.03,-201.54 322.1,-207.9"/>
</a>
</g>
</g>
<!-- Node5 -->
<g id="Node000005" class="node">
<title>Node5</title>
<g id="a_Node000005"><a xlink:href="benchmark_8cpp.html" target="_top" xlink:title="Implementation of benchmarking utilities.">
<polygon fill="white" stroke="#666666" points="666,-52 529,-52 529,0 666,0 666,-52"/>
<text text-anchor="start" x="537" y="-40" font-family="Helvetica,sans-Serif" font-size="10.00">/mnt/c/Users/jonat</text>
<text text-anchor="start" x="537" y="-29" font-family="Helvetica,sans-Serif" font-size="10.00">/OneDrive/Documents</text>
<text text-anchor="start" x="537" y="-18" font-family="Helvetica,sans-Serif" font-size="10.00">/Python Scripts/chunking</text>
<text text-anchor="middle" x="597.5" y="-7" font-family="Helvetica,sans-Serif" font-size="10.00">_cpp/src/benchmark.cpp</text>
</a>
</g>
</g>
<!-- Node4&#45;&gt;Node5 -->
<g id="edge4_Node000004_Node000005" class="edge">
<title>Node4&#45;&gt;Node5</title>
<g id="a_edge4_Node000004_Node000005"><a xlink:title=" ">
<path fill="none" stroke="#63b8ff" d="M322.43,-204.87C309.69,-199.24 294.4,-192.63 280.5,-187 238.26,-169.89 210.46,-188.45 184.5,-151 168.55,-127.99 166.2,-109.2 184.5,-88 228.13,-37.45 422.89,-28.07 528.64,-26.78"/>
<polygon fill="#63b8ff" stroke="#63b8ff" points="321.04,-208.08 331.6,-208.95 323.88,-201.69 321.04,-208.08"/>
</a>
</g>
</g>
<!-- Node6 -->
<g id="Node000006" class="node">
<title>Node6</title>
<g id="a_Node000006"><a xlink:href="advanced__chunk__strategies__test_8cpp.html" target="_top" xlink:title=" ">
<polygon fill="white" stroke="#666666" points="345,-151 194,-151 194,-88 345,-88 345,-151"/>
<text text-anchor="start" x="202" y="-139" font-family="Helvetica,sans-Serif" font-size="10.00">/mnt/c/Users/jonat</text>
<text text-anchor="start" x="202" y="-128" font-family="Helvetica,sans-Serif" font-size="10.00">/OneDrive/Documents</text>
<text text-anchor="start" x="202" y="-117" font-family="Helvetica,sans-Serif" font-size="10.00">/Python Scripts/chunking</text>
<text text-anchor="start" x="202" y="-106" font-family="Helvetica,sans-Serif" font-size="10.00">_cpp/tests/advanced_chunk</text>
<text text-anchor="middle" x="269.5" y="-95" font-family="Helvetica,sans-Serif" font-size="10.00">_strategies_test.cpp</text>
</a>
</g>
</g>
<!-- Node4&#45;&gt;Node6 -->
<g id="edge6_Node000004_Node000006" class="edge">
<title>Node4&#45;&gt;Node6</title>
<g id="a_edge6_Node000004_Node000006"><a xlink:title=" ">
<path fill="none" stroke="#63b8ff" d="M336.67,-200.94C325.34,-187.37 309,-167.81 295.28,-151.37"/>
<polygon fill="#63b8ff" stroke="#63b8ff" points="334.22,-203.46 343.31,-208.89 339.59,-198.97 334.22,-203.46"/>
</a>
</g>
</g>
<!-- Node7 -->
<g id="Node000007" class="node">
<title>Node7</title>
<g id="a_Node000007"><a xlink:href="chunk__strategies__test_8cpp.html" target="_top" xlink:title=" ">
<polygon fill="white" stroke="#666666" points="515.5,-151 363.5,-151 363.5,-88 515.5,-88 515.5,-151"/>
<text text-anchor="start" x="371.5" y="-139" font-family="Helvetica,sans-Serif" font-size="10.00">/mnt/c/Users/jonat</text>
<text text-anchor="start" x="371.5" y="-128" font-family="Helvetica,sans-Serif" font-size="10.00">/OneDrive/Documents</text>
<text text-anchor="start" x="371.5" y="-117" font-family="Helvetica,sans-Serif" font-size="10.00">/Python Scripts/chunking</text>
<text text-anchor="start" x="371.5" y="-106" font-family="Helvetica,sans-Serif" font-size="10.00">_cpp/tests/chunk_strategies</text>
<text text-anchor="middle" x="439.5" y="-95" font-family="Helvetica,sans-Serif" font-size="10.00">_test.cpp</text>
</a>
</g>
</g>
<!-- Node4&#45;&gt;Node7 -->
<g id="edge7_Node000004_Node000007" class="edge">
<title>Node4&#45;&gt;Node7</title>
<g id="a_edge7_Node000004_Node000007"><a xlink:title=" ">
<path fill="none" stroke="#63b8ff" d="M365.34,-201.32C377.8,-187.75 395.95,-167.96 411.18,-151.37"/>
<polygon fill="#63b8ff" stroke="#63b8ff" points="362.58,-199.16 358.4,-208.89 367.74,-203.89 362.58,-199.16"/>
</a>
</g>
</g>
<!-- Node8 -->
<g id="Node000008" class="node">
<title>Node8</title>
<g id="a_Node000008"><a xlink:href="chunk__benchmark_8hpp.html" target="_top" xlink:title="Performance benchmarking tools for chunk processing.">
<polygon fill="white" stroke="#666666" points="661,-129 534,-129 534,-110 661,-110 661,-129"/>
<text text-anchor="middle" x="597.5" y="-117" font-family="Helvetica,sans-Serif" font-size="10.00">chunk_benchmark.hpp</text>
</a>
</g>
</g>
<!-- Node4&#45;&gt;Node8 -->
<g id="edge8_Node000004_Node000008" class="edge">
<title>Node4&#45;&gt;Node8</title>
<g id="a_edge8_Node000004_Node000008"><a xlink:title=" ">
<path fill="none" stroke="#63b8ff" d="M383.38,-205.28C418.45,-192.16 475.58,-170.56 524.5,-151 542.48,-143.81 562.8,-135.29 577.43,-129.08"/>
<polygon fill="#63b8ff" stroke="#63b8ff" points="381.81,-202.13 373.67,-208.9 384.26,-208.68 381.81,-202.13"/>
</a>
</g>
</g>
<!-- Node9 -->
<g id="Node000009" class="node">
<title>Node9</title>
<g id="a_Node000009"><a xlink:href="chunk__strategy__implementations_8hpp.html" target="_top" xlink:title=" ">
<polygon fill="white" stroke="#666666" points="880,-129 679,-129 679,-110 880,-110 880,-129"/>
<text text-anchor="middle" x="779.5" y="-117" font-family="Helvetica,sans-Serif" font-size="10.00">chunk_strategy_implementations.hpp</text>
</a>
</g>
</g>
<!-- Node4&#45;&gt;Node9 -->
<g id="edge10_Node000004_Node000009" class="edge">
<title>Node4&#45;&gt;Node9</title>
<g id="a_edge10_Node000004_Node000009"><a xlink:title=" ">
<path fill="none" stroke="#63b8ff" d="M406,-207.07C469.83,-194.8 577.65,-173.28 669.5,-151 697.23,-144.27 728.57,-135.46 750.68,-129.04"/>
<polygon fill="#63b8ff" stroke="#63b8ff" points="405.3,-203.64 396.14,-208.95 406.62,-210.51 405.3,-203.64"/>
</a>
</g>
</g>
<!-- Node8&#45;&gt;Node5 -->
<g id="edge9_Node000008_Node000005" class="edge">
<title>Node8&#45;&gt;Node5</title>
<g id="a_edge9_Node000008_Node000005"><a xlink:title=" ">
<path fill="none" stroke="#63b8ff" d="M597.5,-99.54C597.5,-85.79 597.5,-67.05 597.5,-52.07"/>
<polygon fill="#63b8ff" stroke="#63b8ff" points="594,-99.73 597.5,-109.73 601,-99.73 594,-99.73"/>
</a>
</g>
</g>
<!-- Node9&#45;&gt;Node5 -->
<g id="edge11_Node000009_Node000005" class="edge">
<title>Node9&#45;&gt;Node5</title>
<g id="a_edge11_Node000009_Node000005"><a xlink:title=" ">
<path fill="none" stroke="#63b8ff" d="M753.37,-105.36C725.84,-91.53 681.82,-69.39 647.57,-52.17"/>
<polygon fill="#63b8ff" stroke="#63b8ff" points="751.87,-108.53 762.38,-109.89 755.02,-102.27 751.87,-108.53"/>
</a>
</g>
</g>
</g>
</svg>

<g id="navigator" transform="translate(0 0)" fill="#404254">
  <rect fill="#f2f5e9" fill-opacity="0.5" stroke="#606060" stroke-width=".5" x="0" y="0" width="60" height="60"/>
  <use id="zoomplus" xlink:href="#zoomPlus" x="17" y="9" onmousedown="handleZoom(evt,'in')"/>
  <use id="zoomminus" xlink:href="#zoomMin" x="42" y="9" onmousedown="handleZoom(evt,'out')"/>
  <use id="reset" xlink:href="#resetDef" x="30" y="36" onmousedown="handleReset()"/>
   <use id="arrowup" xlink:href="#arrowUp" x="0" y="0" onmousedown="handlePan(0,-1)"/>
  <use id="arrowright" xlink:href="#arrowRight" x="0" y="0" onmousedown="handlePan(1,0)"/>
  <use id="arrowdown" xlink:href="#arrowDown" x="0" y="0" onmousedown="handlePan(0,1)"/>
  <use id="arrowleft" xlink:href="#arrowLeft" x="0" y="0" onmousedown="handlePan(-1,0)"/>
</g>
<svg viewBox="0 0 15 15" width="100%" height="30px" preserveAspectRatio="xMaxYMin meet">
 <g id="arrow_out" transform="scale(0.3 0.3)">
  <a xlink:href="sub__chunk__strategies_8hpp__dep__incl_org.svg" target="_base">
   <rect id="button" ry="5" rx="5" y="6" x="6" height="38" width="38"
        fill="#f2f5e9" fill-opacity="0.5" stroke="#606060" stroke-width="1.0"/>
   <path id="arrow"
     d="M 11.500037,31.436501 C 11.940474,20.09759 22.043105,11.32322 32.158766,21.979434 L 37.068811,17.246167 C 37.068811,17.246167 37.088388,32 37.088388,32 L 22.160133,31.978069 C 22.160133,31.978069 26.997745,27.140456 26.997745,27.140456 C 18.528582,18.264221 13.291696,25.230495 11.500037,31.436501 z"
     style="fill:#404040;"/>
  </a>
 </g>
</svg>

<style type='text/css'>
<![CDATA[
[data-mouse-over-selected='false'] { opacity: 0.7; }
[data-mouse-over-selected='true']  { opacity: 1.0; }
]]>
</style>
<script type="application/ecmascript"><![CDATA[
document.addEventListener('DOMContentLoaded', (event) => {
  highlightEdges();
  highlightAdjacentNodes();
});
]]></script>
</svg>
