<?xml version="1.0" encoding="UTF-8" standalone="no"?>
<!DOCTYPE svg PUBLIC "-//W3C//DTD SVG 1.1//EN"
 "http://www.w3.org/Graphics/SVG/1.1/DTD/svg11.dtd">
<!-- Generated by graphviz version 2.43.0 (0)
 -->
<!-- Title: sub_chunk_strategies.hpp Pages: 1 -->
<svg width="611pt" height="192pt"
 viewBox="0.00 0.00 610.50 192.00" xmlns="http://www.w3.org/2000/svg" xmlns:xlink="http://www.w3.org/1999/xlink">
<g id="graph0" class="graph" transform="scale(1 1) rotate(0) translate(4 188)">
<title>sub_chunk_strategies.hpp</title>
<!-- Node1 -->
<g id="Node000001" class="node">
<title>Node1</title>
<g id="a_Node000001"><a xlink:title="Advanced sub&#45;chunking strategies for hierarchical data processing.">
<polygon fill="#999999" stroke="#666666" points="409,-184 266,-184 266,-165 409,-165 409,-184"/>
<text text-anchor="middle" x="337.5" y="-172" font-family="Helvetica,sans-Serif" font-size="10.00">sub_chunk_strategies.hpp</text>
</a>
</g>
</g>
<!-- Node2 -->
<g id="Node000002" class="node">
<title>Node2</title>
<g id="a_Node000002"><a xlink:href="chunk__common_8hpp.html" target="_top" xlink:title=" ">
<polygon fill="white" stroke="#666666" points="171,-74 56,-74 56,-55 171,-55 171,-74"/>
<text text-anchor="middle" x="113.5" y="-62" font-family="Helvetica,sans-Serif" font-size="10.00">chunk_common.hpp</text>
</a>
</g>
</g>
<!-- Node1&#45;&gt;Node2 -->
<g id="edge1_Node000001_Node000002" class="edge">
<title>Node1&#45;&gt;Node2</title>
<g id="a_edge1_Node000001_Node000002"><a xlink:title=" ">
<path fill="none" stroke="#63b8ff" d="M288.83,-164.93C257.9,-158.15 217.77,-146.79 185.5,-129 163.05,-116.62 141.58,-96.2 128.03,-81.86"/>
<polygon fill="#63b8ff" stroke="#63b8ff" points="130.35,-79.22 121.01,-74.23 125.2,-83.96 130.35,-79.22"/>
</a>
</g>
</g>
<!-- Node5 -->
<g id="Node000005" class="node">
<title>Node5</title>
<g id="a_Node000005"><a xlink:title=" ">
<polygon fill="#e0e0e0" stroke="#999999" points="223,-19 176,-19 176,0 223,0 223,-19"/>
<text text-anchor="middle" x="199.5" y="-7" font-family="Helvetica,sans-Serif" font-size="10.00">vector</text>
</a>
</g>
</g>
<!-- Node1&#45;&gt;Node5 -->
<g id="edge15_Node000001_Node000005" class="edge">
<title>Node1&#45;&gt;Node5</title>
<g id="a_edge15_Node000001_Node000005"><a xlink:title=" ">
<path fill="none" stroke="#63b8ff" d="M320.72,-164.82C294.12,-150.09 242.79,-117.5 218.5,-74 210.69,-60.01 205.76,-42.46 202.88,-29.35"/>
<polygon fill="#63b8ff" stroke="#63b8ff" points="206.24,-28.31 200.86,-19.19 199.37,-29.68 206.24,-28.31"/>
</a>
</g>
</g>
<!-- Node6 -->
<g id="Node000006" class="node">
<title>Node6</title>
<g id="a_Node000006"><a xlink:href="chunk__strategies_8hpp.html" target="_top" xlink:title="Defines various strategies for chunking data based on different criteria.">
<polygon fill="white" stroke="#666666" points="398,-129 277,-129 277,-110 398,-110 398,-129"/>
<text text-anchor="middle" x="337.5" y="-117" font-family="Helvetica,sans-Serif" font-size="10.00">chunk_strategies.hpp</text>
</a>
</g>
</g>
<!-- Node1&#45;&gt;Node6 -->
<g id="edge5_Node000001_Node000006" class="edge">
<title>Node1&#45;&gt;Node6</title>
<g id="a_edge5_Node000001_Node000006"><a xlink:title=" ">
<path fill="none" stroke="#63b8ff" d="M332.33,-164.75C330.84,-157.8 330.4,-147.85 331.02,-139.13"/>
<polygon fill="#63b8ff" stroke="#63b8ff" points="334.51,-139.47 332.37,-129.09 327.57,-138.53 334.51,-139.47"/>
</a>
</g>
</g>
<!-- Node10 -->
<g id="Node000010" class="node">
<title>Node10</title>
<g id="a_Node000010"><a xlink:title=" ">
<polygon fill="#e0e0e0" stroke="#999999" points="602.5,-74 544.5,-74 544.5,-55 602.5,-55 602.5,-74"/>
<text text-anchor="middle" x="573.5" y="-62" font-family="Helvetica,sans-Serif" font-size="10.00">memory</text>
</a>
</g>
</g>
<!-- Node1&#45;&gt;Node10 -->
<g id="edge14_Node000001_Node000010" class="edge">
<title>Node1&#45;&gt;Node10</title>
<g id="a_edge14_Node000001_Node000010"><a xlink:title=" ">
<path fill="none" stroke="#63b8ff" d="M356.41,-164.84C397.86,-145.88 496.85,-100.58 545.52,-78.31"/>
<polygon fill="#63b8ff" stroke="#63b8ff" points="547.19,-81.39 554.82,-74.05 544.27,-75.03 547.19,-81.39"/>
</a>
</g>
</g>
<!-- Node3 -->
<g id="Node000003" class="node">
<title>Node3</title>
<g id="a_Node000003"><a xlink:title=" ">
<polygon fill="#e0e0e0" stroke="#999999" points="151.5,-19 87.5,-19 87.5,0 151.5,0 151.5,-19"/>
<text text-anchor="middle" x="119.5" y="-7" font-family="Helvetica,sans-Serif" font-size="10.00">algorithm</text>
</a>
</g>
</g>
<!-- Node2&#45;&gt;Node3 -->
<g id="edge2_Node000002_Node000003" class="edge">
<title>Node2&#45;&gt;Node3</title>
<g id="a_edge2_Node000002_Node000003"><a xlink:title=" ">
<path fill="none" stroke="#63b8ff" d="M114.49,-54.75C115.28,-47.8 116.4,-37.85 117.39,-29.13"/>
<polygon fill="#63b8ff" stroke="#63b8ff" points="120.88,-29.42 118.53,-19.09 113.92,-28.63 120.88,-29.42"/>
</a>
</g>
</g>
<!-- Node4 -->
<g id="Node000004" class="node">
<title>Node4</title>
<g id="a_Node000004"><a xlink:title=" ">
<polygon fill="#e0e0e0" stroke="#999999" points="69,-19 0,-19 0,0 69,0 69,-19"/>
<text text-anchor="middle" x="34.5" y="-7" font-family="Helvetica,sans-Serif" font-size="10.00">type_traits</text>
</a>
</g>
</g>
<!-- Node2&#45;&gt;Node4 -->
<g id="edge3_Node000002_Node000004" class="edge">
<title>Node2&#45;&gt;Node4</title>
<g id="a_edge3_Node000002_Node000004"><a xlink:title=" ">
<path fill="none" stroke="#63b8ff" d="M100.81,-54.98C88.67,-46.84 70.14,-34.41 55.75,-24.76"/>
<polygon fill="#63b8ff" stroke="#63b8ff" points="57.68,-21.84 47.42,-19.17 53.78,-27.65 57.68,-21.84"/>
</a>
</g>
</g>
<!-- Node2&#45;&gt;Node5 -->
<g id="edge4_Node000002_Node000005" class="edge">
<title>Node2&#45;&gt;Node5</title>
<g id="a_edge4_Node000002_Node000005"><a xlink:title=" ">
<path fill="none" stroke="#63b8ff" d="M127.32,-54.98C140.65,-46.77 161.08,-34.18 176.81,-24.49"/>
<polygon fill="#63b8ff" stroke="#63b8ff" points="178.75,-27.4 185.43,-19.17 175.08,-21.44 178.75,-27.4"/>
</a>
</g>
</g>
<!-- Node6&#45;&gt;Node1 -->
<g id="edge13_Node000006_Node000001" class="edge">
<title>Node6&#45;&gt;Node1</title>
<g id="a_edge13_Node000006_Node000001"><a xlink:title=" ">
<path fill="none" stroke="#63b8ff" d="M342.63,-129.09C344.14,-135.99 344.59,-145.93 343.99,-154.66"/>
<polygon fill="#63b8ff" stroke="#63b8ff" points="340.5,-154.38 342.67,-164.75 347.44,-155.29 340.5,-154.38"/>
</a>
</g>
</g>
<!-- Node6&#45;&gt;Node2 -->
<g id="edge6_Node000006_Node000002" class="edge">
<title>Node6&#45;&gt;Node2</title>
<g id="a_edge6_Node000006_Node000002"><a xlink:title=" ">
<path fill="none" stroke="#63b8ff" d="M301.51,-109.98C263.01,-100.87 201.81,-86.4 159.76,-76.45"/>
<polygon fill="#63b8ff" stroke="#63b8ff" points="160.31,-72.98 149.77,-74.08 158.7,-79.79 160.31,-72.98"/>
</a>
</g>
</g>
<!-- Node6&#45;&gt;Node5 -->
<g id="edge12_Node000006_Node000005" class="edge">
<title>Node6&#45;&gt;Node5</title>
<g id="a_edge12_Node000006_Node000005"><a xlink:title=" ">
<path fill="none" stroke="#63b8ff" d="M333.11,-109.62C326.12,-96.26 311.3,-70.85 292.5,-55 274.9,-40.17 251.52,-29.01 232.6,-21.57"/>
<polygon fill="#63b8ff" stroke="#63b8ff" points="233.76,-18.27 223.17,-18.03 231.3,-24.82 233.76,-18.27"/>
</a>
</g>
</g>
<!-- Node7 -->
<g id="Node000007" class="node">
<title>Node7</title>
<g id="a_Node000007"><a xlink:title=" ">
<polygon fill="#e0e0e0" stroke="#999999" points="387,-74 340,-74 340,-55 387,-55 387,-74"/>
<text text-anchor="middle" x="363.5" y="-62" font-family="Helvetica,sans-Serif" font-size="10.00">cmath</text>
</a>
</g>
</g>
<!-- Node6&#45;&gt;Node7 -->
<g id="edge7_Node000006_Node000007" class="edge">
<title>Node6&#45;&gt;Node7</title>
<g id="a_edge7_Node000006_Node000007"><a xlink:title=" ">
<path fill="none" stroke="#63b8ff" d="M341.79,-109.75C345.31,-102.57 350.41,-92.18 354.78,-83.27"/>
<polygon fill="#63b8ff" stroke="#63b8ff" points="358.02,-84.61 359.29,-74.09 351.74,-81.53 358.02,-84.61"/>
</a>
</g>
</g>
<!-- Node8 -->
<g id="Node000008" class="node">
<title>Node8</title>
<g id="a_Node000008"><a xlink:title=" ">
<polygon fill="#e0e0e0" stroke="#999999" points="470,-74 405,-74 405,-55 470,-55 470,-74"/>
<text text-anchor="middle" x="437.5" y="-62" font-family="Helvetica,sans-Serif" font-size="10.00">functional</text>
</a>
</g>
</g>
<!-- Node6&#45;&gt;Node8 -->
<g id="edge8_Node000006_Node000008" class="edge">
<title>Node6&#45;&gt;Node8</title>
<g id="a_edge8_Node000006_Node000008"><a xlink:title=" ">
<path fill="none" stroke="#63b8ff" d="M353.57,-109.98C369.36,-101.61 393.72,-88.7 412.13,-78.95"/>
<polygon fill="#63b8ff" stroke="#63b8ff" points="413.94,-81.95 421.14,-74.17 410.67,-75.76 413.94,-81.95"/>
</a>
</g>
</g>
<!-- Node9 -->
<g id="Node000009" class="node">
<title>Node9</title>
<g id="a_Node000009"><a xlink:title=" ">
<polygon fill="#e0e0e0" stroke="#999999" points="526.5,-74 488.5,-74 488.5,-55 526.5,-55 526.5,-74"/>
<text text-anchor="middle" x="507.5" y="-62" font-family="Helvetica,sans-Serif" font-size="10.00">map</text>
</a>
</g>
</g>
<!-- Node6&#45;&gt;Node9 -->
<g id="edge9_Node000006_Node000009" class="edge">
<title>Node6&#45;&gt;Node9</title>
<g id="a_edge9_Node000006_Node000009"><a xlink:title=" ">
<path fill="none" stroke="#63b8ff" d="M364.81,-109.98C395.98,-100.27 446.74,-84.44 478.57,-74.52"/>
<polygon fill="#63b8ff" stroke="#63b8ff" points="479.68,-77.84 488.18,-71.52 477.6,-71.16 479.68,-77.84"/>
</a>
</g>
</g>
<!-- Node6&#45;&gt;Node10 -->
<g id="edge10_Node000006_Node000010" class="edge">
<title>Node6&#45;&gt;Node10</title>
<g id="a_edge10_Node000006_Node000010"><a xlink:title=" ">
<path fill="none" stroke="#63b8ff" d="M375.42,-109.98C419.06,-100.18 490.36,-84.17 534.46,-74.27"/>
<polygon fill="#63b8ff" stroke="#63b8ff" points="535.26,-77.68 544.25,-72.07 533.73,-70.85 535.26,-77.68"/>
</a>
</g>
</g>
<!-- Node11 -->
<g id="Node000011" class="node">
<title>Node11</title>
<g id="a_Node000011"><a xlink:title=" ">
<polygon fill="#e0e0e0" stroke="#999999" points="283.5,-74 227.5,-74 227.5,-55 283.5,-55 283.5,-74"/>
<text text-anchor="middle" x="255.5" y="-62" font-family="Helvetica,sans-Serif" font-size="10.00">numeric</text>
</a>
</g>
</g>
<!-- Node6&#45;&gt;Node11 -->
<g id="edge11_Node000006_Node000011" class="edge">
<title>Node6&#45;&gt;Node11</title>
<g id="a_edge11_Node000006_Node000011"><a xlink:title=" ">
<path fill="none" stroke="#63b8ff" d="M324.33,-109.98C311.73,-101.84 292.5,-89.41 277.56,-79.76"/>
<polygon fill="#63b8ff" stroke="#63b8ff" points="279.21,-76.66 268.91,-74.17 275.41,-82.54 279.21,-76.66"/>
</a>
</g>
</g>
</g>
</svg>
