<?xml version="1.0" encoding="UTF-8" standalone="no"?>
<!DOCTYPE svg PUBLIC "-//W3C//DTD SVG 1.1//EN"
 "http://www.w3.org/Graphics/SVG/1.1/DTD/svg11.dtd">
<!-- Generated by graphviz version 2.43.0 (0)
 -->
<!-- Title: sub_chunk_strategies.hpp Pages: 1 -->
<!--zoomable 247 -->

<svg id="main" version="1.1" xmlns="http://www.w3.org/2000/svg" xmlns:xlink="http://www.w3.org/1999/xlink" xml:space="preserve" onload="init(evt)">
<style type="text/css"><![CDATA[
.node, .edge {opacity: 0.7;}
.node.selected, .edge.selected {opacity: 1;}
.edge:hover path { stroke: red; }
.edge:hover polygon { stroke: red; fill: red; }
]]></style>

<defs>
  <circle id="rim" cx="0" cy="0" r="7"/>
  <circle id="rim2" cx="0" cy="0" r="3.5"/>
  <g id="zoomPlus">
    <use xlink:href="#rim" fill="#404040"><set attributeName="fill" to="#808080" begin="zoomplus.mouseover" end="zoomplus.mouseout"/></use>
    <path d="M-4,0h8M0,-4v8" fill="none" stroke="white" stroke-width="1.5" pointer-events="none"/>
  </g>
  <g id="zoomMin">
    <use xlink:href="#rim" fill="#404040"><set attributeName="fill" to="#808080" begin="zoomminus.mouseover" end="zoomminus.mouseout"/></use>
    <path d="M-4,0h8" fill="none" stroke="white" stroke-width="1.5" pointer-events="none"/>
  </g>
  <g id="arrowUp" transform="translate(30 24)">
    <use xlink:href="#rim"/>
    <path pointer-events="none" fill="none" stroke="white" stroke-width="1.5" d="M0,-3.0v7 M-2.5,-0.5L0,-3.0L2.5,-0.5"/>
  </g>
  <g id="arrowRight" transform="rotate(90) translate(36 -43)">
    <use xlink:href="#rim"/>
    <path pointer-events="none" fill="none" stroke="white" stroke-width="1.5" d="M0,-3.0v7 M-2.5,-0.5L0,-3.0L2.5,-0.5"/>
  </g>
  <g id="arrowDown" transform="rotate(180) translate(-30 -48)">
    <use xlink:href="#rim"/>
    <path pointer-events="none" fill="none" stroke="white" stroke-width="1.5" d="M0,-3.0v7 M-2.5,-0.5L0,-3.0L2.5,-0.5"/>
  </g>
  <g id="arrowLeft" transform="rotate(270) translate(-36 17)">
    <use xlink:href="#rim"/>
    <path pointer-events="none" fill="none" stroke="white" stroke-width="1.5" d="M0,-3.0v7 M-2.5,-0.5L0,-3.0L2.5,-0.5"/>
  </g>
  <g id="resetDef">
    <use xlink:href="#rim2" fill="#404040"><set attributeName="fill" to="#808080" begin="reset.mouseover" end="reset.mouseout"/></use>
  </g>
</defs>
<script type="application/ecmascript">
var viewWidth = 706;
var viewHeight = 247;
var sectionId = 'dynsection-0';
</script>
<script type="application/ecmascript" xlink:href="svg.min.js"/>
<svg id="graph" class="graph">
<g id="viewport">
<title>sub_chunk_strategies.hpp</title>
<!-- Node1 -->
<g id="Node000001" class="node">
<title>Node1</title>
<g id="a_Node000001"><a xlink:title="Advanced sub&#45;chunking strategies for hierarchical data processing.">
<polygon fill="#999999" stroke="#666666" points="520.7,-239 377.7,-239 377.7,-220 520.7,-220 520.7,-239"/>
<text text-anchor="middle" x="449.2" y="-227" font-family="Helvetica,sans-Serif" font-size="10.00">sub_chunk_strategies.hpp</text>
</a>
</g>
</g>
<!-- Node2 -->
<g id="Node000002" class="node">
<title>Node2</title>
<g id="a_Node000002"><a xlink:href="chunk__strategies_8hpp.html" target="_top" xlink:title="Defines various strategies for chunking data based on different criteria.">
<polygon fill="white" stroke="#666666" points="314.7,-184 193.7,-184 193.7,-165 314.7,-165 314.7,-184"/>
<text text-anchor="middle" x="254.2" y="-172" font-family="Helvetica,sans-Serif" font-size="10.00">chunk_strategies.hpp</text>
</a>
</g>
</g>
<!-- Node1&#45;&gt;Node2 -->
<g id="edge1_Node000001_Node000002" class="edge">
<title>Node1&#45;&gt;Node2</title>
<g id="a_edge1_Node000001_Node000002"><a xlink:title=" ">
<path fill="none" stroke="#63b8ff" d="M417.87,-219.98C384.71,-210.97 332.21,-196.7 295.64,-186.76"/>
<polygon fill="#63b8ff" stroke="#63b8ff" points="296.35,-183.33 285.78,-184.08 294.51,-190.08 296.35,-183.33"/>
</a>
</g>
</g>
<!-- Node7 -->
<g id="Node000007" class="node">
<title>Node7</title>
<g id="a_Node000007"><a xlink:title=" ">
<polygon fill="#e0e0e0" stroke="#999999" points="61.7,-74 14.7,-74 14.7,-55 61.7,-55 61.7,-74"/>
<text text-anchor="middle" x="38.2" y="-62" font-family="Helvetica,sans-Serif" font-size="10.00">vector</text>
</a>
</g>
</g>
<!-- Node1&#45;&gt;Node7 -->
<g id="edge21_Node000001_Node000007" class="edge">
<title>Node1&#45;&gt;Node7</title>
<g id="a_edge21_Node000001_Node000007"><a xlink:title=" ">
<path fill="none" stroke="#63b8ff" d="M377.41,-223.52C263.07,-213.89 48,-188.18 4.2,-129 -6.99,-113.88 6.72,-94.59 19.93,-81.27"/>
<polygon fill="#63b8ff" stroke="#63b8ff" points="22.57,-83.59 27.45,-74.18 17.77,-78.49 22.57,-83.59"/>
</a>
</g>
</g>
<!-- Node9 -->
<g id="Node000009" class="node">
<title>Node9</title>
<g id="a_Node000009"><a xlink:title=" ">
<polygon fill="#e0e0e0" stroke="#999999" points="379.7,-19 326.7,-19 326.7,0 379.7,0 379.7,-19"/>
<text text-anchor="middle" x="353.2" y="-7" font-family="Helvetica,sans-Serif" font-size="10.00">cstddef</text>
</a>
</g>
</g>
<!-- Node1&#45;&gt;Node9 -->
<g id="edge17_Node000001_Node000009" class="edge">
<title>Node1&#45;&gt;Node9</title>
<g id="a_edge17_Node000001_Node000009"><a xlink:title=" ">
<path fill="none" stroke="#63b8ff" d="M456.96,-219.85C473.9,-199.83 511.19,-149.05 491.2,-110 469.16,-66.92 418.81,-38.23 385.42,-23.16"/>
<polygon fill="#63b8ff" stroke="#63b8ff" points="386.63,-19.87 376.07,-19.09 383.84,-26.29 386.63,-19.87"/>
</a>
</g>
</g>
<!-- Node10 -->
<g id="Node000010" class="node">
<title>Node10</title>
<g id="a_Node000010"><a xlink:title=" ">
<polygon fill="#e0e0e0" stroke="#999999" points="398.2,-129 334.2,-129 334.2,-110 398.2,-110 398.2,-129"/>
<text text-anchor="middle" x="366.2" y="-117" font-family="Helvetica,sans-Serif" font-size="10.00">algorithm</text>
</a>
</g>
</g>
<!-- Node1&#45;&gt;Node10 -->
<g id="edge16_Node000001_Node000010" class="edge">
<title>Node1&#45;&gt;Node10</title>
<g id="a_edge16_Node000001_Node000010"><a xlink:title=" ">
<path fill="none" stroke="#63b8ff" d="M442.41,-219.66C428.6,-201.69 397.05,-160.64 379.18,-137.38"/>
<polygon fill="#63b8ff" stroke="#63b8ff" points="381.73,-134.95 372.86,-129.16 376.18,-139.22 381.73,-134.95"/>
</a>
</g>
</g>
<!-- Node12 -->
<g id="Node000012" class="node">
<title>Node12</title>
<g id="a_Node000012"><a xlink:title=" ">
<polygon fill="#e0e0e0" stroke="#999999" points="481.7,-129 416.7,-129 416.7,-110 481.7,-110 481.7,-129"/>
<text text-anchor="middle" x="449.2" y="-117" font-family="Helvetica,sans-Serif" font-size="10.00">functional</text>
</a>
</g>
</g>
<!-- Node1&#45;&gt;Node12 -->
<g id="edge18_Node000001_Node000012" class="edge">
<title>Node1&#45;&gt;Node12</title>
<g id="a_edge18_Node000001_Node000012"><a xlink:title=" ">
<path fill="none" stroke="#63b8ff" d="M449.2,-219.66C449.2,-202.17 449.2,-162.8 449.2,-139.27"/>
<polygon fill="#63b8ff" stroke="#63b8ff" points="452.71,-139.16 449.2,-129.16 445.71,-139.16 452.71,-139.16"/>
</a>
</g>
</g>
<!-- Node14 -->
<g id="Node000014" class="node">
<title>Node14</title>
<g id="a_Node000014"><a xlink:title=" ">
<polygon fill="#e0e0e0" stroke="#999999" points="621.7,-184 538.7,-184 538.7,-165 621.7,-165 621.7,-184"/>
<text text-anchor="middle" x="580.2" y="-172" font-family="Helvetica,sans-Serif" font-size="10.00">initializer_list</text>
</a>
</g>
</g>
<!-- Node1&#45;&gt;Node14 -->
<g id="edge19_Node000001_Node000014" class="edge">
<title>Node1&#45;&gt;Node14</title>
<g id="a_edge19_Node000001_Node000014"><a xlink:title=" ">
<path fill="none" stroke="#63b8ff" d="M470.25,-219.98C491.61,-211.34 524.91,-197.87 549.27,-188.02"/>
<polygon fill="#63b8ff" stroke="#63b8ff" points="550.82,-191.17 558.77,-184.17 548.19,-184.68 550.82,-191.17"/>
</a>
</g>
</g>
<!-- Node15 -->
<g id="Node000015" class="node">
<title>Node15</title>
<g id="a_Node000015"><a xlink:title=" ">
<polygon fill="#e0e0e0" stroke="#999999" points="698.2,-184 640.2,-184 640.2,-165 698.2,-165 698.2,-184"/>
<text text-anchor="middle" x="669.2" y="-172" font-family="Helvetica,sans-Serif" font-size="10.00">memory</text>
</a>
</g>
</g>
<!-- Node1&#45;&gt;Node15 -->
<g id="edge20_Node000001_Node000015" class="edge">
<title>Node1&#45;&gt;Node15</title>
<g id="a_edge20_Node000001_Node000015"><a xlink:title=" ">
<path fill="none" stroke="#63b8ff" d="M484.55,-219.98C524.3,-210.41 588.68,-194.9 629.96,-184.95"/>
<polygon fill="#63b8ff" stroke="#63b8ff" points="631.03,-188.3 639.93,-182.55 629.39,-181.49 631.03,-188.3"/>
</a>
</g>
</g>
<!-- Node3 -->
<g id="Node000003" class="node">
<title>Node3</title>
<g id="a_Node000003"><a xlink:href="chunk_8hpp.html" target="_top" xlink:title="Template class for chunk&#45;based data processing.">
<polygon fill="white" stroke="#666666" points="212.7,-129 145.7,-129 145.7,-110 212.7,-110 212.7,-129"/>
<text text-anchor="middle" x="179.2" y="-117" font-family="Helvetica,sans-Serif" font-size="10.00">chunk.hpp</text>
</a>
</g>
</g>
<!-- Node2&#45;&gt;Node3 -->
<g id="edge2_Node000002_Node000003" class="edge">
<title>Node2&#45;&gt;Node3</title>
<g id="a_edge2_Node000002_Node000003"><a xlink:title=" ">
<path fill="none" stroke="#63b8ff" d="M242.15,-164.98C230.74,-156.92 213.37,-144.65 199.77,-135.03"/>
<polygon fill="#63b8ff" stroke="#63b8ff" points="201.66,-132.08 191.47,-129.17 197.62,-137.8 201.66,-132.08"/>
</a>
</g>
</g>
<!-- Node4 -->
<g id="Node000004" class="node">
<title>Node4</title>
<g id="a_Node000004"><a xlink:title=" ">
<polygon fill="#e0e0e0" stroke="#999999" points="136.2,-74 80.2,-74 80.2,-55 136.2,-55 136.2,-74"/>
<text text-anchor="middle" x="108.2" y="-62" font-family="Helvetica,sans-Serif" font-size="10.00">numeric</text>
</a>
</g>
</g>
<!-- Node2&#45;&gt;Node4 -->
<g id="edge13_Node000002_Node000004" class="edge">
<title>Node2&#45;&gt;Node4</title>
<g id="a_edge13_Node000002_Node000004"><a xlink:title=" ">
<path fill="none" stroke="#63b8ff" d="M207.58,-164.94C183.77,-158.51 155.76,-147.51 136.2,-129 123.5,-116.97 116.2,-98.16 112.26,-84.13"/>
<polygon fill="#63b8ff" stroke="#63b8ff" points="115.58,-82.99 109.78,-74.13 108.79,-84.67 115.58,-82.99"/>
</a>
</g>
</g>
<!-- Node5 -->
<g id="Node000005" class="node">
<title>Node5</title>
<g id="a_Node000005"><a xlink:title=" ">
<polygon fill="#e0e0e0" stroke="#999999" points="367.7,-74 302.7,-74 302.7,-55 367.7,-55 367.7,-74"/>
<text text-anchor="middle" x="335.2" y="-62" font-family="Helvetica,sans-Serif" font-size="10.00">stdexcept</text>
</a>
</g>
</g>
<!-- Node2&#45;&gt;Node5 -->
<g id="edge14_Node000002_Node000005" class="edge">
<title>Node2&#45;&gt;Node5</title>
<g id="a_edge14_Node000002_Node000005"><a xlink:title=" ">
<path fill="none" stroke="#63b8ff" d="M260.83,-164.66C274.31,-146.69 305.1,-105.64 322.54,-82.38"/>
<polygon fill="#63b8ff" stroke="#63b8ff" points="325.51,-84.26 328.71,-74.16 319.91,-80.06 325.51,-84.26"/>
</a>
</g>
</g>
<!-- Node2&#45;&gt;Node7 -->
<g id="edge15_Node000002_Node000007" class="edge">
<title>Node2&#45;&gt;Node7</title>
<g id="a_edge15_Node000002_Node000007"><a xlink:title=" ">
<path fill="none" stroke="#63b8ff" d="M216.99,-164.96C189.06,-157.68 150.42,-145.72 119.2,-129 94.75,-115.9 70.17,-95.34 54.6,-81.18"/>
<polygon fill="#63b8ff" stroke="#63b8ff" points="56.65,-78.3 46.94,-74.06 51.89,-83.43 56.65,-78.3"/>
</a>
</g>
</g>
<!-- Node2&#45;&gt;Node10 -->
<g id="edge9_Node000002_Node000010" class="edge">
<title>Node2&#45;&gt;Node10</title>
<g id="a_edge9_Node000002_Node000010"><a xlink:title=" ">
<path fill="none" stroke="#63b8ff" d="M272.2,-164.98C290.14,-156.5 317.92,-143.35 338.64,-133.54"/>
<polygon fill="#63b8ff" stroke="#63b8ff" points="340.34,-136.61 347.88,-129.17 337.35,-130.28 340.34,-136.61"/>
</a>
</g>
</g>
<!-- Node11 -->
<g id="Node000011" class="node">
<title>Node11</title>
<g id="a_Node000011"><a xlink:title=" ">
<polygon fill="#e0e0e0" stroke="#999999" points="277.7,-129 230.7,-129 230.7,-110 277.7,-110 277.7,-129"/>
<text text-anchor="middle" x="254.2" y="-117" font-family="Helvetica,sans-Serif" font-size="10.00">cmath</text>
</a>
</g>
</g>
<!-- Node2&#45;&gt;Node11 -->
<g id="edge10_Node000002_Node000011" class="edge">
<title>Node2&#45;&gt;Node11</title>
<g id="a_edge10_Node000002_Node000011"><a xlink:title=" ">
<path fill="none" stroke="#63b8ff" d="M254.2,-164.75C254.2,-157.8 254.2,-147.85 254.2,-139.13"/>
<polygon fill="#63b8ff" stroke="#63b8ff" points="257.71,-139.09 254.2,-129.09 250.71,-139.09 257.71,-139.09"/>
</a>
</g>
</g>
<!-- Node2&#45;&gt;Node12 -->
<g id="edge11_Node000002_Node000012" class="edge">
<title>Node2&#45;&gt;Node12</title>
<g id="a_edge11_Node000002_Node000012"><a xlink:title=" ">
<path fill="none" stroke="#63b8ff" d="M285.54,-164.98C318.7,-155.97 371.2,-141.7 407.77,-131.76"/>
<polygon fill="#63b8ff" stroke="#63b8ff" points="408.9,-135.08 417.63,-129.08 407.06,-128.33 408.9,-135.08"/>
</a>
</g>
</g>
<!-- Node13 -->
<g id="Node000013" class="node">
<title>Node13</title>
<g id="a_Node000013"><a xlink:title=" ">
<polygon fill="#e0e0e0" stroke="#999999" points="51.2,-129 13.2,-129 13.2,-110 51.2,-110 51.2,-129"/>
<text text-anchor="middle" x="32.2" y="-117" font-family="Helvetica,sans-Serif" font-size="10.00">map</text>
</a>
</g>
</g>
<!-- Node2&#45;&gt;Node13 -->
<g id="edge12_Node000002_Node000013" class="edge">
<title>Node2&#45;&gt;Node13</title>
<g id="a_edge12_Node000002_Node000013"><a xlink:title=" ">
<path fill="none" stroke="#63b8ff" d="M216.85,-164.95C178.69,-156.15 117.74,-141.95 65.2,-129 63.94,-128.69 62.66,-128.37 61.36,-128.04"/>
<polygon fill="#63b8ff" stroke="#63b8ff" points="61.94,-124.58 51.38,-125.51 60.21,-131.36 61.94,-124.58"/>
</a>
</g>
</g>
<!-- Node3&#45;&gt;Node4 -->
<g id="edge3_Node000003_Node000004" class="edge">
<title>Node3&#45;&gt;Node4</title>
<g id="a_edge3_Node000003_Node000004"><a xlink:title=" ">
<path fill="none" stroke="#63b8ff" d="M167.8,-109.98C157.1,-102 140.86,-89.88 128.04,-80.31"/>
<polygon fill="#63b8ff" stroke="#63b8ff" points="129.93,-77.35 119.82,-74.17 125.74,-82.96 129.93,-77.35"/>
</a>
</g>
</g>
<!-- Node3&#45;&gt;Node5 -->
<g id="edge4_Node000003_Node000005" class="edge">
<title>Node3&#45;&gt;Node5</title>
<g id="a_edge4_Node000003_Node000005"><a xlink:title=" ">
<path fill="none" stroke="#63b8ff" d="M204.27,-109.98C230.23,-101.16 271.01,-87.31 300.16,-77.41"/>
<polygon fill="#63b8ff" stroke="#63b8ff" points="301.6,-80.61 309.94,-74.08 299.35,-73.99 301.6,-80.61"/>
</a>
</g>
</g>
<!-- Node6 -->
<g id="Node000006" class="node">
<title>Node6</title>
<g id="a_Node000006"><a xlink:title=" ">
<polygon fill="#e0e0e0" stroke="#999999" points="284.2,-74 240.2,-74 240.2,-55 284.2,-55 284.2,-74"/>
<text text-anchor="middle" x="262.2" y="-62" font-family="Helvetica,sans-Serif" font-size="10.00">string</text>
</a>
</g>
</g>
<!-- Node3&#45;&gt;Node6 -->
<g id="edge5_Node000003_Node000006" class="edge">
<title>Node3&#45;&gt;Node6</title>
<g id="a_edge5_Node000003_Node000006"><a xlink:title=" ">
<path fill="none" stroke="#63b8ff" d="M192.54,-109.98C205.29,-101.84 224.76,-89.41 239.88,-79.76"/>
<polygon fill="#63b8ff" stroke="#63b8ff" points="242.08,-82.5 248.63,-74.17 238.31,-76.6 242.08,-82.5"/>
</a>
</g>
</g>
<!-- Node3&#45;&gt;Node7 -->
<g id="edge6_Node000003_Node000007" class="edge">
<title>Node3&#45;&gt;Node7</title>
<g id="a_edge6_Node000003_Node000007"><a xlink:title=" ">
<path fill="none" stroke="#63b8ff" d="M156.55,-109.98C133.36,-101.27 97.08,-87.63 70.8,-77.75"/>
<polygon fill="#63b8ff" stroke="#63b8ff" points="71.86,-74.41 61.27,-74.17 69.4,-80.97 71.86,-74.41"/>
</a>
</g>
</g>
<!-- Node8 -->
<g id="Node000008" class="node">
<title>Node8</title>
<g id="a_Node000008"><a xlink:href="config_8hpp.html" target="_top" xlink:title=" ">
<polygon fill="white" stroke="#666666" points="221.7,-74 154.7,-74 154.7,-55 221.7,-55 221.7,-74"/>
<text text-anchor="middle" x="188.2" y="-62" font-family="Helvetica,sans-Serif" font-size="10.00">config.hpp</text>
</a>
</g>
</g>
<!-- Node3&#45;&gt;Node8 -->
<g id="edge7_Node000003_Node000008" class="edge">
<title>Node3&#45;&gt;Node8</title>
<g id="a_edge7_Node000003_Node000008"><a xlink:title=" ">
<path fill="none" stroke="#63b8ff" d="M180.69,-109.75C181.87,-102.8 183.56,-92.85 185.04,-84.13"/>
<polygon fill="#63b8ff" stroke="#63b8ff" points="188.52,-84.53 186.75,-74.09 181.62,-83.36 188.52,-84.53"/>
</a>
</g>
</g>
<!-- Node8&#45;&gt;Node9 -->
<g id="edge8_Node000008_Node000009" class="edge">
<title>Node8&#45;&gt;Node9</title>
<g id="a_edge8_Node000008_Node000009"><a xlink:title=" ">
<path fill="none" stroke="#63b8ff" d="M214.72,-54.98C242.42,-46.09 286.06,-32.07 316.95,-22.15"/>
<polygon fill="#63b8ff" stroke="#63b8ff" points="318.04,-25.47 326.49,-19.08 315.9,-18.81 318.04,-25.47"/>
</a>
</g>
</g>
</g>
</svg>

<g id="navigator" transform="translate(0 0)" fill="#404254">
  <rect fill="#f2f5e9" fill-opacity="0.5" stroke="#606060" stroke-width=".5" x="0" y="0" width="60" height="60"/>
  <use id="zoomplus" xlink:href="#zoomPlus" x="17" y="9" onmousedown="handleZoom(evt,'in')"/>
  <use id="zoomminus" xlink:href="#zoomMin" x="42" y="9" onmousedown="handleZoom(evt,'out')"/>
  <use id="reset" xlink:href="#resetDef" x="30" y="36" onmousedown="handleReset()"/>
   <use id="arrowup" xlink:href="#arrowUp" x="0" y="0" onmousedown="handlePan(0,-1)"/>
  <use id="arrowright" xlink:href="#arrowRight" x="0" y="0" onmousedown="handlePan(1,0)"/>
  <use id="arrowdown" xlink:href="#arrowDown" x="0" y="0" onmousedown="handlePan(0,1)"/>
  <use id="arrowleft" xlink:href="#arrowLeft" x="0" y="0" onmousedown="handlePan(-1,0)"/>
</g>
<svg viewBox="0 0 15 15" width="100%" height="30px" preserveAspectRatio="xMaxYMin meet">
 <g id="arrow_out" transform="scale(0.3 0.3)">
  <a xlink:href="sub__chunk__strategies_8hpp__incl_org.svg" target="_base">
   <rect id="button" ry="5" rx="5" y="6" x="6" height="38" width="38"
        fill="#f2f5e9" fill-opacity="0.5" stroke="#606060" stroke-width="1.0"/>
   <path id="arrow"
     d="M 11.500037,31.436501 C 11.940474,20.09759 22.043105,11.32322 32.158766,21.979434 L 37.068811,17.246167 C 37.068811,17.246167 37.088388,32 37.088388,32 L 22.160133,31.978069 C 22.160133,31.978069 26.997745,27.140456 26.997745,27.140456 C 18.528582,18.264221 13.291696,25.230495 11.500037,31.436501 z"
     style="fill:#404040;"/>
  </a>
 </g>
</svg>

<style type='text/css'>
<![CDATA[
[data-mouse-over-selected='false'] { opacity: 0.7; }
[data-mouse-over-selected='true']  { opacity: 1.0; }
]]>
</style>
<script type="application/ecmascript"><![CDATA[
document.addEventListener('DOMContentLoaded', (event) => {
  highlightEdges();
  highlightAdjacentNodes();
});
]]></script>
</svg>
