<?xml version="1.0" encoding="UTF-8" standalone="no"?>
<!DOCTYPE svg PUBLIC "-//W3C//DTD SVG 1.1//EN"
 "http://www.w3.org/Graphics/SVG/1.1/DTD/svg11.dtd">
<!-- Generated by graphviz version 2.43.0 (0)
 -->
<!-- Title: sub_chunk_strategies.hpp Pages: 1 -->
<svg width="656pt" height="192pt"
 viewBox="0.00 0.00 655.50 192.00" xmlns="http://www.w3.org/2000/svg" xmlns:xlink="http://www.w3.org/1999/xlink">
<g id="graph0" class="graph" transform="scale(1 1) rotate(0) translate(4 188)">
<title>sub_chunk_strategies.hpp</title>
<!-- Node1 -->
<g id="Node000001" class="node">
<title>Node1</title>
<g id="a_Node000001"><a xlink:title="Advanced sub&#45;chunking strategies for hierarchical data processing.">
<polygon fill="#999999" stroke="#666666" points="460,-184 317,-184 317,-165 460,-165 460,-184"/>
<text text-anchor="middle" x="388.5" y="-172" font-family="Helvetica,sans-Serif" font-size="10.00">sub_chunk_strategies.hpp</text>
</a>
</g>
</g>
<!-- Node2 -->
<g id="Node000002" class="node">
<title>Node2</title>
<g id="a_Node000002"><a xlink:href="chunk__strategies_8hpp.html" target="_top" xlink:title="Defines various strategies for chunking data based on different criteria.">
<polygon fill="white" stroke="#666666" points="306,-129 185,-129 185,-110 306,-110 306,-129"/>
<text text-anchor="middle" x="245.5" y="-117" font-family="Helvetica,sans-Serif" font-size="10.00">chunk_strategies.hpp</text>
</a>
</g>
</g>
<!-- Node1&#45;&gt;Node2 -->
<g id="edge1_Node000001_Node000002" class="edge">
<title>Node1&#45;&gt;Node2</title>
<g id="a_edge1_Node000001_Node000002"><a xlink:title=" ">
<path fill="none" stroke="#63b8ff" d="M365.52,-164.98C342,-156.27 305.21,-142.63 278.56,-132.75"/>
<polygon fill="#63b8ff" stroke="#63b8ff" points="279.49,-129.36 268.89,-129.17 277.05,-135.93 279.49,-129.36"/>
</a>
</g>
</g>
<!-- Node7 -->
<g id="Node000007" class="node">
<title>Node7</title>
<g id="a_Node000007"><a xlink:title=" ">
<polygon fill="#e0e0e0" stroke="#999999" points="47,-19 0,-19 0,0 47,0 47,-19"/>
<text text-anchor="middle" x="23.5" y="-7" font-family="Helvetica,sans-Serif" font-size="10.00">vector</text>
</a>
</g>
</g>
<!-- Node1&#45;&gt;Node7 -->
<g id="edge20_Node000001_Node000007" class="edge">
<title>Node1&#45;&gt;Node7</title>
<g id="a_edge20_Node000001_Node000007"><a xlink:title=" ">
<path fill="none" stroke="#63b8ff" d="M322.34,-164.99C228.06,-151.33 62.54,-121.16 27.5,-74 18.13,-61.39 17.94,-43.2 19.61,-29.52"/>
<polygon fill="#63b8ff" stroke="#63b8ff" points="23.13,-29.74 21.3,-19.3 16.22,-28.6 23.13,-29.74"/>
</a>
</g>
</g>
<!-- Node9 -->
<g id="Node000009" class="node">
<title>Node9</title>
<g id="a_Node000009"><a xlink:title=" ">
<polygon fill="#e0e0e0" stroke="#999999" points="399.5,-74 335.5,-74 335.5,-55 399.5,-55 399.5,-74"/>
<text text-anchor="middle" x="367.5" y="-62" font-family="Helvetica,sans-Serif" font-size="10.00">algorithm</text>
</a>
</g>
</g>
<!-- Node1&#45;&gt;Node9 -->
<g id="edge15_Node000001_Node000009" class="edge">
<title>Node1&#45;&gt;Node9</title>
<g id="a_edge15_Node000001_Node000009"><a xlink:title=" ">
<path fill="none" stroke="#63b8ff" d="M385.2,-164.77C381.97,-155.89 377.17,-141.68 374.5,-129 371.39,-114.21 369.61,-97.17 368.62,-84.47"/>
<polygon fill="#63b8ff" stroke="#63b8ff" points="372.09,-83.95 367.92,-74.21 365.11,-84.43 372.09,-83.95"/>
</a>
</g>
</g>
<!-- Node11 -->
<g id="Node000011" class="node">
<title>Node11</title>
<g id="a_Node000011"><a xlink:title=" ">
<polygon fill="#e0e0e0" stroke="#999999" points="483,-74 418,-74 418,-55 483,-55 483,-74"/>
<text text-anchor="middle" x="450.5" y="-62" font-family="Helvetica,sans-Serif" font-size="10.00">functional</text>
</a>
</g>
</g>
<!-- Node1&#45;&gt;Node11 -->
<g id="edge17_Node000001_Node000011" class="edge">
<title>Node1&#45;&gt;Node11</title>
<g id="a_edge17_Node000001_Node000011"><a xlink:title=" ">
<path fill="none" stroke="#63b8ff" d="M389.96,-164.78C392.36,-152.05 397.97,-127.94 408.5,-110 414.86,-99.17 424.3,-88.85 432.62,-80.88"/>
<polygon fill="#63b8ff" stroke="#63b8ff" points="435.11,-83.36 440.12,-74.02 430.38,-78.19 435.11,-83.36"/>
</a>
</g>
</g>
<!-- Node13 -->
<g id="Node000013" class="node">
<title>Node13</title>
<g id="a_Node000013"><a xlink:title=" ">
<polygon fill="#e0e0e0" stroke="#999999" points="470,-129 417,-129 417,-110 470,-110 470,-129"/>
<text text-anchor="middle" x="443.5" y="-117" font-family="Helvetica,sans-Serif" font-size="10.00">cstddef</text>
</a>
</g>
</g>
<!-- Node1&#45;&gt;Node13 -->
<g id="edge16_Node000001_Node000013" class="edge">
<title>Node1&#45;&gt;Node13</title>
<g id="a_edge16_Node000001_Node000013"><a xlink:title=" ">
<path fill="none" stroke="#63b8ff" d="M397.58,-164.75C405.59,-157.03 417.46,-145.6 427.12,-136.28"/>
<polygon fill="#63b8ff" stroke="#63b8ff" points="429.81,-138.55 434.59,-129.09 424.96,-133.51 429.81,-138.55"/>
</a>
</g>
</g>
<!-- Node14 -->
<g id="Node000014" class="node">
<title>Node14</title>
<g id="a_Node000014"><a xlink:title=" ">
<polygon fill="#e0e0e0" stroke="#999999" points="571,-129 488,-129 488,-110 571,-110 571,-129"/>
<text text-anchor="middle" x="529.5" y="-117" font-family="Helvetica,sans-Serif" font-size="10.00">initializer_list</text>
</a>
</g>
</g>
<!-- Node1&#45;&gt;Node14 -->
<g id="edge18_Node000001_Node000014" class="edge">
<title>Node1&#45;&gt;Node14</title>
<g id="a_edge18_Node000001_Node000014"><a xlink:title=" ">
<path fill="none" stroke="#63b8ff" d="M411.15,-164.98C434.35,-156.27 470.62,-142.63 496.9,-132.75"/>
<polygon fill="#63b8ff" stroke="#63b8ff" points="498.3,-135.97 506.43,-129.17 495.84,-129.41 498.3,-135.97"/>
</a>
</g>
</g>
<!-- Node15 -->
<g id="Node000015" class="node">
<title>Node15</title>
<g id="a_Node000015"><a xlink:title=" ">
<polygon fill="#e0e0e0" stroke="#999999" points="647.5,-129 589.5,-129 589.5,-110 647.5,-110 647.5,-129"/>
<text text-anchor="middle" x="618.5" y="-117" font-family="Helvetica,sans-Serif" font-size="10.00">memory</text>
</a>
</g>
</g>
<!-- Node1&#45;&gt;Node15 -->
<g id="edge19_Node000001_Node000015" class="edge">
<title>Node1&#45;&gt;Node15</title>
<g id="a_edge19_Node000001_Node000015"><a xlink:title=" ">
<path fill="none" stroke="#63b8ff" d="M425.45,-164.98C467.66,-155.26 536.41,-139.42 579.47,-129.49"/>
<polygon fill="#63b8ff" stroke="#63b8ff" points="580.34,-132.89 589.3,-127.23 578.77,-126.06 580.34,-132.89"/>
</a>
</g>
</g>
<!-- Node3 -->
<g id="Node000003" class="node">
<title>Node3</title>
<g id="a_Node000003"><a xlink:href="chunk_8hpp.html" target="_top" xlink:title="Template class for chunk&#45;based data processing.">
<polygon fill="white" stroke="#666666" points="279,-74 212,-74 212,-55 279,-55 279,-74"/>
<text text-anchor="middle" x="245.5" y="-62" font-family="Helvetica,sans-Serif" font-size="10.00">chunk.hpp</text>
</a>
</g>
</g>
<!-- Node2&#45;&gt;Node3 -->
<g id="edge2_Node000002_Node000003" class="edge">
<title>Node2&#45;&gt;Node3</title>
<g id="a_edge2_Node000002_Node000003"><a xlink:title=" ">
<path fill="none" stroke="#63b8ff" d="M245.5,-109.75C245.5,-102.8 245.5,-92.85 245.5,-84.13"/>
<polygon fill="#63b8ff" stroke="#63b8ff" points="249,-84.09 245.5,-74.09 242,-84.09 249,-84.09"/>
</a>
</g>
</g>
<!-- Node4 -->
<g id="Node000004" class="node">
<title>Node4</title>
<g id="a_Node000004"><a xlink:title=" ">
<polygon fill="#e0e0e0" stroke="#999999" points="383.5,-19 327.5,-19 327.5,0 383.5,0 383.5,-19"/>
<text text-anchor="middle" x="355.5" y="-7" font-family="Helvetica,sans-Serif" font-size="10.00">numeric</text>
</a>
</g>
</g>
<!-- Node2&#45;&gt;Node4 -->
<g id="edge12_Node000002_Node000004" class="edge">
<title>Node2&#45;&gt;Node4</title>
<g id="a_edge12_Node000002_Node000004"><a xlink:title=" ">
<path fill="none" stroke="#63b8ff" d="M254.5,-109.66C273.13,-91.38 316.1,-49.18 339.54,-26.17"/>
<polygon fill="#63b8ff" stroke="#63b8ff" points="342,-28.66 346.68,-19.16 337.09,-23.67 342,-28.66"/>
</a>
</g>
</g>
<!-- Node5 -->
<g id="Node000005" class="node">
<title>Node5</title>
<g id="a_Node000005"><a xlink:title=" ">
<polygon fill="#e0e0e0" stroke="#999999" points="162,-19 97,-19 97,0 162,0 162,-19"/>
<text text-anchor="middle" x="129.5" y="-7" font-family="Helvetica,sans-Serif" font-size="10.00">stdexcept</text>
</a>
</g>
</g>
<!-- Node2&#45;&gt;Node5 -->
<g id="edge13_Node000002_Node000005" class="edge">
<title>Node2&#45;&gt;Node5</title>
<g id="a_edge13_Node000002_Node000005"><a xlink:title=" ">
<path fill="none" stroke="#63b8ff" d="M236.01,-109.66C216.37,-91.38 171.05,-49.18 146.33,-26.17"/>
<polygon fill="#63b8ff" stroke="#63b8ff" points="148.5,-23.41 138.8,-19.16 143.73,-28.53 148.5,-23.41"/>
</a>
</g>
</g>
<!-- Node2&#45;&gt;Node7 -->
<g id="edge14_Node000002_Node000007" class="edge">
<title>Node2&#45;&gt;Node7</title>
<g id="a_edge14_Node000002_Node000007"><a xlink:title=" ">
<path fill="none" stroke="#63b8ff" d="M184.96,-112.03C132.87,-105.28 62.97,-92.99 42.5,-74 30.25,-62.64 25.79,-43.74 24.21,-29.51"/>
<polygon fill="#63b8ff" stroke="#63b8ff" points="27.69,-29.05 23.48,-19.33 20.71,-29.55 27.69,-29.05"/>
</a>
</g>
</g>
<!-- Node2&#45;&gt;Node9 -->
<g id="edge8_Node000002_Node000009" class="edge">
<title>Node2&#45;&gt;Node9</title>
<g id="a_edge8_Node000002_Node000009"><a xlink:title=" ">
<path fill="none" stroke="#63b8ff" d="M265.1,-109.98C284.82,-101.42 315.45,-88.11 338.08,-78.28"/>
<polygon fill="#63b8ff" stroke="#63b8ff" points="339.76,-81.37 347.54,-74.17 336.98,-74.94 339.76,-81.37"/>
</a>
</g>
</g>
<!-- Node10 -->
<g id="Node000010" class="node">
<title>Node10</title>
<g id="a_Node000010"><a xlink:title=" ">
<polygon fill="#e0e0e0" stroke="#999999" points="99,-74 52,-74 52,-55 99,-55 99,-74"/>
<text text-anchor="middle" x="75.5" y="-62" font-family="Helvetica,sans-Serif" font-size="10.00">cmath</text>
</a>
</g>
</g>
<!-- Node2&#45;&gt;Node10 -->
<g id="edge9_Node000002_Node000010" class="edge">
<title>Node2&#45;&gt;Node10</title>
<g id="a_edge9_Node000002_Node000010"><a xlink:title=" ">
<path fill="none" stroke="#63b8ff" d="M218.19,-109.98C188.46,-100.72 140.91,-85.89 108.96,-75.93"/>
<polygon fill="#63b8ff" stroke="#63b8ff" points="109.77,-72.52 99.18,-72.88 107.69,-79.2 109.77,-72.52"/>
</a>
</g>
</g>
<!-- Node2&#45;&gt;Node11 -->
<g id="edge10_Node000002_Node000011" class="edge">
<title>Node2&#45;&gt;Node11</title>
<g id="a_edge10_Node000002_Node000011"><a xlink:title=" ">
<path fill="none" stroke="#63b8ff" d="M278.44,-109.98C313.66,-100.88 369.63,-86.41 408.11,-76.46"/>
<polygon fill="#63b8ff" stroke="#63b8ff" points="409.18,-79.8 417.98,-73.91 407.43,-73.02 409.18,-79.8"/>
</a>
</g>
</g>
<!-- Node12 -->
<g id="Node000012" class="node">
<title>Node12</title>
<g id="a_Node000012"><a xlink:title=" ">
<polygon fill="#e0e0e0" stroke="#999999" points="155.5,-74 117.5,-74 117.5,-55 155.5,-55 155.5,-74"/>
<text text-anchor="middle" x="136.5" y="-62" font-family="Helvetica,sans-Serif" font-size="10.00">map</text>
</a>
</g>
</g>
<!-- Node2&#45;&gt;Node12 -->
<g id="edge11_Node000002_Node000012" class="edge">
<title>Node2&#45;&gt;Node12</title>
<g id="a_edge11_Node000002_Node000012"><a xlink:title=" ">
<path fill="none" stroke="#63b8ff" d="M227.99,-109.98C210.53,-101.5 183.49,-88.35 163.33,-78.54"/>
<polygon fill="#63b8ff" stroke="#63b8ff" points="164.86,-75.4 154.33,-74.17 161.79,-81.69 164.86,-75.4"/>
</a>
</g>
</g>
<!-- Node3&#45;&gt;Node4 -->
<g id="edge3_Node000003_Node000004" class="edge">
<title>Node3&#45;&gt;Node4</title>
<g id="a_edge3_Node000003_Node000004"><a xlink:title=" ">
<path fill="none" stroke="#63b8ff" d="M263.17,-54.98C280.79,-46.5 308.08,-33.35 328.43,-23.54"/>
<polygon fill="#63b8ff" stroke="#63b8ff" points="330.02,-26.66 337.51,-19.17 326.98,-20.36 330.02,-26.66"/>
</a>
</g>
</g>
<!-- Node3&#45;&gt;Node5 -->
<g id="edge4_Node000003_Node000005" class="edge">
<title>Node3&#45;&gt;Node5</title>
<g id="a_edge4_Node000003_Node000005"><a xlink:title=" ">
<path fill="none" stroke="#63b8ff" d="M226.86,-54.98C208.2,-46.46 179.25,-33.23 157.76,-23.41"/>
<polygon fill="#63b8ff" stroke="#63b8ff" points="159.03,-20.14 148.48,-19.17 156.12,-26.51 159.03,-20.14"/>
</a>
</g>
</g>
<!-- Node6 -->
<g id="Node000006" class="node">
<title>Node6</title>
<g id="a_Node000006"><a xlink:title=" ">
<polygon fill="#e0e0e0" stroke="#999999" points="309.5,-19 265.5,-19 265.5,0 309.5,0 309.5,-19"/>
<text text-anchor="middle" x="287.5" y="-7" font-family="Helvetica,sans-Serif" font-size="10.00">string</text>
</a>
</g>
</g>
<!-- Node3&#45;&gt;Node6 -->
<g id="edge5_Node000003_Node000006" class="edge">
<title>Node3&#45;&gt;Node6</title>
<g id="a_edge5_Node000003_Node000006"><a xlink:title=" ">
<path fill="none" stroke="#63b8ff" d="M252.44,-54.75C258.37,-47.26 267.07,-36.28 274.32,-27.13"/>
<polygon fill="#63b8ff" stroke="#63b8ff" points="277.23,-29.1 280.69,-19.09 271.74,-24.75 277.23,-29.1"/>
</a>
</g>
</g>
<!-- Node3&#45;&gt;Node7 -->
<g id="edge6_Node000003_Node000007" class="edge">
<title>Node3&#45;&gt;Node7</title>
<g id="a_edge6_Node000003_Node000007"><a xlink:title=" ">
<path fill="none" stroke="#63b8ff" d="M211.78,-55.45C169.96,-45.47 99.09,-28.55 57.25,-18.56"/>
<polygon fill="#63b8ff" stroke="#63b8ff" points="57.81,-15.09 47.27,-16.18 56.19,-21.9 57.81,-15.09"/>
</a>
</g>
</g>
<!-- Node8 -->
<g id="Node000008" class="node">
<title>Node8</title>
<g id="a_Node000008"><a xlink:href="config_8hpp.html" target="_top" xlink:title=" ">
<polygon fill="white" stroke="#666666" points="247,-19 180,-19 180,0 247,0 247,-19"/>
<text text-anchor="middle" x="213.5" y="-7" font-family="Helvetica,sans-Serif" font-size="10.00">config.hpp</text>
</a>
</g>
</g>
<!-- Node3&#45;&gt;Node8 -->
<g id="edge7_Node000003_Node000008" class="edge">
<title>Node3&#45;&gt;Node8</title>
<g id="a_edge7_Node000003_Node000008"><a xlink:title=" ">
<path fill="none" stroke="#63b8ff" d="M240.22,-54.75C235.79,-47.42 229.34,-36.73 223.88,-27.7"/>
<polygon fill="#63b8ff" stroke="#63b8ff" points="226.85,-25.84 218.69,-19.09 220.86,-29.46 226.85,-25.84"/>
</a>
</g>
</g>
</g>
</svg>
