<?xml version="1.0" encoding="UTF-8" standalone="no"?>
<!DOCTYPE svg PUBLIC "-//W3C//DTD SVG 1.1//EN"
 "http://www.w3.org/Graphics/SVG/1.1/DTD/svg11.dtd">
<!-- Generated by graphviz version 2.43.0 (0)
 -->
<!-- Title: utils.hpp Pages: 1 -->
<svg width="300pt" height="115pt"
 viewBox="0.00 0.00 300.00 115.00" xmlns="http://www.w3.org/2000/svg" xmlns:xlink="http://www.w3.org/1999/xlink">
<g id="graph0" class="graph" transform="scale(1 1) rotate(0) translate(4 111)">
<title>utils.hpp</title>
<!-- Node1 -->
<g id="Node000001" class="node">
<title>Node1</title>
<g id="a_Node000001"><a xlink:title=" ">
<polygon fill="#999999" stroke="#666666" points="175,-107 116,-107 116,-88 175,-88 175,-107"/>
<text text-anchor="middle" x="145.5" y="-95" font-family="Helvetica,sans-Serif" font-size="10.00">utils.hpp</text>
</a>
</g>
</g>
<!-- Node2 -->
<g id="Node000002" class="node">
<title>Node2</title>
<g id="a_Node000002"><a xlink:href="main_8cpp.html" target="_top" xlink:title="Demonstrates various chunking strategies and operations.">
<polygon fill="white" stroke="#666666" points="137,-52 0,-52 0,0 137,0 137,-52"/>
<text text-anchor="start" x="8" y="-40" font-family="Helvetica,sans-Serif" font-size="10.00">/mnt/c/Users/jonat</text>
<text text-anchor="start" x="8" y="-29" font-family="Helvetica,sans-Serif" font-size="10.00">/OneDrive/Documents</text>
<text text-anchor="start" x="8" y="-18" font-family="Helvetica,sans-Serif" font-size="10.00">/Python Scripts/chunking</text>
<text text-anchor="middle" x="68.5" y="-7" font-family="Helvetica,sans-Serif" font-size="10.00">_cpp/src/main.cpp</text>
</a>
</g>
</g>
<!-- Node1&#45;&gt;Node2 -->
<g id="edge1_Node000001_Node000002" class="edge">
<title>Node1&#45;&gt;Node2</title>
<g id="a_edge1_Node000001_Node000002"><a xlink:title=" ">
<path fill="none" stroke="#63b8ff" d="M128.5,-81.15C119.04,-72.62 107.04,-61.79 96.26,-52.05"/>
<polygon fill="#63b8ff" stroke="#63b8ff" points="126.29,-83.88 136.06,-87.98 130.98,-78.68 126.29,-83.88"/>
</a>
</g>
</g>
<!-- Node3 -->
<g id="Node000003" class="node">
<title>Node3</title>
<g id="a_Node000003"><a xlink:href="utils__test_8cpp.html" target="_top" xlink:title=" ">
<polygon fill="white" stroke="#666666" points="292,-52 155,-52 155,0 292,0 292,-52"/>
<text text-anchor="start" x="163" y="-40" font-family="Helvetica,sans-Serif" font-size="10.00">/mnt/c/Users/jonat</text>
<text text-anchor="start" x="163" y="-29" font-family="Helvetica,sans-Serif" font-size="10.00">/OneDrive/Documents</text>
<text text-anchor="start" x="163" y="-18" font-family="Helvetica,sans-Serif" font-size="10.00">/Python Scripts/chunking</text>
<text text-anchor="middle" x="223.5" y="-7" font-family="Helvetica,sans-Serif" font-size="10.00">_cpp/tests/utils_test.cpp</text>
</a>
</g>
</g>
<!-- Node1&#45;&gt;Node3 -->
<g id="edge2_Node000001_Node000003" class="edge">
<title>Node1&#45;&gt;Node3</title>
<g id="a_edge2_Node000001_Node000003"><a xlink:title=" ">
<path fill="none" stroke="#63b8ff" d="M162.72,-81.15C172.3,-72.62 184.46,-61.79 195.38,-52.05"/>
<polygon fill="#63b8ff" stroke="#63b8ff" points="160.2,-78.71 155.06,-87.98 164.86,-83.94 160.2,-78.71"/>
</a>
</g>
</g>
</g>
</svg>
